<svg id="add_fav" xmlns="http://www.w3.org/2000/svg" width="14" height="14" viewBox="0 0 14 14">
  <defs>
    <style>
      .cls-1 {
        fill: #ff6863;
      }
    </style>
  </defs>
  <path id="Path_6416" data-name="Path 6416" class="cls-1" d="M6.99,1.127C7.3.924,7.6.7,7.919.519A3.878,3.878,0,0,1,9.8,0a3.611,3.611,0,0,1,1.838.5,4.452,4.452,0,0,1,2.228,3.078,7.13,7.13,0,0,1-.482,4.2,10.351,10.351,0,0,1-1.841,2.84A16.347,16.347,0,0,1,8.1,13.644a1.911,1.911,0,0,1-2.236-.011A16.112,16.112,0,0,1,1.426,9.285,7.617,7.617,0,0,1,.012,4.453,4.665,4.665,0,0,1,2.144.632,3.627,3.627,0,0,1,4.2,0,3.967,3.967,0,0,1,6.222.6c.271.163.523.359.768.529M12.71,4.7a3.682,3.682,0,0,0-1.271-2.8,3.225,3.225,0,0,0-1.027-.529,1.636,1.636,0,0,0-.643-.1A3.489,3.489,0,0,0,7.556,2.4a.648.648,0,0,1-1.074,0,3.368,3.368,0,0,0-1.445-.945,2.711,2.711,0,0,0-.929-.178,2.672,2.672,0,0,0-1.718.776A3.6,3.6,0,0,0,1.268,4.736a6.518,6.518,0,0,0,1.18,3.813A14.768,14.768,0,0,0,6.579,12.6a.66.66,0,0,0,.842,0,15.126,15.126,0,0,0,3.944-3.778,6.832,6.832,0,0,0,1.348-3.7c0-.139,0-.279,0-.419" transform="translate(0.001)"/>
</svg>
