<svg width="24" height="21" viewBox="0 0 24 21" fill="none" xmlns="http://www.w3.org/2000/svg">
    <path d="M8.12518 19.7054C8.12518 19.9614 8.04945 20.2117 7.90755 20.4246C7.76566 20.6375 7.56397 20.8034 7.32801 20.9014C7.09205 20.9994 6.8324 21.025 6.5819 20.9751C6.3314 20.9251 6.10131 20.8018 5.92071 20.6208C5.74011 20.4397 5.61712 20.2091 5.56729 19.958C5.51747 19.7068 5.54304 19.4465 5.64078 19.21C5.73852 18.9735 5.90403 18.7713 6.1164 18.629C6.32876 18.4868 6.57843 18.4109 6.83383 18.4109C7.17632 18.4109 7.50478 18.5472 7.74696 18.79C7.98913 19.0328 8.12518 19.3621 8.12518 19.7054Z" fill="#FC6A57"/>
    <path d="M19.6103 19.7054C19.6103 19.9614 19.5346 20.2117 19.3927 20.4246C19.2508 20.6375 19.0491 20.8034 18.8131 20.9014C18.5772 20.9994 18.3175 21.025 18.067 20.9751C17.8165 20.9251 17.5864 20.8018 17.4058 20.6208C17.2252 20.4397 17.1022 20.2091 17.0524 19.958C17.0026 19.7068 17.0281 19.4465 17.1259 19.21C17.2236 18.9735 17.3891 18.7713 17.6015 18.629C17.8139 18.4868 18.0635 18.4109 18.3189 18.4109C18.6614 18.4109 18.9899 18.5472 19.2321 18.79C19.4742 19.0328 19.6103 19.3621 19.6103 19.7054Z" fill="#FC6A57"/>
    <path d="M22.5855 4.53527C22.5678 4.4759 22.5324 4.42335 22.4842 4.38459C22.4359 4.34583 22.377 4.3227 22.3154 4.31825L5.40327 2.69048C5.3242 2.68245 5.24801 2.6564 5.18053 2.61431C5.11306 2.57222 5.05608 2.51521 5.01397 2.44764C4.83861 2.10492 4.62623 1.78255 4.38063 1.48633C3.98095 1.00066 3.22775 1.01608 1.84659 1.00568C1.74236 0.992804 1.6366 1.00188 1.53607 1.03232C1.43554 1.06277 1.34246 1.11391 1.26278 1.18248C1.18309 1.25105 1.11856 1.33554 1.07331 1.43054C1.02807 1.52554 1.0031 1.62896 1 1.73419C1.00137 1.83671 1.02392 1.93783 1.06622 2.03117C1.10851 2.12452 1.16965 2.20806 1.24576 2.27654C1.32187 2.34502 1.41131 2.39695 1.50844 2.42906C1.60557 2.46116 1.70828 2.47274 1.81009 2.46307C2.26222 2.45171 2.71438 2.48462 3.16013 2.56135C3.40416 2.63309 3.60167 3.0316 3.67431 3.37775C3.674 3.38056 3.67433 3.3834 3.67525 3.38607C3.67618 3.38874 3.67769 3.39116 3.67967 3.39317C3.69005 3.45523 3.78344 3.92046 3.78344 3.92548L5.85877 14.8604C5.95012 15.529 6.2086 16.1636 6.61018 16.7052C6.808 16.9717 7.06658 17.187 7.3643 17.3329C7.66203 17.4789 7.99026 17.5513 8.3216 17.5442H20.6072C20.7968 17.5476 20.9805 17.4774 21.1198 17.3484C21.2592 17.2193 21.3434 17.0413 21.355 16.8515C21.3592 16.7535 21.3434 16.6557 21.3087 16.5641C21.2739 16.4724 21.2209 16.3888 21.1529 16.3183C21.0849 16.2478 21.0033 16.192 20.913 16.1541C20.8227 16.1163 20.7257 16.0973 20.6279 16.0983H8.31123C8.15502 16.1076 8.00124 16.0562 7.88185 15.9548C7.70008 15.7998 7.45247 15.4433 7.28466 14.6111L7.05959 13.3833C7.05876 13.3765 7.0604 13.3696 7.06421 13.364C7.06802 13.3583 7.07376 13.3542 7.08035 13.3524L21.5003 10.9237C21.5664 10.9135 21.6272 10.8815 21.6733 10.8329C21.7193 10.7843 21.7479 10.7217 21.7547 10.655L22.5855 4.67085C22.5961 4.62628 22.5961 4.57984 22.5855 4.53527V4.53527Z" stroke="#FC6A57" stroke-width="1.5"/>
</svg>
