<svg xmlns="http://www.w3.org/2000/svg" xmlns:xlink="http://www.w3.org/1999/xlink" width="13.673" height="13.087" viewBox="0 0 13.673 13.087">
  <defs>
    <linearGradient id="linear-gradient" x2="1" y2="1" gradientUnits="objectBoundingBox">
      <stop offset="0" stop-color="#ffbd69"/>
      <stop offset="1" stop-color="#ff6363"/>
    </linearGradient>
  </defs>
  <g id="b_star" transform="translate(-10008.019 -3753.457)">
    <rect id="Rectangle_2806" data-name="Rectangle 2806" width="9.024" height="13.087" transform="translate(10012.667 3753.457)" fill="none"/>
    <path id="Subtraction_10" data-name="Subtraction 10" d="M-31.883,13.087h0a.834.834,0,0,1-.629-.3.8.8,0,0,1-.177-.662l.639-3.718-2.7-2.632a.813.813,0,0,1-.207-.839.812.812,0,0,1,.659-.557l3.734-.544L-28.9.455A.8.8,0,0,1-28.166,0a.815.815,0,0,1,.735.455l1.669,3.384,1.014.148v9.04l-.005,0-.07-.034-3.341-1.756-3.34,1.756A.8.8,0,0,1-31.883,13.087Z" transform="translate(10043.019 3753.457)" fill="url(#linear-gradient)"/>
  </g>
</svg>
