<svg xmlns="http://www.w3.org/2000/svg" width="36" height="36" viewBox="0 0 36 36">
  <g id="bag" transform="translate(-4.001 0)">
    <path id="Subtraction_4" data-name="Subtraction 4" d="M6553,5884a18,18,0,1,1,12.728-5.272A17.88,17.88,0,0,1,6553,5884Zm-4.268-24.133a1.093,1.093,0,0,0-1.065,1.115l-1.042,9.8a1.262,1.262,0,0,0-.025.237,1.093,1.093,0,0,0,1.067,1.115h10.667a1.092,1.092,0,0,0,1.065-1.115,1.128,1.128,0,0,0-.025-.237l-1.041-9.8a1.093,1.093,0,0,0-1.067-1.115h-8.534ZM6553,5866a2.733,2.733,0,0,1-2.667-2.789v-.609a.836.836,0,0,1-.534-.785.8.8,0,1,1,1.6,0v1.394a1.6,1.6,0,1,0,3.2,0v-1.394a.8.8,0,1,1,1.6,0,.834.834,0,0,1-.533.785v.609A2.733,2.733,0,0,1,6553,5866Z" transform="translate(-6531 -5848)" fill="#fc6a57"/>
  </g>
</svg>
