<svg width="218" height="211" viewBox="0 0 218 211" fill="none" xmlns="http://www.w3.org/2000/svg">
<path d="M89.3682 66.1508L87.5151 66.0695C87.6255 63.5417 88.7354 41.2555 93.6135 37.1901C93.9233 36.9133 94.2886 36.7059 94.6849 36.5817C95.0813 36.4576 95.4996 36.4196 95.9118 36.4703C98.816 36.8748 101.987 41.4828 105.607 50.5579C108.184 57.0192 110.042 63.4617 110.06 63.5261L108.278 64.0385C108.26 63.9749 106.424 57.6103 103.88 51.2342C99.3876 39.9764 96.6324 38.4448 95.6564 38.309C95.4997 38.292 95.3413 38.3108 95.193 38.3641C95.0447 38.4174 94.9105 38.5037 94.8004 38.6165C91.201 41.616 89.6588 59.5091 89.3682 66.1508Z" fill="black"/>
<path d="M72.9962 54.1257L71.1411 100.676L132.349 94.0784L124.783 49.1354L72.9962 54.1257Z" fill="#FFBA49"/>
<path d="M124.783 49.1354L120.28 49.5691L126.272 88.9796L71.3555 95.3028L71.1411 100.676L132.349 94.0784L124.783 49.1354Z" fill="#FFA113"/>
<path d="M157.849 129.18L155.304 128.898C155.326 128.697 157.44 108.784 150.585 101.337C149.779 100.431 148.779 99.7197 147.659 99.2557C146.54 98.7916 145.33 98.5872 144.12 98.6577C129.189 99.0825 122.168 124.725 122.099 124.984L119.625 124.322C121.004 119.533 122.919 114.916 125.335 110.558C130.537 101.297 137.008 96.2959 144.047 96.0958C145.624 96.015 147.198 96.2879 148.655 96.8946C150.113 97.5012 151.416 98.4264 152.47 99.6022C160.113 107.908 157.945 128.316 157.849 129.18Z" fill="#FFBA49"/>
<path d="M112.428 110.918L166.458 117.33L165.62 203.064L93.4966 194.468L112.428 110.918Z" fill="#DB3022"/>
<path d="M166.458 117.33L161.107 116.694L158.501 196.022L94.5124 189.985L93.4966 194.468L165.62 203.064L166.458 117.33Z" fill="#D10505"/>
<path d="M179.999 144.577C182.46 145.092 184.804 143.124 185.235 140.176C185.694 140.96 186.153 141.745 186.612 142.531C186.182 145.478 183.836 147.447 181.378 146.931C180.919 146.145 180.459 145.361 179.999 144.577Z" fill="#FFBA49"/>
<path d="M107.332 207.63C109.793 208.146 112.137 206.177 112.568 203.23C113.027 204.014 113.486 204.798 113.945 205.584C113.515 208.531 111.169 210.501 108.711 209.985C108.252 209.199 107.792 208.414 107.332 207.63Z" fill="#9B9B9B"/>
<path d="M185.494 95.236C186.526 97.9598 189.205 99.1703 191.481 97.9342C191.199 98.8317 190.917 99.7291 190.634 100.626C188.358 101.86 185.679 100.651 184.648 97.9263C184.932 97.0305 185.214 96.1337 185.494 95.236Z" fill="#FF5C00"/>
<path d="M169.571 75.8868C169.987 72.9358 168.327 70.1416 165.864 69.6445C166.515 69.0884 167.167 68.5325 167.82 67.9767C170.282 68.4738 171.942 71.2692 171.528 74.219C170.876 74.7752 170.224 75.3312 169.571 75.8868Z" fill="#021193"/>
<path d="M21.7077 63.9773C22.123 61.0263 20.4636 58.2319 18 57.7348C18.6515 57.1787 19.3035 56.6228 19.9563 56.0671C22.418 56.5641 24.0783 59.3595 23.664 62.3095C23.0125 62.8655 22.3604 63.4215 21.7077 63.9773Z" fill="#FF5C00"/>
<path d="M72.0943 168.542C72.5097 165.59 70.8503 162.796 68.3867 162.299C69.0382 161.743 69.6902 161.187 70.3429 160.631C72.8046 161.128 74.4649 163.924 74.0506 166.874C73.3992 167.43 72.7471 167.986 72.0943 168.542Z" fill="#FF5C00"/>
<path d="M201.332 57.9562C203.777 58.5731 206.174 56.6998 206.689 53.7703C207.126 54.5729 207.563 55.3761 208 56.18C207.486 59.1065 205.087 60.9811 202.644 60.3659C202.206 59.5633 201.769 58.7601 201.332 57.9562Z" fill="#FFBA49"/>
<path d="M5.82079 94.2083C4.94465 91.4055 2.33935 89.9842 0 91.0351C0.330918 90.1637 0.662322 89.2912 0.994215 88.4175C3.33162 87.3678 5.93838 88.7879 6.815 91.5896C6.4841 92.4621 6.15269 93.335 5.82079 94.2083Z" fill="#FFBA49"/>
<path d="M66.5339 128.347C66.7066 131.331 68.8667 133.583 71.3577 133.375C70.8324 134.1 70.3061 134.821 69.7818 135.546C67.2898 135.752 65.1306 133.499 64.958 130.514C65.4833 129.793 66.0086 129.07 66.5339 128.347Z" fill="#DB3022"/>
<path d="M48.9287 74.1203C51.4027 73.7091 53.1295 70.9721 52.7852 68.0081C53.4244 68.5868 54.0625 69.1649 54.6998 69.7423C55.043 72.7075 53.3173 75.4427 50.8432 75.8557C50.206 75.2768 49.5678 74.6983 48.9287 74.1203Z" fill="#021193"/>
<path d="M149.812 37.7727C146.604 37.879 148.91 43.5317 145.701 43.6402C145.088 43.0239 144.476 42.4075 143.862 41.7912C147.071 41.6844 144.765 36.0316 147.973 35.9232C148.586 36.5396 149.199 37.1561 149.812 37.7727Z" fill="#FF5C00"/>
<path d="M155.641 186.345C152.519 185.459 153.531 191.632 150.407 190.747C149.947 189.962 149.488 189.177 149.028 188.392C152.152 189.278 151.139 183.105 154.264 183.991C154.722 184.776 155.182 185.561 155.641 186.345Z" fill="#FFBA49"/>
<path d="M62.7806 194.382C60.5751 197.177 65.542 199.224 63.3363 202.016C62.5398 202.098 61.7423 202.183 60.9458 202.264C63.1514 199.471 58.1845 197.426 60.3901 194.632C61.1876 194.55 61.9844 194.467 62.7806 194.382Z" fill="#021193"/>
<path d="M134.225 1.42183C131.085 2.22105 134.201 7.28592 131.063 8.08341C130.369 7.60852 129.671 7.13537 128.977 6.65932C132.116 5.86229 128.997 0.799255 132.138 0C132.834 0.476037 133.53 0.949981 134.225 1.42183Z" fill="#DB3022"/>
<path d="M33.4438 18.0709C34.9884 21.4428 38.137 16.4065 39.6794 19.7774C39.5002 20.7106 39.3233 21.6474 39.1432 22.5812C37.6008 19.2093 34.4541 24.2473 32.9094 20.8753C33.0891 19.9392 33.2672 19.0044 33.4438 18.0709Z" fill="#9B9B9B"/>
<path d="M6.81494 150.65C7.22927 150.575 7.60411 150.357 7.87404 150.034C8.14398 149.71 8.29185 149.302 8.29185 148.881C8.29185 148.459 8.14398 148.051 7.87404 147.728C7.60411 147.404 7.22927 147.186 6.81494 147.111" fill="black"/>
<path d="M174.448 13.9329C173.098 13.9329 172 12.6172 172 11C172 9.38272 173.098 8.06714 174.448 8.06714C175.798 8.06714 176.896 9.38275 176.896 11C176.896 12.6173 175.798 13.9329 174.448 13.9329ZM174.448 9.23052C174.019 9.27292 173.624 9.4821 173.348 9.81303C173.072 10.144 172.936 10.5702 172.971 11C172.932 11.2164 172.941 11.4387 172.997 11.6514C173.053 11.864 173.155 12.0616 173.296 12.2304C173.437 12.3992 173.613 12.5349 173.812 12.6281C174.011 12.7213 174.228 12.7695 174.448 12.7695C174.668 12.7695 174.885 12.7213 175.084 12.6281C175.283 12.5349 175.459 12.3992 175.6 12.2304C175.741 12.0616 175.843 11.864 175.899 11.6514C175.955 11.4387 175.964 11.2164 175.925 11C175.959 10.5702 175.824 10.144 175.548 9.81305C175.272 9.48212 174.877 9.27294 174.448 9.23052Z" fill="black"/>
<path d="M31.9474 125.05C30.5976 125.05 29.4995 123.735 29.4995 122.117C29.4995 120.5 30.5976 119.185 31.9474 119.185C33.2972 119.185 34.3953 120.5 34.3953 122.117C34.3953 123.735 33.2972 125.05 31.9474 125.05ZM31.9474 120.348C31.5331 120.423 31.1582 120.641 30.8883 120.965C30.6184 121.288 30.4705 121.696 30.4705 122.117C30.4705 122.539 30.6184 122.947 30.8883 123.27C31.1582 123.594 31.5331 123.812 31.9474 123.887C32.3617 123.812 32.7366 123.594 33.0065 123.27C33.2764 122.947 33.4243 122.539 33.4243 122.117C33.4243 121.696 33.2764 121.288 33.0065 120.965C32.7366 120.641 32.3617 120.423 31.9474 120.348Z" fill="black"/>
<path d="M216.821 154.204C215.945 151.401 213.339 149.98 211 151.031C211.331 150.159 211.662 149.287 211.994 148.413C214.332 147.363 216.938 148.783 217.815 151.585C217.484 152.458 217.153 153.331 216.821 154.204Z" fill="black"/>
</svg>
