<svg xmlns="http://www.w3.org/2000/svg" width="21.177" height="18" viewBox="0 0 21.177 18">
  <g id="brands" transform="translate(0.001)">
    <path id="Path_6385" data-name="Path 6385" d="M2.613,18a1.208,1.208,0,0,1-1.188-.989l0-.032L.038,6.648A1.61,1.61,0,0,1,.674,4.983,1.609,1.609,0,0,1,2.484,4.9l.044.029,2.61,1.891L8.9.95A2.049,2.049,0,0,1,10.64,0h.017a2.049,2.049,0,0,1,1.735.977L16.055,6.9l2.629-1.87.023-.013a1.634,1.634,0,0,1,2.43,1.756L19.752,16.989v.016a1.21,1.21,0,0,1-1.188.986H10.626L2.617,18ZM19.113,16.887ZM1.638,5.948a.36.36,0,0,0-.209.071.341.341,0,0,0-.135.367l.007.032,1.377,10.3,7.947-.009H18.5l1.375-10.17.007-.032a.353.353,0,0,0-.5-.4l-2.7,1.919-.022.013a1.216,1.216,0,0,1-1.642-.4L11.3,1.652a.764.764,0,0,0-.656-.37h0a.765.765,0,0,0-.656.359L6.174,7.585a1.2,1.2,0,0,1-1.644.382l-.044-.029L1.8,5.993a.342.342,0,0,0-.165-.045Z" transform="translate(0.001)" fill="#ccc"/>
    <path id="Path_6386" data-name="Path 6386" d="M13.466,14.628H7.786a.641.641,0,0,1,0-1.282h5.68a.641.641,0,1,1,0,1.282Z" transform="translate(0.001)" fill="#ccc"/>
  </g>
</svg>
