<svg xmlns="http://www.w3.org/2000/svg" xmlns:xlink="http://www.w3.org/1999/xlink" width="13.673" height="13.087" viewBox="0 0 13.673 13.087">
  <defs>
    <linearGradient id="linear-gradient" x2="1" y2="1" gradientUnits="objectBoundingBox">
      <stop offset="0" stop-color="#ffbd69"/>
      <stop offset="1" stop-color="#ff6363"/>
    </linearGradient>
  </defs>
  <g id="c_star" transform="translate(-10008.019 -3753.457)">
    <rect id="Rectangle_2806" data-name="Rectangle 2806" width="9.024" height="13.087" transform="translate(10012.667 3753.457)" fill="none"/>
    <path id="Subtraction_9" data-name="Subtraction 9" d="M-16.883,13.087h0a.834.834,0,0,1-.629-.3.8.8,0,0,1-.177-.662l.639-3.718-2.7-2.633a.813.813,0,0,1-.207-.839.812.812,0,0,1,.659-.557l3.734-.544L-13.9.455A.8.8,0,0,1-13.165,0l0,11.235L-16.5,12.991A.8.8,0,0,1-16.883,13.087Z" transform="translate(10028.019 3753.457)" fill="url(#linear-gradient)"/>
  </g>
</svg>
