<svg xmlns="http://www.w3.org/2000/svg" width="51.229" height="50" viewBox="0 0 51.229 50">
  <g id="cancelable" transform="translate(659.856 -1633.643)">
    <g id="Group_5478" data-name="Group 5478" transform="translate(-659.856 1633.643)">
      <path id="Path_6407" data-name="Path 6407" d="M-616.7,1635.89a2.093,2.093,0,0,0-2.273-2.246h-38.571a2.117,2.117,0,0,0-2.294,2.29c0,.447,0,.9,0,1.346.007.755.013,1.535-.016,2.3a2.336,2.336,0,0,0,1.772,2.7l.209.063v7.973q0,9.51,0,19.019a3.068,3.068,0,0,0,2.481,3.255,6.353,6.353,0,0,0,1.612.2c2.959.009,5.9.01,8.14.01h6.812a1.6,1.6,0,0,0,1.129-.318.778.778,0,0,0,.2-.587c-.006-.4-.162-.863-1.317-.863h-14.772c-.233,0-.5,0-.758-.022-1.293-.112-1.752-.609-1.752-1.9v-26.771h12.09v4.256q0,5.241,0,10.484a.907.907,0,0,0,.54.973.922.922,0,0,0,.352.078,1.043,1.043,0,0,0,.722-.367q1.409-1.386,2.828-2.763l.649-.63c.1-.1.2-.189.305-.286l.149-.136.2-.187.355.33c.1.094.192.178.282.265l1.552,1.514,2,1.954a.924.924,0,0,0,.647.308.912.912,0,0,0,.344-.074.846.846,0,0,0,.557-.9c0-.113,0-.227,0-.339l0-.165v-14.334h12.081v2.986q0,4.1,0,8.2a2.906,2.906,0,0,0,.06.693.8.8,0,0,0,.829.625h.021a.817.817,0,0,0,.818-.667,3.265,3.265,0,0,0,.049-.652q0-5.241,0-10.484v-.049a.747.747,0,0,1,.509-.83,2.048,2.048,0,0,0,1.452-2.133q0-.542,0-1.087C-616.694,1637.939-616.691,1636.906-616.7,1635.89Zm-27.348,4.591h-13.971v-5.05h13.971Zm9.738,14.481-.475-.364-.111-.083a2.152,2.152,0,0,1-.248-.2q-.458-.445-.913-.892c-.475-.467-.967-.949-1.455-1.417a1.163,1.163,0,0,0-.762-.4,1.088,1.088,0,0,0-.746.408c-.587.606-1.166,1.243-1.727,1.858q-.369.407-.74.809l-.183.2-.529-.4v-19.067h7.888Zm15.808-14.487h-13.98v-5.05h13.98Z" transform="translate(659.856 -1633.643)"/>
      <path id="Path_6408" data-name="Path 6408" d="M-475,1797.173h-.053a12.948,12.948,0,0,0-12.9,12.917,12.949,12.949,0,0,0,12.883,12.973h.044a12.97,12.97,0,0,0,12.957-12.927A12.985,12.985,0,0,0-475,1797.173Zm-.027,24.14h-.038a11.2,11.2,0,0,1-11.14-11.214,11.187,11.187,0,0,1,11.176-11.142h.019a11.184,11.184,0,0,1,11.155,11.17A11.2,11.2,0,0,1-475.027,1821.313Z" transform="translate(513.3 -1773.063)"/>
    </g>
    <g id="Group_5479" data-name="Group 5479" transform="translate(-627.564 1666.61)">
      <path id="Path_6409" data-name="Path 6409" d="M-428.818,1858.758l-7.067,7.04a.862.862,0,0,1-.481.245.315.315,0,0,1-.065.009.6.6,0,0,1-.1.007.887.887,0,0,1-.627-.26l-3.413-3.415a.882.882,0,0,1,0-1.25.883.883,0,0,1,1.25,0l2.8,2.8,6.455-6.431a.883.883,0,0,1,1.25,0A.885.885,0,0,1-428.818,1858.758Z" transform="translate(440.833 -1857.246)"/>
    </g>
  </g>
</svg>
