<svg width="22" height="20" viewBox="0 0 22 20" fill="none" xmlns="http://www.w3.org/2000/svg">
<path d="M7.12518 18.7054C7.12518 18.9615 7.04945 19.2118 6.90755 19.4246C6.76566 19.6375 6.56397 19.8034 6.32801 19.9014C6.09205 19.9994 5.8324 20.025 5.5819 19.9751C5.3314 19.9251 5.10131 19.8019 4.92071 19.6208C4.74011 19.4398 4.61712 19.2091 4.56729 18.958C4.51747 18.7069 4.54304 18.4466 4.64078 18.21C4.73852 17.9735 4.90403 17.7713 5.1164 17.6291C5.32876 17.4868 5.57843 17.4109 5.83383 17.4109C6.17632 17.4109 6.50478 17.5473 6.74696 17.7901C6.98913 18.0328 7.12518 18.3621 7.12518 18.7054Z" fill="#FC6A57"/>
<path d="M18.6103 18.7054C18.6103 18.9615 18.5346 19.2118 18.3927 19.4246C18.2508 19.6375 18.0491 19.8034 17.8131 19.9014C17.5772 19.9994 17.3175 20.025 17.067 19.9751C16.8165 19.9251 16.5864 19.8019 16.4058 19.6208C16.2252 19.4398 16.1022 19.2091 16.0524 18.958C16.0026 18.7069 16.0281 18.4466 16.1259 18.21C16.2236 17.9735 16.3891 17.7713 16.6015 17.6291C16.8139 17.4868 17.0635 17.4109 17.3189 17.4109C17.6614 17.4109 17.9899 17.5473 18.2321 17.7901C18.4742 18.0328 18.6103 18.3621 18.6103 18.7054Z" fill="#FC6A57"/>
<path d="M21.5855 3.53527C21.5678 3.4759 21.5324 3.42335 21.4842 3.38459C21.4359 3.34583 21.377 3.3227 21.3154 3.31825L4.40327 1.69048C4.3242 1.68245 4.24801 1.6564 4.18053 1.61431C4.11306 1.57222 4.05608 1.51521 4.01397 1.44764C3.83861 1.10492 3.62623 0.782551 3.38063 0.486334C2.98095 0.000656625 2.22775 0.0160806 0.84659 0.00567831C0.742362 -0.0071961 0.636602 0.00187897 0.536073 0.0323232C0.435545 0.0627674 0.342461 0.113911 0.262777 0.182481C0.183093 0.251051 0.118563 0.335539 0.073315 0.43054C0.0280665 0.525542 0.00309569 0.628965 0 0.734194C0.00137281 0.836709 0.023919 0.937827 0.0662169 1.03117C0.108515 1.12452 0.169647 1.20806 0.245758 1.27654C0.32187 1.34502 0.41131 1.39695 0.508438 1.42906C0.605567 1.46116 0.708277 1.47274 0.810092 1.46307C1.26222 1.45171 1.71438 1.48462 2.16013 1.56135C2.40416 1.63309 2.60167 2.0316 2.67431 2.37775C2.674 2.38056 2.67433 2.3834 2.67525 2.38607C2.67618 2.38874 2.67769 2.39116 2.67967 2.39317C2.69005 2.45523 2.78344 2.92046 2.78344 2.92548L4.85877 13.8604C4.95012 14.529 5.2086 15.1636 5.61018 15.7052C5.808 15.9717 6.06658 16.187 6.3643 16.3329C6.66203 16.4789 6.99026 16.5513 7.3216 16.5442H19.6072C19.7968 16.5476 19.9805 16.4774 20.1198 16.3484C20.2592 16.2193 20.3434 16.0413 20.355 15.8515C20.3592 15.7535 20.3434 15.6557 20.3087 15.5641C20.2739 15.4724 20.2209 15.3888 20.1529 15.3183C20.0849 15.2478 20.0033 15.192 19.913 15.1541C19.8227 15.1163 19.7257 15.0973 19.6279 15.0983H7.31123C7.15502 15.1076 7.00124 15.0562 6.88185 14.9548C6.70008 14.7998 6.45247 14.4433 6.28466 13.6111L6.05959 12.3833C6.05876 12.3765 6.0604 12.3696 6.06421 12.364C6.06803 12.3583 6.07376 12.3542 6.08035 12.3524L20.5003 9.92368C20.5664 9.91346 20.6272 9.88153 20.6733 9.83291C20.7193 9.78428 20.7479 9.72171 20.7547 9.65501L21.5855 3.67085C21.5961 3.62628 21.5961 3.57984 21.5855 3.53527Z" fill="#FC6A57"/>
</svg>
