<svg width="20" height="20" viewBox="0 0 20 20" fill="none" xmlns="http://www.w3.org/2000/svg">
<path d="M1.11111 8.88889H7.77778C8.07246 8.88889 8.35508 8.77183 8.56345 8.56345C8.77183 8.35508 8.88889 8.07246 8.88889 7.77778V1.11111C8.88889 0.816426 8.77183 0.533811 8.56345 0.325437C8.35508 0.117063 8.07246 0 7.77778 0H1.11111C0.816426 0 0.533811 0.117063 0.325437 0.325437C0.117063 0.533811 0 0.816426 0 1.11111V7.77778C0 8.07246 0.117063 8.35508 0.325437 8.56345C0.533811 8.77183 0.816426 8.88889 1.11111 8.88889ZM12.2222 8.88889H18.8889C19.1836 8.88889 19.4662 8.77183 19.6746 8.56345C19.8829 8.35508 20 8.07246 20 7.77778V1.11111C20 0.816426 19.8829 0.533811 19.6746 0.325437C19.4662 0.117063 19.1836 0 18.8889 0H12.2222C11.9275 0 11.6449 0.117063 11.4365 0.325437C11.2282 0.533811 11.1111 0.816426 11.1111 1.11111V7.77778C11.1111 8.07246 11.2282 8.35508 11.4365 8.56345C11.6449 8.77183 11.9275 8.88889 12.2222 8.88889ZM1.11111 20H7.77778C8.07246 20 8.35508 19.8829 8.56345 19.6746C8.77183 19.4662 8.88889 19.1836 8.88889 18.8889V12.2222C8.88889 11.9275 8.77183 11.6449 8.56345 11.4365C8.35508 11.2282 8.07246 11.1111 7.77778 11.1111H1.11111C0.816426 11.1111 0.533811 11.2282 0.325437 11.4365C0.117063 11.6449 0 11.9275 0 12.2222V18.8889C0 19.1836 0.117063 19.4662 0.325437 19.6746C0.533811 19.8829 0.816426 20 1.11111 20ZM15.5556 20C18.0067 20 20 18.0067 20 15.5556C20 13.1044 18.0067 11.1111 15.5556 11.1111C13.1044 11.1111 11.1111 13.1044 11.1111 15.5556C11.1111 18.0067 13.1044 20 15.5556 20Z" fill="#FC6A57"/>
</svg>
