<svg xmlns="http://www.w3.org/2000/svg" width="52.143" height="50" viewBox="0 0 52.143 50">
  <g id="cod" transform="translate(690.383 -151.475)">
    <path id="Path_6398" data-name="Path 6398" d="M-556.109,162.424a2.458,2.458,0,0,1-2.8,1.739,7.853,7.853,0,0,0-.967,0,2.292,2.292,0,0,1-2.255-1.179c-.179-.308-1.112-.324-1.355-.037a4.319,4.319,0,0,0-.266.372,7.332,7.332,0,0,1-5.388,3.178l-1.1.146v.563q0,2.851,0,5.7c0,.835-.253,1.085-1.1,1.085q-11.452,0-22.9,0c-.808,0-1.07-.264-1.071-1.063q0-6.16,0-12.32c0-.8.254-1.057,1.069-1.058,2.223,0,4.445-.009,6.668.006a1.016,1.016,0,0,0,.836-.357c1.274-1.387,2.579-2.745,3.849-4.136a6.59,6.59,0,0,1,5.145-2.232c5,.023,10.01.005,15.015.013a.725.725,0,0,0,.74-.371,1.966,1.966,0,0,1,1.693-.968c.491-.017.986.02,1.475-.017a2.394,2.394,0,0,1,2.724,1.771Zm-6.322-7.937c-.129-.009-.212-.019-.295-.019q-7.687,0-15.374,0A4.564,4.564,0,0,0-581.531,156q-1.516,1.614-3.025,3.235a2.623,2.623,0,0,0-.21.315c2.531,0,4.99,0,7.449,0,.508,0,1.1-.158,1.386.47s-.2,1.024-.542,1.422c-.818.953-1.677,1.869-2.5,2.82a4.98,4.98,0,0,0-.7,1.055c-.239.491-.05.766.485.847a2.773,2.773,0,0,0,2.554-.963c1.563-1.675,3.129-3.346,4.656-5.053a1.375,1.375,0,0,1,1.507-.523,7.022,7.022,0,0,0,1.812.191,3.905,3.905,0,0,0,2.635-1.382.789.789,0,0,1,1.176-.053.79.79,0,0,1-.017,1.18,5.4,5.4,0,0,1-3.611,1.878c-.57.037-1.143.006-1.734.006v3.5a5.992,5.992,0,0,0,5.012-2.413,6.292,6.292,0,0,0,.515-.757,1.16,1.16,0,0,1,1.217-.645c.333.024.669,0,1.033,0Zm-9.477,8.061c-.208.239-.331.393-.467.534-1.175,1.222-2.33,2.465-3.54,3.652a3.6,3.6,0,0,1-2.72,1.068.72.72,0,0,0-.821.513,3.653,3.653,0,0,1-4.269,2.02,3.7,3.7,0,0,1-2.731-3.914,3.691,3.691,0,0,1,3.2-3.313,3.887,3.887,0,0,1,2.585.611l2.177-2.478a.827.827,0,0,0-.184-.059c-3.545,0-7.09-.008-10.635.007a.5.5,0,0,0-.366.291,4.958,4.958,0,0,1-3.73,3.715c-.112.03-.273.179-.275.275-.021.928-.013,1.857-.013,2.767,2.406.746,2.888,1.228,4.131,4.091H-576.2a5.087,5.087,0,0,1,4.288-4.106Zm11.137-4.706q0,1.958,0,3.915c0,.422.128.752.612.765.61.017,1.22.015,1.83,0a.56.56,0,0,0,.589-.625q.006-4.068,0-8.136a.571.571,0,0,0-.627-.637c-.458-.007-.915,0-1.373,0-.926,0-1.031.1-1.031,1.009Q-560.772,155.987-560.771,157.843Zm-24.067,8.695a2.127,2.127,0,0,0,1.68,2.255,2.029,2.029,0,0,0,2.236-1.187.926.926,0,0,0-.01-.546c-.13-.5-.278-.989-.445-1.474a1.094,1.094,0,0,0-.322-.556,1.912,1.912,0,0,0-2.066-.068A1.9,1.9,0,0,0-584.838,166.537Zm10.408,5.789h2.515v-2.383A3.029,3.029,0,0,0-574.43,172.326Zm-19.245-.017h2.349a3.048,3.048,0,0,0-2.349-2.3Zm-.017-11.1c0,.7,0,1.363,0,2.021,0,.1.017.195.026.293a2.976,2.976,0,0,0,2.308-2.315Z" transform="translate(-82.132 0)"/>
    <path id="Path_6399" data-name="Path 6399" d="M-662.3,338.558c.748-.7,1.378-1.343,2.06-1.923a5.844,5.844,0,0,1,3.007-1.5,3.058,3.058,0,0,1,3.269,1.638,3.323,3.323,0,0,1-.454,3.831q-4.29,4.6-8.59,9.185c-.394.421-.794.838-1.18,1.267a6.333,6.333,0,0,1-4.966,2.159c-3.326-.018-6.652,0-9.978,0-1.612,0-3.224,0-4.837,0a.612.612,0,0,0-.617.322,2.006,2.006,0,0,1-1.779,1c-.645.01-1.29.022-1.934,0a2.107,2.107,0,0,1-2.067-2.1q-.027-4.048,0-8.1a2.13,2.13,0,0,1,2.108-2.123c.626-.035,1.256-.027,1.883,0a2.218,2.218,0,0,1,1.831,1.034.864.864,0,0,0,.517.277,1.439,1.439,0,0,0,1.645-.686,1.54,1.54,0,0,0,.269-.716c.019-2.648.007-5.3.018-7.944a.645.645,0,0,0-.347-.653,1.4,1.4,0,0,1-.661-1.25c-.015-.7-.027-1.393,0-2.087a1.523,1.523,0,0,1,1.617-1.54q9.291-.009,18.582,0a1.515,1.515,0,0,1,1.6,1.555c.025.678.011,1.358,0,2.037a1.574,1.574,0,0,1-.747,1.368.526.526,0,0,0-.242.335C-662.309,335.44-662.3,336.946-662.3,338.558Zm-21.915,12.985c.17.013.318.033.465.034,4.868,0,9.737-.008,14.606.007a4.894,4.894,0,0,0,3.783-1.656c3.208-3.457,6.441-6.891,9.662-10.336a1.715,1.715,0,0,0,.191-2.229,1.517,1.517,0,0,0-1.942-.507,4.505,4.505,0,0,0-1.125.575,14.007,14.007,0,0,0-1.548,1.314c-1.615,1.6-3.208,3.222-4.806,4.839a4.89,4.89,0,0,1-3.146,1.724c-2.605.129-5.218.109-7.827.149a.254.254,0,0,1-.05-.007.75.75,0,0,1-.664-.726.738.738,0,0,1,.594-.83,2.435,2.435,0,0,1,.6-.052c1.832,0,3.664.008,5.5-.011a1.437,1.437,0,0,0,1.43-1.266,1.443,1.443,0,0,0-1.1-1.563,3.959,3.959,0,0,0-.756-.048c-1.588-.088-3.183-.105-4.761-.286a4.644,4.644,0,0,0-4.031,1.209c-.946.924-1.861,1.881-2.771,2.84a1.242,1.242,0,0,1-1.027.443c-.417-.022-.837,0-1.28,0Zm17.294-8.391c.236-.195.4-.31.542-.45.724-.716,1.456-1.425,2.153-2.167a1.145,1.145,0,0,0,.283-.706c.023-1.833.013-3.666.013-5.5v-.488h-5.636v5.448A3.227,3.227,0,0,1-666.924,343.152Zm-7.913-9.3h-5.612v7a6.12,6.12,0,0,1,5.612-1.76Zm-11.039,14.539c0-1.289-.006-2.577,0-3.866,0-.468-.213-.694-.67-.7-.525,0-1.051-.01-1.576,0a.572.572,0,0,0-.629.636q0,3.917,0,7.833a.537.537,0,0,0,.594.6c.509.005,1.017.007,1.526,0,.621-.006.747-.13.75-.75C-685.872,350.9-685.875,349.642-685.876,348.388Zm12.727-18.1v9.034h1.883v-9.034Zm-8.313,1.867h6.624V330.3h-6.624Zm18.491.006V330.3h-6.593v1.861Z" transform="translate(0 -153.065)"/>
  </g>
</svg>
