<svg id="cod" xmlns="http://www.w3.org/2000/svg" width="58" height="28" viewBox="0 0 58 28">
  <rect id="Rectangle_72" data-name="Rectangle 72" width="58" height="28" rx="3" fill="#fff"/>
  <g id="Group_46" data-name="Group 46" transform="translate(19 4.125)">
    <g id="Group_40" data-name="Group 40" transform="translate(1.424 9.929)">
      <g id="Group_38" data-name="Group 38" transform="translate(10.717 0)">
        <path id="Path_58" data-name="Path 58" d="M401.154,412.56c.689,2.86-.9,6.187-2.029,8.076a8.4,8.4,0,0,0,6.108-8.076Z" transform="translate(-399.125 -412.56)" fill="#0170c2"/>
      </g>
      <g id="Group_39" data-name="Group 39">
        <path id="Path_59" data-name="Path 59" d="M392.962,419.24a6.147,6.147,0,0,1,1.027-4.22,4.921,4.921,0,0,0,.815-2.459h-5.156A8.376,8.376,0,0,0,392.962,419.24Z" transform="translate(-389.648 -412.561)" fill="#0170c2"/>
      </g>
    </g>
    <g id="Group_41" data-name="Group 41" transform="translate(1.426 1.42)">
      <path id="Path_60" data-name="Path 60" d="M405.273,405.107H390.853a1.2,1.2,0,0,1-1.2,1.2v4.8a1.2,1.2,0,0,1,1.2,1.2h4.008c-.01-.992-.121-1.94-.17-2.62A1.485,1.485,0,0,1,395.7,408.2a2.5,2.5,0,0,1,2.36-2.2,2.716,2.716,0,0,1,0,5.4,2.2,2.2,0,0,1-.346-.03q-.007.5.009.929h7.545a1.2,1.2,0,0,1,1.2-1.2v-4.8a1.2,1.2,0,0,1-1.2-1.2Zm-12.617,4.645a1.049,1.049,0,1,1,1.051-1.049,1.05,1.05,0,0,1-1.051,1.049Zm10.815,0a1.049,1.049,0,1,1,1.051-1.049,1.05,1.05,0,0,1-1.051,1.049Z" transform="translate(-389.653 -405.104)" fill="#86ccff"/>
    </g>
    <g id="Group_45" data-name="Group 45">
      <g id="Group_42" data-name="Group 42" transform="translate(13.972 3.778)">
        <path id="Path_61" data-name="Path 61" d="M402.028,409.726a1.271,1.271,0,1,0-1.271-1.271A1.271,1.271,0,0,0,402.028,409.726Zm0-2.1a.824.824,0,1,1-.824.824A.824.824,0,0,1,402.028,407.628Z" transform="translate(-400.757 -407.184)" fill="#1f1d21"/>
      </g>
      <g id="Group_43" data-name="Group 43" transform="translate(3.157 3.778)">
        <path id="Path_62" data-name="Path 62" d="M392.451,409.726a1.271,1.271,0,1,0-1.271-1.271A1.271,1.271,0,0,0,392.451,409.726Zm0-2.1a.824.824,0,1,1-.824.824.824.824,0,0,1,.824-.824Z" transform="translate(-391.18 -407.184)" fill="#1f1d21"/>
      </g>
      <g id="Group_44" data-name="Group 44">
        <path id="Path_63" data-name="Path 63" d="M407.831,403.849H388.61a.226.226,0,0,0-.225.225v9.647a.227.227,0,0,0,.225.227h6.111a4.463,4.463,0,0,1-.745,2.112c-2.212,3-.446,7.22-.37,7.4a.225.225,0,0,0,.208.137.219.219,0,0,0,.088-.018.226.226,0,0,0,.118-.294c-.018-.042-1.738-4.16.318-6.955a5.463,5.463,0,0,0,.893-3,20.156,20.156,0,0,0-.1-2.841c-.02-.223-.037-.431-.051-.619a1.215,1.215,0,0,1,.481-1.046,1.358,1.358,0,0,1,1.256-.233,1.4,1.4,0,0,1,.908,1.453,20.76,20.76,0,0,0-.015,3.3,7.384,7.384,0,0,0,.691,2.777.226.226,0,0,0,.4-.214,5.987,5.987,0,0,1-.563-1.947h4.127c.848,4.114-2.991,9.231-3.032,9.283a.227.227,0,0,0,.043.318.223.223,0,0,0,.315-.043c.166-.216,3.952-5.263,3.135-9.557h5.012a.226.226,0,0,0,.225-.227v-9.648a.225.225,0,0,0-.226-.227Zm-10.882,4.31a1.777,1.777,0,0,0-.784-.066,2.222,2.222,0,0,1,2.057-1.678,2.51,2.51,0,0,1,0,4.974.719.719,0,0,1-.113-.006c.01-.419.028-.852.063-1.309a1.855,1.855,0,0,0-1.221-1.917Zm10.656,5.341h-9.43c-.007-.069-.016-.131-.022-.2-.039-.452-.058-.94-.057-1.461.041,0,.081.007.122.007a2.957,2.957,0,0,0,0-5.877,2.707,2.707,0,0,0-2.555,2.271,1.83,1.83,0,0,0-.392.233,1.686,1.686,0,0,0-.651,1.435c.014.189.031.4.052.626a19.681,19.681,0,0,1,.1,2.778c0,.067-.01.129-.015.2h-5.932v-9.195H407.6Z" transform="translate(-388.385 -403.849)" fill="#1f1d21"/>
      </g>
    </g>
  </g>
</svg>
