<svg xmlns="http://www.w3.org/2000/svg" viewBox="0 0 82.82 85.95"><g id="Layer_2" data-name="Layer 2"><g id="profile"><g id="delete_user" data-name="delete user"><path d="M61.78,43C51.55,44.72,44.3,50.15,41.1,60s-.43,18.53,7,25.91H12.52A12.1,12.1,0,0,1,.08,75a33,33,0,0,1,.33-6.49c.46-5.41,1.05-10.82,1.44-16.23A16.62,16.62,0,0,1,18.17,36.83a3,3,0,0,1,2.49,1,13.88,13.88,0,0,0,8.87,4.85,21.74,21.74,0,0,0,12-1,11.64,11.64,0,0,0,5-3.56,3.19,3.19,0,0,1,2.76-1.26,16.4,16.4,0,0,1,12.1,5.55,5.46,5.46,0,0,1,.36.45S61.76,43,61.78,43Z"/><path d="M33.77,0c10.8,0,18.39,7.68,18.36,18.5S44.42,36.88,33.6,36.84,15.25,29.11,15.3,18.28,23,0,33.77,0Z"/><path d="M64.49,86a18.42,18.42,0,1,1,18.33-18.5A18.44,18.44,0,0,1,64.49,86ZM64.41,70.6c2,0,3.9,0,5.85,0a3.08,3.08,0,1,0,0-6.13q-5.89,0-11.8,0a3.07,3.07,0,1,0,0,6.13C60.45,70.61,62.43,70.6,64.41,70.6Z"/></g></g></g></svg>