<svg width="18" height="20" viewBox="0 0 18 20" fill="none" xmlns="http://www.w3.org/2000/svg">
<path d="M15.345 15.2515H15.3447H2.02493V15.2514L2.0153 15.2516C1.84999 15.2537 1.68589 15.223 1.53252 15.1612C1.37916 15.0994 1.23959 15.0078 1.12189 14.8917C1.00419 14.7756 0.910712 14.6373 0.846878 14.4848C0.78304 14.3322 0.750111 14.1686 0.75 14.0033C0.74989 13.8379 0.782598 13.6742 0.846231 13.5216C0.909861 13.369 1.00316 13.2306 1.1207 13.1143C1.23824 12.998 1.37769 12.9062 1.53097 12.8443C1.68425 12.7823 1.8483 12.7513 2.01362 12.7533L2.77225 12.762V12.0033V6.62185C2.78331 5.06118 3.41088 3.56811 4.5182 2.46816C5.62609 1.36764 7.12428 0.75 8.68587 0.75C10.2475 0.75 11.7457 1.36765 12.8536 2.46816C13.9609 3.56809 14.5884 5.06113 14.5995 6.62178V12.0027V12.751L15.3478 12.7527C15.6791 12.7534 15.9967 12.8855 16.2308 13.1199C16.4647 13.3541 16.5964 13.6714 16.597 14.0024C16.5963 14.3338 16.4642 14.6515 16.2297 14.8856C15.9949 15.12 15.6767 15.2516 15.345 15.2515ZM7.09504 18.5914C6.85573 18.3521 6.67593 18.0644 6.56516 17.7513H10.8051C10.6943 18.0644 10.5145 18.3521 10.2752 18.5914C9.8535 19.0131 9.28152 19.25 8.68513 19.25C8.08873 19.25 7.51676 19.0131 7.09504 18.5914Z" stroke="#FC6A57" stroke-width="1.5"/>
</svg>
