<svg xmlns="http://www.w3.org/2000/svg" width="19" height="19" viewBox="0 0 19 19">
  <g id="desel_user" transform="translate(0.139)">
    <rect id="Rectangle_2635" data-name="Rectangle 2635" width="19" height="19" transform="translate(-0.139)" fill="none"/>
    <g id="user" transform="translate(0.871 0.982)">
      <path id="Path_6375" data-name="Path 6375" d="M16.739,8.345A8.37,8.37,0,1,0,2.715,14.51l-.008.007.272.229c.018.015.037.027.054.042.144.12.294.233.446.343l.149.106q.244.168.5.319l.112.065c.187.106.377.206.572.3l.043.02a8.3,8.3,0,0,0,2.024.641l.056.01c.22.038.443.069.669.089l.082.006c.225.019.452.03.682.03s.453-.012.676-.03l.085-.006q.336-.031.663-.087l.057-.01a8.3,8.3,0,0,0,2-.625l.07-.032q.282-.132.551-.285l.134-.077c.164-.1.325-.2.481-.3.056-.038.111-.079.167-.119.134-.1.265-.2.392-.3.028-.023.059-.043.086-.066l.279-.232L14,14.532a8.349,8.349,0,0,0,2.741-6.187Zm-16.132,0a7.762,7.762,0,1,1,12.909,5.8,2.281,2.281,0,0,0-.272-.163L10.667,12.7a.675.675,0,0,1-.375-.607v-.9c.06-.074.124-.157.188-.248a6.2,6.2,0,0,0,.8-1.56,1.1,1.1,0,0,0,.635-1V7.3a1.108,1.108,0,0,0-.27-.721V5.159a2.455,2.455,0,0,0-.573-1.785,3.427,3.427,0,0,0-2.7-.966,3.427,3.427,0,0,0-2.7.964A2.455,2.455,0,0,0,5.1,5.157v1.42a1.109,1.109,0,0,0-.27.721V8.378a1.107,1.107,0,0,0,.408.859,5.72,5.72,0,0,0,.941,1.945v.881a.679.679,0,0,1-.354.6L3.415,13.971a2.2,2.2,0,0,0-.229.145A7.743,7.743,0,0,1,.607,8.345Z" transform="translate(0.002 0.034)" fill="none"/>
      <path id="Path_6376" data-name="Path 6376" d="M8.37,3.425a2.521,2.521,0,0,0-1.954.627,1.469,1.469,0,0,0-.332,1.033c0,.033,0,.066,0,.1V6.6a.99.99,0,0,1-.239.645.12.12,0,0,0-.031.076V8.4a.117.117,0,0,0,.045.092.99.99,0,0,1,.332.521,4.751,4.751,0,0,0,.772,1.592.99.99,0,0,1,.2.6v.881a1.669,1.669,0,0,1-.87,1.465L4.4,14.588q.113.072.23.141l.1.057c.17.1.338.185.5.261l0,0,.039.018a7.315,7.315,0,0,0,1.782.564h0l.048.009c.2.035.4.061.586.078l.025,0,.053,0c.22.018.415.027.6.027s.373-.009.595-.026l.055,0,.025,0c.19-.017.385-.043.58-.076h.005l.034-.006.013,0a7.313,7.313,0,0,0,1.758-.551h0l.038-.017.021-.009h0c.161-.075.324-.16.486-.251l.118-.068.173-.1-2.046-1.023A1.66,1.66,0,0,1,9.3,12.114v-.9a.99.99,0,0,1,.221-.623c.047-.058.1-.125.15-.2a5.217,5.217,0,0,0,.668-1.309.99.99,0,0,1,.511-.571.116.116,0,0,0,.069-.107V7.326a.118.118,0,0,0-.03-.075.99.99,0,0,1-.24-.646V5.184q0-.049,0-.1a1.471,1.471,0,0,0-.333-1.034A2.52,2.52,0,0,0,8.37,3.425M8.37,0A8.366,8.366,0,0,1,14,14.559l.008.007-.279.233c-.028.023-.058.043-.086.066-.128.1-.259.2-.392.3-.056.04-.111.081-.167.119-.156.107-.317.208-.481.3l-.134.077q-.27.152-.551.285l-.07.032a8.294,8.294,0,0,1-2,.625l-.057.01c-.218.037-.439.067-.663.087l-.085.006c-.223.018-.448.03-.676.03s-.457-.012-.682-.03L7.606,16.7c-.226-.02-.448-.051-.669-.089l-.056-.01a8.3,8.3,0,0,1-2.024-.641l-.043-.019c-.2-.092-.386-.192-.572-.3l-.112-.065q-.256-.151-.5-.319c-.05-.035-.1-.07-.149-.106-.152-.11-.3-.223-.446-.343-.018-.015-.037-.027-.054-.042l-.271-.229.008-.007A8.366,8.366,0,0,1,8.37,0Zm5.147,14.173a7.761,7.761,0,1,0-10.329-.03A2.2,2.2,0,0,1,3.417,14l2.407-1.313a.679.679,0,0,0,.354-.6v-.881a5.72,5.72,0,0,1-.941-1.945A1.107,1.107,0,0,1,4.828,8.4V7.326A1.109,1.109,0,0,1,5.1,6.6V5.184A2.455,2.455,0,0,1,5.671,3.4a3.427,3.427,0,0,1,2.7-.964,3.426,3.426,0,0,1,2.7.965,2.455,2.455,0,0,1,.573,1.785V6.6a1.107,1.107,0,0,1,.27.721V8.4a1.1,1.1,0,0,1-.635,1,6.2,6.2,0,0,1-.8,1.559c-.065.092-.128.175-.188.249v.9a.675.675,0,0,0,.375.607l2.577,1.288A2.282,2.282,0,0,1,13.518,14.173Z" transform="translate(0.001 0.008)" fill="#fdc994"/>
    </g>
  </g>
</svg>
