<svg xmlns="http://www.w3.org/2000/svg" width="19" height="19" viewBox="0 0 19 19">
  <g id="desel_home" transform="translate(0.045)">
    <rect id="Rectangle_2631" data-name="Rectangle 2631" width="19" height="19" transform="translate(-0.045 0)" fill="none"/>
    <g id="Path_5848" data-name="Path 5848" transform="translate(0.246 0.99)">
      <path id="Path_6373" data-name="Path 6373" d="M229.7,126.978l-8.443-7.035a.605.605,0,0,0-.764,0l-8.443,7.035a.605.605,0,0,0-.08.844.623.623,0,0,0,.844.08l1.628-1.347v7.4a2.547,2.547,0,0,0,2.653,2.432h7.538a2.547,2.547,0,0,0,2.653-2.432v-7.4l1.628,1.347a.564.564,0,0,0,.382.141.6.6,0,0,0,.462-.221.569.569,0,0,0-.058-.844Zm-10.232,8.161v-4.221a.592.592,0,0,1,.6-.6h1.609a.592.592,0,0,1,.6.6v4.221Z" transform="translate(-211.833 -119.807)" fill="none"/>
      <path id="Path_6374" data-name="Path 6374" d="M220.88,120.914l-5.442,4.535v8.5a1.566,1.566,0,0,0,1.663,1.442h1.381v-4.477a1.577,1.577,0,0,1,1.594-1.593h1.608a1.577,1.577,0,0,1,1.594,1.593v4.477h1.361a1.566,1.566,0,0,0,1.663-1.442v-8.521l-5.422-4.518m0-1.107a.6.6,0,0,1,.382.136l8.442,7.035a.569.569,0,0,1,.06.844.6.6,0,0,1-.463.221.564.564,0,0,1-.382-.141l-1.628-1.347v7.4a2.547,2.547,0,0,1-2.653,2.432H217.1a2.547,2.547,0,0,1-2.653-2.432v-7.4L212.82,127.9a.582.582,0,0,1-.374.129.614.614,0,0,1-.471-.209.605.605,0,0,1,.08-.844l8.443-7.035A.6.6,0,0,1,220.88,119.807Zm1.407,15.332v-4.221a.592.592,0,0,0-.6-.6h-1.608a.592.592,0,0,0-.6.6v4.221Z" transform="translate(-211.839 -119.807)" fill="#fdc994"/>
    </g>
  </g>
</svg>
