<svg width="22" height="20" viewBox="0 0 22 20" fill="none" xmlns="http://www.w3.org/2000/svg">
<path d="M10.255 2.76375L10.8264 3.43607L11.3979 2.76375C11.9291 2.13872 12.5887 1.63537 13.3318 1.28791C14.0747 0.94056 14.8836 0.75714 15.7036 0.750104C16.3904 0.745741 17.0711 0.878336 17.706 1.14014C18.3411 1.40203 18.9176 1.78797 19.4018 2.27536C19.8859 2.76275 20.268 3.3418 20.5257 3.97865C20.7833 4.61549 20.9114 5.29733 20.9024 5.98426L20.9023 5.98426V5.99412C20.9023 7.80909 20.0982 9.51402 18.5329 11.4408C16.9588 13.3784 14.6932 15.4487 11.8906 18.0073L11.8895 18.0083L10.8245 18.9844L9.76285 18.0189L9.76121 18.0174L9.76108 18.0173C6.95913 15.4537 4.694 13.3813 3.12012 11.4427C1.55467 9.51449 0.750519 7.80968 0.750519 5.99471H0.750584L0.750453 5.98478C0.741356 5.29781 0.869372 4.61591 1.12701 3.97901C1.38465 3.3421 1.76673 2.76298 2.2509 2.27554C2.73507 1.78809 3.3116 1.40211 3.94675 1.14019C4.58168 0.878351 5.26243 0.74574 5.94921 0.750104C6.76924 0.75714 7.57815 0.94056 8.32102 1.28791C9.06411 1.63537 9.72369 2.13872 10.255 2.76375Z" stroke="#FC6A57" stroke-width="1.5"/>
</svg>
