<svg xmlns="http://www.w3.org/2000/svg" fill="#256FEF" width="100" height="100" viewBox="0 0 20 20" aria-labelledby="icon-svg-title- icon-svg-desc-" role="img" class="sc-rbbb40-0 jRaGfh"><path fill-rule="evenodd" clip-rule="evenodd" d="M19.0631 7.73601L18.363 7.03589C18.1389 6.81086 18.0099 6.50081 18.0099 6.18375V5.19359C18.0099 3.42631 16.5737 1.99107 14.8064 1.99107H13.8172C13.4962 1.99107 13.1941 1.86605 12.9651 1.63702L12.265 0.936902C11.0158 -0.313301 8.98446 -0.3113 7.73526 0.936902L7.03514 1.63702C6.80611 1.86605 6.50406 1.99107 6.183 1.99107H5.19384C3.42656 1.99107 1.99032 3.42631 1.99032 5.19359V6.18375C1.99032 6.50081 1.8613 6.81086 1.63727 7.03589L0.936152 7.73601C-0.312051 8.98521 -0.312051 11.0155 0.936152 12.2647L1.63727 12.9659C1.8613 13.1889 1.99032 13.4999 1.99032 13.816V14.8072C1.99032 16.5744 3.42656 18.0097 5.19384 18.0097H6.183C6.50406 18.0097 6.80611 18.1347 7.03514 18.3637L7.73526 19.0628C8.36036 19.6879 9.17949 20 9.99963 20C10.8208 20 11.6399 19.6869 12.265 19.0628L12.9651 18.3637C13.1941 18.1347 13.4962 18.0097 13.8172 18.0097H14.8064C16.5737 18.0097 18.0099 16.5744 18.0099 14.8072V13.816C18.0099 13.4999 18.1389 13.1889 18.363 12.9659L19.0641 12.2647C20.3113 11.0155 20.3113 8.98521 19.0631 7.73601M12.291 6.29077L6.29002 12.2917C5.89995 12.6828 5.89995 13.3149 6.29002 13.706C6.48605 13.901 6.74209 13.999 6.99813 13.999C7.25317 13.999 7.50921 13.901 7.70525 13.706L13.7062 7.705C14.0963 7.31393 14.0963 6.68183 13.7062 6.29077C13.3142 5.8997 12.6821 5.8997 12.291 6.29077M7.49821 8.9982C8.32634 8.9982 8.99845 8.32609 8.99845 7.49796C8.99845 6.66983 8.32634 5.99772 7.49821 5.99772C6.66907 5.99772 5.99796 6.66983 5.99796 7.49796C5.99796 8.32609 6.66907 8.9982 7.49821 8.9982M12.499 10.9985C11.6699 10.9985 10.9988 11.6706 10.9988 12.4988C10.9988 13.3269 11.6699 13.999 12.499 13.999C13.3272 13.999 13.9993 13.3269 13.9993 12.4988C13.9993 11.6706 13.3272 10.9985 12.499 10.9985"></path></svg>