<svg xmlns="http://www.w3.org/2000/svg" width="96" height="96" viewBox="0 0 96 96">
  <g id="doc" transform="translate(-10371.857 -15671)">
    <path id="Path_11661" data-name="Path 11661" d="M404.857,96h0a48,48,0,1,1,48-48,48,48,0,0,1-48,48" transform="translate(10015 15671)" fill="#f35564"/>
    <path id="Path_11662" data-name="Path 11662" d="M429.112,26.873s.005-2.345,0-3.517a4.578,4.578,0,0,0-.147-1.331,2.941,2.941,0,0,0-2.8-2.011Q412.668,20,399.179,20a4.345,4.345,0,0,0-3.612,1.6q-4.122,4.119-8.242,8.241a4.414,4.414,0,0,0-1.68,3.466q0,7.035,0,14.079a.063.063,0,0,1-.063.062q-4.6.009-9.194,0a2.973,2.973,0,0,0-3.1,2.033,5.8,5.8,0,0,0-.175,1.679q.009,7.2,0,14.41c0,1.515.469,2.822,2,3.326a8.737,8.737,0,0,0,2.3.195q4.035,0,8.157,0a.072.072,0,0,1,.072.072q0,1.5,0,3a6.373,6.373,0,0,0,.176,1.787A2.988,2.988,0,0,0,388.988,76c1.175-.007,3.525,0,3.525,0h2.143s20.737-.006,31.1,0a3.01,3.01,0,0,0,3.356-3.357V28.984ZM382.849,63.727a1.041,1.041,0,0,1-1.119-1.046q-.075-5.422.013-8.916c.017-.715.555-.927,1.215-.93,2.626-.009,4.986-.31,6.847,1.746a5.43,5.43,0,0,1-2.615,8.925,18.328,18.328,0,0,1-4.341.221m44.276,9.089c0,.751-.311,1.19-1.076,1.19h-37.42a.982.982,0,0,1-.967-.927q-.061-1.95.009-3.922a.065.065,0,0,1,.065-.062q15.158,0,30.309,0a7.886,7.886,0,0,0,2.156-.2,2.966,2.966,0,0,0,1.994-3q.053-11.887.013-15.309a3.019,3.019,0,0,0-3.353-3.144q-15.578.006-31.156,0a.06.06,0,0,1-.061-.059q0-6.419,0-12.859a.976.976,0,0,1,.141-.539c.537-.84,1.237-.944,2.261-.938q2.744.014,5.486-.013a2.96,2.96,0,0,0,3.015-2.027,5.178,5.178,0,0,0,.169-1.532q0-2.832,0-5.661c0-.667.558-1.834,1.381-1.834q12.867,0,25.733,0c.813,0,1.3.233,1.3,1.1ZM392.209,58.264h0a5.429,5.429,0,1,1,5.429,5.429,5.429,5.429,0,0,1-5.429-5.429m13.824.271a3.459,3.459,0,0,0,5.755,2.281,1.982,1.982,0,0,1,.506-.357,1.013,1.013,0,0,1,1.279,1.208c-.088.347-.5.675-.848.939a5.429,5.429,0,1,1,.3-8.439,1.721,1.721,0,0,1,.535.663,1,1,0,0,1-1.185,1.252,1.543,1.543,0,0,1-.56-.352,3.459,3.459,0,0,0-5.783,2.805" transform="translate(10015 15671)" fill="#fff"/>
    <path id="Path_11663" data-name="Path 11663" d="M387.956,55.593a3.417,3.417,0,0,1-1.071,5.926,10.126,10.126,0,0,1-3.105.2c-.045,0-.081-.027-.081-.061l-.014-6.769c0-.038.039-.067.088-.068h0c1.439-.007,2.942-.247,4.181.768" transform="translate(10015 15671)" fill="#fff"/>
    <path id="Path_11664" data-name="Path 11664" d="M397.638,54.825a3.439,3.439,0,1,1-3.439,3.439,3.439,3.439,0,0,1,3.439-3.439" transform="translate(10015 15671)" fill="#fff"/>
  </g>
</svg>
