<svg id="fav" xmlns="http://www.w3.org/2000/svg" width="21.901" height="20" viewBox="0 0 21.901 20">
  <path id="fav-2" data-name="fav" d="M10.922,2.208c.441-.348.84-.7,1.272-1,3.533-2.458,6.913-.819,8.677,1.93,1.488,2.318,1.24,4.72.039,7.079a13.68,13.68,0,0,1-4.015,4.506c-1.169.907-2.349,1.815-3.422,2.83A6.685,6.685,0,0,0,12.6,18.6a6.036,6.036,0,0,1-.839,1.05,1.184,1.184,0,0,1-1.011.337c-.736-.125-1.04-.9-1.413-1.451-.033-.048-.066-.1-.1-.14a9.012,9.012,0,0,0-.851-.925l-.158-.153A28.517,28.517,0,0,0,5.96,15.442l-.489-.383A27.15,27.15,0,0,1,2.755,12.7,9.138,9.138,0,0,1,.016,6.944C-.285,2.908,3.522-.33,6.64.028a6.874,6.874,0,0,1,3.548,1.553C10.433,1.775,10.663,1.986,10.922,2.208Zm-.008,15.771a15.822,15.822,0,0,1,1.319-1.459q1.878-1.621,3.821-3.157a11.287,11.287,0,0,0,3.808-4.708A5.057,5.057,0,0,0,16.4,1.7a3.8,3.8,0,0,0-1.479,0A5.9,5.9,0,0,0,11.678,3.8c-.519.581-.925.547-1.486.015a11.6,11.6,0,0,0-2.02-1.641,3.71,3.71,0,0,0-4.343.267A5,5,0,0,0,2.011,8.643a10.792,10.792,0,0,0,3.85,4.728,23.3,23.3,0,0,1,5.053,4.6Z" transform="translate(0.001 -0.001)"/>
</svg>
