<svg id="filter" xmlns="http://www.w3.org/2000/svg" width="14" height="14" viewBox="0 0 14 14">
  <rect id="back" width="14" height="14" fill="none"/>
  <path id="Path_16623" data-name="Path 16623" d="M10.818,3.182a1.909,1.909,0,1,1,1.909,1.909A1.909,1.909,0,0,1,10.818,3.182Zm-9.545.636H8.909a.636.636,0,0,0,0-1.273H1.273a.636.636,0,1,0,0,1.273ZM5.091,5.727A1.909,1.909,0,0,0,3.3,7H1.273a.636.636,0,1,0,0,1.273H3.3A1.909,1.909,0,1,0,5.091,5.727ZM14,7H8.909a.636.636,0,1,0,0,1.273H14A.636.636,0,0,0,14,7ZM6.364,11.455H1.273a.636.636,0,1,0,0,1.273H6.364a.636.636,0,1,0,0-1.273Zm7.636,0H11.976a1.909,1.909,0,1,0,0,1.273H14a.636.636,0,0,0,0-1.273Z" transform="translate(-0.636 -0.636)"/>
</svg>
