<svg id="gridview" xmlns="http://www.w3.org/2000/svg" width="14" height="14" viewBox="0 0 14 14">
  <rect id="back" width="14" height="14" fill="none"/>
  <path id="Path_16643" data-name="Path 16643" d="M10.792,6.417c-2.642,0-3.208-.566-3.208-3.208S8.15,0,10.792,0,14,.566,14,3.208,13.434,6.417,10.792,6.417ZM9.429,5.148a6.617,6.617,0,0,0,1.363.1,6.617,6.617,0,0,0,1.363-.1.8.8,0,0,0,.407-.17.8.8,0,0,0,.17-.407,6.616,6.616,0,0,0,.1-1.363,6.616,6.616,0,0,0-.1-1.363.8.8,0,0,0-.17-.407.8.8,0,0,0-.407-.17,6.617,6.617,0,0,0-1.363-.1,6.617,6.617,0,0,0-1.363.1.8.8,0,0,0-.407.17.8.8,0,0,0-.17.407,6.616,6.616,0,0,0-.1,1.363,6.616,6.616,0,0,0,.1,1.363.8.8,0,0,0,.17.407A.8.8,0,0,0,9.429,5.148Z" fill-rule="evenodd"/>
  <path id="Path_16644" data-name="Path 16644" d="M3.208,14C.566,14,0,13.434,0,10.792S.566,7.583,3.208,7.583s3.208.566,3.208,3.208S5.85,14,3.208,14Zm-1.94-1.845a6.617,6.617,0,0,1-.1-1.363,6.617,6.617,0,0,1,.1-1.363.8.8,0,0,1,.17-.407.8.8,0,0,1,.407-.17,6.616,6.616,0,0,1,1.363-.1,6.616,6.616,0,0,1,1.363.1.8.8,0,0,1,.407.17.8.8,0,0,1,.17.407,6.617,6.617,0,0,1,.1,1.363,6.617,6.617,0,0,1-.1,1.363.8.8,0,0,1-.17.407.8.8,0,0,1-.407.17,6.616,6.616,0,0,1-1.363.1,6.616,6.616,0,0,1-1.363-.1.8.8,0,0,1-.407-.17A.8.8,0,0,1,1.269,12.155Z" fill-rule="evenodd"/>
  <path id="Path_16645" data-name="Path 16645" d="M0,3.208C0,5.85.566,6.417,3.208,6.417S6.417,5.85,6.417,3.208,5.85,0,3.208,0,0,.566,0,3.208Zm1.167,0a6.617,6.617,0,0,0,.1,1.363.8.8,0,0,0,.17.407.8.8,0,0,0,.407.17,6.616,6.616,0,0,0,1.363.1,6.617,6.617,0,0,0,1.363-.1.8.8,0,0,0,.407-.17.8.8,0,0,0,.17-.407,6.617,6.617,0,0,0,.1-1.363,6.617,6.617,0,0,0-.1-1.363.8.8,0,0,0-.17-.407.8.8,0,0,0-.407-.17,6.617,6.617,0,0,0-1.363-.1,6.616,6.616,0,0,0-1.363.1.8.8,0,0,0-.407.17.8.8,0,0,0-.17.407A6.617,6.617,0,0,0,1.167,3.208Z" fill-rule="evenodd"/>
  <path id="Path_16646" data-name="Path 16646" d="M7.583,10.792c0,2.642.566,3.208,3.208,3.208S14,13.434,14,10.792s-.566-3.208-3.208-3.208S7.583,8.15,7.583,10.792Zm1.167,0a6.616,6.616,0,0,0,.1,1.363.8.8,0,0,0,.17.407.8.8,0,0,0,.407.17,6.616,6.616,0,0,0,1.363.1,6.616,6.616,0,0,0,1.363-.1.8.8,0,0,0,.407-.17.8.8,0,0,0,.17-.407,6.616,6.616,0,0,0,.1-1.363,6.616,6.616,0,0,0-.1-1.363.8.8,0,0,0-.17-.407.8.8,0,0,0-.407-.17,6.616,6.616,0,0,0-1.363-.1,6.616,6.616,0,0,0-1.363.1.8.8,0,0,0-.407.17.8.8,0,0,0-.17.407A6.616,6.616,0,0,0,8.75,10.792Z" fill-rule="evenodd"/>
</svg>
