<svg id="home" xmlns="http://www.w3.org/2000/svg" width="17.83" height="17.999" viewBox="0 0 17.83 17.999">
  <path id="Path_6378" data-name="Path 6378" d="M8.864,14.805A3.509,3.509,0,0,1,5.359,11.3a.641.641,0,0,1,1.282,0,2.223,2.223,0,1,0,4.446,0,.641.641,0,0,1,1.282,0,3.509,3.509,0,0,1-3.505,3.506Z" transform="translate(0 -0.001)" fill="#ccc"/>
  <path id="Path_6379" data-name="Path 6379" d="M15.081,18H2.746A2.749,2.749,0,0,1,0,15.256V5.933c0-1.479,1.1-2.1,2.368-2.808l.2-.111L7.8.27a2.321,2.321,0,0,1,2.168,0L15.4,3.183c.124.076.257.152.4.233.857.489,2.03,1.16,2.03,2.517v9.323A2.749,2.749,0,0,1,15.081,18ZM3.169,4.145,3,4.242c-1.3.725-1.714,1.019-1.714,1.691v9.323A1.465,1.465,0,0,0,2.75,16.719H15.081a1.465,1.465,0,0,0,1.464-1.464V5.933c0-.57-.549-.926-1.386-1.4-.138-.079-.28-.16-.416-.243L9.374,1.4a1.041,1.041,0,0,0-.97,0Z" transform="translate(0 -0.001)" fill="#ccc"/>
</svg>
