<svg xmlns="http://www.w3.org/2000/svg" width="16" height="16" viewBox="0 0 16 16">
    <path data-name="Rectangle 2719" style="fill:none" d="M0 0h16v16H0z"/>
    <path data-name="Path 6413" d="M6.53 13.059a6.529 6.529 0 1 1 6.529-6.529 6.536 6.536 0 0 1-6.529 6.529m0-11.594A5.065 5.065 0 1 0 11.6 6.53a5.071 5.071 0 0 0-5.07-5.065" transform="translate(.088 .088)" style="fill:#a0a1a0"/>
    <path data-name="Path 6414" d="M241.162 241.9a.729.729 0 0 1-.517-.214l-2.763-2.763a.732.732 0 0 1 1.035-1.035l2.763 2.763a.732.732 0 0 1-.517 1.249" transform="translate(-225.983 -225.984)" style="fill:#a0a1a0"/>
</svg>
