<svg id="multivender" xmlns="http://www.w3.org/2000/svg" xmlns:xlink="http://www.w3.org/1999/xlink" width="194.357" height="150" viewBox="0 0 194.357 150">
  <defs>
    <linearGradient id="linear-gradient" x1="0.98" y1="1.425" x2="0.025" y2="-1.412" gradientUnits="objectBoundingBox">
      <stop offset="0" stop-color="#ff6363"/>
      <stop offset="1" stop-color="#ffbd69"/>
    </linearGradient>
  </defs>
  <path id="Path_18079" data-name="Path 18079" d="M12.077,108.467a6.5,6.5,0,0,0,2.739,4.119,9.747,9.747,0,0,0,5.154,1.208,25.425,25.425,0,0,0,4.615-.5,29.434,29.434,0,0,0,5.046-1.488,22.814,22.814,0,0,1,1.747,4.4,21.1,21.1,0,0,1,.819,5.326,36.794,36.794,0,0,1-12.917,2.351,24.246,24.246,0,0,1-8.777-1.423,15.654,15.654,0,0,1-5.995-3.947A15.821,15.821,0,0,1,1.1,112.522,25.173,25.173,0,0,1,0,104.931,24.549,24.549,0,0,1,1.144,97.34a17.6,17.6,0,0,1,3.407-6.189,15.936,15.936,0,0,1,5.671-4.162,19.328,19.328,0,0,1,7.957-1.531,16.906,16.906,0,0,1,6.706,1.272,14.53,14.53,0,0,1,5,3.515,15.162,15.162,0,0,1,3.17,5.391,20.578,20.578,0,0,1,1.1,6.857,30.812,30.812,0,0,1-.173,3.45q-.162,1.521-.324,2.523Zm5.671-13.995a5.779,5.779,0,0,0-3.9,1.423,6.357,6.357,0,0,0-1.919,4.4H23.29a6.894,6.894,0,0,0-1.531-4.162A4.894,4.894,0,0,0,17.748,94.472Zm42.4-2.631a57.831,57.831,0,0,1,5.37,2.458,16.373,16.373,0,0,1,4.076,2.976,12.159,12.159,0,0,1,2.631,4.183,18.683,18.683,0,0,1-.388,12.7,14.075,14.075,0,0,1-3.86,5.176,17.789,17.789,0,0,1-6.275,3.342,28.722,28.722,0,0,1-8.561,1.165,39.362,39.362,0,0,1-7.785-.712,48.062,48.062,0,0,1-7.289-2.2,39.352,39.352,0,0,1,.992-5.284c.474-1.876,1.035-3.773,1.7-5.714a29.282,29.282,0,0,0,11.364,2.846,12,12,0,0,0,5.65-1.1,3.95,3.95,0,0,0,2.027-3.8,4.036,4.036,0,0,0-1.574-3.342,7.083,7.083,0,0,0-1.6-.949c-.582-.259-1.186-.518-1.811-.755l-3.968-1.488a26.986,26.986,0,0,1-4.658-2.2,15.049,15.049,0,0,1-3.58-3.019A12.636,12.636,0,0,1,40.3,92.122a15.889,15.889,0,0,1-.819-5.326,16.723,16.723,0,0,1,1.272-6.685,14.059,14.059,0,0,1,3.58-4.938,15.22,15.22,0,0,1,5.585-3.062,24.659,24.659,0,0,1,7.31-1.035,34.447,34.447,0,0,1,6.987.712,55.988,55.988,0,0,1,7.2,2.07,33.244,33.244,0,0,1-1.035,5,31.342,31.342,0,0,1-1.876,5.154c-1.229-.518-2.674-1.057-4.334-1.639a18.856,18.856,0,0,0-6.189-.863,10.3,10.3,0,0,0-2.156.216,6.371,6.371,0,0,0-1.854.669,3.718,3.718,0,0,0-1.315,1.272,3.925,3.925,0,0,0-.5,2.027,3.548,3.548,0,0,0,1.358,3.062,13.76,13.76,0,0,0,3.192,1.7Zm42.395,17.618h-10.5v13.5c-1.229.194-2.351.323-3.342.431a24.134,24.134,0,0,1-5.391,0c-.992-.086-2.092-.237-3.256-.431V86.3a21.35,21.35,0,0,1,3.084-.5c1.013-.086,2.006-.151,2.954-.151A28.042,28.042,0,0,1,89,85.8a21.061,21.061,0,0,1,3.062.5V98.807h10.5V86.3a21.324,21.324,0,0,1,3.084-.5c1.013-.086,2.005-.151,2.954-.151a28.036,28.036,0,0,1,2.911.151,21.051,21.051,0,0,1,3.062.5v36.637c-1.229.194-2.35.323-3.342.431-.992.087-1.9.151-2.7.151a24.984,24.984,0,0,1-2.695-.151c-.992-.086-2.092-.237-3.257-.431Zm18.179-4.614a25.948,25.948,0,0,1,1.164-7.914,17.065,17.065,0,0,1,3.472-6.146,15.466,15.466,0,0,1,5.715-3.946,20.718,20.718,0,0,1,7.892-1.38,20.985,20.985,0,0,1,7.957,1.38,15.216,15.216,0,0,1,5.715,3.946,16.887,16.887,0,0,1,3.472,6.146,27.045,27.045,0,0,1,0,15.7,16.439,16.439,0,0,1-3.472,6.038,15,15,0,0,1-5.715,3.86,23.784,23.784,0,0,1-15.849,0,15.25,15.25,0,0,1-5.715-3.86,16.438,16.438,0,0,1-3.472-6.038A25.124,25.124,0,0,1,120.717,104.845Zm24.432,0a13.143,13.143,0,0,0-1.531-6.965,5.108,5.108,0,0,0-4.658-2.415,5.015,5.015,0,0,0-4.615,2.415,13.379,13.379,0,0,0-1.488,6.965,13.141,13.141,0,0,0,1.488,6.879,5.015,5.015,0,0,0,4.615,2.415,5.109,5.109,0,0,0,4.658-2.415C144.653,110.128,145.149,107.821,145.149,104.845Zm30.039.431a6.2,6.2,0,0,0,.884.108c.345.021.647.043.884.043a6.34,6.34,0,0,0,4.076-1.251c1.056-.819,1.6-2.242,1.6-4.226a4.979,4.979,0,0,0-1.6-3.946,5.761,5.761,0,0,0-3.947-1.38h-.819a9.414,9.414,0,0,0-1.1.065Zm-11.71-18.826c2.178-.324,4.421-.582,6.707-.755s4.507-.259,6.642-.259a33.342,33.342,0,0,1,6.383.6,15.944,15.944,0,0,1,5.606,2.2,11.925,11.925,0,0,1,4.011,4.4,15.232,15.232,0,0,1,1.531,7.289,15.048,15.048,0,0,1-1.38,6.814,12.081,12.081,0,0,1-3.666,4.464,14.579,14.579,0,0,1-5.154,2.458,23.4,23.4,0,0,1-5.865.755q-1.2,0-2.07-.065a5.645,5.645,0,0,1-1.057-.15v8.733a28.722,28.722,0,0,1-3.3.453c-.97.065-1.833.108-2.588.108-.8,0-1.66-.043-2.587-.108-1.079-.086-2.157-.259-3.235-.453V86.451Z" fill="url(#linear-gradient)"/>
  <path id="Path_18080" data-name="Path 18080" d="M62.666,149.245c0-4.205-.6-9.682-.6-9.682a7.657,7.657,0,0,0,.625-2.027,2.762,2.762,0,0,0-.841-.086,11.212,11.212,0,0,0-2.351.151,40.728,40.728,0,0,0-2.264,5.369c-.022.065-.043.108-.086.108s-.086-.086-.086-.086c-.388-1.165-1.79-5.262-1.941-5.391a9.7,9.7,0,0,0-1.466-.087,12.282,12.282,0,0,0-2.243.173.067.067,0,0,0-.022.043,4.333,4.333,0,0,0,.668,1.747s-.647,6.792-.647,10.049a1.534,1.534,0,0,0,.625.107,3.167,3.167,0,0,0,1.747-.409c-.065-.863-.108-1.747-.086-2.631a38.933,38.933,0,0,1,.3-5.52.684.684,0,0,1,.043-.13.764.764,0,0,1,.086.108c.237.3,2.221,6,2.243,6.059a1.814,1.814,0,0,0,.755.151c.237,0,.668-.064.733-.194a49.783,49.783,0,0,1,2.157-6.081s.043-.108.108-.108c.021,0,.043.022.043.087.108.56.237,4.118.237,6.663,0,.819-.022,1.531-.043,2-.022.065.259.065.474.065A3.34,3.34,0,0,0,62.666,149.245Zm6.6-.992c.086,1.079.453,1.51.518,1.51a3.042,3.042,0,0,0,1.919-.927,3.108,3.108,0,0,1-.474-1.381,8.831,8.831,0,0,1-.065-1.509c0-1.9.129-4.7.129-4.809a.952.952,0,0,0-.431-.064,2.244,2.244,0,0,0-1.531.495c-.043.13-.108,2.178-.108,3.408v.582c.022.151-.5,1.315-1.4,1.315-.992,0-.97-1.4-.97-1.4-.022-.3-.043-.669-.043-1.057,0-1.251.108-2.631.108-2.76-.086-.086-.474-.087-.474-.087a2.4,2.4,0,0,0-1.445.367,25.758,25.758,0,0,0-.151,3.364c0,.5.022.927.043,1.165.129,1.272.518,2.8,2.07,2.8a2.963,2.963,0,0,0,2.286-1.4s.022,0,.022.043Zm6.469-6.469c0-1.294.043-4.226.086-4.485,0-.043-.28-.065-.431-.065-.625,0-1.617.388-1.617.625,0,.2.065.626.065,2.373,0,2.738-.065,4.485-.065,6.253,0,.841,0,1.531.022,1.812.108,1.078.474,1.509.539,1.509a3.042,3.042,0,0,0,1.919-.927,2.888,2.888,0,0,1-.5-1.38,12.857,12.857,0,0,1-.043-1.467C75.691,144.372,75.734,143.078,75.734,141.784Zm4.938-4.183c0-.043-.28-.065-.431-.065-.625,0-1.66.388-1.66.625a13.943,13.943,0,0,1,.108,1.639c-.539.022-.906.043-.906.043a1.938,1.938,0,0,0-.151.949,1.419,1.419,0,0,0,.086.6s.431-.022.97-.022c-.022.69-.043,3.3-.043,5.154,0,.863,0,1.574.043,1.855A2.149,2.149,0,0,0,79.422,150a2.709,2.709,0,0,0,1.919-.906,2.366,2.366,0,0,1-.712-1.466c-.043-.367-.043-1.272-.043-2.437s.022-2.566.043-3.838h.819c.194,0,.5-.669.5-1.51a6.593,6.593,0,0,0-1.294-.043A19.99,19.99,0,0,1,80.672,137.6Zm4.96,2.156a1.055,1.055,0,0,0-1.078-1.164,1.262,1.262,0,0,0-1.229,1.164,1.019,1.019,0,0,0,1.057,1.165A1.252,1.252,0,0,0,85.632,139.757Zm-.647,2.157a2.509,2.509,0,0,0-1.4.3c-.065.13-.129,2.761-.129,4.529,0,.712.021,1.272.043,1.509.108,1.079.453,1.51.518,1.51a3.042,3.042,0,0,0,1.919-.927,2.865,2.865,0,0,1-.474-1.381c-.043-.3-.043-.991-.043-1.768,0-1.6.043-3.579.043-3.666C85.373,141.914,84.985,141.914,84.985,141.914Zm10.523,7.827a6.364,6.364,0,0,0,2.545-.409c.453-.453,3.558-9.036,3.558-12.292,0-.043-.259-.065-.259-.065a14.22,14.22,0,0,0-3.17.432,2.225,2.225,0,0,0-.237.948.274.274,0,0,0,.022.13c.388.043,1.078.453,1.078.733,0,2.717-1.919,7.461-2.2,8.022-.022.086-.129.194-.194.194-.086-.022-.194-.216-.194-.216a53.034,53.034,0,0,1-2.674-9.488c0-.043-.367-.043-.367-.043a3.246,3.246,0,0,0-1.79.474c0,2.48,2.976,11,3.666,11.6C95.357,149.72,95.422,149.741,95.508,149.741Zm11.99-6.318a2.689,2.689,0,0,1-2.243,2.2c-.064,0-.064-.044-.064-.238,0-1.358.841-2.458,1.768-2.458a.515.515,0,0,1,.539.431Zm-.776,5.887a4.473,4.473,0,0,0,2.264-.388,2.828,2.828,0,0,0,.431-1.553.933.933,0,0,0-.043-.323c-.021,0-.021,0-.043.021a4.246,4.246,0,0,1-2.07.475c-.906,0-1.251-.367-1.251-.475,2.2-.754,3.494-2.329,3.494-3.795a1.933,1.933,0,0,0-2.178-1.876,4.017,4.017,0,0,0-4.184,4.291A3.36,3.36,0,0,0,106.722,149.31Zm5.067-2.566a16.549,16.549,0,0,1-.129,2.544c0,.044.129.044.259.044a3.115,3.115,0,0,0,1.768-.475,14.622,14.622,0,0,0,.065-1.919c0-1.078-.022-2.2-.022-2.2s.3-1.229,1.423-1.229c.949,0,1.014,1.316,1.014,2.976a27.092,27.092,0,0,1-.173,2.954,1.684,1.684,0,0,0,.561.087,2.815,2.815,0,0,0,1.488-.345s.043-.884.043-2.027c0-2.955-.043-5.78-2.2-5.78a2.911,2.911,0,0,0-2.114,1.079l-.043.043c-.043,0-.043-.065-.043-.345,0-.324.043-.755.043-.906,0-.043-.215-.086-.366-.086a2.677,2.677,0,0,0-1.575.474,3.609,3.609,0,0,0-.086,1.165C111.725,143.9,111.789,145.385,111.789,146.744Zm15.117-9.445c0-.043-.28-.065-.431-.065a2.7,2.7,0,0,0-1.6.6,6.471,6.471,0,0,0-.043,1.121c0,.992.043,2.372.043,2.545a4.533,4.533,0,0,0-4.658,4.765c0,1.381.863,2.976,2.5,2.976a2.615,2.615,0,0,0,2.157-1.035l.043-.043c.022,0,.043,0,.043.043a1.777,1.777,0,0,0,.561,1.316,3.116,3.116,0,0,0,1.941-.906,2.452,2.452,0,0,1-.561-1.38c-.086-.518-.108-2.178-.108-3.494C126.755,142.021,126.82,138.722,126.906,137.3Zm-2.07,8.561c0,.215-.388,1.38-1.38,1.38-.82,0-1.186-.647-1.186-1.445a2.3,2.3,0,0,1,2.372-2.5s.28,0,.258.043C124.857,143.725,124.836,145.6,124.836,145.86Zm8.194,3.493a3.751,3.751,0,0,0,3.688-4.032,2.884,2.884,0,0,0-1.963-3.041,5.987,5.987,0,0,0,.043-.625.426.426,0,0,0-.043-.237,3.164,3.164,0,0,0-.927-.13,4.283,4.283,0,0,0-4.442,4.313A3.491,3.491,0,0,0,133.03,149.353Zm1.725-3.881c0,1.531-.9,2.134-1.7,2.134-1.661,0-1.661-1.9-1.661-2.07a2.159,2.159,0,0,1,1.941-2.415,1.941,1.941,0,0,0-.043.5.357.357,0,0,0,.043.216h.129C133.806,143.854,134.755,143.984,134.755,145.472Zm8.971-3.386a1.565,1.565,0,0,0-.13-.647,3.438,3.438,0,0,0-2.566,1.38c-.043.043-.043.043-.064.043-.043,0-.043-.366-.043-.388,0-.453.043-1.1.043-1.251,0-.043-.216-.086-.367-.086a2.666,2.666,0,0,0-1.574.475,4.33,4.33,0,0,0-.065,1.078c0,.992.043,2.544.043,3.925a19.025,19.025,0,0,1-.129,2.717c0,.043.065.043.129.043a3.2,3.2,0,0,0,1.9-.475c.043-.043.043-1.143.043-2.113v-1.509a2.223,2.223,0,0,1,2.221-1.639.753.753,0,0,1,.216.043A2.545,2.545,0,0,0,143.726,142.086Z" fill="url(#linear-gradient)"/>
  <path id="Path_18081" data-name="Path 18081" d="M175.188,1.79v59.5a1.786,1.786,0,0,1-1.79,1.79h-9.251l-2.976,5.369v-57.4L144.243,22.082l-6.814-4.442-.474-.3-6.362-4.14-3.3-2.156V46.665l10.135,6.081V29.737l6.814,4.442,6.815-4.442V63.054H113.924a1.786,1.786,0,0,1-1.79-1.79V1.79A1.786,1.786,0,0,1,113.924,0h59.5A1.781,1.781,0,0,1,175.188,1.79Z" fill="url(#linear-gradient)"/>
</svg>
