<svg xmlns="http://www.w3.org/2000/svg" width="58" height="28" viewBox="0 0 58 28">
  <g id="instamojo_" data-name="instamojo " transform="translate(17050 -3783)">
    <rect id="back" width="58" height="28" rx="3" transform="translate(-17050 3783)" fill="none"/>
    <g id="instamojo_2" data-name="instamojo " transform="translate(0 0)">
      <path id="Path_14629" data-name="Path 14629" d="M30.988,20.828a3.629,3.629,0,0,1-.81-2.349v-.022a3.629,3.629,0,0,1,1.049-2.61.006.006,0,0,0,.005-.005c.083-.083.167-.161.256-.237a3.5,3.5,0,0,1,2.093-.839.518.518,0,0,1,.065,0c.043,0,.086-.005.129-.005.062,0,.121.005.183.008a1.668,1.668,0,0,1,.167.016,3.427,3.427,0,0,1,1.706.662q.113.081.218.169a3.74,3.74,0,0,1,1.3,2.857v.016c0,.129-.008.253-.019.379a3.478,3.478,0,0,1-.417,1.385c-.027.051-.056.1-.086.153s-.062.1-.094.151-.083.121-.126.18-.1.129-.151.191l-.062.07c-.03.032-.059.065-.094.1a3.5,3.5,0,0,1-5.192-.126c-.04-.046-.081-.091-.118-.14" transform="translate(-17054.703 3774.509)" fill="#fff"/>
      <path id="Path_14630" data-name="Path 14630" d="M37.122,64.649a11.646,11.646,0,0,1-7.425.043.01.01,0,0,1-.008,0l0-6.031a.555.555,0,0,1,.056-.282c.013-.027.027-.051.04-.075s.032-.048.048-.07.038-.046.059-.07l.065-.065a.473.473,0,0,1,.081-.065c.035-.027.07-.051.1-.075a2.217,2.217,0,0,1,.374-.191,1.861,1.861,0,0,1,.231-.089l.07-.024c.048-.016.1-.032.145-.046.081-.024.159-.046.237-.065s.126-.032.188-.043c.121-.027.239-.048.342-.067.048-.008.091-.016.132-.022s.056-.008.081-.011a.6.6,0,0,1,.062-.011,9.228,9.228,0,0,1,4.159.326,2,2,0,0,1,.414.194s0,0,0,0a2.118,2.118,0,0,1,.371.272.6.6,0,0,1,.121.207.875.875,0,0,1,.03.113.4.4,0,0,1,.011.113.412.412,0,0,1-.005.1Z" transform="translate(-17054.346 3743.424)" fill="#fff"/>
      <path id="Path_14631" data-name="Path 14631" d="M33.393,22.206a3.651,3.651,0,0,1-2.644-1.216,3.5,3.5,0,0,0,5.192.126,3.648,3.648,0,0,1-2.548,1.09m.374-7.4a3.64,3.64,0,0,1,1.706.662,3.427,3.427,0,0,0-1.706-.662m-.748,0a.682.682,0,0,0-.078.011,2.084,2.084,0,0,0-.226.038c-.083.016-.167.035-.247.059s-.137.04-.2.065a.456.456,0,0,0-.073.027c-.048.016-.094.035-.143.056a1.447,1.447,0,0,0-.161.075.472.472,0,0,0-.065.03c-.062.032-.124.067-.183.1-.024.013-.046.027-.07.043a3.676,3.676,0,0,1,1.654-.522c-.07,0-.137.008-.2.016m-1.665.648a2.431,2.431,0,0,1,.2-.135l.011-.008s-.005,0-.011.005c-.07.043-.137.089-.2.137M30.146,26.892a2.7,2.7,0,0,1,.374-.191,2.217,2.217,0,0,0-.374.191m-.455.7,0,6.031a.01.01,0,0,0,.008,0V27.594a.615.615,0,0,1,.051-.282.555.555,0,0,0-.056.282" transform="translate(-17054.346 3774.487)" fill="#2b2c7f"/>
      <path id="Path_14632" data-name="Path 14632" d="M19.985,3.532c-.137-.137-.274-.274-.42-.406-.094-.086-.191-.172-.288-.256s-.194-.167-.293-.248A11.589,11.589,0,0,0,4.325,2.6.135.135,0,0,0,4.3,2.62c-.081.065-.159.129-.237.2a11.729,11.729,0,0,0,3.92,20l0-6.031a.555.555,0,0,1,.056-.282.228.228,0,0,1,.04-.075.234.234,0,0,1,.048-.07.356.356,0,0,1,.059-.07l.065-.065a.472.472,0,0,1,.081-.065c.035-.027.07-.051.1-.075a2.217,2.217,0,0,1,.374-.191,1.861,1.861,0,0,1,.231-.089l.07-.024c.048-.016.1-.032.145-.046.081-.024.159-.046.237-.065s.126-.032.188-.043c.121-.027.239-.048.342-.067.048-.008.091-.013.132-.022s.056-.008.081-.011a.6.6,0,0,1,.062-.011,9.227,9.227,0,0,1,4.159.326,2,2,0,0,1,.414.194h0a2.118,2.118,0,0,1,.371.272.6.6,0,0,1,.121.207.584.584,0,0,1,.03.113.536.536,0,0,1,.011.113.413.413,0,0,1-.005.1l.011,5.937A11.736,11.736,0,0,0,19.985,3.532M15.288,7.7c0,.129-.008.253-.019.379a3.478,3.478,0,0,1-.417,1.385,1.068,1.068,0,0,1-.086.153c-.03.051-.062.1-.094.151s-.083.121-.126.18-.1.129-.151.191l-.062.07c-.03.032-.059.065-.094.1a3.5,3.5,0,0,1-5.192-.126c-.04-.046-.081-.091-.118-.14a3.687,3.687,0,0,1-.253-.355A3.4,3.4,0,0,1,8.4,9.165l-.048-.126c-.019-.048-.038-.1-.051-.145s-.032-.094-.046-.143-.024-.086-.035-.132l-.04-.183-.016-.1c-.011-.065-.019-.129-.027-.194-.005-.046-.008-.089-.011-.135a1.464,1.464,0,0,1-.008-.153c0-.056,0-.11,0-.167V7.669c0-.032,0-.065,0-.094s0-.065,0-.094c0-.046,0-.091.008-.137.005-.07.011-.14.019-.207.005-.046.013-.094.022-.14s.016-.081.022-.121.022-.1.035-.148a3.418,3.418,0,0,1,.1-.344c.019-.051.038-.1.056-.148.04-.1.083-.191.132-.285.022-.04.043-.081.067-.121.054-.094.11-.188.172-.277a2.788,2.788,0,0,1,.178-.231.023.023,0,0,1,.008-.013c.035-.04.067-.081.1-.118s.078-.089.118-.129a.006.006,0,0,0,.005-.005c.083-.083.167-.161.256-.237.073-.062.145-.118.223-.175s.135-.094.2-.137c.005,0,.008-.005.011-.005.024-.016.046-.03.07-.043.059-.035.121-.07.183-.1a.472.472,0,0,1,.065-.03c.054-.027.108-.054.161-.075s.094-.04.143-.056a.456.456,0,0,1,.073-.027c.067-.024.137-.046.2-.065s.164-.043.248-.059a2.083,2.083,0,0,1,.226-.038.776.776,0,0,1,.078-.011c.067-.008.135-.013.2-.016a.518.518,0,0,1,.065,0c.043,0,.086-.005.129-.005.062,0,.121.005.183.008a1.668,1.668,0,0,1,.167.016,3.427,3.427,0,0,1,1.706.662,2.628,2.628,0,0,1,.218.169,3.569,3.569,0,0,1,.484.5c.032.04.062.081.094.121s.059.083.086.126a1.091,1.091,0,0,1,.07.1c.032.051.065.1.091.153.005.008.011.013.011.022a.689.689,0,0,1,.059.1c.024.046.048.094.07.143s.038.081.054.124a3.012,3.012,0,0,1,.121.328c.027.086.051.175.07.264a.139.139,0,0,1,.005.03c.011.043.019.086.027.132.016.086.027.169.035.256.005.048.011.094.013.143s.005.1.005.145,0,.11,0,.167Z" transform="translate(-17032.645 3785.298)" fill="#2b2c7f"/>
      <path id="Path_14633" data-name="Path 14633" d="M37.348,18.479v.016c0,.129-.008.253-.019.379a3.811,3.811,0,0,1-.417,1.385c-.027.051-.056.1-.086.153s-.062.1-.094.151-.083.121-.126.18-.1.129-.151.191l-.062.07c-.03.032-.059.065-.094.1a3.5,3.5,0,0,1-5.192-.126c-.04-.046-.081-.091-.118-.14a3.779,3.779,0,0,1-.81-2.349v-.022a3.781,3.781,0,0,1,1.049-2.61.006.006,0,0,0,.005-.005c.083-.083.167-.161.256-.237a3.5,3.5,0,0,1,2.093-.839.518.518,0,0,1,.065,0c.043,0,.086,0,.129,0,.062,0,.124,0,.183.005a1.668,1.668,0,0,1,.167.016,3.427,3.427,0,0,1,1.706.662q.113.081.218.169a3.569,3.569,0,0,1,.484.5,3.777,3.777,0,0,1,.815,2.354" transform="translate(-17054.705 3774.502)" fill="#f05a28"/>
      <path id="Path_14634" data-name="Path 14634" d="M37.122,58.62a.412.412,0,0,1-.005.1H37.1a.024.024,0,0,0-.022.013v0a.626.626,0,0,1-.03.075v0a.724.724,0,0,1-.043.078v0c-.016.024-.032.046-.051.07s-.04.046-.062.067l-.048.046c-.011.011-.024.019-.035.03-.03.024-.062.048-.094.07a.205.205,0,0,0-.03.022c-.024.013-.048.03-.073.046s-.073.04-.11.059-.086.043-.132.062l-.019.008c-.051.022-.1.043-.153.062-.1.04-.213.073-.32.1s-.188.051-.274.073-.172.04-.25.056c-.038.011-.073.016-.108.024a10.179,10.179,0,0,1-3.064.1c-.054-.005-.124-.016-.207-.03-.135-.019-.3-.051-.487-.091-.065-.013-.132-.03-.2-.046-.046-.011-.094-.024-.143-.035L31,59.553a2.464,2.464,0,0,1-.282-.089l-.1-.038-.164-.065-.124-.056c-.04-.022-.081-.04-.118-.062l-.081-.046a1.478,1.478,0,0,1-.143-.1,1.082,1.082,0,0,1-.113-.1.746.746,0,0,1-.059-.078.445.445,0,0,1-.038-.07.359.359,0,0,1-.019-.048s0-.005,0-.008,0-.008,0-.011a.078.078,0,0,1-.005-.024.229.229,0,0,1-.008-.062v-.011a.017.017,0,0,0-.022-.016H29.7a.555.555,0,0,1,.056-.282c.013-.027.027-.051.04-.075s.032-.048.048-.07.038-.046.059-.07l.065-.065a.472.472,0,0,1,.081-.065c.035-.027.07-.051.1-.075a2.217,2.217,0,0,1,.374-.191,1.86,1.86,0,0,1,.231-.089l.07-.024c.048-.016.1-.032.145-.046.081-.024.159-.046.237-.065s.126-.03.188-.043c.121-.027.239-.048.342-.067.048-.008.091-.013.132-.022s.056-.008.081-.011l.059-.008a9.219,9.219,0,0,1,4.156.326,2.572,2.572,0,0,1,.42.191s0,0,0,0a2.474,2.474,0,0,1,.369.274.66.66,0,0,1,.124.2.875.875,0,0,1,.03.113.536.536,0,0,1,.011.113" transform="translate(-17054.352 3743.416)" fill="#fcb712"/>
      <path id="Path_14635" data-name="Path 14635" d="M37.122,68.379a11.646,11.646,0,0,1-7.425.043.01.01,0,0,1-.008,0l0-6.031h.019a.017.017,0,0,1,.022.016v.011a.229.229,0,0,0,.008.062.078.078,0,0,0,.005.024s0,.008,0,.011,0,.005,0,.008a.359.359,0,0,0,.019.048.445.445,0,0,0,.038.07.745.745,0,0,0,.059.078,1.082,1.082,0,0,0,.113.1,1.478,1.478,0,0,0,.143.1l.081.046c.038.022.078.04.118.062l.124.056.164.065.1.038a2.463,2.463,0,0,0,.282.089l.143.04c.048.011.1.024.143.035.067.016.135.032.2.046.183.038.352.07.487.091.083.011.153.022.207.027a10.179,10.179,0,0,0,3.064-.1c.035-.005.07-.013.108-.022q.117-.024.25-.056c.086-.022.18-.046.274-.073s.215-.065.32-.1c.051-.019.1-.04.153-.062l.019-.008c.046-.019.089-.04.132-.062s.075-.038.11-.059.048-.032.073-.046a.205.205,0,0,1,.03-.022c.032-.022.065-.046.094-.07.011-.011.024-.019.035-.03l.048-.046c.022-.022.043-.046.062-.067s.035-.046.051-.07v0a.725.725,0,0,0,.043-.078v0a.626.626,0,0,0,.03-.075v0a.019.019,0,0,1,.022-.013h.019Z" transform="translate(-17054.346 3739.694)" fill="#fff"/>
    </g>
  </g>
</svg>
