<svg xmlns="http://www.w3.org/2000/svg" xmlns:xlink="http://www.w3.org/1999/xlink" width="375" height="284.073" viewBox="0 0 375 284.073">
  <defs>
    <linearGradient id="linear-gradient" x2="1" y2="1" gradientUnits="objectBoundingBox">
      <stop offset="0" stop-color="#ffbd69"/>
      <stop offset="1" stop-color="#ff6363"/>
    </linearGradient>
  </defs>
  <g id="introimage_a" transform="translate(0 0.005)">
    <rect id="back" width="375" height="283.758" transform="translate(0 0.311)" fill="none"/>
    <g id="Background_Complete" data-name="Background Complete" transform="translate(60.348)">
      <path id="Path_4739" data-name="Path 4739" d="M78.6,162.312H76.036a1.983,1.983,0,0,0-.783.083,1.226,1.226,0,0,0-.642.545,1.283,1.283,0,0,0-.148.417,2.675,2.675,0,0,0,0,.456v.475a2.246,2.246,0,0,1,0,.494,1.283,1.283,0,0,1-.577.834,1.225,1.225,0,0,1-.507.18H63.337a1.431,1.431,0,0,1-.379-.038,1.283,1.283,0,0,1-.642-.4,1.328,1.328,0,0,1-.314-.706,2.932,2.932,0,0,1,0-.391v-.391a2.073,2.073,0,0,0-.077-.764,1.283,1.283,0,0,0-.462-.6,1.213,1.213,0,0,0-.744-.2H54.7a4.132,4.132,0,0,0-1.745.334,4.088,4.088,0,0,0-1.463,1.11,3.991,3.991,0,0,0-.821,1.655c-.038.154-.051.308-.077.468a2.056,2.056,0,0,0,0,.4v63.858a4.145,4.145,0,0,0,.16,1.283A3.972,3.972,0,0,0,52.3,233.53a4.126,4.126,0,0,0,2.567.7H80.951a3.953,3.953,0,0,0,2.252-.873,4.221,4.221,0,0,0,.815-.9,3.92,3.92,0,0,0,.5-1.1,4.146,4.146,0,0,0,.148-1.187V166.431a4.044,4.044,0,0,0-3.451-4.081,3.206,3.206,0,0,0-.4-.038H78.6Z" transform="translate(-50.582 -73.327)" fill="#fafafa"/>
      <path id="Path_4740" data-name="Path 4740" d="M430.294,162.312h-2.567a1.983,1.983,0,0,0-.783.083,1.226,1.226,0,0,0-.642.545,1.283,1.283,0,0,0-.148.417,2.668,2.668,0,0,0,0,.456v.475a2.249,2.249,0,0,1,0,.494,1.283,1.283,0,0,1-.578.834,1.225,1.225,0,0,1-.507.18H415.035a1.43,1.43,0,0,1-.379-.038,1.283,1.283,0,0,1-.642-.4,1.328,1.328,0,0,1-.314-.706,2.928,2.928,0,0,1,0-.391v-.391a2.073,2.073,0,0,0-.077-.764,1.283,1.283,0,0,0-.462-.6,1.212,1.212,0,0,0-.744-.2h-5.993a4.132,4.132,0,0,0-1.745.334,4.088,4.088,0,0,0-1.457,1.084,3.992,3.992,0,0,0-.821,1.655c-.039.154-.051.308-.077.468a2.056,2.056,0,0,0,0,.4v63.884a4.137,4.137,0,0,0,.16,1.283,3.972,3.972,0,0,0,1.546,2.124,4.126,4.126,0,0,0,2.567.7h26.064a3.953,3.953,0,0,0,2.252-.873,4.224,4.224,0,0,0,.815-.9,3.922,3.922,0,0,0,.5-1.1,4.147,4.147,0,0,0,.148-1.187V166.431a4.044,4.044,0,0,0-3.451-4.081,3.2,3.2,0,0,0-.4-.038h-2.233Z" transform="translate(-176.62 -73.327)" fill="#fafafa"/>
      <path id="Path_4741" data-name="Path 4741" d="M200.407,75.269a12.981,12.981,0,0,1,.083,3.446l2.657,1.8-1.925,4.934L198.078,85a12.961,12.961,0,0,1-2.374,2.5l.642,3.138-4.838,2.143-1.925-2.567a12.935,12.935,0,0,1-3.446.083l-1.784,2.656-4.934-1.925.462-3.163a12.962,12.962,0,0,1-2.5-2.374l-3.138.642L172.1,81.3l2.567-1.925a12.935,12.935,0,0,1-.083-3.446l-2.656-1.784,1.925-4.934,3.163.462a12.994,12.994,0,0,1,2.374-2.5l-.642-3.138,4.825-2.137L185.5,64.47a12.93,12.93,0,0,1,3.446-.083l1.784-2.656,4.934,1.925-.462,3.163a12.963,12.963,0,0,1,2.5,2.374l3.138-.642,2.143,4.838-2.567,1.925Zm-7.591-.038a5.672,5.672,0,1,0-2.875,7.488,5.672,5.672,0,0,0,2.875-7.488Z" transform="translate(-94.066 -37.61)" fill="#e0e0e0" fill-rule="evenodd"/>
      <path id="Path_6369" data-name="Path 6369" d="M190.692,70.65a8.553,8.553,0,0,1,.055,2.27L192.5,74.1l-1.268,3.251-2.071-.292a8.541,8.541,0,0,1-1.564,1.649l.423,2.067-3.188,1.412L183.56,80.5a8.522,8.522,0,0,1-2.27.055l-1.175,1.75-3.251-1.268.3-2.084a8.54,8.54,0,0,1-1.645-1.564l-2.067.423-1.412-3.188,1.691-1.268a8.524,8.524,0,0,1-.055-2.27l-1.75-1.175,1.268-3.251,2.084.3a8.562,8.562,0,0,1,1.564-1.645l-.423-2.067L179.6,61.84l1.268,1.691a8.518,8.518,0,0,1,2.27-.055l1.175-1.75L187.568,63l-.3,2.084a8.54,8.54,0,0,1,1.649,1.564l2.067-.423,1.412,3.188-1.7,1.267Zm-5-.025a3.737,3.737,0,1,0-1.894,4.934,3.737,3.737,0,0,0,1.894-4.934Z" transform="translate(-88.245 -61.73)" fill="#f5f5f5" fill-rule="evenodd"/>
      <path id="Path_6370" data-name="Path 6370" d="M190.692,70.65a8.553,8.553,0,0,1,.055,2.27L192.5,74.1l-1.268,3.251-2.071-.292a8.541,8.541,0,0,1-1.564,1.649l.423,2.067-3.188,1.412L183.56,80.5a8.522,8.522,0,0,1-2.27.055l-1.175,1.75-3.251-1.268.3-2.084a8.54,8.54,0,0,1-1.645-1.564l-2.067.423-1.412-3.188,1.691-1.268a8.524,8.524,0,0,1-.055-2.27l-1.75-1.175,1.268-3.251,2.084.3a8.562,8.562,0,0,1,1.564-1.645l-.423-2.067L179.6,61.84l1.268,1.691a8.518,8.518,0,0,1,2.27-.055l1.175-1.75L187.568,63l-.3,2.084a8.54,8.54,0,0,1,1.649,1.564l2.067-.423,1.412,3.188-1.7,1.267Zm-5-.025a3.737,3.737,0,1,0-1.894,4.934,3.737,3.737,0,0,0,1.894-4.934Z" transform="translate(-66.148 -49.511)" fill="#ebebeb" fill-rule="evenodd"/>
      <path id="Path_4743" data-name="Path 4743" d="M334.081,360.187a15.218,15.218,0,0,1,.1,4.042l3.112,2.085-2.233,5.775-3.709-.539a15.2,15.2,0,0,1-2.785,2.932l.725,3.677-5.666,2.515-2.239-3a15.17,15.17,0,0,1-4.042.1l-2.085,3.112-5.775-2.233.539-3.709a15.208,15.208,0,0,1-2.932-2.785l-3.677.725-2.528-5.679,3-2.239a15.177,15.177,0,0,1-.1-4.043l-3.118-2.06,2.233-5.775,3.709.545a15.237,15.237,0,0,1,2.79-2.933l-.725-3.677,5.685-2.535,2.239,3a15.166,15.166,0,0,1,4.042-.1l2.085-3.112,5.775,2.233-.539,3.709A15.2,15.2,0,0,1,330.894,353l3.677-.725,2.515,5.672-3,2.239Zm-8.9-.045a6.654,6.654,0,1,0-3.382,8.784,6.654,6.654,0,0,0,3.382-8.784Z" transform="translate(-140.198 -138.1)" fill="#e0e0e0" fill-rule="evenodd"/>
      <path id="Path_6368" data-name="Path 6368" d="M321.933,354.4a9.684,9.684,0,0,1,.061,2.573l1.981,1.327-1.421,3.675-2.36-.343a9.675,9.675,0,0,1-1.772,1.866l.461,2.34-3.606,1.6-1.425-1.911a9.653,9.653,0,0,1-2.573.061l-1.327,1.981-3.675-1.421.343-2.36a9.68,9.68,0,0,1-1.866-1.772l-2.34.461-1.609-3.614,1.911-1.425a9.66,9.66,0,0,1-.061-2.573l-1.985-1.311,1.421-3.675,2.36.347a9.692,9.692,0,0,1,1.772-1.866l-.461-2.34,3.618-1.613,1.425,1.911a9.649,9.649,0,0,1,2.573-.061l1.327-1.981,3.675,1.421-.343,2.36a9.676,9.676,0,0,1,1.866,1.772l2.34-.461,1.6,3.61-1.911,1.425Zm-5.664-.029a4.235,4.235,0,1,0-2.152,5.59,4.235,4.235,0,0,0,2.152-5.59Z" transform="translate(-139.365 -98.391)" fill="#f5f5f5" fill-rule="evenodd"/>
      <path id="Path_4746" data-name="Path 4746" d="M419.332,394.643a12.417,12.417,0,0,1,7.7-.937,6.342,6.342,0,0,1,3.8,1.7c.95,1.059,1.129,2.9.038,3.8a3.645,3.645,0,0,1-2.4.61c-2.034,0-4.3-.385-5.923.84-.93.7-1.546,1.861-2.657,2.207a2.624,2.624,0,0,1-2.887-1.283,4.491,4.491,0,0,1-.327-3.311A5.05,5.05,0,0,1,419.332,394.643Z" transform="translate(-181.706 -155.726)" fill="#ebebeb"/>
      <path id="Path_4747" data-name="Path 4747" d="M411.788,367.289c1.431,2.047,4.216,1.367,5.512.122a10.383,10.383,0,0,0,2.336-4.787c1.136-3.946,2.278-8.085,1.437-12.1a6.725,6.725,0,0,0-1.546-3.292,3.51,3.51,0,0,0-3.33-1.11c-1.4.372-2.278,1.745-2.907,3.054a28.875,28.875,0,0,0-2.849,12.378,10.062,10.062,0,0,0,1.354,5.73" transform="translate(-179.532 -138.889)" fill="#ebebeb"/>
      <path id="Path_4748" data-name="Path 4748" d="M397.2,373.879A7.449,7.449,0,0,0,398.351,367a13.21,13.21,0,0,0-4.062-5.89,21.848,21.848,0,0,0-7.27-4.286,7.751,7.751,0,0,0-3.266-.558,3.433,3.433,0,0,0-2.74,1.662c-.764,1.457,0,3.208.764,4.671a55.377,55.377,0,0,0,4.774,7.27,12.877,12.877,0,0,0,5.249,4.492c2.182.828,4.447.738,5.6-.776" transform="translate(-168.874 -142.537)" fill="#ebebeb"/>
      <path id="Path_4749" data-name="Path 4749" d="M412.377,416.746a4.456,4.456,0,0,0,.128-.93l.244-2.567a36.665,36.665,0,0,1,.571-3.722,28.733,28.733,0,0,1,1.373-4.37,16.2,16.2,0,0,1,2.246-3.978,8.382,8.382,0,0,1,2.836-2.355,7.94,7.94,0,0,1,2.387-.744,4.488,4.488,0,0,0,.924-.135,4.353,4.353,0,0,0-.943,0,7.234,7.234,0,0,0-2.49.642,8.341,8.341,0,0,0-2.99,2.381,15.823,15.823,0,0,0-2.323,4.055,26.851,26.851,0,0,0-1.34,4.492,31.431,31.431,0,0,0-.494,3.767c-.083,1.078-.109,1.925-.128,2.567a4.363,4.363,0,0,0,0,.9Z" transform="translate(-180.218 -157.321)" fill="#e0e0e0"/>
      <path id="Path_4750" data-name="Path 4750" d="M412.542,400.771a1.841,1.841,0,0,0,0-.43v-1.232c0-1.072,0-2.618.058-4.537.1-3.85.423-7.944,1.059-13.751.6-5.461,1.412-11.813,2.265-15.945.186-.937.366-1.784.539-2.528s.308-1.38.443-1.925l.289-1.2a.216.216,0,1,0-.071-.019l-.359,1.181c-.16.513-.321,1.149-.507,1.886s-.4,1.579-.6,2.522a140.082,140.082,0,0,0-2.381,14.8c-.642,5.82-.924,11.12-.95,14.957,0,1.925,0,3.471.064,4.543l.077,1.232a1.828,1.828,0,0,0,.074.446Z" transform="translate(-180.209 -143.303)" fill="#e0e0e0"/>
      <path id="Path_4751" data-name="Path 4751" d="M405.06,392.323a8.207,8.207,0,0,0,0-1.283,33.823,33.823,0,0,0-.4-3.491,46.075,46.075,0,0,0-1.136-5.088,41.7,41.7,0,0,0-2.13-6.019,32.085,32.085,0,0,0-6.25-9.728,15.877,15.877,0,0,0-1.469-1.367c-.225-.193-.423-.379-.642-.533l-.571-.391a8.211,8.211,0,0,0-1.084-.693,38.492,38.492,0,0,1,3.555,3.176,33.8,33.8,0,0,1,6.089,9.7,47.587,47.587,0,0,1,2.137,5.967,51.728,51.728,0,0,1,1.206,5.037c.263,1.45.423,2.637.513,3.459a8.34,8.34,0,0,0,.182,1.254Z" transform="translate(-172.702 -145.07)" fill="#e0e0e0"/>
      <path id="Path_4752" data-name="Path 4752" d="M359.81,412.24l1.02,14.027h18.024l1.02-14.027Z" transform="translate(-137.327 -146.963)" fill="#e0e0e0"/>
      <rect id="Rectangle_2068" data-name="Rectangle 2068" width="23.96" height="5.531" transform="translate(220.737 259.746)" fill="#e0e0e0"/>
      <path id="Path_4753" data-name="Path 4753" d="M357.09,433.27v1.53h23.568v-1.53Z" transform="translate(-136.353 -154.499)" fill="#ebebeb"/>
      <path id="Path_4754" data-name="Path 4754" d="M359.954,438.351l-1.1-2.7h21.579l-1.29,2.7Z" transform="translate(-136.983 -155.352)" fill="#e0e0e0"/>
      <path id="Path_4755" data-name="Path 4755" d="M417.223,442.448a.58.58,0,0,1-.083.128l-.27.359-1.052,1.341-.045.058-.045-.064-2.567-3.568h.148l-2.567,3.593-.077.116-.09-.109-3.022-3.574h.173l-.167.2-2.7,3.375-.09.116-.083-.116-2.567-3.593h.148l-3.061,3.561-.058.064-.045-.071-.982-1.649-.25-.436a.7.7,0,0,1-.077-.154.7.7,0,0,1,.077.154l.276.424,1.027,1.617h-.1l3.08-3.606.077-.09.071.1,2.567,3.58H404.7l2.689-3.382.167-.2.083-.109.09.1,3,3.593h-.167l2.567-3.58.077-.1.071.1,2.522,3.606h-.09l1.091-1.283.3-.34a.59.59,0,0,1,.123-.161Z" transform="translate(-175.003 -172.583)" fill="#f5f5f5"/>
      <ellipse id="Ellipse_258" data-name="Ellipse 258" cx="10.087" cy="0.109" rx="10.087" ry="0.109" transform="translate(222.63 265.078)" fill="#f5f5f5"/>
      <ellipse id="Ellipse_259" data-name="Ellipse 259" cx="10.96" cy="0.109" rx="10.96" ry="0.109" transform="translate(221.79 280.343)" fill="#f5f5f5"/>
    </g>
    <g id="Floor" transform="translate(50.954 283.128)">
      <path id="Path_4756" data-name="Path 4756" d="M311.207,464.367c0,.09-61.278.167-136.847.167s-136.86-.077-136.86-.167,61.265-.167,136.86-.167S311.207,464.277,311.207,464.367Z" transform="translate(-37.5 -464.2)" fill="#455a64"/>
    </g>
    <g id="Plant" transform="translate(66.947 185.154)">
      <rect id="Rectangle_2069" data-name="Rectangle 2069" width="36.209" height="4.973" transform="translate(16.7 67.739)" fill="#263238"/>
      <path id="Path_4757" data-name="Path 4757" d="M124.337,422.088H88V417h36.331Zm-36.209-.122h36.081v-4.851H88.135Z" transform="translate(-71.371 -349.312)" fill="#263238"/>
      <path id="Path_4758" data-name="Path 4758" d="M55.84,398.11l5.21,25.711H80.332l5.037-24.056Z" transform="translate(-35.784 -327.054)" fill="#263238"/>
      <path id="Path_4759" data-name="Path 4759" d="M55.84,434.39l2.778,3.824h23.44l3.311-3.824Z" transform="translate(-35.784 -340.054)" fill="#455a64"/>
      <path id="Path_4760" data-name="Path 4760" d="M114.075,393.717c-.071,0-.16-11.909-.205-26.6s0-26.6.051-26.6.16,11.909.205,26.6S114.152,393.71,114.075,393.717Z" transform="translate(-80.634 -321.903)" fill="#263238"/>
      <path id="Path_4761" data-name="Path 4761" d="M124.9,377a1.283,1.283,0,0,1-.1.276l-.321.77-.237.558-.244.674-.276.776c-.1.276-.173.577-.269.885a36.036,36.036,0,0,0-1.014,4.434,53.949,53.949,0,0,0-.558,5.544,74.736,74.736,0,0,0,.289,10.125c.115,1.283.231,2.336.321,3.061l.09.834a1.282,1.282,0,0,1,0,.3,1.283,1.283,0,0,1-.064-.282l-.141-.828c-.116-.719-.263-1.758-.4-3.054a66.659,66.659,0,0,1-.359-10.158,50.532,50.532,0,0,1,.584-5.57,33.541,33.541,0,0,1,1.072-4.447c.1-.308.186-.61.289-.886l.3-.776.263-.642c.09-.2.18-.385.257-.552l.366-.751A1.238,1.238,0,0,1,124.9,377Z" transform="translate(-83.398 -334.979)" fill="#263238"/>
      <path id="Path_4762" data-name="Path 4762" d="M122.71,362a2.436,2.436,0,0,1-.115.391l-.379,1.11-.276.8-.289.962c-.212.687-.456,1.469-.674,2.355l-.366,1.38-.34,1.508c-.25,1.039-.436,2.162-.642,3.337-.4,2.368-.751,4.979-1,7.738s-.327,5.4-.366,7.8,0,4.562.122,6.378c0,.9.09,1.726.135,2.445s.09,1.341.135,1.848l.09,1.168a2.42,2.42,0,0,1,0,.411,2.425,2.425,0,0,1-.064-.4l-.135-1.161c-.064-.507-.122-1.123-.18-1.842s-.128-1.54-.173-2.445c-.122-1.816-.173-3.978-.18-6.417s.115-5.05.346-7.822.6-5.39,1.014-7.758c.237-1.181.43-2.31.693-3.343l.353-1.508.379-1.38c.231-.879.488-1.662.712-2.348l.314-.956.3-.8.423-1.091a2.41,2.41,0,0,1,.158-.36Z" transform="translate(-82.128 -329.604)" fill="#263238"/>
      <path id="Path_4763" data-name="Path 4763" d="M106.8,396.746a.565.565,0,0,1,0-.141l-.032-.411-.109-1.578-.366-5.775c-.314-4.9-.77-11.665-1.591-19.109-.423-3.722-.911-7.257-1.418-10.459-.27-1.6-.513-3.118-.8-4.537s-.526-2.733-.783-3.933-.5-2.284-.719-3.208-.411-1.765-.584-2.432l-.379-1.534-.09-.4a.572.572,0,0,1,0-.141.564.564,0,0,1,.051.135l.115.391.424,1.521c.186.642.4,1.476.642,2.425s.507,2.028.757,3.208.552,2.515.815,3.933.539,2.939.815,4.537c.52,3.208,1.02,6.744,1.437,10.466.828,7.45,1.251,14.219,1.521,19.122.135,2.451.225,4.434.282,5.807l.058,1.579v.411a.571.571,0,0,1-.051.122Z" transform="translate(-75.647 -322.828)" fill="#263238"/>
      <path id="Path_4764" data-name="Path 4764" d="M107.4,347.767a3.59,3.59,0,0,0-3.555-2.977,5.6,5.6,0,0,0-4.312,2.342,13.476,13.476,0,0,0-2.073,4.607A31.3,31.3,0,0,0,96.173,364a18.557,18.557,0,0,0,5.133,11.056,2.092,2.092,0,0,0,1.758.8,2.118,2.118,0,0,0,.93-.571,27.438,27.438,0,0,0,8.906-20.86,8.477,8.477,0,0,0-1.117-4.492c-.866-1.283-2.881-2.682-4.35-2.162" transform="translate(-74.25 -323.437)" fill="url(#linear-gradient)"/>
      <path id="Path_4765" data-name="Path 4765" d="M88.854,324.912,86.48,329.23c-.058.1-.128.212-.244.225s-.218-.109-.289-.212l-6.308-9.7,1.457-.821Z" transform="translate(-68.375 -314.095)" fill="#047bd5"/>
      <g id="Group_4179" data-name="Group 4179" transform="translate(11.265 4.625)">
        <path id="Path_4766" data-name="Path 4766" d="M88.854,324.912,86.48,329.23c-.058.1-.128.212-.244.225s-.218-.109-.289-.212l-6.308-9.7,1.457-.821Z" transform="translate(-79.64 -318.72)" fill="url(#linear-gradient)"/>
      </g>
      <path id="Path_4767" data-name="Path 4767" d="M101.674,330.119l-21.528-12.7a1,1,0,0,1-.526-.526.96.96,0,0,1,.385-.86,14.835,14.835,0,0,1,11.505-4.492,13.141,13.141,0,0,1,10.4,6.468,11.861,11.861,0,0,1-.237,12.147" transform="translate(-68.362 -311.512)" fill="url(#linear-gradient)"/>
      <path id="Path_4768" data-name="Path 4768" d="M85.26,314.35a1.184,1.184,0,0,1,.282-.032c.186,0,.462-.045.815-.038a16.172,16.172,0,0,1,2.984.237,17.46,17.46,0,0,1,13.931,12.609,16.18,16.18,0,0,1,.533,2.945,6.032,6.032,0,0,1,.032.642,1.059,1.059,0,0,1-.167.468,3.632,3.632,0,0,0,.032-1.084,18.36,18.36,0,0,0-.61-2.907A17.588,17.588,0,0,0,89.3,314.709a18.354,18.354,0,0,0-2.958-.314C85.651,314.363,85.26,314.375,85.26,314.35Z" transform="translate(-70.389 -312.503)" fill="#263238"/>
      <path id="Path_4769" data-name="Path 4769" d="M105.1,326.84a5.192,5.192,0,0,1-1.091.494c-.687.269-1.643.642-2.714.956s-2.053.642-2.772.789a5.187,5.187,0,0,1-1.174.225,5.85,5.85,0,0,1,1.123-.4l2.74-.853,2.733-.885A5.852,5.852,0,0,1,105.1,326.84Z" transform="translate(-74.721 -317.005)" fill="#263238"/>
      <path id="Path_4770" data-name="Path 4770" d="M104.14,312.65a15.046,15.046,0,0,1,.122,4.813,45.168,45.168,0,0,1-.122-4.813Z" transform="translate(-77.148 -311.92)" fill="#263238"/>
      <path id="Path_4771" data-name="Path 4771" d="M80.13,318.86a9.623,9.623,0,0,1,1.566-.552c.975-.3,2.342-.68,3.85-1.052s2.907-.642,3.914-.821a9.63,9.63,0,0,1,1.643-.225,11.59,11.59,0,0,1-1.6.4c-1,.225-2.374.533-3.888.892s-2.881.719-3.85.975A11.585,11.585,0,0,1,80.13,318.86Z" transform="translate(-68.551 -313.196)" fill="#263238"/>
      <path id="Path_4772" data-name="Path 4772" d="M86.3,342.833a8.84,8.84,0,0,0-6.128-1.591,18.737,18.737,0,0,0-6.712,1.732,20.568,20.568,0,0,0-9.208,7.251c-2.15,3.317-2.926,7.7-1.283,11.319a1.611,1.611,0,0,0,.738.892,1.758,1.758,0,0,0,1.213-.1A68.536,68.536,0,0,0,77,357.527a22.751,22.751,0,0,0,9.285-8.874,7.629,7.629,0,0,0,.975-2.945,3.664,3.664,0,0,0-.95-2.875" transform="translate(-62.084 -322.16)" fill="url(#linear-gradient)"/>
      <path id="Path_4773" data-name="Path 4773" d="M87.123,343a1.51,1.51,0,0,1-.3.122l-.866.3-.642.212c-.225.083-.468.186-.732.282-.52.212-1.129.423-1.765.731l-1.014.462c-.353.16-.7.359-1.072.552-.751.366-1.508.834-2.31,1.283a36.529,36.529,0,0,0-9.105,8.014c-.577.738-1.136,1.431-1.6,2.124-.237.347-.475.642-.68.995l-.584.943c-.391.6-.674,1.168-.95,1.662-.135.25-.263.475-.379.687l-.289.6-.4.821a1.5,1.5,0,0,1-.16.282,1.488,1.488,0,0,1,.109-.3l.359-.841.269-.6c.1-.218.231-.449.359-.7.263-.5.539-1.084.924-1.688l.578-.962c.205-.334.443-.642.674-1.007.456-.706,1.014-1.4,1.591-2.156a35.375,35.375,0,0,1,9.169-8.066c.815-.475,1.578-.937,2.336-1.283.379-.186.731-.385,1.084-.539l1.027-.449c.642-.3,1.283-.5,1.79-.7.263-.1.513-.192.744-.263l.642-.186.879-.25a1.476,1.476,0,0,1,.308-.07Z" transform="translate(-62.871 -322.795)" fill="#263238"/>
      <ellipse id="Ellipse_260" data-name="Ellipse 260" cx="4.729" cy="0.128" rx="4.729" ry="0.128" transform="translate(0.681 30.59) rotate(-16.315)" fill="#263238"/>
      <path id="Path_4774" data-name="Path 4774" d="M76.944,365.393a7.214,7.214,0,0,1-.1-1.4V360.6c0-1.322.109-2.522.18-3.388a7.192,7.192,0,0,1,.18-1.392,8.032,8.032,0,0,1,0,1.405l-.1,3.382-.083,3.381A8.026,8.026,0,0,1,76.944,365.393Z" transform="translate(-67.374 -327.389)" fill="#263238"/>
      <ellipse id="Ellipse_261" data-name="Ellipse 261" cx="0.128" cy="5.467" rx="0.128" ry="5.467" transform="translate(17.25 22.763) rotate(-3.955)" fill="#263238"/>
      <path id="Path_4775" data-name="Path 4775" d="M73.8,346.587a8.031,8.031,0,0,1,1.444-.045c.892,0,2.117.032,3.478.077s2.567.1,3.471.154a8.01,8.01,0,0,1,1.437.141,7.984,7.984,0,0,1-1.444.045c-.892,0-2.117-.032-3.478-.077s-2.567-.1-3.471-.154a7.963,7.963,0,0,1-1.437-.141Z" transform="translate(-66.282 -324.06)" fill="#263238"/>
      <path id="Path_4776" data-name="Path 4776" d="M105.614,377.328a1.224,1.224,0,0,1,0-.289l-.038-.828c-.032-.719-.039-1.765,0-3.048s.109-2.817.263-4.492.411-3.555.757-5.486.783-3.76,1.226-5.409.911-3.112,1.341-4.325.8-2.194,1.084-2.855l.327-.764a1.239,1.239,0,0,1,.128-.263,1.238,1.238,0,0,1-.083.276l-.282.783c-.257.674-.6,1.655-1.007,2.881s-.847,2.689-1.283,4.331-.847,3.465-1.2,5.4-.6,3.779-.776,5.467-.276,3.208-.321,4.492-.071,2.323-.071,3.041v.828a1.24,1.24,0,0,1-.064.263Z" transform="translate(-77.659 -325.15)" fill="#263238"/>
      <path id="Path_4777" data-name="Path 4777" d="M103.776,370.87a5.906,5.906,0,0,1-.86.943c-.558.558-1.347,1.283-2.252,2.092A30.456,30.456,0,0,1,98.3,375.83a5.9,5.9,0,0,1-1.046.725,6.646,6.646,0,0,1,.93-.866l2.316-2.008,2.3-2.034a6.632,6.632,0,0,1,.976-.777Z" transform="translate(-74.685 -332.782)" fill="#263238"/>
      <path id="Path_4778" data-name="Path 4778" d="M114.6,374.536a10.131,10.131,0,0,1-.918-1.283l-2.124-3.106-2.169-3.074a10.1,10.1,0,0,1-.873-1.283,8.742,8.742,0,0,1,1.014,1.187c.6.757,1.4,1.829,2.239,3.035s1.566,2.329,2.066,3.151a8.742,8.742,0,0,1,.765,1.373Z" transform="translate(-78.724 -330.962)" fill="#263238"/>
      <ellipse id="Ellipse_262" data-name="Ellipse 262" cx="6.089" cy="0.128" rx="6.089" ry="0.128" transform="translate(22.024 32.777) rotate(-32.74)" fill="#263238"/>
      <ellipse id="Ellipse_263" data-name="Ellipse 263" cx="0.128" cy="4.658" rx="0.128" ry="4.658" transform="translate(31.968 26.766) rotate(-45.68)" fill="#263238"/>
      <path id="Path_4779" data-name="Path 4779" d="M124.906,355.06l1.925-.16a9.625,9.625,0,0,0,3.921-1.2,15.6,15.6,0,0,1,1.829-.918c2.4-.963,5.082-.789,7.668-.924a31.75,31.75,0,0,0,12.192-3.119,1.187,1.187,0,0,0,.533-.481c.4-.725-.34-1.373-.982-1.765-3.272-2.015-6.6-4.062-10.318-5.063s-7.925-.834-11.094,1.348c-3.715,2.567-5.076,7.815-5.7,12.281" transform="translate(-84.586 -322.022)" fill="url(#linear-gradient)"/>
      <path id="Path_4780" data-name="Path 4780" d="M153.093,349.086a1.93,1.93,0,0,1-.327-.154l-.924-.481c-.8-.417-1.925-1.039-3.4-1.739a31.805,31.805,0,0,0-5.268-2.028,17.383,17.383,0,0,0-6.827-.552,11.665,11.665,0,0,0-6.224,2.669,13.834,13.834,0,0,0-3.208,4.549,38.1,38.1,0,0,0-1.412,3.542l-.346.982a1.925,1.925,0,0,1-.135.34,1.927,1.927,0,0,1,.083-.353l.3-1a32.337,32.337,0,0,1,1.341-3.587,13.771,13.771,0,0,1,3.247-4.652,11.8,11.8,0,0,1,6.346-2.746,17.37,17.37,0,0,1,6.924.577,30.6,30.6,0,0,1,5.281,2.092c1.45.719,2.567,1.367,3.369,1.809l.9.526a1.93,1.93,0,0,1,.28.2Z" transform="translate(-84.636 -323.068)" fill="#263238"/>
      <ellipse id="Ellipse_264" data-name="Ellipse 264" cx="0.128" cy="6.757" rx="0.128" ry="6.757" transform="translate(52.507 21.072) rotate(-56.01)" fill="#263238"/>
      <path id="Path_4781" data-name="Path 4781" d="M155.184,344a6.177,6.177,0,0,1-1.848.334,6.271,6.271,0,0,1-1.886,0,12.192,12.192,0,0,1,1.867-.192,12.291,12.291,0,0,1,1.867-.141Z" transform="translate(-94.107 -323.154)" fill="#263238"/>
      <path id="Path_4782" data-name="Path 4782" d="M138.873,341.73a4.928,4.928,0,0,1-.834,1.283,5.574,5.574,0,0,1-1.059,1.2,4.928,4.928,0,0,1,.834-1.283A5.576,5.576,0,0,1,138.873,341.73Z" transform="translate(-88.922 -322.34)" fill="#263238"/>
      <path id="Path_4783" data-name="Path 4783" d="M139.162,355.261a6.748,6.748,0,0,1-1.226-.642c-.731-.443-1.726-1.1-2.785-1.867s-2-1.5-2.669-2.028a7.552,7.552,0,0,1-1.052-.9,7.321,7.321,0,0,1,1.168.757l2.708,1.97c1.059.77,2.028,1.437,2.733,1.925a8.276,8.276,0,0,1,1.123.785Z" transform="translate(-86.933 -325.239)" fill="#263238"/>
      <path id="Path_4784" data-name="Path 4784" d="M126.836,375.418c-1.854-.488-4.062,1.283-4.447,3.208a8.9,8.9,0,0,0,1.149,5.531,28.234,28.234,0,0,0,7.661,10.029,18.948,18.948,0,0,0,11.717,4.312c-.783-3.638.2-7.443-.231-11.139a14.489,14.489,0,0,0-12.833-12.7c-1.181-.128-2.567-.314-3.022.776" transform="translate(-83.655 -334.103)" fill="url(#linear-gradient)"/>
      <path id="Path_4785" data-name="Path 4785" d="M145.456,398.965a1.234,1.234,0,0,1-.263-.122,4.8,4.8,0,0,1-.693-.468,7.225,7.225,0,0,1-1.829-2.445c-.3-.571-.642-1.2-.95-1.887l-.995-2.2a21.337,21.337,0,0,0-1.226-2.355,18.461,18.461,0,0,0-1.688-2.291c-1.283-1.489-2.631-2.778-3.811-4.01a26.185,26.185,0,0,1-2.9-3.487,12.833,12.833,0,0,1-1.418-2.714,8.067,8.067,0,0,1-.25-.8,1.22,1.22,0,0,1-.058-.282s.128.379.4,1.046a13.994,13.994,0,0,0,1.476,2.644,27.587,27.587,0,0,0,2.926,3.426c1.187,1.219,2.567,2.5,3.85,4.01a18.307,18.307,0,0,1,1.707,2.329,20.945,20.945,0,0,1,1.226,2.387l.975,2.214c.308.687.642,1.315.918,1.893a7.487,7.487,0,0,0,1.732,2.451C145.11,398.772,145.476,398.939,145.456,398.965Z" transform="translate(-86.195 -334.588)" fill="#263238"/>
      <path id="Path_4786" data-name="Path 4786" d="M139.51,402.529a5.556,5.556,0,0,1,.173-1.245c.148-.764.385-1.81.706-2.952a27.408,27.408,0,0,1,.943-2.887,5.556,5.556,0,0,1,.507-1.155,6.738,6.738,0,0,1-.334,1.213c-.231.738-.545,1.758-.866,2.894s-.584,2.169-.776,2.92a6.74,6.74,0,0,1-.353,1.212Z" transform="translate(-89.829 -341.175)" fill="#263238"/>
      <path id="Path_4787" data-name="Path 4787" d="M148.959,392.091a7.651,7.651,0,0,1-1.283-.3c-.8-.212-1.925-.494-3.125-.77s-2.348-.494-3.157-.642a7.636,7.636,0,0,1-1.283-.289,6.32,6.32,0,0,1,1.335.109c.821.109,1.925.3,3.208.571a31.191,31.191,0,0,1,3.125.847A6.306,6.306,0,0,1,148.959,392.091Z" transform="translate(-90.044 -339.668)" fill="#263238"/>
      <path id="Path_4788" data-name="Path 4788" d="M128.79,391.889a7.557,7.557,0,0,1,.2-1.444c.16-.885.424-2.1.77-3.427s.719-2.515,1.007-3.369a7.554,7.554,0,0,1,.533-1.36,8.847,8.847,0,0,1-.359,1.412c-.244.866-.584,2.053-.93,3.382s-.642,2.528-.841,3.4A8.861,8.861,0,0,1,128.79,391.889Z" transform="translate(-85.987 -336.875)" fill="#263238"/>
      <ellipse id="Ellipse_265" data-name="Ellipse 265" cx="0.128" cy="5.185" rx="0.128" ry="5.185" transform="translate(44.338 43.663) rotate(-83.97)" fill="#263238"/>
      <ellipse id="Ellipse_266" data-name="Ellipse 266" cx="18.166" cy="0.128" rx="18.166" ry="0.128" transform="translate(16.636 72.564)" fill="#455a64"/>
      <ellipse id="Ellipse_267" data-name="Ellipse 267" cx="12.237" cy="0.128" rx="12.237" ry="0.128" transform="translate(22.834 83.03)" fill="#455a64"/>
      <ellipse id="Ellipse_268" data-name="Ellipse 268" cx="12.025" cy="0.128" rx="12.025" ry="0.128" transform="translate(23.046 84.525)" fill="#455a64"/>
      <ellipse id="Ellipse_269" data-name="Ellipse 269" cx="12.66" cy="0.128" rx="12.66" ry="0.128" transform="translate(22.199 81.798)" fill="#455a64"/>
    </g>
    <g id="Screens" transform="translate(78.518 25.826)">
      <path id="Path_4789" data-name="Path 4789" d="M124.233,120.253h-4.145a3.164,3.164,0,0,0-1.245.135,1.925,1.925,0,0,0-.988.873,2.092,2.092,0,0,0-.231.642,4.26,4.26,0,0,0,0,.731v.764a3.573,3.573,0,0,1-.051.789,2.085,2.085,0,0,1-.924,1.328,1.925,1.925,0,0,1-.866.314H99.888a2.285,2.285,0,0,1-.6-.058,2,2,0,0,1-1.033-.642,2.117,2.117,0,0,1-.507-1.123,4.67,4.67,0,0,1,0-.642v-.642a3.3,3.3,0,0,0-.122-1.219,2,2,0,0,0-.738-.969,1.925,1.925,0,0,0-1.193-.327h-9.58a6.6,6.6,0,0,0-2.785.526,6.519,6.519,0,0,0-2.316,1.732,6.371,6.371,0,0,0-1.283,2.644c-.064.244-.083.494-.128.744a3.06,3.06,0,0,0,0,.642V228.4a6.609,6.609,0,0,0,.257,2.008,6.34,6.34,0,0,0,2.464,3.388,6.584,6.584,0,0,0,4.055,1.11h41.657a6.3,6.3,0,0,0,3.593-1.386,6.732,6.732,0,0,0,1.283-1.431,6.264,6.264,0,0,0,.8-1.745,6.609,6.609,0,0,0,.237-1.925v-62.8c0-15.156,0-27.431.039-35.933v-3a6.52,6.52,0,0,0-.468-2.567,6.384,6.384,0,0,0-5.05-3.908,5.139,5.139,0,0,0-.642-.058H124.2Z" transform="translate(-79.579 -84.37)" fill="#fafafa"/>
      <path id="Path_4790" data-name="Path 4790" d="M127.719,120.382h.218a4.746,4.746,0,0,1,.642.051,5.993,5.993,0,0,1,2.387.828,6.1,6.1,0,0,1,1.45,1.174,6.366,6.366,0,0,1,1.213,1.925,6.59,6.59,0,0,1,.475,2.567V228.656a6.81,6.81,0,0,1-.244,1.925,6.417,6.417,0,0,1-.751,1.822,6.885,6.885,0,0,1-1.328,1.469A6.416,6.416,0,0,1,128.1,235.3c-1.335.039-2.663,0-4,0H86.537a6.724,6.724,0,0,1-4.119-1.155,6.519,6.519,0,0,1-2.567-3.484,7.014,7.014,0,0,1-.263-2.156V126.837a5.158,5.158,0,0,1,.039-.77,7.166,7.166,0,0,1,.128-.757,6.439,6.439,0,0,1,6.532-4.992h9.606a2.034,2.034,0,0,1,1.283.353,2.1,2.1,0,0,1,.776,1.02,3.414,3.414,0,0,1,.128,1.283v.642a4.6,4.6,0,0,0,0,.61,2.008,2.008,0,0,0,.475,1.065,1.88,1.88,0,0,0,.975.6,2.157,2.157,0,0,0,.571.058h15.811a1.874,1.874,0,0,0,.776-.276,2.015,2.015,0,0,0,.892-1.283,3.537,3.537,0,0,0,.051-.77q0-.385,0-.764a4.348,4.348,0,0,1,.032-.744,2.156,2.156,0,0,1,.237-.68,2.008,2.008,0,0,1,1.014-.9,3.208,3.208,0,0,1,1.283-.135h-.013a3.144,3.144,0,0,0-1.245.135,1.925,1.925,0,0,0-.982.873,2.092,2.092,0,0,0-.231.642,4.286,4.286,0,0,0,0,.731v.764a3.588,3.588,0,0,1-.051.789,2.085,2.085,0,0,1-.924,1.328,1.925,1.925,0,0,1-.808.289h-15.88a2.271,2.271,0,0,1-.6-.058,1.983,1.983,0,0,1-1.027-.642,2.124,2.124,0,0,1-.5-1.123,4.689,4.689,0,0,1,0-.642q0-.308,0-.642a3.311,3.311,0,0,0-.122-1.219,1.989,1.989,0,0,0-.77-.873,1.925,1.925,0,0,0-1.187-.327H86.338a6.221,6.221,0,0,0-6.372,4.9c-.064.244-.083.494-.128.744s0,.5-.032.757V228.489a6.834,6.834,0,0,0,.257,2.1,6.339,6.339,0,0,0,2.451,3.388,6.545,6.545,0,0,0,4.042,1.11h41.567a6.269,6.269,0,0,0,3.58-1.386,6.722,6.722,0,0,0,1.283-1.431,6.267,6.267,0,0,0,.789-1.745,6.634,6.634,0,0,0,.237-1.925V165.811c0-15.156,0-27.431.038-35.933v-3a6.545,6.545,0,0,0-.462-2.567,6.368,6.368,0,0,0-5-3.908,5.046,5.046,0,0,0-.642-.058Z" transform="translate(-79.581 -84.428)" fill="#263238"/>
      <ellipse id="Ellipse_270" data-name="Ellipse 270" cx="2.348" cy="0.051" rx="2.348" ry="0.051" transform="translate(44.663 46.26) rotate(-0.47)" fill="#263238"/>
      <ellipse id="Ellipse_271" data-name="Ellipse 271" cx="2.348" cy="0.051" rx="2.348" ry="0.051" transform="translate(44.673 47.467) rotate(-0.47)" fill="#263238"/>
      <ellipse id="Ellipse_272" data-name="Ellipse 272" cx="2.348" cy="0.051" rx="2.348" ry="0.051" transform="translate(44.683 48.666) rotate(-0.47)" fill="#263238"/>
      <path id="Path_4791" data-name="Path 4791" d="M89.9,140.2h1.373v-1.142a.385.385,0,0,1,.334-.308h.481a.391.391,0,0,1,.327.385v1.059l-.045-.045h1.283l-.045.051v-1.983a.411.411,0,0,0-.18-.3l-.552-.545-.533-.526-.257-.257c-.09-.083-.16-.173-.263-.192a.34.34,0,0,0-.289.058c-.077.064-.16.154-.237.231l-.456.456c-.289.3-.584.565-.8.821a.9.9,0,0,0-.064.475v1.63a1.617,1.617,0,0,1,0,.167,1.162,1.162,0,0,1,0-.154v-1.886a.526.526,0,0,1,.071-.263c.231-.289.513-.539.8-.847l.449-.462c.083-.077.148-.16.244-.244a.43.43,0,0,1,.366-.071.68.68,0,0,1,.3.218l.257.257L93,137.3l.552.545a1.053,1.053,0,0,1,.141.154.417.417,0,0,1,.064.212v2.034H92.3v-1.1a.308.308,0,0,0-.257-.308h-.462a.308.308,0,0,0-.276.244v1.129H89.9Z" transform="translate(-83.277 -90.152)" fill="#263238"/>
      <ellipse id="Ellipse_273" data-name="Ellipse 273" cx="11.242" cy="0.327" rx="11.242" ry="0.327" transform="translate(16.049 91.836)" fill="#263238"/>
      <rect id="Rectangle_2070" data-name="Rectangle 2070" width="21.829" height="29.048" transform="translate(12.741 84.539) rotate(-89.656)" fill="url(#linear-gradient)"/>
      <path id="Path_4792" data-name="Path 4792" d="M61.94,164.453,72.155,150.94l6.237,8.521,4.293-4.511,8.3,9.663Z" transform="translate(-49.196 -79.913)" fill="#047bd5"/>
      <circle id="Ellipse_274" data-name="Ellipse 274" cx="2.284" cy="2.284" r="2.284" transform="translate(27.342 71.673) rotate(-89.656)" fill="#047bd5"/>
      <g id="Group_4180" data-name="Group 4180" transform="translate(12.744 71.027)">
        <path id="Path_4793" data-name="Path 4793" d="M61.94,164.453,72.155,150.94l6.237,8.521,4.293-4.511,8.3,9.663Z" transform="translate(-61.94 -150.94)" fill="#ffbd69"/>
      </g>
      <g id="Group_4181" data-name="Group 4181" transform="translate(27.342 67.105)">
        <circle id="Ellipse_275" data-name="Ellipse 275" cx="2.284" cy="2.284" r="2.284" transform="translate(0 4.569) rotate(-89.656)" fill="#ffbd69"/>
      </g>
      <ellipse id="Ellipse_276" data-name="Ellipse 276" cx="19.936" cy="0.327" rx="19.936" ry="0.327" transform="translate(7.412 99.87)" fill="#263238"/>
      <ellipse id="Ellipse_277" data-name="Ellipse 277" cx="19.936" cy="0.327" rx="19.936" ry="0.327" transform="translate(7.412 105.426)" fill="#263238"/>
      <ellipse id="Ellipse_278" data-name="Ellipse 278" cx="19.936" cy="0.327" rx="19.936" ry="0.327" transform="translate(7.412 110.983)" fill="#263238"/>
      <ellipse id="Ellipse_279" data-name="Ellipse 279" cx="19.936" cy="0.327" rx="19.936" ry="0.327" transform="translate(7.412 116.547)" fill="#263238"/>
      <ellipse id="Ellipse_280" data-name="Ellipse 280" cx="19.936" cy="0.327" rx="19.936" ry="0.327" transform="translate(7.412 122.103)" fill="#263238"/>
      <path id="Path_4794" data-name="Path 4794" d="M127.132,262.917a17.059,17.059,0,0,1-3.35.231c-2.066.058-4.934.1-8.091.1s-6.025-.039-8.091-.1a17.059,17.059,0,0,1-3.349-.231,17.066,17.066,0,0,1,3.349-.231c2.066-.058,4.934-.1,8.091-.1s6.019.038,8.091.1A19.888,19.888,0,0,1,127.132,262.917Z" transform="translate(-88.419 -135.411)" fill="#263238"/>
      <path id="Path_4795" data-name="Path 4795" d="M183.56,105.745h-4.607a3.5,3.5,0,0,0-1.386.148,2.176,2.176,0,0,0-1.1.975,2.336,2.336,0,0,0-.257.738,4.775,4.775,0,0,0-.032.815v.847a4,4,0,0,1-.058.879,2.329,2.329,0,0,1-1.027,1.482,2.169,2.169,0,0,1-.9.321h-17.66a2.568,2.568,0,0,1-.642-.064,2.214,2.214,0,0,1-1.149-.712,2.368,2.368,0,0,1-.558-1.251,5.241,5.241,0,0,1,0-.693v-.693a3.689,3.689,0,0,0-.141-1.36,2.22,2.22,0,0,0-.821-1.078,2.143,2.143,0,0,0-1.322-.366H141.2a7.019,7.019,0,0,0-7.129,5.461c-.071.269-.09.552-.141.828a3.243,3.243,0,0,0,0,.706v113.65a7.393,7.393,0,0,0,.282,2.239,7.059,7.059,0,0,0,2.733,3.779,7.3,7.3,0,0,0,4.492,1.238h46.335a6.994,6.994,0,0,0,3.991-1.546,7.494,7.494,0,0,0,1.437-1.6,6.994,6.994,0,0,0,.885-1.925,7.406,7.406,0,0,0,.263-2.117V215.8c0-22.362,0-42.5.032-59.412s0-30.6.038-40.059V112.98a7.3,7.3,0,0,0-.52-2.862,7.118,7.118,0,0,0-5.582-4.357,5.679,5.679,0,0,0-.719-.064H186.39Z" transform="translate(-99.046 -79.192)" fill="#fafafa"/>
      <path id="Path_4796" data-name="Path 4796" d="M187.3,105.589h.244a5.3,5.3,0,0,1,.719.058,6.68,6.68,0,0,1,2.663.918,6.809,6.809,0,0,1,1.617,1.283,7.1,7.1,0,0,1,1.354,2.117,7.352,7.352,0,0,1,.533,2.881V226.312a7.6,7.6,0,0,1-.269,2.169,7.18,7.18,0,0,1-.9,2,7.7,7.7,0,0,1-1.476,1.643,7.186,7.186,0,0,1-4.1,1.591c-1.489.045-2.964,0-4.492,0H141.366a7.5,7.5,0,0,1-4.626-1.283,7.27,7.27,0,0,1-2.817-3.888,7.824,7.824,0,0,1-.3-2.4V112.75a6.737,6.737,0,0,1,.186-1.707,7.184,7.184,0,0,1,7.27-5.576H151.71a2.271,2.271,0,0,1,1.4.391,2.348,2.348,0,0,1,.866,1.142,3.8,3.8,0,0,1,.141,1.405v.693a5.129,5.129,0,0,0,0,.674,2.246,2.246,0,0,0,.533,1.187,2.092,2.092,0,0,0,1.084.642,2.406,2.406,0,0,0,.642.064H174.04a2.085,2.085,0,0,0,.866-.308,2.246,2.246,0,0,0,.995-1.431,3.932,3.932,0,0,0,.058-.86v-.847a4.827,4.827,0,0,1,.039-.828,2.4,2.4,0,0,1,.269-.764,2.24,2.24,0,0,1,1.136-1,3.555,3.555,0,0,1,1.412-.148h.09a3.5,3.5,0,0,0-1.386.148,2.175,2.175,0,0,0-1.1.975,2.335,2.335,0,0,0-.257.738,4.774,4.774,0,0,0-.032.815V109a4,4,0,0,1-.058.879,2.329,2.329,0,0,1-1.027,1.482,2.175,2.175,0,0,1-.9.321H156.484a2.567,2.567,0,0,1-.642-.064,2.214,2.214,0,0,1-1.149-.712,2.368,2.368,0,0,1-.558-1.251,5.257,5.257,0,0,1,0-.693v-.693a3.7,3.7,0,0,0-.141-1.36,2.22,2.22,0,0,0-.879-.911,2.143,2.143,0,0,0-1.322-.366H141.148a7.03,7.03,0,0,0-7.129,5.467c-.071.27-.09.552-.141.828a5.283,5.283,0,0,0-.038.847v113.4a7.61,7.61,0,0,0,.289,2.342,7.058,7.058,0,0,0,2.733,3.779,7.3,7.3,0,0,0,4.492,1.238h46.373a6.988,6.988,0,0,0,3.991-1.546,7.5,7.5,0,0,0,1.437-1.6,6.994,6.994,0,0,0,.885-1.925,7.4,7.4,0,0,0,.263-2.117V215.7c0-22.362,0-42.5.032-59.412s0-30.6.038-40.059V112.88a7.289,7.289,0,0,0-.52-2.862,7.117,7.117,0,0,0-5.582-4.357,5.659,5.659,0,0,0-.719-.064Z" transform="translate(-98.945 -79.107)" fill="#263238"/>
      <ellipse id="Ellipse_281" data-name="Ellipse 281" cx="2.618" cy="0.058" rx="2.618" ry="0.058" transform="translate(84.48 37.977) rotate(-0.47)" fill="#263238"/>
      <ellipse id="Ellipse_282" data-name="Ellipse 282" cx="2.618" cy="0.058" rx="2.618" ry="0.058" transform="translate(84.491 39.318) rotate(-0.47)" fill="#263238"/>
      <ellipse id="Ellipse_283" data-name="Ellipse 283" cx="2.618" cy="0.058" rx="2.618" ry="0.058" transform="translate(84.508 40.659) rotate(-0.47)" fill="#263238"/>
      <path id="Path_4797" data-name="Path 4797" d="M145.12,127.716h1.527v-1.277a.43.43,0,0,1,.379-.347h.533a.436.436,0,0,1,.366.43V127.7l-.051-.051h1.412l-.051.051v-2.2a.456.456,0,0,0-.2-.334l-.642-.61-.6-.59-.289-.282a.691.691,0,0,0-.289-.218.379.379,0,0,0-.321.064c-.083.071-.18.173-.263.257l-.507.513c-.321.334-.642.642-.892.918a1,1,0,0,0-.071.526v1.816a1.719,1.719,0,0,1,0,.186,1.287,1.287,0,0,1,0-.167v-2.1a.584.584,0,0,1,.077-.3c.263-.321.571-.6.892-.943l.5-.513c.09-.09.167-.18.27-.27a.481.481,0,0,1,.411-.083.764.764,0,0,1,.34.244l.289.282.6.584.642.61a1.176,1.176,0,0,1,.16.173.462.462,0,0,1,.077.237v2.259H147.9v-1.232a.34.34,0,0,0-.282-.34H147.1a.346.346,0,0,0-.3.276v1.258h-1.566Z" transform="translate(-103.065 -85.519)" fill="#263238"/>
      <circle id="Ellipse_284" data-name="Ellipse 284" cx="4.729" cy="4.729" r="4.729" transform="translate(61.132 44.809)" fill="url(#linear-gradient)"/>
      <path id="Path_4798" data-name="Path 4798" d="M182.947,143.441H179.7v-.4a1.623,1.623,0,0,1,1.623-1.623h0a1.623,1.623,0,0,1,1.623,1.623Z" transform="translate(-115.456 -91.991)" fill="#fff"/>
      <circle id="Ellipse_285" data-name="Ellipse 285" cx="0.956" cy="0.956" r="0.956" transform="translate(64.905 47.625)" fill="#fff"/>
      <ellipse id="Ellipse_286" data-name="Ellipse 286" cx="12.538" cy="0.366" rx="12.538" ry="0.366" transform="translate(52.566 61.678)" fill="#263238"/>
      <rect id="Rectangle_2071" data-name="Rectangle 2071" width="16.273" height="21.656" transform="translate(39.43 90.783) rotate(-89.656)" fill="url(#linear-gradient)"/>
      <path id="Path_4799" data-name="Path 4799" d="M103.53,176.1l7.623-10.074,4.646,6.352,3.2-3.362,6.192,7.206Z" transform="translate(-64.099 -85.32)" fill="#047bd5"/>
      <circle id="Ellipse_287" data-name="Ellipse 287" cx="1.707" cy="1.707" r="1.707" transform="translate(50.313 81.198) rotate(-89.656)" fill="#047bd5"/>
      <g id="Group_4182" data-name="Group 4182" transform="translate(39.431 80.71)">
        <path id="Path_4800" data-name="Path 4800" d="M103.53,176.1l7.623-10.074,4.646,6.352,3.2-3.362,6.192,7.206Z" transform="translate(-103.53 -166.03)" fill="#ffbd69"/>
      </g>
      <g id="Group_4183" data-name="Group 4183" transform="translate(50.313 77.784)">
        <circle id="Ellipse_288" data-name="Ellipse 288" cx="1.707" cy="1.707" r="1.707" transform="translate(0 3.414) rotate(-89.656)" fill="#ffbd69"/>
      </g>
      <rect id="Rectangle_2072" data-name="Rectangle 2072" width="37.621" height="50.056" transform="translate(39.231 133.425) rotate(-89.656)" fill="url(#linear-gradient)"/>
      <path id="Path_4801" data-name="Path 4801" d="M103.22,235.182l17.614-23.292,10.754,14.694,7.386-7.783,14.3,16.658Z" transform="translate(-63.988 -101.754)" fill="#047bd5"/>
      <circle id="Ellipse_289" data-name="Ellipse 289" cx="3.94" cy="3.94" r="3.94" transform="translate(64.393 111.262) rotate(-89.656)" fill="#047bd5"/>
      <g id="Group_4184" data-name="Group 4184" transform="translate(39.232 110.136)">
        <path id="Path_4802" data-name="Path 4802" d="M103.22,235.182l17.614-23.292,10.754,14.694,7.386-7.783,14.3,16.658Z" transform="translate(-103.22 -211.89)" fill="#ffbd69"/>
      </g>
      <g id="Group_4185" data-name="Group 4185" transform="translate(64.393 103.382)">
        <circle id="Ellipse_290" data-name="Ellipse 290" cx="3.94" cy="3.94" r="3.94" transform="translate(0 7.879) rotate(-89.656)" fill="#ffbd69"/>
      </g>
      <rect id="Rectangle_2073" data-name="Rectangle 2073" width="16.273" height="21.656" transform="translate(68.022 90.784) rotate(-89.656)" fill="#ffbd69"/>
      <path id="Path_4803" data-name="Path 4803" d="M148.08,176.1l7.62-10.07,4.646,6.352,3.2-3.362,6.192,7.206Z" transform="translate(-80.063 -85.32)" fill="#047bd5"/>
      <circle id="Ellipse_291" data-name="Ellipse 291" cx="1.707" cy="1.707" r="1.707" transform="translate(78.899 81.198) rotate(-89.656)" fill="#047bd5"/>
      <g id="Group_4186" data-name="Group 4186" transform="translate(68.017 80.71)">
        <path id="Path_4804" data-name="Path 4804" d="M148.08,176.1l7.62-10.07,4.646,6.352,3.2-3.362,6.192,7.206Z" transform="translate(-148.08 -166.03)" fill="#ffbd69"/>
      </g>
      <g id="Group_4187" data-name="Group 4187" transform="translate(78.899 77.785)" opacity="0.2">
        <circle id="Ellipse_292" data-name="Ellipse 292" cx="1.707" cy="1.707" r="1.707" transform="translate(0 3.414) rotate(-89.656)"/>
      </g>
      <path id="Path_4805" data-name="Path 4805" d="M395.989,115.626h-4.132a3.144,3.144,0,0,0-1.245.135,1.925,1.925,0,0,0-.982.873,2.092,2.092,0,0,0-.231.642,4.274,4.274,0,0,0,0,.731v.764a3.588,3.588,0,0,1-.051.789,2.086,2.086,0,0,1-.956,1.36,1.925,1.925,0,0,1-.809.289H371.708a2.272,2.272,0,0,1-.6-.058,1.983,1.983,0,0,1-1.027-.642,2.124,2.124,0,0,1-.5-1.123,4.7,4.7,0,0,1,0-.642V118.1a3.31,3.31,0,0,0-.122-1.219,1.989,1.989,0,0,0-.738-.969,1.925,1.925,0,0,0-1.187-.327H358a6.231,6.231,0,0,0-6.372,4.9c-.064.244-.083.494-.128.744a3.061,3.061,0,0,0,0,.642V223.843a6.627,6.627,0,0,0,.257,2.008,6.333,6.333,0,0,0,2.451,3.388,6.545,6.545,0,0,0,4.043,1.11h41.567a6.269,6.269,0,0,0,3.58-1.386,6.719,6.719,0,0,0,1.283-1.431,6.261,6.261,0,0,0,.789-1.745,6.633,6.633,0,0,0,.237-1.925V161.069c0-15.156,0-27.431.038-35.933v-3a6.537,6.537,0,0,0-.462-2.567,6.368,6.368,0,0,0-5.005-3.908,5.082,5.082,0,0,0-.642-.058h-3.625Z" transform="translate(-177.014 -82.733)" fill="#fafafa"/>
      <rect id="Rectangle_2074" data-name="Rectangle 2074" width="35.831" height="7.321" transform="translate(183.363 76.064)" fill="#ebebeb"/>
      <path id="Path_4806" data-name="Path 4806" d="M399.466,115.481h.218a4.731,4.731,0,0,1,.642.051,5.993,5.993,0,0,1,2.387.828,6.1,6.1,0,0,1,1.45,1.174,6.365,6.365,0,0,1,1.213,1.925,6.59,6.59,0,0,1,.475,2.567q0,1.412,0,3v98.726a6.81,6.81,0,0,1-.244,1.925,6.417,6.417,0,0,1-.815,1.8,6.886,6.886,0,0,1-1.328,1.469,6.417,6.417,0,0,1-3.677,1.424c-1.335.038-2.663,0-4,0H358.278a6.725,6.725,0,0,1-4.145-1.142,6.519,6.519,0,0,1-2.522-3.484,7.012,7.012,0,0,1-.263-2.156V121.923a5.153,5.153,0,0,1,.039-.77,7.162,7.162,0,0,1,.128-.757,6.439,6.439,0,0,1,6.532-4.992h9.529a2.041,2.041,0,0,1,1.283.353,2.1,2.1,0,0,1,.776,1.02,3.413,3.413,0,0,1,.128,1.283v.642a4.629,4.629,0,0,0,0,.61,2.015,2.015,0,0,0,.475,1.065,1.88,1.88,0,0,0,.975.6,2.156,2.156,0,0,0,.571.058h15.843a1.874,1.874,0,0,0,.776-.276,2.015,2.015,0,0,0,.892-1.283,3.53,3.53,0,0,0,.051-.77v-.764a4.349,4.349,0,0,1,.032-.744,2.156,2.156,0,0,1,.237-.68,2.008,2.008,0,0,1,1.014-.9,3.208,3.208,0,0,1,1.283-.135h.019a3.144,3.144,0,0,0-1.245.135,1.925,1.925,0,0,0-.982.873,2.092,2.092,0,0,0-.231.642,4.274,4.274,0,0,0,0,.731v.764a3.591,3.591,0,0,1-.051.789,2.085,2.085,0,0,1-.924,1.328,1.925,1.925,0,0,1-.808.289H371.81a2.279,2.279,0,0,1-.6-.058,1.983,1.983,0,0,1-1.027-.642,2.124,2.124,0,0,1-.5-1.123,4.71,4.71,0,0,1,0-.642v-.642a3.311,3.311,0,0,0-.122-1.219,1.989,1.989,0,0,0-.738-.969,1.925,1.925,0,0,0-1.187-.327h-9.561a6.231,6.231,0,0,0-6.372,4.9c-.064.244-.083.494-.128.744s0,.5-.032.757V223.486a6.827,6.827,0,0,0,.257,2.1,6.333,6.333,0,0,0,2.451,3.388,6.545,6.545,0,0,0,4.043,1.11h41.567a6.269,6.269,0,0,0,3.581-1.386,6.726,6.726,0,0,0,1.283-1.431,6.267,6.267,0,0,0,.789-1.745,6.631,6.631,0,0,0,.237-1.925V160.808c0-15.156,0-27.431.038-35.933v-3a6.537,6.537,0,0,0-.462-2.567,6.368,6.368,0,0,0-5-3.908,5.08,5.08,0,0,0-.642-.058Z" transform="translate(-176.962 -82.646)" fill="#263238"/>
      <ellipse id="Ellipse_293" data-name="Ellipse 293" cx="2.348" cy="0.051" rx="2.348" ry="0.051" transform="translate(219.024 43.149) rotate(-0.47)" fill="#263238"/>
      <ellipse id="Ellipse_294" data-name="Ellipse 294" cx="2.348" cy="0.051" rx="2.348" ry="0.051" transform="translate(219.04 44.356) rotate(-0.47)" fill="#263238"/>
      <ellipse id="Ellipse_295" data-name="Ellipse 295" cx="2.348" cy="0.051" rx="2.348" ry="0.051" transform="translate(219.044 45.555) rotate(-0.47)" fill="#263238"/>
      <path id="Path_4807" data-name="Path 4807" d="M361.64,135.341h1.373V134.2a.385.385,0,0,1,.334-.308h.481a.391.391,0,0,1,.327.385v1.059l-.045-.045h1.283l-.051.051v-1.983a.411.411,0,0,0-.18-.3l-.552-.545-.533-.526-.257-.257c-.09-.083-.16-.173-.263-.193a.34.34,0,0,0-.289.058c-.077.064-.16.154-.237.231l-.456.456c-.289.3-.584.565-.8.821a.9.9,0,0,0-.064.475v1.63a1.622,1.622,0,0,1,0,.167,1.168,1.168,0,0,1,0-.154v-1.88a.527.527,0,0,1,.071-.263c.231-.289.513-.539.8-.847l.449-.462c.083-.077.148-.16.244-.244a.43.43,0,0,1,.366-.071.68.68,0,0,1,.3.218l.257.257.533.526.552.545a1.065,1.065,0,0,1,.141.154.418.418,0,0,1,.064.212V135.4h-1.36v-1.1a.308.308,0,0,0-.257-.308h-.462a.308.308,0,0,0-.276.244c0,.128,0,.276,0,.4v.725h-1.4Z" transform="translate(-180.652 -88.415)" fill="#263238"/>
      <rect id="Rectangle_2075" data-name="Rectangle 2075" width="35.831" height="7.321" transform="translate(183.44 86.985)" fill="#ebebeb"/>
      <rect id="Rectangle_2076" data-name="Rectangle 2076" width="35.831" height="7.321" transform="translate(183.44 97.605)" fill="#ebebeb"/>
      <path id="Path_4808" data-name="Path 4808" d="M395.8,246.495H377.837a3.658,3.658,0,0,1-3.657-3.657h0a3.658,3.658,0,0,1,3.657-3.657H395.8a3.657,3.657,0,0,1,3.657,3.657h0a3.657,3.657,0,0,1-3.657,3.657Z" transform="translate(-185.145 -127.022)" fill="url(#linear-gradient)"/>
      <ellipse id="Ellipse_296" data-name="Ellipse 296" cx="11.242" cy="0.327" rx="11.242" ry="0.327" transform="translate(190.337 68.178)" fill="#263238"/>
      <path id="Path_4809" data-name="Path 4809" d="M347.333,103.828h-4.607a3.5,3.5,0,0,0-1.386.148,2.175,2.175,0,0,0-1.1.975,2.337,2.337,0,0,0-.257.738,4.782,4.782,0,0,0-.032.815v.847a4,4,0,0,1-.058.879,2.329,2.329,0,0,1-1.027,1.482,2.168,2.168,0,0,1-.9.321h-17.66a2.566,2.566,0,0,1-.642-.064,2.214,2.214,0,0,1-1.149-.712,2.367,2.367,0,0,1-.558-1.251,5.246,5.246,0,0,1,0-.693v-.693a3.692,3.692,0,0,0-.141-1.36,2.22,2.22,0,0,0-.821-1.078,2.143,2.143,0,0,0-1.328-.366h-10.7a7.03,7.03,0,0,0-7.129,5.467c-.071.27-.09.552-.141.828s0,.468-.032.706V224.468a7.394,7.394,0,0,0,.282,2.239,7.058,7.058,0,0,0,2.734,3.779,7.3,7.3,0,0,0,4.492,1.238H351.51a6.994,6.994,0,0,0,3.991-1.546,7.5,7.5,0,0,0,1.437-1.6,6.988,6.988,0,0,0,.886-1.925,7.4,7.4,0,0,0,.263-2.118V213.893c0-22.362,0-42.5.032-59.412s0-30.594.038-40.059v-3.349a7.294,7.294,0,0,0-.52-2.862,7.117,7.117,0,0,0-5.582-4.357,5.655,5.655,0,0,0-.719-.064H350.13Z" transform="translate(-157.727 -78.507)" fill="#fafafa"/>
      <path id="Path_4810" data-name="Path 4810" d="M351.083,103.929h.244a5.288,5.288,0,0,1,.719.058,6.68,6.68,0,0,1,2.663.918,6.81,6.81,0,0,1,1.617,1.283,7.1,7.1,0,0,1,1.354,2.118,7.352,7.352,0,0,1,.532,2.881V224.652a7.594,7.594,0,0,1-.269,2.169,7.185,7.185,0,0,1-.9,2,7.7,7.7,0,0,1-1.476,1.643,7.187,7.187,0,0,1-4.1,1.591c-1.489.045-2.965,0-4.492,0H305.146a7.5,7.5,0,0,1-4.626-1.283,7.27,7.27,0,0,1-2.817-3.888,7.822,7.822,0,0,1-.3-2.4V111.09a6.4,6.4,0,0,1,.038-.86,6.321,6.321,0,0,1,.148-.847,7.184,7.184,0,0,1,7.27-5.576H315.49a2.271,2.271,0,0,1,1.4.391,2.349,2.349,0,0,1,.866,1.142,3.806,3.806,0,0,1,.141,1.4v.693a5.223,5.223,0,0,0,0,.674,2.245,2.245,0,0,0,.533,1.187,2.091,2.091,0,0,0,1.084.642,2.407,2.407,0,0,0,.642.064H337.9a2.085,2.085,0,0,0,.866-.308,2.246,2.246,0,0,0,.995-1.431,3.933,3.933,0,0,0,.058-.86v-.847a4.846,4.846,0,0,1,.039-.828,2.408,2.408,0,0,1,.27-.764,2.239,2.239,0,0,1,1.136-1,3.555,3.555,0,0,1,1.412-.148h.032a3.5,3.5,0,0,0-1.386.148,2.175,2.175,0,0,0-1.1.975,2.336,2.336,0,0,0-.257.738,4.792,4.792,0,0,0-.032.815v.847a4.011,4.011,0,0,1-.058.879,2.329,2.329,0,0,1-1.027,1.482,2.169,2.169,0,0,1-.9.321h-17.7a2.567,2.567,0,0,1-.642-.064,2.214,2.214,0,0,1-1.149-.712A2.368,2.368,0,0,1,317.9,108a5.262,5.262,0,0,1,0-.693v-.693a3.7,3.7,0,0,0-.141-1.36,2.22,2.22,0,0,0-.821-1.078,2.143,2.143,0,0,0-1.322-.366H304.928a7.03,7.03,0,0,0-7.129,5.467c-.071.27-.09.552-.141.828a5.28,5.28,0,0,0-.039.847V224.344a7.617,7.617,0,0,0,.289,2.342,7.058,7.058,0,0,0,2.733,3.779,7.3,7.3,0,0,0,4.492,1.238h46.335a6.988,6.988,0,0,0,4-1.367,7.5,7.5,0,0,0,1.437-1.6,6.986,6.986,0,0,0,.885-1.925,7.4,7.4,0,0,0,.263-2.117V214.051c0-22.362,0-42.5.032-59.412s0-30.594.039-40.059v-3.349a7.3,7.3,0,0,0-.52-2.862,7.117,7.117,0,0,0-5.582-4.357,5.665,5.665,0,0,0-.719-.064Z" transform="translate(-157.633 -78.512)" fill="#263238"/>
      <ellipse id="Ellipse_297" data-name="Ellipse 297" cx="2.618" cy="0.058" rx="2.618" ry="0.058" transform="translate(189.579 36.904) rotate(-0.47)" fill="#263238"/>
      <ellipse id="Ellipse_298" data-name="Ellipse 298" cx="2.618" cy="0.058" rx="2.618" ry="0.058" transform="translate(189.583 38.245) rotate(-0.47)" fill="#263238"/>
      <ellipse id="Ellipse_299" data-name="Ellipse 299" cx="2.618" cy="0.058" rx="2.618" ry="0.058" transform="translate(189.601 39.586) rotate(-0.47)" fill="#263238"/>
      <path id="Path_4811" data-name="Path 4811" d="M308.9,126.026h1.527v-1.277a.43.43,0,0,1,.379-.346h.533a.436.436,0,0,1,.366.43v1.181l-.051-.051h1.412l-.051.058v-2.214a.456.456,0,0,0-.2-.334l-.642-.61-.6-.59-.289-.282a.669.669,0,0,0-.3-.218.378.378,0,0,0-.321.064c-.083.071-.18.173-.263.257l-.507.513c-.321.334-.642.642-.892.918a1,1,0,0,0-.071.526v1.816a1.792,1.792,0,0,1,0,.186,1.281,1.281,0,0,1,0-.167v-2.1a.583.583,0,0,1,.077-.3c.263-.321.571-.6.892-.943l.5-.513c.09-.09.167-.18.27-.269a.481.481,0,0,1,.411-.083.764.764,0,0,1,.34.244l.289.282.6.584.642.61a1.166,1.166,0,0,1,.16.173.462.462,0,0,1,.077.237v2.259h-1.521v-1.232a.34.34,0,0,0-.282-.34h-.513a.347.347,0,0,0-.3.276v1.258H308.9Z" transform="translate(-161.753 -84.913)" fill="#263238"/>
      <path id="Path_5850" data-name="Path 5850" d="M11.858,0A11.858,11.858,0,1,1,0,11.858,11.858,11.858,0,0,1,11.858,0Z" transform="translate(159.159 55.71)" fill="url(#linear-gradient)"/>
      <path id="Path_4812" data-name="Path 4812" d="M347.9,174.319h-8.14v-1a4.068,4.068,0,0,1,4.068-4.068h0a4.068,4.068,0,0,1,4.068,4.068Z" transform="translate(-172.811 -101.964)" fill="#fff"/>
      <circle id="Ellipse_301" data-name="Ellipse 301" cx="2.393" cy="2.393" r="2.393" transform="translate(168.624 62.788)" fill="#fff"/>
      <rect id="Rectangle_2077" data-name="Rectangle 2077" width="39.963" height="8.162" transform="translate(149.881 93.004)" fill="#ebebeb"/>
      <rect id="Rectangle_2078" data-name="Rectangle 2078" width="39.963" height="8.162" transform="translate(149.881 104.849)" fill="#ebebeb"/>
      <path id="Path_4813" data-name="Path 4813" d="M347,261.232H326.941a4.081,4.081,0,0,1-4.081-4.081h0a4.081,4.081,0,0,1,4.081-4.081H347a4.081,4.081,0,0,1,4.081,4.081h0A4.081,4.081,0,0,1,347,261.232Z" transform="translate(-166.755 -132)" fill="url(#linear-gradient)"/>
      <ellipse id="Ellipse_302" data-name="Ellipse 302" cx="12.538" cy="0.366" rx="12.538" ry="0.366" transform="translate(157.658 87.717)" fill="#263238"/>
      <path id="Path_4814" data-name="Path 4814" d="M320.6,217.669h-1.777a.314.314,0,0,1-.314-.314h0a1.174,1.174,0,0,1,1.174-1.174h.039a1.174,1.174,0,0,1,1.174,1.174h0a.314.314,0,0,1-.3.314Z" transform="translate(-165.197 -118.781)" fill="#e0e0e0"/>
      <circle id="Ellipse_303" data-name="Ellipse 303" cx="0.706" cy="0.706" r="0.706" transform="translate(153.814 96.071)" fill="#e0e0e0"/>
      <rect id="Rectangle_2079" data-name="Rectangle 2079" width="2.105" height="1.489" transform="translate(153.467 109.058)" fill="#e0e0e0"/>
      <path id="Path_4815" data-name="Path 4815" d="M320.945,233.865h-.706V233.4a.6.6,0,0,0-1.193,0v.462h-.706V233.4a1.3,1.3,0,1,1,2.6,0Z" transform="translate(-165.136 -124.485)" fill="#e0e0e0"/>
      <path id="Path_4816" data-name="Path 4816" d="M267.8,64.791h-6.859a5.223,5.223,0,0,0-2.066.225,3.208,3.208,0,0,0-1.636,1.45,3.478,3.478,0,0,0-.385,1.1,7.069,7.069,0,0,0-.032,1.2q0,.642,0,1.283a5.944,5.944,0,0,1-.083,1.283,3.465,3.465,0,0,1-1.534,2.207,3.208,3.208,0,0,1-1.347.475c-.488.045-.963,0-1.457,0H227.515a3.767,3.767,0,0,1-.995-.1,3.3,3.3,0,0,1-1.707-1.059A3.523,3.523,0,0,1,223.979,71a7.782,7.782,0,0,1-.038-1.033v-1.03a5.492,5.492,0,0,0-.205-2.021,3.3,3.3,0,0,0-1.226-1.6,3.208,3.208,0,0,0-1.976-.545H204.71a10.475,10.475,0,0,0-10.626,8.13c-.109.4-.135.821-.212,1.232a5.44,5.44,0,0,0-.045,1.052V244.393a11,11,0,0,0,.424,3.33,10.517,10.517,0,0,0,4.075,5.621,10.908,10.908,0,0,0,6.718,1.848h62.383c2.22,0,4.447.038,6.628,0a10.414,10.414,0,0,0,5.942-2.3,11.167,11.167,0,0,0,2.143-2.374,10.4,10.4,0,0,0,1.283-2.9,11,11,0,0,0,.4-3.144V228.627c0-33.277.039-63.249.051-88.421s.045-45.558.058-59.617V75.61a10.848,10.848,0,0,0-.77-4.254,10.519,10.519,0,0,0-8.277-6.442,8.441,8.441,0,0,0-1.065-.1h-1.8Z" transform="translate(-120.517 -64.521)" fill="#fafafa"/>
      <path id="Path_4817" data-name="Path 4817" d="M273.553,64.7h.359a7.855,7.855,0,0,1,1.072.083,9.926,9.926,0,0,1,3.959,1.367,10.112,10.112,0,0,1,2.406,1.925,10.549,10.549,0,0,1,2.008,3.151,10.908,10.908,0,0,1,.789,4.28v4.973c0,14.052,0,34.387.038,59.508s0,55.042,0,88.254v15.817a11.274,11.274,0,0,1-.4,3.208,10.663,10.663,0,0,1-1.347,2.971,11.417,11.417,0,0,1-2.194,2.438,10.671,10.671,0,0,1-6.089,2.361c-2.214.064-4.408,0-6.628,0h-62.2a11.146,11.146,0,0,1-6.866-1.925,10.8,10.8,0,0,1-4.184-5.775,11.622,11.622,0,0,1-.443-3.568V75.265c0-.424.039-.853.058-1.283A6.472,6.472,0,0,1,194.1,72.7a10.655,10.655,0,0,1,10.818-8.3H220.7a3.375,3.375,0,0,1,2.079.577,3.491,3.491,0,0,1,1.283,1.694,5.652,5.652,0,0,1,.212,2.085v1.027a7.659,7.659,0,0,0,.032,1.007,3.337,3.337,0,0,0,.789,1.765,3.112,3.112,0,0,0,1.611,1,3.592,3.592,0,0,0,.95.1h26.257A3.1,3.1,0,0,0,255.2,73.2a3.336,3.336,0,0,0,1.476-2.124,5.841,5.841,0,0,0,.083-1.283V68.5a7.2,7.2,0,0,1,.058-1.232,3.568,3.568,0,0,1,.4-1.129A3.33,3.33,0,0,1,258.9,64.65a5.288,5.288,0,0,1,2.092-.225h0a5.21,5.21,0,0,0-2.06.225,3.208,3.208,0,0,0-1.63,1.45,3.471,3.471,0,0,0-.385,1.1,7.127,7.127,0,0,0-.051,1.213V69.7a5.954,5.954,0,0,1-.083,1.283,3.459,3.459,0,0,1-1.527,2.207,3.208,3.208,0,0,1-1.341.475c-.488.045-.962,0-1.45,0h-24.73a3.773,3.773,0,0,1-.995-.1,3.292,3.292,0,0,1-1.707-1.052,3.516,3.516,0,0,1-.834-1.861,7.824,7.824,0,0,1-.038-1.027V68.6a5.486,5.486,0,0,0-.205-2.021,3.3,3.3,0,0,0-1.219-1.6,3.208,3.208,0,0,0-1.97-.545H204.979a10.448,10.448,0,0,0-10.6,8.117c-.109.4-.135.821-.212,1.232a7.622,7.622,0,0,0-.058,1.283v168.5a11.319,11.319,0,0,0,.43,3.484,10.5,10.5,0,0,0,4.062,5.615,10.838,10.838,0,0,0,6.7,1.842h62.235c2.214,0,4.434.039,6.609,0a10.382,10.382,0,0,0,5.929-2.3,11.13,11.13,0,0,0,2.137-2.374,10.388,10.388,0,0,0,1.283-2.894,10.993,10.993,0,0,0,.4-3.144v-15.82c0-33.219.032-63.133.051-88.254s.045-45.455.058-59.508V75.24a10.835,10.835,0,0,0-.77-4.248,10.583,10.583,0,0,0-8.3-6.468,8.477,8.477,0,0,0-1.065-.1Z" transform="translate(-120.516 -64.388)" fill="#263238"/>
      <g id="Group_4240" data-name="Group 4240" transform="translate(147.282 18.629)">
        <ellipse id="Ellipse_304" data-name="Ellipse 304" cx="3.895" cy="0.083" rx="3.895" ry="0.083" transform="translate(0 0.064) rotate(-0.47)" fill="#263238"/>
        <ellipse id="Ellipse_305" data-name="Ellipse 305" cx="3.895" cy="0.083" rx="3.895" ry="0.083" transform="translate(0.016 2.059) rotate(-0.47)" fill="#263238"/>
        <ellipse id="Ellipse_306" data-name="Ellipse 306" cx="3.895" cy="0.083" rx="3.895" ry="0.083" transform="translate(0.039 4.048) rotate(-0.47)" fill="#263238"/>
      </g>
      <path id="Path_4818" data-name="Path 4818" d="M210.879,97.6h.61l1.662-.038-.045.045v-1.9a.642.642,0,0,1,.558-.513h.8a.642.642,0,0,1,.545.642V97.6l-.077-.077h2.1l-.077.083V94.351a.68.68,0,0,0-.3-.494l-.918-.9L214.8,92l-.43-.423c-.148-.141-.263-.289-.436-.321a.565.565,0,0,0-.481.09c-.128.109-.263.257-.391.385l-.751.757c-.475.494-.969.943-1.328,1.367a1.489,1.489,0,0,0-.1.783v2.7a2.656,2.656,0,0,1,0,.276,1.928,1.928,0,0,1,0-.25v-3.11a.873.873,0,0,1,.116-.436c.385-.475.853-.9,1.328-1.4l.744-.764c.135-.135.244-.263.4-.4a.712.712,0,0,1,.61-.122,1.129,1.129,0,0,1,.5.359l.43.424.885.873.828.892a1.731,1.731,0,0,1,.237.257.687.687,0,0,1,.109.353v3.337h-2.259V95.776a.507.507,0,0,0-.423-.507h-.764a.513.513,0,0,0-.449.411c0,.212,0,.456,0,.642v1.251H210.86Z" transform="translate(-126.622 -73.505)" fill="#263238"/>
      <rect id="Rectangle_2080" data-name="Rectangle 2080" width="73.548" height="13.379" rx="6.689" transform="translate(81.12 34.176)" fill="#f5f5f5"/>
      <path id="Path_4819" data-name="Path 4819" d="M273.831,130.849l.424-.038a6.074,6.074,0,0,0,1.213-.237,5.813,5.813,0,0,0,1.771-.93,5.525,5.525,0,0,0,1.675-2.124,5.379,5.379,0,0,0,.443-1.559,14.307,14.307,0,0,0,.051-1.8,12.109,12.109,0,0,0-.09-1.957,5.57,5.57,0,0,0-4.44-4.543,15.4,15.4,0,0,0-2.567-.1H269.59l-58.032.038a5.512,5.512,0,0,0-5.486,5.05c-.045.642,0,1.373,0,2.047a6.418,6.418,0,0,0,.2,1.989,5.55,5.55,0,0,0,2.278,3.118,5.307,5.307,0,0,0,1.784.757,8.1,8.1,0,0,0,1.925.148h37.524l17.588.045h0l-17.588.045H212.27a8.342,8.342,0,0,1-2-.148,5.57,5.57,0,0,1-1.867-.8,5.82,5.82,0,0,1-2.393-3.266,6.691,6.691,0,0,1-.218-2.066V122.45a5.775,5.775,0,0,1,5.775-5.3l58.032.038h2.721a15.5,15.5,0,0,1,2.567.109,5.717,5.717,0,0,1,4.549,4.691,12.146,12.146,0,0,1,.077,1.983,14.323,14.323,0,0,1-.064,1.816,5.48,5.48,0,0,1-.462,1.585,5.589,5.589,0,0,1-1.726,2.15,5.776,5.776,0,0,1-1.8.918,5.672,5.672,0,0,1-1.226.212Z" transform="translate(-124.804 -83.295)" fill="#263238"/>
      <path id="Path_4820" data-name="Path 4820" d="M310.835,126.148a1.911,1.911,0,0,0-.128-.577,2.42,2.42,0,0,0-.886-1.283,2.3,2.3,0,1,0,0,3.7,2.419,2.419,0,0,0,.886-1.283c.1-.366.1-.577.128-.577s0,.051,0,.154a1.8,1.8,0,0,1-.045.449,2.413,2.413,0,0,1-.873,1.4,2.509,2.509,0,0,1-2.393.391,2.567,2.567,0,0,1,0-4.787,2.509,2.509,0,0,1,2.393.391,2.412,2.412,0,0,1,.873,1.4,1.788,1.788,0,0,1,.045.449C310.855,126.1,310.848,126.148,310.835,126.148Z" transform="translate(-160.672 -85.6)" fill="#263238"/>
      <ellipse id="Ellipse_307" data-name="Ellipse 307" cx="0.135" cy="1.598" rx="0.135" ry="1.598" transform="translate(149.222 42.451) rotate(-42.771)" fill="#263238"/>
      <path id="Path_4821" data-name="Path 4821" d="M220.763,125.81H219.48v-.34h3.02v.34h-1.283v3.39h-.4Z" transform="translate(-129.71 -86.276)" fill="#e0e0e0"/>
      <path id="Path_4822" data-name="Path 4822" d="M226.819,128.42H224.47a1.04,1.04,0,0,0,1.1.975,1.1,1.1,0,0,0,.86-.366l.212.244a1.482,1.482,0,0,1-2.567-.969,1.354,1.354,0,0,1,1.373-1.424,1.335,1.335,0,0,1,1.36,1.425A.952.952,0,0,1,226.819,128.42Zm-2.348-.282h1.989a.995.995,0,1,0-1.989,0Z" transform="translate(-131.358 -86.781)" fill="#e0e0e0"/>
      <path id="Path_4823" data-name="Path 4823" d="M230.984,129.7l-.892-1.174-.9,1.174h-.424l1.11-1.463-1.059-1.367h.424l.841,1.1.841-1.1h.417l-1.046,1.367,1.123,1.437Z" transform="translate(-133.039 -86.778)" fill="#e0e0e0"/>
      <path id="Path_4824" data-name="Path 4824" d="M235.119,129.158a.9.9,0,0,1-.59.2.744.744,0,0,1-.808-.841v-1.694h-.5V126.5h.5v-.642h.379v.642h.853v.321H234.1v1.694a.449.449,0,0,0,.488.513.642.642,0,0,0,.417-.141Z" transform="translate(-134.634 -86.416)" fill="#e0e0e0"/>
      <ellipse id="Ellipse_308" data-name="Ellipse 308" cx="12.025" cy="0.135" rx="12.025" ry="0.135" transform="translate(107.242 60.157)" fill="#047bd5"/>
      <ellipse id="Ellipse_309" data-name="Ellipse 309" cx="21.611" cy="0.135" rx="21.611" ry="0.135" transform="translate(107.242 65.092)" fill="#263238"/>
      <ellipse id="Ellipse_310" data-name="Ellipse 310" cx="21.355" cy="0.135" rx="21.355" ry="0.135" transform="translate(107.248 68.621)" fill="#263238"/>
      <ellipse id="Ellipse_311" data-name="Ellipse 311" cx="12.609" cy="0.135" rx="12.609" ry="0.135" transform="translate(107.248 71.983)" fill="#263238"/>
      <ellipse id="Ellipse_312" data-name="Ellipse 312" cx="12.025" cy="0.135" rx="12.025" ry="0.135" transform="translate(107.242 86.979)" fill="#047bd5"/>
      <ellipse id="Ellipse_313" data-name="Ellipse 313" cx="21.611" cy="0.135" rx="21.611" ry="0.135" transform="translate(107.242 91.913)" fill="#263238"/>
      <ellipse id="Ellipse_314" data-name="Ellipse 314" cx="21.355" cy="0.135" rx="21.355" ry="0.135" transform="translate(107.248 95.442)" fill="#263238"/>
      <ellipse id="Ellipse_315" data-name="Ellipse 315" cx="12.609" cy="0.135" rx="12.609" ry="0.135" transform="translate(107.248 98.798)" fill="#263238"/>
      <ellipse id="Ellipse_316" data-name="Ellipse 316" cx="12.025" cy="0.135" rx="12.025" ry="0.135" transform="translate(107.242 113.8)" fill="#047bd5"/>
      <ellipse id="Ellipse_317" data-name="Ellipse 317" cx="21.611" cy="0.135" rx="21.611" ry="0.135" transform="translate(107.242 118.735)" fill="#263238"/>
      <ellipse id="Ellipse_318" data-name="Ellipse 318" cx="21.355" cy="0.135" rx="21.355" ry="0.135" transform="translate(107.248 122.257)" fill="#263238"/>
      <ellipse id="Ellipse_319" data-name="Ellipse 319" cx="12.609" cy="0.135" rx="12.609" ry="0.135" transform="translate(107.248 125.62)" fill="#263238"/>
      <ellipse id="Ellipse_320" data-name="Ellipse 320" cx="12.025" cy="0.135" rx="12.025" ry="0.135" transform="translate(107.242 140.622)" fill="#047bd5"/>
      <ellipse id="Ellipse_321" data-name="Ellipse 321" cx="21.611" cy="0.135" rx="21.611" ry="0.135" transform="translate(107.242 145.556)" fill="#263238"/>
      <ellipse id="Ellipse_322" data-name="Ellipse 322" cx="21.355" cy="0.135" rx="21.355" ry="0.135" transform="translate(107.248 149.079)" fill="#263238"/>
      <ellipse id="Ellipse_323" data-name="Ellipse 323" cx="12.609" cy="0.135" rx="12.609" ry="0.135" transform="translate(107.248 152.441)" fill="#263238"/>
      <ellipse id="Ellipse_324" data-name="Ellipse 324" cx="12.025" cy="0.135" rx="12.025" ry="0.135" transform="translate(107.242 167.251)" fill="#047bd5"/>
      <ellipse id="Ellipse_325" data-name="Ellipse 325" cx="21.611" cy="0.135" rx="21.611" ry="0.135" transform="translate(107.242 172.185)" fill="#263238"/>
      <ellipse id="Ellipse_326" data-name="Ellipse 326" cx="21.355" cy="0.135" rx="21.355" ry="0.135" transform="translate(107.248 175.714)" fill="#263238"/>
      <ellipse id="Ellipse_327" data-name="Ellipse 327" cx="12.609" cy="0.135" rx="12.609" ry="0.135" transform="translate(107.248 179.07)" fill="#263238"/>
      <rect id="Rectangle_2081" data-name="Rectangle 2081" width="14.72" height="19.584" transform="translate(81.417 74.817) rotate(-89.656)" fill="url(#linear-gradient)"/>
      <path id="Path_4825" data-name="Path 4825" d="M168.96,151.762l6.891-9.112,4.2,5.743,2.894-3.042,5.6,6.519Z" transform="translate(-87.545 -76.942)" fill="#047bd5"/>
      <circle id="Ellipse_328" data-name="Ellipse 328" cx="1.54" cy="1.54" r="1.54" transform="translate(91.262 66.14) rotate(-89.656)" fill="#047bd5"/>
      <g id="Group_4188" data-name="Group 4188" transform="translate(81.415 65.708)">
        <path id="Path_4826" data-name="Path 4826" d="M168.96,151.762l6.891-9.112,4.2,5.743,2.894-3.042,5.6,6.519Z" transform="translate(-168.96 -142.65)" fill="#ffbd69"/>
      </g>
      <g id="Group_4189" data-name="Group 4189" transform="translate(91.262 63.06)">
        <circle id="Ellipse_329" data-name="Ellipse 329" cx="1.54" cy="1.54" r="1.54" transform="translate(0 3.08) rotate(-89.656)" fill="#ffbd69"/>
      </g>
      <rect id="Rectangle_2082" data-name="Rectangle 2082" width="14.72" height="19.584" transform="translate(81.416 101.299) rotate(-89.656)" fill="url(#linear-gradient)"/>
      <path id="Path_4827" data-name="Path 4827" d="M168.96,193.022l6.891-9.112,4.2,5.749,2.894-3.041,5.6,6.513Z" transform="translate(-87.545 -91.727)" fill="#047bd5"/>
      <circle id="Ellipse_330" data-name="Ellipse 330" cx="1.54" cy="1.54" r="1.54" transform="translate(91.268 92.622) rotate(-89.656)" fill="#047bd5"/>
      <g id="Group_4190" data-name="Group 4190" transform="translate(81.415 92.183)">
        <path id="Path_4828" data-name="Path 4828" d="M168.96,193.022l6.891-9.112,4.2,5.749,2.894-3.041,5.6,6.513Z" transform="translate(-168.96 -183.91)" fill="#ffbd69"/>
      </g>
      <g id="Group_4191" data-name="Group 4191" transform="translate(91.268 89.542)" opacity="0.2">
        <circle id="Ellipse_331" data-name="Ellipse 331" cx="1.54" cy="1.54" r="1.54" transform="translate(0 3.08) rotate(-89.656)"/>
      </g>
      <rect id="Rectangle_2083" data-name="Rectangle 2083" width="14.72" height="19.584" transform="translate(81.416 127.775) rotate(-89.656)" fill="url(#linear-gradient)"/>
      <path id="Path_4829" data-name="Path 4829" d="M168.96,234.292l6.891-9.112,4.2,5.749,2.894-3.048,5.6,6.519Z" transform="translate(-87.545 -106.516)" fill="#047bd5"/>
      <circle id="Ellipse_332" data-name="Ellipse 332" cx="1.54" cy="1.54" r="1.54" transform="translate(91.261 119.097) rotate(-89.656)" fill="#047bd5"/>
      <g id="Group_4192" data-name="Group 4192" transform="translate(81.415 118.664)">
        <path id="Path_4830" data-name="Path 4830" d="M168.96,234.292l6.891-9.112,4.2,5.749,2.894-3.048,5.6,6.519Z" transform="translate(-168.96 -225.18)" fill="#ffbd69"/>
      </g>
      <g id="Group_4193" data-name="Group 4193" transform="translate(91.261 116.017)">
        <circle id="Ellipse_333" data-name="Ellipse 333" cx="1.54" cy="1.54" r="1.54" transform="translate(0 3.08) rotate(-89.656)" fill="#ffbd69"/>
      </g>
      <rect id="Rectangle_2084" data-name="Rectangle 2084" width="14.72" height="19.584" transform="translate(81.415 154.256) rotate(-89.656)" fill="url(#linear-gradient)"/>
      <path id="Path_4831" data-name="Path 4831" d="M168.96,275.552l6.891-9.112,4.2,5.749,2.894-3.041,5.6,6.513Z" transform="translate(-87.545 -121.301)" fill="#047bd5"/>
      <circle id="Ellipse_334" data-name="Ellipse 334" cx="1.54" cy="1.54" r="1.54" transform="translate(91.892 146.387) rotate(-89.427)" fill="#047bd5"/>
      <g id="Group_4194" data-name="Group 4194" transform="translate(81.415 145.139)">
        <path id="Path_4832" data-name="Path 4832" d="M168.96,275.552l6.891-9.112,4.2,5.749,2.894-3.041,5.6,6.513Z" transform="translate(-168.96 -266.44)" fill="#ffbd69"/>
      </g>
      <g id="Group_4195" data-name="Group 4195" transform="translate(91.892 143.307)">
        <circle id="Ellipse_335" data-name="Ellipse 335" cx="1.54" cy="1.54" r="1.54" transform="translate(0 3.08) rotate(-89.427)" fill="#ffbd69"/>
      </g>
      <rect id="Rectangle_2085" data-name="Rectangle 2085" width="14.72" height="19.584" transform="translate(81.415 180.609) rotate(-89.656)" fill="url(#linear-gradient)"/>
      <path id="Path_4833" data-name="Path 4833" d="M168.96,316.622l6.891-9.112,4.2,5.749,2.894-3.048,5.6,6.519Z" transform="translate(-87.545 -136.018)" fill="#047bd5"/>
      <circle id="Ellipse_336" data-name="Ellipse 336" cx="1.54" cy="1.54" r="1.54" transform="translate(91.26 171.925) rotate(-89.656)" fill="#047bd5"/>
      <g id="Group_4196" data-name="Group 4196" transform="translate(81.415 171.492)">
        <path id="Path_4834" data-name="Path 4834" d="M168.96,316.622l6.891-9.112,4.2,5.749,2.894-3.048,5.6,6.519Z" transform="translate(-168.96 -307.51)" fill="#ffbd69"/>
      </g>
      <g id="Group_4197" data-name="Group 4197" transform="translate(91.26 168.846)">
        <circle id="Ellipse_337" data-name="Ellipse 337" cx="1.54" cy="1.54" r="1.54" transform="translate(0 3.08) rotate(-89.656)" fill="#ffbd69"/>
      </g>
      <circle id="Ellipse_338" data-name="Ellipse 338" cx="6.981" cy="6.981" r="6.981" transform="translate(221.728 27.888)" fill="url(#linear-gradient)"/>
      <path id="Path_4835" data-name="Path 4835" d="M433.882,119.738a.321.321,0,0,1-.2-.071l-2.348-1.925a.321.321,0,0,1,.4-.494l2.1,1.732,2.984-3.651a.321.321,0,1,1,.494.4l-3.208,3.9a.321.321,0,0,1-.218.115Z" transform="translate(-205.59 -82.591)" fill="#fff"/>
      <circle id="Ellipse_339" data-name="Ellipse 339" cx="9.574" cy="9.574" r="9.574" transform="translate(189.009 15.728)" fill="url(#linear-gradient)"/>
      <path id="Path_4836" data-name="Path 4836" d="M386,105.285a.642.642,0,0,1-.411-.148l-3.208-2.65a.642.642,0,1,1,.815-.988l2.727,2.246,3.953-4.877a.643.643,0,0,1,.995.815l-4.37,5.345a.642.642,0,0,1-.436.231Z" transform="translate(-187.989 -76.659)" fill="#fff"/>
    </g>
    <g id="Magnifying_Glass" data-name="Magnifying Glass" transform="translate(221.268 142.305)">
      <path id="Path_4837" data-name="Path 4837" d="M317.2,293.52a19.949,19.949,0,0,1-14.117-23.1c-.186.494-.353,1-.5,1.508a19.952,19.952,0,1,0,38.384,10.908c.148-.513.263-1.027.366-1.546A19.949,19.949,0,0,1,317.2,293.52Z" transform="translate(-301.818 -254.211)" fill="#263238"/>
      <path id="Path_4838" data-name="Path 4838" d="M327.643,249.327a19.949,19.949,0,0,1,14.117,23.1c.18-.494.353-.995.5-1.508a19.952,19.952,0,1,0-38.384-10.908c-.148.513-.263,1.027-.366,1.546A19.949,19.949,0,0,1,327.643,249.327Z" transform="translate(-302.424 -245.284)" fill="#455a64"/>
      <path id="Path_4839" data-name="Path 4839" d="M342.263,270.666a1.378,1.378,0,0,1,.058-.321l.2-.93.148-.68c.045-.25.064-.533.1-.834a14.508,14.508,0,0,0,.16-2.092,19.04,19.04,0,0,0-.687-5.692,19.892,19.892,0,0,0-10.337-12.628,18.438,18.438,0,0,0-2.329-.962c-.4-.128-.808-.289-1.226-.4l-1.283-.3c-.218-.045-.43-.109-.642-.141l-.642-.083c-.443-.051-.892-.122-1.341-.154a20.951,20.951,0,0,0-2.753,0,20.636,20.636,0,0,0-2.791.385c-.462.1-.924.25-1.386.372a10.1,10.1,0,0,0-1.373.468,18.1,18.1,0,0,0-5.172,2.9,19.157,19.157,0,0,0-4.209,4.492,19.609,19.609,0,0,0-3.414,12.012,19.167,19.167,0,0,0,1.232,6.019,18.113,18.113,0,0,0,2.875,5.185,10.1,10.1,0,0,0,.924,1.116c.334.347.642.712.982,1.046a20.653,20.653,0,0,0,2.175,1.8,20.967,20.967,0,0,0,2.329,1.469c.4.212.821.385,1.219.571l.61.276c.2.09.417.148.642.225l1.245.424c.417.122.841.2,1.283.308a18.439,18.439,0,0,0,2.49.4,19.924,19.924,0,0,0,15.4-5.307,19.036,19.036,0,0,0,3.574-4.492,14.526,14.526,0,0,0,.962-1.861c.128-.276.257-.526.353-.764l.231-.642.321-.892c.077-.2.122-.3.122-.3a.891.891,0,0,1-.09.314l-.289.9-.218.642c-.09.244-.218.494-.34.776a14.2,14.2,0,0,1-.943,1.887,18.912,18.912,0,0,1-3.555,4.549,20.065,20.065,0,0,1-15.586,5.448,18.669,18.669,0,0,1-2.528-.4c-.424-.1-.853-.18-1.283-.308l-1.283-.423c-.212-.077-.43-.135-.642-.225l-.642-.282c-.411-.193-.834-.366-1.245-.578a21.21,21.21,0,0,1-2.355-1.463,20.9,20.9,0,0,1-2.214-1.822c-.347-.34-.642-.706-1-1.059a10.336,10.336,0,0,1-.943-1.136,18.4,18.4,0,0,1-2.926-5.268,19.461,19.461,0,0,1-1.283-6.115,19.892,19.892,0,0,1,3.471-12.192,19.461,19.461,0,0,1,4.286-4.543,18.388,18.388,0,0,1,5.262-2.939,10.314,10.314,0,0,1,1.4-.468c.475-.122.937-.27,1.412-.372a20.885,20.885,0,0,1,2.836-.385,21.209,21.209,0,0,1,2.791,0c.456.032.911.109,1.36.16l.642.083c.225.032.436.1.642.141l1.283.3c.423.115.834.276,1.245.411a18.651,18.651,0,0,1,2.361.982,20.065,20.065,0,0,1,10.395,12.833,18.909,18.909,0,0,1,.642,5.743,14.18,14.18,0,0,1-.192,2.1c-.045.3-.071.584-.122.834l-.167.68-.231.924a.578.578,0,0,1,0,.278Z" transform="translate(-302.215 -245.158)" fill="#263238"/>
      <path id="Path_4840" data-name="Path 4840" d="M352.41,300.261c.25.173,19.147,17.594,26.1,24.114a3.029,3.029,0,0,0,4.177-.032h0a3.029,3.029,0,0,0-.038-4.4L356.722,296Z" transform="translate(-319.947 -263.377)" fill="#263238"/>
    </g>
    <g id="Character" transform="translate(145.059 65.611)">
      <path id="Path_4841" data-name="Path 4841" d="M194.767,196.935l.385-1.521a5.672,5.672,0,0,0-.064-3.016l-1.585-5.287a1.983,1.983,0,0,0-.911-1.149c-1.2-.693-3.587-2.028-3.786-1.861-1.457,1.213,1.8,3.349,1.8,3.349s1.283,1.4.263,2.438c-1.129,1.181-3.26-1.412-3.26-1.412s.116-.269.212-.218a4.2,4.2,0,0,0,2.047.879v-1.72l-1.925-1.206a1.925,1.925,0,0,0-1.431-.25l-.642.141a1.694,1.694,0,0,0-1.052.719l-.642.95-.27.359a1.206,1.206,0,0,0-.128,1.219l.308.642-.417.59a1.816,1.816,0,0,0-.218,1.694l3.253,4.492,4.819,7.86,5.21-5.6Z" transform="translate(-183.337 -146.308)" fill="#ffbe9d"/>
      <path id="Path_4842" data-name="Path 4842" d="M185,195.422a1.084,1.084,0,0,1-.173-.321.9.9,0,0,1,.16-.834h0v-.038l-.058-.115a8.216,8.216,0,0,0-.693-1.283,8.251,8.251,0,0,0,.577,1.328l.058.115v-.064a.943.943,0,0,0-.141.937C184.843,195.358,185,195.442,185,195.422Z" transform="translate(-183.661 -149.441)" fill="#eb996e"/>
      <path id="Path_4843" data-name="Path 4843" d="M185.86,187.78a1.521,1.521,0,0,0-.1.9,6.98,6.98,0,0,0,.879,2.073,2.664,2.664,0,0,1,.308.6,1.648,1.648,0,0,1,.038.642,1.559,1.559,0,0,0,.116.962,1.867,1.867,0,0,0,.642.642,1.078,1.078,0,0,1-.757-.59,1.643,1.643,0,0,1-.173-1.046,1.521,1.521,0,0,0-.038-.571,2.636,2.636,0,0,0-.289-.558,6.063,6.063,0,0,1-.847-2.156.975.975,0,0,1,.221-.9Z" transform="translate(-184.152 -147.631)" fill="#eb996e"/>
      <path id="Path_4844" data-name="Path 4844" d="M189.656,190.028a4.209,4.209,0,0,0-.244-.719c-.192-.372-.411-.642-.366-.693s.327.193.545.6S189.752,190.054,189.656,190.028Z" transform="translate(-185.381 -147.928)" fill="#eb996e"/>
      <path id="Path_4845" data-name="Path 4845" d="M162.027,206.436l1.989,2.49,10.3-12.378L160.827,178.8l-6.667,5.23Z" transform="translate(-148.819 -128.923)" fill="url(#linear-gradient)"/>
      <path id="Path_4846" data-name="Path 4846" d="M237.87,408.352l.853,20.116,10.863-.244-.815-20.155Z" transform="translate(-178.816 -211.079)" fill="url(#linear-gradient)"/>
      <ellipse id="Ellipse_340" data-name="Ellipse 340" cx="0.167" cy="9.843" rx="0.167" ry="9.843" transform="translate(64.007 196.854) rotate(-3.15)" fill="#263238"/>
      <path id="Path_4847" data-name="Path 4847" d="M239.11,437.542l10.863-.282.058,1.425-10.863.244Z" transform="translate(-179.26 -221.539)" fill="#263238"/>
      <path id="Path_4848" data-name="Path 4848" d="M287.243,451.923a2.536,2.536,0,0,0-.3-.424,7.542,7.542,0,0,0-1.014-.988,7.373,7.373,0,0,0-1.809-1.1,5.775,5.775,0,0,0-6.7,1.566,4.972,4.972,0,0,0-.738,1.219,1.406,1.406,0,0,0-.148.5,11.365,11.365,0,0,1,1.065-1.566,5.775,5.775,0,0,1,3.991-1.861,6.648,6.648,0,0,1,4.2,1.418C286.73,451.384,287.2,451.962,287.243,451.923Z" transform="translate(-216.735 -241.214)" fill="#263238"/>
      <g id="Group_4198" data-name="Group 4198" transform="translate(59.317 202.727)" opacity="0.3">
        <path id="Path_4849" data-name="Path 4849" d="M249.15,417.01l.09,2.22-10.889.193-.071-1.668Z" transform="translate(-238.28 -417.01)"/>
      </g>
      <path id="Path_4850" data-name="Path 4850" d="M228.911,434.465l.533,12.243s-12.262,4.652-12.384,6.924l23.742-.173-.039-19.109Z" transform="translate(-195.421 -235.986)" fill="url(#linear-gradient)"/>
      <path id="Path_4851" data-name="Path 4851" d="M246.922,452a.975.975,0,0,1,.687,1.11.943.943,0,0,1-1.1.687,1.033,1.033,0,0,1-.719-1.155.975.975,0,0,1,1.219-.59" transform="translate(-205.712 -242.311)" fill="#e0e0e0"/>
      <path id="Path_4852" data-name="Path 4852" d="M240.724,463.045V461.12l-23,.866s-1.065.468-.937,1.219Z" transform="translate(-195.318 -245.579)" fill="#263238"/>
      <path id="Path_4853" data-name="Path 4853" d="M236,453.678c0,.116.59.167,1.168.539s.886.86.995.815-.071-.719-.776-1.161S236,453.569,236,453.678Z" transform="translate(-202.208 -242.872)" fill="#263238"/>
      <path id="Path_4854" data-name="Path 4854" d="M232.12,455.349c0,.115.481.308.886.8s.52,1.014.642,1.007.186-.642-.321-1.283S232.126,455.24,232.12,455.349Z" transform="translate(-200.818 -243.491)" fill="#263238"/>
      <path id="Path_4855" data-name="Path 4855" d="M229.4,458.957c.109,0,.263-.558-.038-1.2s-.853-.892-.9-.789.3.436.533.963S229.285,458.95,229.4,458.957Z" transform="translate(-199.503 -244.083)" fill="#263238"/>
      <path id="Path_4856" data-name="Path 4856" d="M236.318,449.109c.051.109.584-.058,1.245,0s1.181.244,1.238.141-.436-.513-1.219-.552S236.26,449.013,236.318,449.109Z" transform="translate(-202.32 -241.127)" fill="#263238"/>
      <path id="Path_4857" data-name="Path 4857" d="M235.63,444.137a2.245,2.245,0,0,0,1.2,0,5.4,5.4,0,0,0,1.283-.4,5.658,5.658,0,0,0,.687-.372,1.477,1.477,0,0,0,.359-.282.507.507,0,0,0,.051-.642.642.642,0,0,0-.513-.263,1.567,1.567,0,0,0-.449.064,4.316,4.316,0,0,0-.744.263,4.237,4.237,0,0,0-1.1.732c-.552.52-.738.956-.7.982s.321-.327.886-.757a4.784,4.784,0,0,1,1.065-.642,4.5,4.5,0,0,1,.687-.218c.25-.071.468-.071.533.038s0,.058,0,.135a1.2,1.2,0,0,1-.263.2,6.3,6.3,0,0,1-.642.366,6.66,6.66,0,0,1-1.155.456,8.274,8.274,0,0,0-1.187.334Z" transform="translate(-202.076 -238.792)" fill="#263238"/>
      <path id="Path_4858" data-name="Path 4858" d="M234.968,443.369a1.925,1.925,0,0,0,.308-1.161,3.85,3.85,0,0,0-.481-2.041.988.988,0,0,0-.77-.6.558.558,0,0,0-.5.34,1.623,1.623,0,0,0-.122.443,2.663,2.663,0,0,0,0,.809,2.76,2.76,0,0,0,.52,1.232c.475.642.962.751.969.712a4.753,4.753,0,0,1-.731-.873,2.759,2.759,0,0,1-.385-1.1,2.471,2.471,0,0,1,0-.693c.039-.257.128-.462.225-.436a.871.871,0,0,1,.424.391,3.976,3.976,0,0,1,.3.642,4.309,4.309,0,0,1,.244,1.193,10.936,10.936,0,0,1,0,1.142Z" transform="translate(-201.266 -237.857)" fill="#263238"/>
      <g id="Group_4199" data-name="Group 4199" transform="translate(33.92 205.698)" opacity="0.3">
        <path id="Path_4859" data-name="Path 4859" d="M210.186,421.64l-.019,2.721H198.7V421.9Z" transform="translate(-198.7 -421.64)"/>
      </g>
      <path id="Path_4860" data-name="Path 4860" d="M311.977,127.186l1.707,6.6s.642,3.645-1.072,3.645c-1.5,0-1.643-1.957-1.643-1.957s.744-3.991-1.219-3.773c-.276,0-.988,2.785-1.335,4.184a2.066,2.066,0,0,0,.2,1.514l2.83,5a5.91,5.91,0,0,0,2.22,2.227l1.418.809.18,2.977,7.963.122-2.426-9.285-1.014-5.666a1.925,1.925,0,0,0-1.424-1.059l-.744-.109-.282-.719a1.283,1.283,0,0,0-1.007-.783l-.462-.058-.642-1.611c-.218-.533-1.777-4.042-2.355-4.036a1.458,1.458,0,0,0-.9,1.978Z" transform="translate(-228.135 -125.21)" fill="#ffbe9d"/>
      <path id="Path_4861" data-name="Path 4861" d="M321.791,138.185a5.372,5.372,0,0,0-.148-.725,2.733,2.733,0,0,0-1.084-1.38,7.984,7.984,0,0,1-.6-1.726,2.337,2.337,0,0,1-.083-.744s.051.282.173.725a10.754,10.754,0,0,0,.61,1.668c.122.1.257.205.391.321a2.477,2.477,0,0,1,.327.372,2.436,2.436,0,0,1,.359.744,2.026,2.026,0,0,1,.083.552.507.507,0,0,1-.028.193Z" transform="translate(-232.264 -128.22)" fill="#eb996e"/>
      <path id="Path_4862" data-name="Path 4862" d="M323.972,138.318a1.131,1.131,0,0,0-.116-.366.943.943,0,0,0-.738-.481h-.038v-.039l-.045-.128a8.565,8.565,0,0,1-.456-1.444,8.585,8.585,0,0,1,.577,1.392l.045.128-.058-.045a.982.982,0,0,1,.809.571C324.043,138.157,323.992,138.33,323.972,138.318Z" transform="translate(-233.233 -129.026)" fill="#eb996e"/>
      <path id="Path_4863" data-name="Path 4863" d="M248.741,170.449l14.444-.186-1.611-12.275s.988-.212,1.052-5.563.314-14.437.314-14.437h0a18.608,18.608,0,0,0-18.685,2.348l-.8.642Z" transform="translate(-204.881 -129.248)" fill="#ffbe9d"/>
      <path id="Path_4864" data-name="Path 4864" d="M244.09,153.576c-.09-.038-3.677-1.084-3.561,2.567s3.767,2.785,3.767,2.682S244.09,153.576,244.09,153.576Z" transform="translate(-203.83 -135.315)" fill="#ffbe9d"/>
      <path id="Path_4865" data-name="Path 4865" d="M272.538,152.413c.09-.039,3.349-.918,3.208,2.74s-3.767,2.785-3.767,2.682S272.538,152.413,272.538,152.413Z" transform="translate(-215.101 -134.915)" fill="#ffbe9d"/>
      <path id="Path_4866" data-name="Path 4866" d="M244.23,146.776c.545,3.067.436,4.678.943,6.725a10.848,10.848,0,0,0,5.326,7.341c2.92,1.617,6.866,1.591,9.375-.642a8.443,8.443,0,0,0,3.208-5.557c.237-2.3.52-6.378.533-8.688,0-4.177.308-8.168.308-8.168L252,135.631l-6.77,4.087Z" transform="translate(-205.157 -128.944)" fill="#263238"/>
      <path id="Path_4867" data-name="Path 4867" d="M261.127,177.569a5.339,5.339,0,0,1-4.087-.449c.032-.09.918.186,2.034.3a17.889,17.889,0,0,1,2.053.149Z" transform="translate(-209.748 -143.805)" fill="#263238"/>
      <path id="Path_4868" data-name="Path 4868" d="M244.236,149.208c-.346-3.144-.577-6.731-1.065-10.042a19.905,19.905,0,0,1-.513-4.286,10.374,10.374,0,0,1,.783-3.677,5.165,5.165,0,0,1,8.053-1.617,3.85,3.85,0,0,1,7.058,1.636,2.689,2.689,0,0,1,4.44,2.7,2.631,2.631,0,0,1,1.771,4.023c-.552.853-1.546,1.322-2.156,2.13a3.054,3.054,0,0,0-.186,3.3" transform="translate(-204.586 -126.146)" fill="#263238"/>
      <path id="Path_4869" data-name="Path 4869" d="M262.329,142.768a.816.816,0,0,1-.135.346,2.426,2.426,0,0,1-.693.776,2.5,2.5,0,0,1-1.553.494,2.663,2.663,0,0,1-1.925-.9l.25-.071a2.483,2.483,0,0,1-1.6,1.829,2.849,2.849,0,0,1-2.689-.34,4.036,4.036,0,0,1-1.514-1.983l.289.032a3.362,3.362,0,0,1-2.7,1.482,3.106,3.106,0,0,1-2.272-.93,3.157,3.157,0,0,1-.821-1.4,1.36,1.36,0,0,1-.071-.577s.051.2.173.545a3.3,3.3,0,0,0,.86,1.283,2.932,2.932,0,0,0,2.118.8,3.1,3.1,0,0,0,2.438-1.373l.18-.276.115.308a3.76,3.76,0,0,0,1.392,1.816,2.567,2.567,0,0,0,2.387.314,2.2,2.2,0,0,0,1.431-1.578l.051-.3.2.237a2.438,2.438,0,0,0,1.7.847,2.374,2.374,0,0,0,1.444-.391,3.416,3.416,0,0,0,.945-.99Z" transform="translate(-206.111 -131.058)" fill="#455a64"/>
      <path id="Path_4870" data-name="Path 4870" d="M265.936,138.265a3.31,3.31,0,0,0-.507-1.328,2.175,2.175,0,0,0-1.283-.841,2.265,2.265,0,0,0-1.822.347l-.289.205v-.359a2.754,2.754,0,0,0-.122-1.052,2.868,2.868,0,0,0-1.469-1.707,2.8,2.8,0,0,0-1.861-.16,3.908,3.908,0,0,0-1.553.873,1.439,1.439,0,0,1,.3-.4,2.907,2.907,0,0,1,1.194-.693,2.951,2.951,0,0,1,2.053.109,3.112,3.112,0,0,1,1.656,1.886,3.009,3.009,0,0,1,.128,1.187l-.257-.148a2.522,2.522,0,0,1,2.079-.359,2.336,2.336,0,0,1,1.36,1,2.291,2.291,0,0,1,.366,1.052C265.994,138.137,265.956,138.272,265.936,138.265Z" transform="translate(-209.744 -128.005)" fill="#455a64"/>
      <path id="Path_4871" data-name="Path 4871" d="M258.257,139.794c-.045,0,0-.205,0-.5a2.381,2.381,0,0,0-.372-1.078,11.569,11.569,0,0,0-.687-.969.353.353,0,0,0-.379-.077.208.208,0,0,1,.077-.148.411.411,0,0,1,.449.038,2.673,2.673,0,0,1,.411.417,4.256,4.256,0,0,1,.417.565,2,2,0,0,1,.321,1.283C258.437,139.647,258.289,139.814,258.257,139.794Z" transform="translate(-209.669 -129.425)" fill="#455a64"/>
      <path id="Path_4872" data-name="Path 4872" d="M247.993,133.4c-.038,0,0-.282.225-.642a1.777,1.777,0,0,1,.545-.571,1.418,1.418,0,0,1,.969-.212,2.323,2.323,0,0,1,1.45.9c.27.34.391.571.353.6s-.231-.154-.526-.436a2.5,2.5,0,0,0-1.322-.738,1.392,1.392,0,0,0-1.283.59C248.172,133.178,248.057,133.416,247.993,133.4Z" transform="translate(-206.501 -127.628)" fill="#455a64"/>
      <path id="Path_4873" data-name="Path 4873" d="M249.97,155.617a8.117,8.117,0,0,1-1.7-4.947c.1,0,.282,1.149.757,2.509S250.06,155.566,249.97,155.617Z" transform="translate(-206.605 -134.333)" fill="#455a64"/>
      <path id="Path_4874" data-name="Path 4874" d="M252.682,157.787a7.366,7.366,0,0,1-1.322-3.5,19.347,19.347,0,0,1,1.322,3.5Z" transform="translate(-207.712 -135.63)" fill="#455a64"/>
      <path id="Path_4875" data-name="Path 4875" d="M267.837,160.13a6.988,6.988,0,0,1-2.227,5.9,20.258,20.258,0,0,0,1.534-2.772,20.254,20.254,0,0,0,.693-3.125Z" transform="translate(-212.818 -137.723)" fill="#455a64"/>
      <path id="Path_4876" data-name="Path 4876" d="M271.017,156a5.64,5.64,0,0,1-1.007,5.525,16.176,16.176,0,0,0,.911-2.689,16.189,16.189,0,0,0,.1-2.836Z" transform="translate(-214.395 -136.243)" fill="#455a64"/>
      <path id="Path_4877" data-name="Path 4877" d="M211.995,275.737l3.51,33.854,2.522,50.987h13.456l.359-108.518-38.519,2.746-7.982,56.935,6.917,49.832h14.758l-3.459-47.38,8.438-38.455" transform="translate(-159.992 -155.175)" fill="#263238"/>
      <ellipse id="Ellipse_341" data-name="Ellipse 341" cx="3.67" cy="0.167" rx="3.67" ry="0.167" transform="translate(46.436 125.334) rotate(-42)" fill="#455a64"/>
      <path id="Path_4878" data-name="Path 4878" d="M264.3,307.152q-.019-4.346.321-8.682a38.857,38.857,0,0,1-.321,8.688Z" transform="translate(-212.338 -187.295)" fill="#455a64"/>
      <path id="Path_4879" data-name="Path 4879" d="M271.239,292.049h.218l.642-.038,2.567-.122,9.124-.379h.154v9.927l-.1.045-5.935,2.374h-.116l-5.249-1.822h-.083v-.083l-.93-7.18-.244-1.976a5.773,5.773,0,0,1-.064-.674,1.175,1.175,0,0,1,.038.192l.09.533.314,2,1.065,7.058-.09-.115,5.262,1.784h-.109l5.929-2.393-.1.154v-9.651l.154.148-9.022.225-2.567.045h-.95Z" transform="translate(-214.829 -184.801)" fill="#455a64"/>
      <path id="Path_4880" data-name="Path 4880" d="M240.778,292.463h.789l2.31-.071,8.342-.192h.109v.154l-.308,9.5v.083l-.071.045-.963.642-4.877,3.208-.083.058-.083-.051-5.493-3.349-.071-.045v-.077l.25-7.174.083-1.97a5.359,5.359,0,0,1,.051-.642,1.054,1.054,0,0,1,0,.193v2.535l-.109,7.09-.064-.122,5.518,3.311h-.2l4.87-3.208.962-.642-.077.135.346-9.5.148.154-8.233.045h-2.971Z" transform="translate(-203.778 -185.049)" fill="#455a64"/>
      <path id="Path_4881" data-name="Path 4881" d="M281.96,315.618a9.375,9.375,0,0,1-1.822-.058c-1.123-.083-2.669-.237-4.376-.456s-3.208-.468-4.344-.674a9.366,9.366,0,0,1-1.777-.411,10.422,10.422,0,0,1,1.816.18l4.35.577,4.357.552a10.43,10.43,0,0,1,1.8.29Z" transform="translate(-214.262 -192.867)" fill="#455a64"/>
      <path id="Path_4882" data-name="Path 4882" d="M283.262,371.228a1.085,1.085,0,0,1-.321.43,2.13,2.13,0,0,1-1.373.468,3.253,3.253,0,0,1-2.008-.77,13.885,13.885,0,0,1-1.829-1.854,25.332,25.332,0,0,1-2.727-3.85,8.157,8.157,0,0,1-.853-1.752,17.958,17.958,0,0,1,1.052,1.63,33.718,33.718,0,0,0,2.778,3.741,15.4,15.4,0,0,0,1.771,1.829,3.112,3.112,0,0,0,1.822.776,2.149,2.149,0,0,0,1.283-.334C283.133,371.369,283.236,371.215,283.262,371.228Z" transform="translate(-215.879 -210.741)" fill="#455a64"/>
      <path id="Path_4883" data-name="Path 4883" d="M242.192,375.116a.917.917,0,0,1-.18.43,2.753,2.753,0,0,1-.93.886,3.556,3.556,0,0,1-1.848.488,4.364,4.364,0,0,1-2.227-.706A7.867,7.867,0,0,1,234.332,373a7.128,7.128,0,0,1-.642-1.585,11.309,11.309,0,0,1,.873,1.476,8.437,8.437,0,0,0,2.644,3.016,4.228,4.228,0,0,0,2.053.68,3.5,3.5,0,0,0,1.72-.385,3.85,3.85,0,0,0,1.212-1.086Z" transform="translate(-201.38 -213.436)" fill="#455a64"/>
      <path id="Path_4884" data-name="Path 4884" d="M243.625,369.216a3.309,3.309,0,0,1-1.1.642,8.733,8.733,0,0,1-6.077.25,3.312,3.312,0,0,1-1.155-.552,11.158,11.158,0,0,0,8.342-.347Z" transform="translate(-201.954 -212.644)" fill="#455a64"/>
      <path id="Path_4885" data-name="Path 4885" d="M302.014,173.583H282.4s-2.663-1.534-3.953-1.283a5.134,5.134,0,0,0-2.406,1.636l2.567,21.618,6.352-4.7,23.652-2.464a7.52,7.52,0,0,0,5.409-2.368h0a7.52,7.52,0,0,0,1.989-6.051l-4.376-23.247-8.983.3-.353,5.9Z" transform="translate(-216.556 -136.501)" fill="url(#linear-gradient)"/>
      <path id="Path_4886" data-name="Path 4886" d="M221.913,191.49a12.024,12.024,0,0,0-4.735,5.51c-1.142,2.746-8.983,16.459-13.071,23.639a6.782,6.782,0,0,0,.982,8.066h0c2.5,2.618,5.493,1.6,9.144.411,1.636-.533,8.983-11.832,8.983-11.832Z" transform="translate(-190.457 -148.961)" fill="url(#linear-gradient)"/>
      <path id="Path_4887" data-name="Path 4887" d="M197.668,213.1l-4.5-38.705,1.084-10.312L205.7,159.2l14.829-.969,14.123,1.553-3.3,39.7,3.619,22.381-39.552,1.79Z" transform="translate(-162.798 -121.553)" fill="url(#linear-gradient)"/>
      <ellipse id="Ellipse_342" data-name="Ellipse 342" cx="0.167" cy="19.397" rx="0.167" ry="19.397" transform="translate(30.209 52.852) rotate(-6.63)" fill="#263238"/>
      <path id="Path_4888" data-name="Path 4888" d="M293.13,198.33a1.381,1.381,0,0,1,0,.347l-.09.995-.372,3.651-1.206,12.038c-.449,4.7-.815,8.983-1.046,12.057l-.263,3.657-.077.995a.175.175,0,1,1-.051,0v-1c0-.866.077-2.117.16-3.664.173-3.093.5-7.366.943-12.07s.93-8.983,1.283-12.038c.192-1.54.353-2.778.475-3.638l.154-.988a1.383,1.383,0,0,1,.09-.342Z" transform="translate(-221.563 -151.412)" fill="#263238"/>
      <path id="Path_4889" data-name="Path 4889" d="M271.513,258.379a5.582,5.582,0,0,1-.642.764,8.871,8.871,0,0,1-.8.841,14.608,14.608,0,0,1-1.142,1.033,16.366,16.366,0,0,1-1.489,1.129,20.6,20.6,0,0,1-1.816,1.136,22.6,22.6,0,0,1-9.355,2.791c-.757.032-1.469.083-2.143.045a16.357,16.357,0,0,1-1.861-.128,14.623,14.623,0,0,1-1.521-.237,8.862,8.862,0,0,1-1.129-.263,5.566,5.566,0,0,1-.943-.3c0-.077,1.367.347,3.619.558a17.457,17.457,0,0,0,1.842.09c.642,0,1.373-.032,2.118-.071a23.434,23.434,0,0,0,9.227-2.753,21.073,21.073,0,0,0,1.809-1.1,17.421,17.421,0,0,0,1.489-1.091C270.557,259.418,271.456,258.328,271.513,258.379Z" transform="translate(-206.748 -172.929)" fill="#263238"/>
      <g id="Group_4200" data-name="Group 4200" transform="translate(42.138 82.822)" opacity="0.3">
        <path id="Path_4890" data-name="Path 4890" d="M250.722,264.137c-1.925-.552-2.034-2.361-1.283-3.144a3.43,3.43,0,0,1,3.022-.725,15.4,15.4,0,0,0,3.208.436c1.758-.122,3.208-1.341,4.453-2.612s2.381-2.7,3.985-3.42,3.85-.475,4.684,1.072a3.356,3.356,0,0,1-.193,3.208,7.488,7.488,0,0,1-2.381,2.336,19.474,19.474,0,0,1-15.477,2.855" transform="translate(-249.007 -254.284)" fill="#d7413c"/>
      </g>
      <path id="Path_4891" data-name="Path 4891" d="M288.13,184.23a6.083,6.083,0,0,1,3.7,5.133,9.317,9.317,0,0,0-3.7-5.133Z" transform="translate(-220.888 -146.359)" fill="#263238"/>
      <path id="Path_4892" data-name="Path 4892" d="M266.105,183.342a2.373,2.373,0,0,0-.327-.193,1.668,1.668,0,0,0-1.065-.064,2.965,2.965,0,0,0-1.457.866,16.388,16.388,0,0,1-1.617,1.643,4.761,4.761,0,0,1-2.656.815c-1.007.051-2.079-.058-3.208-.083a63.294,63.294,0,0,0-7.328.16,47.053,47.053,0,0,0-12.962,2.862,40.236,40.236,0,0,0-3.69,1.636l-.969.513-.347.173.327-.193.962-.533a37.01,37.01,0,0,1,3.677-1.681,46.083,46.083,0,0,1,12.987-2.907,61.841,61.841,0,0,1,7.341-.16c1.129.032,2.2.141,3.208.1a4.678,4.678,0,0,0,2.605-.783,16.856,16.856,0,0,0,1.623-1.623,3,3,0,0,1,1.5-.866,1.668,1.668,0,0,1,1.084.09,1.04,1.04,0,0,1,.312.228Z" transform="translate(-200.23 -145.907)" fill="#fafafa"/>
      <path id="Path_4893" data-name="Path 4893" d="M270.965,195.8s-.135-.038-.4-.083a4.146,4.146,0,0,0-1.161-.038,6.416,6.416,0,0,0-1.771.468,21.412,21.412,0,0,0-2.175,1.116,12.1,12.1,0,0,1-2.734,1.174,17.379,17.379,0,0,1-3.369.545c-2.4.148-5.037.186-7.8.4-5.531.379-10.5,1.052-14.117,1.636-1.79.289-3.208.558-4.235.738l-1.149.218-.4.064.4-.1,1.142-.244c.995-.2,2.438-.481,4.229-.783,3.58-.61,8.56-1.283,14.117-1.675,2.766-.212,5.409-.25,7.8-.391a17.415,17.415,0,0,0,3.349-.526,12.1,12.1,0,0,0,2.714-1.149,20.913,20.913,0,0,1,2.188-1.1,6.366,6.366,0,0,1,1.8-.449,3.965,3.965,0,0,1,1.168.064,2.1,2.1,0,0,1,.411.115Z" transform="translate(-200.649 -150.434)" fill="#fafafa"/>
      <path id="Path_4894" data-name="Path 4894" d="M271.455,212.91s-.5.231-1.424.6-2.278.841-3.991,1.328a59.951,59.951,0,0,1-13.7,2.047,125.553,125.553,0,0,1-13.866-.327l-4.19-.327-1.136-.1-.4-.045h.4l1.142.077,4.19.282a133.184,133.184,0,0,0,13.854.289,61.536,61.536,0,0,0,13.674-2c1.707-.468,3.067-.937,4-1.283.468-.167.821-.321,1.065-.411Z" transform="translate(-201.044 -156.636)" fill="#fafafa"/>
      <path id="Path_4895" data-name="Path 4895" d="M270.667,232.54s-.462.205-1.335.5a26.711,26.711,0,0,1-3.76.963,38.338,38.338,0,0,1-5.73.584c-2.169.077-4.556,0-7.058-.148-4.992-.327-9.509-.687-12.782-.565-1.636.045-2.958.148-3.85.257-.456.045-.808.1-1.046.128l-.366.039a33.366,33.366,0,0,1,5.281-.52c3.285-.141,7.809.2,12.795.526,2.5.148,4.877.225,7.058.154a39.291,39.291,0,0,0,5.717-.558,28.461,28.461,0,0,0,3.76-.918c.443-.128.77-.263,1-.34Z" transform="translate(-201.757 -163.67)" fill="#fafafa"/>
      <path id="Path_4896" data-name="Path 4896" d="M270.032,247.73s-1.809.6-4.812,1.283c-1.5.346-3.3.693-5.313,1.007s-4.241.545-6.584.693-4.588.154-6.622.1-3.85-.193-5.4-.359c-3.061-.321-4.934-.7-4.934-.7l.346.038.982.135c.853.128,2.085.276,3.619.43s3.356.27,5.39.327,4.267,0,6.609-.116,4.562-.4,6.577-.687,3.811-.642,5.313-.975,2.708-.642,3.542-.86l.956-.257Z" transform="translate(-202.341 -169.113)" fill="#fafafa"/>
      <path id="Path_4897" data-name="Path 4897" d="M271.912,253.28l-.334.128-.962.346c-.834.308-2.034.8-3.491,1.437s-3.208,1.45-5.133,2.252a33.414,33.414,0,0,1-6.558,2,54.263,54.263,0,0,1-12.435.712c-1.591-.064-2.881-.148-3.773-.2l-1.027-.071-.359-.032h.359l1.027.045,3.773.167a55.9,55.9,0,0,0,12.4-.725,33.8,33.8,0,0,0,6.539-1.989c1.925-.8,3.677-1.6,5.133-2.227s2.669-1.1,3.51-1.4S271.912,253.28,271.912,253.28Z" transform="translate(-202.867 -171.102)" fill="#fafafa"/>
      <path id="Path_4898" data-name="Path 4898" d="M273.3,269.83s-.443.3-1.283.776a25.546,25.546,0,0,1-3.7,1.694,40.773,40.773,0,0,1-13.212,2.233c-5.255.1-10-.321-13.436-.468-1.72-.083-3.106-.135-4.068-.154h0c.963,0,2.355.039,4.075.109,3.439.122,8.181.52,13.43.43a41.485,41.485,0,0,0,13.18-2.188,26.941,26.941,0,0,0,3.69-1.681c.43-.218.738-.424.962-.545Z" transform="translate(-202.244 -177.033)" fill="#fafafa"/>
      <path id="Path_4899" data-name="Path 4899" d="M303.25,199.9a.775.775,0,0,1,.032-.16l.122-.456c.115-.391.25-.969.4-1.681a25.9,25.9,0,0,0-.173-11.325c-.173-.712-.327-1.283-.456-1.668l-.135-.449a.086.086,0,1,0-.006,0l.16.443c.141.385.314.956.494,1.662a24.511,24.511,0,0,1,.173,11.364c-.16.712-.314,1.283-.443,1.681l-.148.449a.768.768,0,0,1-.02.14Z" transform="translate(-226.217 -146.277)" fill="#fafafa"/>
      <path id="Path_4900" data-name="Path 4900" d="M316.419,197.449a.638.638,0,0,1,0-.148v-.417c0-.366.032-.892,0-1.54a23.806,23.806,0,0,0-2.239-9.824c-.276-.59-.513-1.059-.693-1.373l-.2-.372a.641.641,0,0,1-.058-.135.641.641,0,0,1,.058.135l.218.359c.193.308.443.776.732,1.36a22.331,22.331,0,0,1,2.252,9.862,9.334,9.334,0,0,1-.071,1.54l-.038.417a.6.6,0,0,1,.038.135Z" transform="translate(-229.882 -146.148)" fill="#fafafa"/>
      <path id="Path_4901" data-name="Path 4901" d="M330.477,192.667a.878.878,0,0,1-.122-.128l-.327-.385c-.276-.34-.693-.808-1.226-1.38a30.946,30.946,0,0,0-9.843-7.058c-.712-.321-1.283-.565-1.7-.719l-.468-.186-.16-.071.167.045.475.16c.417.141,1.007.372,1.72.68a29.177,29.177,0,0,1,9.875,7.058c.526.577.937,1.065,1.2,1.412l.308.4A.858.858,0,0,1,330.477,192.667Z" transform="translate(-231.101 -145.825)" fill="#fafafa"/>
      <path id="Path_4902" data-name="Path 4902" d="M327.876,169.8a2.407,2.407,0,0,1-.411,0h-4.78c-1.437,0-2.727.083-3.664.128l-1.11.058a2.378,2.378,0,0,1-.411,0,2.393,2.393,0,0,1,.4-.058l1.11-.1c.937-.071,2.233-.148,3.67-.167s2.733,0,3.67.045l1.11.064a2.383,2.383,0,0,1,.416.03Z" transform="translate(-231.412 -141.134)" fill="#fafafa"/>
      <path id="Path_4903" data-name="Path 4903" d="M220.38,209.57a1.772,1.772,0,0,1,.244.257c.148.173.366.411.642.693a16.814,16.814,0,0,0,2.406,2,31.058,31.058,0,0,0,2.682,1.63l.834.456a1.767,1.767,0,0,1,.3.18,1.759,1.759,0,0,1-.321-.135c-.205-.1-.5-.237-.86-.417a24.4,24.4,0,0,1-2.714-1.6,14.7,14.7,0,0,1-2.393-2.047,9.4,9.4,0,0,1-.642-.725,1.76,1.76,0,0,1-.18-.289Z" transform="translate(-196.611 -155.439)" fill="#fafafa"/>
      <path id="Path_4904" data-name="Path 4904" d="M224.6,201.56a3.585,3.585,0,0,0,.456.513,9.621,9.621,0,0,0,1.283,1.027c.539.359,1.046.642,1.418.86s.642.308.61.327a7.243,7.243,0,0,1-2.1-1.078,7.445,7.445,0,0,1-1.283-1.072A1.528,1.528,0,0,1,224.6,201.56Z" transform="translate(-198.123 -152.569)" fill="#fafafa"/>
      <path id="Path_4905" data-name="Path 4905" d="M225.719,229.9l-.141-.064-.391-.205c-.34-.18-.815-.456-1.392-.828a28.688,28.688,0,0,1-4.177-3.317,26.554,26.554,0,0,1-3.484-4.042,16.065,16.065,0,0,1-.866-1.367l-.212-.385a.078.078,0,1,1,.026-.013l.231.372c.2.327.5.789.9,1.341a28.825,28.825,0,0,0,3.5,4,31.441,31.441,0,0,0,4.139,3.33c.565.379,1.033.642,1.367.86l.379.225Z" transform="translate(-194.679 -159.015)" fill="#fafafa"/>
      <path id="Path_4906" data-name="Path 4906" d="M203.827,236.522a3.164,3.164,0,0,1-.116-.732,12.1,12.1,0,0,1-.045-2.034,13.071,13.071,0,0,1,2.13-6.308c1.38-2.207,2.644-4.2,3.574-5.627l1.117-1.681a3.21,3.21,0,0,1,.449-.59,3.208,3.208,0,0,1-.34.642l-1.027,1.739c-.879,1.463-2.111,3.465-3.491,5.672a13.648,13.648,0,0,0-2.182,6.154C203.75,235.47,203.872,236.522,203.827,236.522Z" transform="translate(-190.614 -159.015)" fill="#263238"/>
      <path id="Path_4907" data-name="Path 4907" d="M215.908,244.538a8.341,8.341,0,0,1-2.214-.327,10.4,10.4,0,0,1-7.347-7.347,8.344,8.344,0,0,1-.327-2.214.681.681,0,0,1,0,.154,1.426,1.426,0,0,0,.058.443,11.037,11.037,0,0,0,.34,1.6,10.562,10.562,0,0,0,7.289,7.27,11.044,11.044,0,0,0,1.6.34,2.122,2.122,0,0,1,.443.058Z" transform="translate(-191.465 -164.426)" fill="#fafafa"/>
      <path id="Path_4908" data-name="Path 4908" d="M206.846,215.92l-.109.077-.334.205a13.822,13.822,0,0,0-1.2.789,17.075,17.075,0,0,0-5.82,7.289c-.231.558-.4,1.02-.5,1.341l-.122.372a.531.531,0,0,1-.051.128.531.531,0,0,1,.051-.128l.1-.379a12.615,12.615,0,0,1,.468-1.36,16.234,16.234,0,0,1,5.858-7.328,12.617,12.617,0,0,1,1.226-.757l.346-.18Z" transform="translate(-188.846 -157.715)" fill="#fafafa"/>
      <path id="Path_4909" data-name="Path 4909" d="M201.552,208.52a2.166,2.166,0,0,1-.366.128c-.237.071-.577.192-.988.359a11.488,11.488,0,0,0-2.945,1.784,16.772,16.772,0,0,0-2.387,2.5c-.276.347-.488.642-.642.834a2.14,2.14,0,0,1-.244.3,2.139,2.139,0,0,1,.2-.334c.135-.212.34-.507.6-.866a15.027,15.027,0,0,1,2.374-2.567,10.7,10.7,0,0,1,3-1.771,8.47,8.47,0,0,1,1.007-.321,2.135,2.135,0,0,1,.391-.046Z" transform="translate(-187.151 -155.063)" fill="#fafafa"/>
    </g>
  </g>
</svg>
