<svg xmlns="http://www.w3.org/2000/svg" xmlns:xlink="http://www.w3.org/1999/xlink" width="375" height="283" viewBox="0 0 375 283">
  <defs>
    <linearGradient id="linear-gradient" x2="1" y2="1" gradientUnits="objectBoundingBox">
      <stop offset="0" stop-color="#ffbd69"/>
      <stop offset="1" stop-color="#ff6363"/>
    </linearGradient>
  </defs>
  <g id="introimage_c" transform="translate(0 -0.311)">
    <rect id="back" width="375" height="283" transform="translate(0 0.311)" fill="none"/>
    <g id="Background_Complete" data-name="Background Complete" transform="translate(17.815 86.393)">
      <rect id="Rectangle_2109" data-name="Rectangle 2109" width="55.695" height="42.957" transform="translate(70.721 124.453) rotate(180)" fill="#f5f5f5"/>
      <ellipse id="Ellipse_366" data-name="Ellipse 366" cx="0.139" cy="21.385" rx="0.139" ry="21.385" transform="translate(28.839 81.379)" fill="#ebebeb"/>
      <rect id="Rectangle_2110" data-name="Rectangle 2110" width="4.267" height="4.829" transform="translate(24.01 119.501) rotate(180)" fill="#fafafa"/>
      <rect id="Rectangle_2111" data-name="Rectangle 2111" width="6.326" height="9.166" transform="translate(47.401 81.603)" fill="#ebebeb"/>
      <rect id="Rectangle_2112" data-name="Rectangle 2112" width="6.326" height="9.166" transform="translate(47.401 115.159)" fill="#ebebeb"/>
      <rect id="Rectangle_2113" data-name="Rectangle 2113" width="91.946" height="70.914" transform="translate(0 125.058)" fill="#ebebeb"/>
      <path id="Path_5179" data-name="Path 5179" d="M187.692,399.847c-.1,0-.182-15.807-.182-35.294s.08-35.294.182-35.294.182,15.8.182,35.294S187.772,399.847,187.692,399.847Z" transform="translate(-118.783 -204.373)" fill="#e0e0e0"/>
      <rect id="Rectangle_2114" data-name="Rectangle 2114" width="7.048" height="7.968" transform="translate(77.096 179.832)" fill="#fafafa"/>
      <rect id="Rectangle_2115" data-name="Rectangle 2115" width="10.444" height="15.134" transform="translate(28.048 125.239)" fill="#e0e0e0"/>
      <rect id="Rectangle_2116" data-name="Rectangle 2116" width="10.444" height="15.134" transform="translate(28.048 180.629)" fill="#e0e0e0"/>
      <ellipse id="Ellipse_367" data-name="Ellipse 367" cx="1.337" cy="0.139" rx="1.337" ry="0.139" transform="translate(161.105 0)" fill="#ebebeb"/>
      <ellipse id="Ellipse_368" data-name="Ellipse 368" cx="1.337" cy="0.139" rx="1.337" ry="0.139" transform="translate(166.453 0)" fill="#ebebeb"/>
      <ellipse id="Ellipse_369" data-name="Ellipse 369" cx="1.337" cy="0.139" rx="1.337" ry="0.139" transform="translate(171.801 0)" fill="#ebebeb"/>
      <ellipse id="Ellipse_370" data-name="Ellipse 370" cx="1.337" cy="0.139" rx="1.337" ry="0.139" transform="translate(177.148 0)" fill="#ebebeb"/>
      <ellipse id="Ellipse_371" data-name="Ellipse 371" cx="1.337" cy="0.139" rx="1.337" ry="0.139" transform="translate(182.496 0)" fill="#ebebeb"/>
      <ellipse id="Ellipse_372" data-name="Ellipse 372" cx="1.337" cy="0.139" rx="1.337" ry="0.139" transform="translate(187.843 0)" fill="#ebebeb"/>
      <ellipse id="Ellipse_373" data-name="Ellipse 373" cx="1.337" cy="0.139" rx="1.337" ry="0.139" transform="translate(193.191 0)" fill="#ebebeb"/>
      <ellipse id="Ellipse_374" data-name="Ellipse 374" cx="1.337" cy="0.139" rx="1.337" ry="0.139" transform="translate(198.538 0)" fill="#ebebeb"/>
      <ellipse id="Ellipse_375" data-name="Ellipse 375" cx="1.337" cy="0.139" rx="1.337" ry="0.139" transform="translate(203.886 0)" fill="#ebebeb"/>
      <ellipse id="Ellipse_376" data-name="Ellipse 376" cx="1.337" cy="0.139" rx="1.337" ry="0.139" transform="translate(209.233 0)" fill="#ebebeb"/>
      <ellipse id="Ellipse_377" data-name="Ellipse 377" cx="1.337" cy="0.139" rx="1.337" ry="0.139" transform="translate(214.581 0)" fill="#ebebeb"/>
      <ellipse id="Ellipse_378" data-name="Ellipse 378" cx="1.337" cy="0.139" rx="1.337" ry="0.139" transform="translate(219.928 0)" fill="#ebebeb"/>
      <ellipse id="Ellipse_379" data-name="Ellipse 379" cx="1.337" cy="0.139" rx="1.337" ry="0.139" transform="translate(225.276 0)" fill="#ebebeb"/>
      <ellipse id="Ellipse_380" data-name="Ellipse 380" cx="1.337" cy="0.139" rx="1.337" ry="0.139" transform="translate(230.624 0)" fill="#ebebeb"/>
      <ellipse id="Ellipse_381" data-name="Ellipse 381" cx="1.337" cy="0.139" rx="1.337" ry="0.139" transform="translate(235.971 0)" fill="#ebebeb"/>
      <ellipse id="Ellipse_382" data-name="Ellipse 382" cx="1.337" cy="0.139" rx="1.337" ry="0.139" transform="translate(241.319 0)" fill="#ebebeb"/>
      <ellipse id="Ellipse_383" data-name="Ellipse 383" cx="1.337" cy="0.139" rx="1.337" ry="0.139" transform="translate(246.666 0)" fill="#ebebeb"/>
      <ellipse id="Ellipse_384" data-name="Ellipse 384" cx="1.337" cy="0.139" rx="1.337" ry="0.139" transform="translate(252.014 0)" fill="#ebebeb"/>
      <ellipse id="Ellipse_385" data-name="Ellipse 385" cx="1.337" cy="0.139" rx="1.337" ry="0.139" transform="translate(257.361 0)" fill="#ebebeb"/>
      <ellipse id="Ellipse_386" data-name="Ellipse 386" cx="1.337" cy="0.139" rx="1.337" ry="0.139" transform="translate(262.709 0)" fill="#ebebeb"/>
      <ellipse id="Ellipse_387" data-name="Ellipse 387" cx="1.337" cy="0.139" rx="1.337" ry="0.139" transform="translate(268.056 0)" fill="#ebebeb"/>
      <ellipse id="Ellipse_388" data-name="Ellipse 388" cx="1.337" cy="0.139" rx="1.337" ry="0.139" transform="translate(273.404 0)" fill="#ebebeb"/>
      <ellipse id="Ellipse_389" data-name="Ellipse 389" cx="1.337" cy="0.139" rx="1.337" ry="0.139" transform="translate(278.751 0)" fill="#ebebeb"/>
      <ellipse id="Ellipse_390" data-name="Ellipse 390" cx="0.139" cy="1.337" rx="0.139" ry="1.337" transform="translate(282.655 1.438)" fill="#ebebeb"/>
      <ellipse id="Ellipse_391" data-name="Ellipse 391" cx="0.139" cy="1.337" rx="0.139" ry="1.337" transform="translate(282.655 6.786)" fill="#ebebeb"/>
      <ellipse id="Ellipse_392" data-name="Ellipse 392" cx="0.139" cy="1.337" rx="0.139" ry="1.337" transform="translate(282.655 12.134)" fill="#ebebeb"/>
      <ellipse id="Ellipse_393" data-name="Ellipse 393" cx="0.139" cy="1.337" rx="0.139" ry="1.337" transform="translate(282.655 17.481)" fill="#ebebeb"/>
      <ellipse id="Ellipse_394" data-name="Ellipse 394" cx="0.139" cy="1.337" rx="0.139" ry="1.337" transform="translate(282.655 22.829)" fill="#ebebeb"/>
      <path id="Path_5180" data-name="Path 5180" d="M588.732,150.036a2.39,2.39,0,0,1-1.043.134h-.134v-.433a3.325,3.325,0,0,1,.139-1.337,3.333,3.333,0,0,1,.139,1.337v.294l-.134-.134A2.4,2.4,0,0,1,588.732,150.036Z" transform="translate(-304.895 -120.229)" fill="#ebebeb"/>
      <ellipse id="Ellipse_395" data-name="Ellipse 395" cx="1.337" cy="0.139" rx="1.337" ry="0.139" transform="translate(286.511 29.668)" fill="#ebebeb"/>
      <ellipse id="Ellipse_396" data-name="Ellipse 396" cx="1.337" cy="0.139" rx="1.337" ry="0.139" transform="translate(291.858 29.668)" fill="#ebebeb"/>
      <ellipse id="Ellipse_397" data-name="Ellipse 397" cx="1.337" cy="0.139" rx="1.337" ry="0.139" transform="translate(297.206 29.668)" fill="#ebebeb"/>
      <ellipse id="Ellipse_398" data-name="Ellipse 398" cx="1.337" cy="0.139" rx="1.337" ry="0.139" transform="translate(302.553 29.668)" fill="#ebebeb"/>
      <ellipse id="Ellipse_399" data-name="Ellipse 399" cx="1.337" cy="0.139" rx="1.337" ry="0.139" transform="translate(307.901 29.668)" fill="#ebebeb"/>
      <ellipse id="Ellipse_400" data-name="Ellipse 400" cx="1.337" cy="0.139" rx="1.337" ry="0.139" transform="translate(313.248 29.668)" fill="#ebebeb"/>
      <ellipse id="Ellipse_401" data-name="Ellipse 401" cx="1.337" cy="0.139" rx="1.337" ry="0.139" transform="translate(318.596 29.668)" fill="#ebebeb"/>
      <ellipse id="Ellipse_402" data-name="Ellipse 402" cx="1.337" cy="0.139" rx="1.337" ry="0.139" transform="translate(323.944 29.668)" fill="#ebebeb"/>
      <ellipse id="Ellipse_403" data-name="Ellipse 403" cx="0.139" cy="1.337" rx="0.139" ry="1.337" transform="translate(328.559 30.406)" fill="#ebebeb"/>
      <ellipse id="Ellipse_404" data-name="Ellipse 404" cx="0.139" cy="1.337" rx="0.139" ry="1.337" transform="translate(328.559 35.754)" fill="#ebebeb"/>
      <ellipse id="Ellipse_405" data-name="Ellipse 405" cx="0.139" cy="1.337" rx="0.139" ry="1.337" transform="translate(328.559 41.101)" fill="#ebebeb"/>
      <ellipse id="Ellipse_406" data-name="Ellipse 406" cx="0.139" cy="1.337" rx="0.139" ry="1.337" transform="translate(328.559 46.449)" fill="#ebebeb"/>
      <ellipse id="Ellipse_407" data-name="Ellipse 407" cx="0.139" cy="1.337" rx="0.139" ry="1.337" transform="translate(328.559 51.796)" fill="#ebebeb"/>
      <ellipse id="Ellipse_408" data-name="Ellipse 408" cx="0.139" cy="1.337" rx="0.139" ry="1.337" transform="translate(328.559 57.144)" fill="#ebebeb"/>
      <ellipse id="Ellipse_409" data-name="Ellipse 409" cx="0.139" cy="1.337" rx="0.139" ry="1.337" transform="translate(328.559 62.491)" fill="#ebebeb"/>
      <ellipse id="Ellipse_410" data-name="Ellipse 410" cx="0.139" cy="1.337" rx="0.139" ry="1.337" transform="translate(328.559 67.839)" fill="#ebebeb"/>
      <ellipse id="Ellipse_411" data-name="Ellipse 411" cx="0.139" cy="1.337" rx="0.139" ry="1.337" transform="translate(328.559 73.186)" fill="#ebebeb"/>
      <ellipse id="Ellipse_412" data-name="Ellipse 412" cx="0.139" cy="1.337" rx="0.139" ry="1.337" transform="translate(328.559 78.534)" fill="#ebebeb"/>
      <ellipse id="Ellipse_413" data-name="Ellipse 413" cx="0.139" cy="1.337" rx="0.139" ry="1.337" transform="translate(328.559 83.882)" fill="#ebebeb"/>
      <path id="Path_5181" data-name="Path 5181" d="M379.347,112.8s-4.15-2.3-8.219,7.519a123.239,123.239,0,0,0-5.465,15.4s-1.118,2.075-2.577.893-3.61-4.706-5.882-3.866c-2.342.872-2.92,3.61-2.139,7.487s2.139,12.476,2.251,13.257-.23,1.925-1.358,1.278-7.8-7-10.62-3.652,1.07,13.834,1.5,14.973.214,1.679-.321,2.011-2.578-2.011-4.551-3.743-4.561-3.385-6.027-1.321-1.353,10.16,7.337,22.636l4.406,5.519,7.027-.946c14.92-2.941,20.62-8.684,21-11.192s-2.636-3.112-5.251-3.235-5.717.144-5.882-.471.07-1.123,1.166-1.674,11.192-5.38,11.487-9.749-8.92-4.433-10.16-4.749-.7-1.4-.086-1.861,7.572-5.706,10.823-7.973,4.738-4.636,3.658-6.893c-1.037-2.171-5.032-1.134-6.9-1.294s-1.235-2.428-1.235-2.428a122.828,122.828,0,0,0,6.765-14.877c3.888-9.888-.813-11.123-.813-11.123" transform="translate(-187.509 -103.556)" fill="#ebebeb"/>
      <path id="Path_5182" data-name="Path 5182" d="M359,197.7c2.882-7.251,6.952-17.235,11.481-28.251s8.62-20.984,11.545-28.219l3.454-8.556.941-2.332.251-.6c.059-.134.091-.2.091-.2a.545.545,0,0,1-.07.214l-.23.615-.9,2.348c-.786,2.037-1.941,4.973-3.385,8.6-2.882,7.251-6.952,17.235-11.481,28.246s-8.626,20.989-11.545,28.224" transform="translate(-198.568 -111.45)" fill="#e0e0e0"/>
      <path id="Path_5183" data-name="Path 5183" d="M381.61,159.78a2.081,2.081,0,0,1,.219.46c.128.3.3.743.5,1.294.406,1.1.936,2.631,1.481,4.337l1.38,4.364.422,1.321a.257.257,0,1,1-.091.032c-.128-.3-.3-.749-.5-1.3-.4-1.1-.9-2.642-1.449-4.348l-1.412-4.353-.433-1.321a2.084,2.084,0,0,1-.123-.487Z" transform="translate(-209.087 -125.524)" fill="#e0e0e0"/>
      <ellipse id="Ellipse_414" data-name="Ellipse 414" cx="7.471" cy="0.123" rx="7.471" ry="0.123" transform="translate(177.278 46.494) rotate(-20.556)" fill="#e0e0e0"/>
      <path id="Path_5184" data-name="Path 5184" d="M376.15,212.579a2.176,2.176,0,0,1,.535-.069l1.412-.107c1.193-.091,2.84-.23,4.647-.439s3.444-.455,4.626-.642l1.4-.219a2.183,2.183,0,0,1,.535-.053,2.14,2.14,0,0,1-.5.144c-.326.075-.8.182-1.39.294-1.176.23-2.813.5-4.626.711s-3.471.321-4.668.369c-.6,0-1.069.037-1.417.032A2.138,2.138,0,0,1,376.15,212.579Z" transform="translate(-206.547 -149.376)" fill="#e0e0e0"/>
      <path id="Path_5185" data-name="Path 5185" d="M363.44,194.81a1.866,1.866,0,0,1,.31.369c.187.246.449.61.77,1.07.642.9,1.519,2.139,2.471,3.545s1.807,2.674,2.412,3.588c.3.46.535.84.706,1.1a.242.242,0,1,1-.08.053c-.187-.246-.449-.61-.77-1.069-.642-.9-1.519-2.139-2.471-3.545s-1.807-2.674-2.412-3.583c-.3-.46-.535-.84-.706-1.1a1.855,1.855,0,0,1-.23-.428Z" transform="translate(-200.634 -141.821)" fill="#e0e0e0"/>
      <path id="Path_5186" data-name="Path 5186" d="M347.21,220.59a3.028,3.028,0,0,1,.39.476l1,1.348c.829,1.15,1.963,2.749,3.209,4.519s2.348,3.385,3.144,4.561l.93,1.4a3.016,3.016,0,0,1,.316.535,3.038,3.038,0,0,1-.39-.476l-.995-1.353c-.829-1.15-1.963-2.749-3.209-4.519s-2.348-3.385-3.144-4.561l-.93-1.4a3.018,3.018,0,0,1-.316-.53Z" transform="translate(-193.083 -153.815)" fill="#e0e0e0"/>
      <path id="Path_5187" data-name="Path 5187" d="M363.75,241.836a3.463,3.463,0,0,1,.652-.1l1.786-.2c1.508-.171,3.588-.417,5.882-.749s4.358-.679,5.85-.947l1.77-.31a3.454,3.454,0,0,1,.658-.086,3.467,3.467,0,0,1-.636.176c-.412.1-1.011.235-1.759.385-1.487.3-3.556.684-5.85,1.016s-4.385.535-5.882.679c-.759.064-1.369.107-1.8.128a3.462,3.462,0,0,1-.671.008Z" transform="translate(-200.778 -162.585)" fill="#e0e0e0"/>
      <path id="Path_5188" data-name="Path 5188" d="M676.1,265.613a18.791,18.791,0,1,0-34.984,9.492h0l.053.069c.722,1.214,1.6,2.08,2.535,3.358l10.909,14.438a3.39,3.39,0,0,0,5.417,0l10.727-14.214a40.521,40.521,0,0,0,2.727-3.615l.037-.053h0a18.673,18.673,0,0,0,2.578-9.476Zm-21.791.182a3.419,3.419,0,1,1,0,.027Z" transform="translate(-328.614 -165.999)" fill="#f5f5f5"/>
      <path id="Path_5189" data-name="Path 5189" d="M542.9,125.071v22.1a.861.861,0,0,0,.861.861h46.331a.861.861,0,0,0,.861-.872l-.107-8.091a.861.861,0,0,0-.171-.5l-6.647-8.882a.861.861,0,0,0-.684-.348l-7.658-.059a.861.861,0,0,1-.856-.861v-3.342a.861.861,0,0,0-.861-.861H543.756a.861.861,0,0,0-.856.855Z" transform="translate(-284.127 -108.975)" fill="#f5f5f5"/>
      <path id="Path_5190" data-name="Path 5190" d="M606.65,136.726v7.091a.492.492,0,0,0,.5.492l10.23-.182a.492.492,0,0,0,.4-.77L613,136.3a.492.492,0,0,0-.422-.214l-5.444.144a.492.492,0,0,0-.484.5Z" transform="translate(-313.786 -114.502)" fill="#ebebeb"/>
      <rect id="Rectangle_2117" data-name="Rectangle 2117" width="49.909" height="1.54" transform="translate(257.837 39.727)" fill="#f5f5f5"/>
      <circle id="Ellipse_415" data-name="Ellipse 415" cx="4.936" cy="4.936" r="4.936" transform="translate(264.474 35.379)" fill="#ebebeb"/>
      <circle id="Ellipse_416" data-name="Ellipse 416" cx="2.904" cy="2.904" r="2.904" transform="translate(266.506 37.411)" fill="#fafafa"/>
      <ellipse id="Ellipse_417" data-name="Ellipse 417" cx="0.225" cy="11.909" rx="0.225" ry="11.909" transform="translate(290.447 15.235)" fill="#ebebeb"/>
      <circle id="Ellipse_418" data-name="Ellipse 418" cx="4.936" cy="4.936" r="4.936" transform="translate(291.372 35.379)" fill="#ebebeb"/>
      <circle id="Ellipse_419" data-name="Ellipse 419" cx="2.904" cy="2.904" r="2.904" transform="translate(293.404 37.411)" fill="#fafafa"/>
      <ellipse id="Ellipse_420" data-name="Ellipse 420" cx="1.578" cy="0.225" rx="1.578" ry="0.225" transform="translate(293.163 30.984)" fill="#ebebeb"/>
    </g>
    <g id="Floor" transform="translate(0.221 282.226)">
      <path id="Path_5191" data-name="Path 5191" d="M400.445,462.069c0,.075-83.812.139-187.164.139s-187.191-.064-187.191-.139,83.8-.139,187.191-.139S400.445,461.967,400.445,462.069Z" transform="translate(-26.09 -461.93)" fill="#263238"/>
    </g>
    <g id="Plant" transform="translate(45.084 230.347)">
      <path id="Path_5192" data-name="Path 5192" d="M139.864,414.58c7.2-4.995,8.866-14.31,8.615-22.69-.043-1.4.118-2.872-.535-4.1a2.839,2.839,0,0,0-3.465-1.487c-1.043.487-1.5,1.69-2.08,2.674a8.182,8.182,0,0,1-3.289,3.123,3.116,3.116,0,0,1-2.872.251c-1.2-.668-1.342-2.337-1.326-3.743l.075-7.775a12.968,12.968,0,0,0-.4-4.107,4.312,4.312,0,0,0-2.7-2.925,2.617,2.617,0,0,0-3.246,1.743,12.833,12.833,0,0,0-.048,1.733,1.465,1.465,0,0,1-.861,1.374,1.7,1.7,0,0,1-1.524-.642,18.247,18.247,0,0,1-3.3-5.027,25.068,25.068,0,0,0-3.08-5.182,7.528,7.528,0,0,0-5.086-2.877,4.511,4.511,0,0,0-4.631,3.059c-.513,1.957.626,3.952,1.866,5.545a31.064,31.064,0,0,0,6.417,6.187,2.556,2.556,0,0,1,1.07,1.166c.3.93-.583,1.845-1.5,2.139a15.8,15.8,0,0,1-3.246.353,3.115,3.115,0,0,0-2.674,1.6c-.572,1.417.61,2.914,1.775,3.893a26.6,26.6,0,0,0,7.856,4.572,8.967,8.967,0,0,1,2.92,1.433,2.264,2.264,0,0,1-2.043,4.021,19.925,19.925,0,0,1-3.048-1.176c-1.909-.727-4.38-.6-5.61,1.043a4.4,4.4,0,0,0-.481,3.893,10.159,10.159,0,0,0,2.1,3.444,26.738,26.738,0,0,0,11.4,8.064c4.428,1.551,8.556,1.984,12.952.385" transform="translate(-109.984 -364.915)" fill="url(#linear-gradient)"/>
      <path id="Path_5193" data-name="Path 5193" d="M141.268,417.955c-.294-3.321-.444-3.39-1.668-7.62a124.6,124.6,0,0,0-4.9-13.438l-1.465-3.455c-.481-1.134-.963-2.257-1.5-3.326a62.22,62.22,0,0,0-3.455-5.957c-1.187-1.845-2.38-3.556-3.5-5.144s-2.214-3.048-3.257-4.337a49.372,49.372,0,0,0-5.348-5.711c-.684-.62-1.23-1.069-1.6-1.4l-.428-.353a1.03,1.03,0,0,0-.15-.112.983.983,0,0,0,.134.134l.412.369c.364.321.9.8,1.572,1.433a52.226,52.226,0,0,1,5.294,5.754c1.032,1.294,2.1,2.754,3.209,4.348s2.3,3.3,3.481,5.15a62.947,62.947,0,0,1,3.412,5.957c.535,1.07,1.005,2.182,1.492,3.315l1.465,3.454a127.771,127.771,0,0,1,4.909,13.4c1.235,4.214,1.4,4.278,1.711,7.567" transform="translate(-111.848 -365.932)" fill="#263238"/>
      <path id="Path_5194" data-name="Path 5194" d="M147,396.832a2.816,2.816,0,0,0,.139-.594c.075-.385.166-.941.262-1.636.2-1.385.417-3.3.642-5.422s.465-4.032.69-5.412c.107-.69.2-1.246.273-1.6a2.787,2.787,0,0,0,.08-.6,2.771,2.771,0,0,0-.176.583c-.1.38-.219.93-.353,1.6-.267,1.374-.535,3.294-.765,5.412l-.567,5.428-.182,1.642a2.775,2.775,0,0,0-.043.6Z" transform="translate(-127.204 -372.659)" fill="#263238"/>
      <path id="Path_5195" data-name="Path 5195" d="M113.58,403.738a3.884,3.884,0,0,0,.711.086c.46.043,1.123.1,1.941.2,1.636.182,3.893.535,6.358.989s4.684,1.005,6.278,1.439c.8.208,1.439.4,1.882.535a3.835,3.835,0,0,0,.7.171,3.827,3.827,0,0,0-.668-.267c-.433-.155-1.07-.369-1.866-.6-1.6-.476-3.8-1.032-6.278-1.513a63.07,63.07,0,0,0-6.39-.914c-.824-.075-1.492-.107-1.952-.118a3.78,3.78,0,0,0-.716-.008Z" transform="translate(-111.657 -382.971)" fill="#263238"/>
      <path id="Path_5196" data-name="Path 5196" d="M161.44,427.5a.916.916,0,0,0,.123-.219l.31-.647c.267-.562.626-1.385,1.069-2.406.872-2.048,1.984-4.909,3.166-8.085s2.273-6.048,3.1-8.107l.984-2.438.262-.663a.921.921,0,0,0,.075-.241.942.942,0,0,0-.123.219l-.31.647c-.267.561-.626,1.385-1.07,2.406-.872,2.048-1.984,4.909-3.171,8.085s-2.273,6.048-3.1,8.107l-.984,2.438-.262.663a.937.937,0,0,0-.069.241Z" transform="translate(-133.924 -383.42)" fill="#263238"/>
      <path id="Path_5197" data-name="Path 5197" d="M117.05,432.86a.955.955,0,0,0,.235.1l.69.235,2.54.834c2.139.706,5.1,1.711,8.364,2.829s6.23,2.1,8.39,2.759c1.07.332,1.957.588,2.567.754l.7.187a.932.932,0,0,0,.251.048.975.975,0,0,0-.235-.1l-.69-.235-2.519-.834c-2.139-.706-5.1-1.711-8.364-2.829s-6.225-2.1-8.39-2.759c-1.07-.332-1.957-.588-2.567-.754l-.706-.187a.933.933,0,0,0-.266-.048Z" transform="translate(-113.271 -396.526)" fill="#263238"/>
    </g>
    <g id="Device" transform="translate(70.798 62.008)">
      <path id="Path_5198" data-name="Path 5198" d="M249.069,270.476H174.647a16.928,16.928,0,0,1-16.577-16.7l.818-187.437A16.289,16.289,0,0,1,175.252,50.12l74.759.348A16.289,16.289,0,0,1,266.219,66.82l-.791,187.437a16.289,16.289,0,0,1-16.359,16.219Z" transform="translate(-158.07 -50.12)" fill="#263238"/>
      <path id="Path_5199" data-name="Path 5199" d="M254.249,63.824l-14.5-.043a3.6,3.6,0,0,0-3.535,3.663v2.631a3.6,3.6,0,0,1-3.535,3.663l-28.256-.128a3.6,3.6,0,0,1-3.5-3.7V67.284a3.6,3.6,0,0,0-3.5-3.7h-5.1l-12.69-.059a11.406,11.406,0,0,0-11.46,11.358L167.4,257.8a11.406,11.406,0,0,0,11.353,11.454l74.614.342a11.406,11.406,0,0,0,11.46-11.358l.754-182.955A11.406,11.406,0,0,0,254.25,63.829Z" transform="translate(-162.411 -56.359)" fill="#f5f5f5"/>
      <path id="Path_5200" data-name="Path 5200" d="M270.385,383.717c-.086,2.209-.166,4.278-.235,6.005h10.7l-1.31-6.583Z" transform="translate(-210.215 -205.056)" fill="#f5f5f5"/>
      <path id="Path_5201" data-name="Path 5201" d="M189.13,387.03l.091,3.246h42.165c.07-1.824.15-3.85.23-5.936Z" transform="translate(-172.521 -205.614)" fill="#f5f5f5"/>
      <path id="Path_5202" data-name="Path 5202" d="M262.68,331.8l1.321,6.62H283.76l-.235-7.936Z" transform="translate(-192.804 -153.759)" fill="#f5f5f5"/>
      <path id="Path_5203" data-name="Path 5203" d="M241.263,140.48,245,118.817l-9.786-.727v22.39Z" transform="translate(-180.023 -54.941)" fill="#f5f5f5"/>
      <path id="Path_5204" data-name="Path 5204" d="M152.152,316.76l-10.62,4.16-.032,7.524,10.968-.7Z" transform="translate(-136.425 -147.371)" fill="#f5f5f5"/>
      <path id="Path_5205" data-name="Path 5205" d="M152.137,289.854l-.583-20.176h-.011V262.56L141.7,263.6l-.128,30.379,10.561-4.139Z" transform="translate(-136.458 -122.155)" fill="#f5f5f5"/>
      <path id="Path_5206" data-name="Path 5206" d="M151.66,231.734l-9.77-1.294-.07,16.609,9.84-1.043Z" transform="translate(-136.574 -107.211)" fill="#f5f5f5"/>
      <path id="Path_5207" data-name="Path 5207" d="M286.012,262.869l-.412,5.786L274.06,269.9l.893,4.578,13.1-.989-.2-6.561,1.048-4.342Z" transform="translate(-198.098 -122.164)" fill="#f5f5f5"/>
      <path id="Path_5208" data-name="Path 5208" d="M256.794,276.652l9.2-.7-2.005-10.267-8.032.813Z" transform="translate(-189.677 -123.611)" fill="#f5f5f5"/>
      <path id="Path_5209" data-name="Path 5209" d="M257.68,286.692l.706,8.561L259.632,307l.513,2.572,21.021-1.326-.7-23.272Z" transform="translate(-190.477 -132.581)" fill="#f5f5f5"/>
      <path id="Path_5210" data-name="Path 5210" d="M193.735,239.61l.807,1.385-16.208,9.47v22.428l17.112-1.209,32.973-3.326-1.209-14.7-31.5-4.118.209-1.6,31.16,4.069-2.043-24.882L194.2,230.1l-.1-1.069,30.855-2.968-1.069-12.984H194.222l-26.053,4.743-.128,29.732,9.861,1.316Zm-13.743,31.128s.123-18.492,0-19.187l13.23-7.037,1.717,25.278Z" transform="translate(-162.709 -125.932)" fill="#f5f5f5"/>
      <path id="Path_5211" data-name="Path 5211" d="M283.964,263.33l-11.984,1.209.909,4.652,10.738-1.155Z" transform="translate(-197.13 -122.513)" fill="#f5f5f5"/>
      <path id="Path_5212" data-name="Path 5212" d="M270.772,376.81l-.112,2.888,8.92-.567-.46-2.3Z" transform="translate(-210.452 -202.111)" fill="#f5f5f5"/>
      <path id="Path_5213" data-name="Path 5213" d="M177.867,138.033l1.572-7.123h11.973v-15.3l-37.443-2.775V127.2l-11.7,2.647-.053,12.9,25.9-4.711Z" transform="translate(-136.76 -52.493)" fill="#f5f5f5"/>
      <path id="Path_5214" data-name="Path 5214" d="M271.528,108.114l-.321-1.31,14.3-5.658-9.3-18.674a3.368,3.368,0,0,1-.535.043l-15.8-.075.428,26.128Z" transform="translate(-205.432 -65.157)" fill="#f5f5f5"/>
      <path id="Path_5215" data-name="Path 5215" d="M308.717,89.518V64.027L298.294,64a3.6,3.6,0,0,0-3.535,3.663v2.631a3.743,3.743,0,0,1-1.529,3.016l9.3,18.684Z" transform="translate(-220.953 -56.577)" fill="#f5f5f5"/>
      <path id="Path_5216" data-name="Path 5216" d="M204.074,90.373l-1.2-26.839h-2.9l-11.31-.053-4.814,24ZM201.5,66.25l.385,21.861-15.032-2.2,3.294-19.658Z" transform="translate(-170.064 -56.335)" fill="#f5f5f5"/>
      <path id="Path_5217" data-name="Path 5217" d="M221.625,90.513v.23c0,2.1.07,5.882.1,9.9l19.7-.8L241,73.688l-11.92-.053a3.6,3.6,0,0,1-3.5-3.7v-2.63a3.6,3.6,0,0,0-3.5-3.7H220.4l1.209,26.914Z" transform="translate(-187.069 -56.396)" fill="#f5f5f5"/>
      <path id="Path_5218" data-name="Path 5218" d="M175.236,87.23l4.77-23.77a11.4,11.4,0,0,0-11.2,11.347l-.048,11.85.048-.348Z" transform="translate(-163.044 -56.326)" fill="#f5f5f5"/>
      <path id="Path_5219" data-name="Path 5219" d="M152.416,111.963,142.4,111.22l-.07,16.23,10.085-2.278Z" transform="translate(-136.811 -51.744)" fill="#f5f5f5"/>
      <path id="Path_5220" data-name="Path 5220" d="M148.961,57.974l-6.369-.914-.112,26.283,1.369.1Z" transform="translate(-136.881 -26.547)" fill="#f5f5f5"/>
      <path id="Path_5221" data-name="Path 5221" d="M177.924,294.666l.166-21.1-16.85,1.192.594,20.668Z" transform="translate(-145.609 -127.277)" fill="#f5f5f5"/>
      <path id="Path_5222" data-name="Path 5222" d="M223.611,336.963,247.478,348.4c.283-7.487.535-14.438.535-14.9l.535-.027.251-.5c.337.171.337.171.16,5.262-.1,2.84-.241,6.62-.385,10.406h8.251l-1.219-11.465L254,317.38l-31.181,3.144Z" transform="translate(-188.195 -174.461)" fill="#f5f5f5"/>
      <path id="Path_5223" data-name="Path 5223" d="M282.5,236.016l-.267-2.786-28.6,2.979,1.2,14.658,24.695-2.492Z" transform="translate(-188.593 -108.509)" fill="#f5f5f5"/>
      <path id="Path_5224" data-name="Path 5224" d="M223.854,149.64H213.169l-1.219,5.519h11.9Z" transform="translate(-169.202 -69.619)" fill="#f5f5f5"/>
      <path id="Path_5225" data-name="Path 5225" d="M301.237,201.63,274.5,199.78l-1.07,6.32,1.128,13.722,28.224-2.717Zm-25.775,4.46,1.438-3.99,23.246,1.471,1.348,11.417-25.24,2.995Z" transform="translate(-211.741 -119.749)" fill="#f5f5f5"/>
      <path id="Path_5226" data-name="Path 5226" d="M278.967,196.194,277.79,184.06l-28.24,2.711,1.059,12.92Z" transform="translate(-186.695 -85.633)" fill="#f5f5f5"/>
      <path id="Path_5227" data-name="Path 5227" d="M152.486,339.3l-10.957.7-.048-.711-.011,3.235h11.107Z" transform="translate(-136.411 -157.848)" fill="#f5f5f5"/>
      <path id="Path_5228" data-name="Path 5228" d="M337.853,83.529l.16.406.016-8.4A11.406,11.406,0,0,0,326.676,64.08H323.12V89.358Z" transform="translate(-234.859 -56.615)" fill="#f5f5f5"/>
      <path id="Path_5229" data-name="Path 5229" d="M231.479,351.81l-24.358-11.668-.861-16.722-1.021.1-.171,21.652-16.577.786v.481h0l.321,11.166,42.561-2.674Zm-41.973-4.47,23.24-1.6,15.117,7.016-38.358,2.075Z" transform="translate(-172.223 -177.272)" fill="#f5f5f5"/>
      <path id="Path_5230" data-name="Path 5230" d="M325.521,134.832l.995-5.909c-8.738-3.118-9.342-12.224-9.315-14.973l-5.7,2.257,8.588,17.235Z" transform="translate(-229.453 -79.816)" fill="#f5f5f5"/>
      <path id="Path_5231" data-name="Path 5231" d="M252.636,225.607l11.877-1.235L262.17,213.88l-10.39,1.283Z" transform="translate(-187.733 -99.507)" fill="#f5f5f5"/>
      <path id="Path_5232" data-name="Path 5232" d="M276.359,119.659H254.178l-1.845-.139-2.5,14.529,26.331,1.818-.61-6.315,2.588-9.326Z" transform="translate(-186.825 -55.606)" fill="#f5f5f5"/>
      <path id="Path_5233" data-name="Path 5233" d="M305.387,143.624l.278-6.952-8.717-17.5-13.519,5.348,4.647,19.085Zm-8.968-22.3,7.989,15.2-1.155,4.738-13.668-.535-3.417-14.374Z" transform="translate(-216.393 -82.245)" fill="#f5f5f5"/>
      <path id="Path_5234" data-name="Path 5234" d="M304.88,266.158l.406,13.62,9.615-.54.027.535-9.626.54.492,16.3,9.085-.572.07,1.064-9.123.578.241,8.107h8.856l.192-45.449-9.053.914Z" transform="translate(-212.437 -121.122)" fill="#f5f5f5"/>
      <path id="Path_5235" data-name="Path 5235" d="M199.564,112.24l-20.353-2.92-5.091,25.358,25.534,1.893C199.756,132.678,199.665,120.689,199.564,112.24Z" transform="translate(-165.537 -77.662)" fill="#f5f5f5"/>
      <path id="Path_5236" data-name="Path 5236" d="M247.27,99.213h3.075L245.986,81.32l-11.326.465.273,16.519Z" transform="translate(-179.767 -37.834)" fill="#f5f5f5"/>
      <path id="Path_5237" data-name="Path 5237" d="M167.43,419.79Z" transform="translate(-162.425 -222.107)" fill="#f5f5f5"/>
      <path id="Path_5238" data-name="Path 5238" d="M222.84,147.323l19.994,1.481-.273-16.454-19.7.807C222.926,138.719,222.926,144.655,222.84,147.323Z" transform="translate(-188.204 -88.377)" fill="#f5f5f5"/>
      <path id="Path_5239" data-name="Path 5239" d="M289.659,209.74l-17.449,2.15,2.342,10.5,16.171-1.679Z" transform="translate(-197.237 -97.58)" fill="#f5f5f5"/>
      <path id="Path_5240" data-name="Path 5240" d="M332.033,123.03l1.118-6.631,4.813.374.059-14.283-14.861,5.882C322.862,118.42,329.177,121.955,332.033,123.03Z" transform="translate(-234.873 -74.485)" fill="#f5f5f5"/>
      <path id="Path_5241" data-name="Path 5241" d="M302.99,131.1l.61,6.267,10.882.754.053-12.9-9.112-2.877Z" transform="translate(-211.558 -56.918)" fill="#f5f5f5"/>
      <path id="Path_5242" data-name="Path 5242" d="M336.251,286.272,333.39,298.16l8.925-.9.053-12.465c-2.738-.722-5.128-1.31-6.417-1.556Z" transform="translate(-239.637 -158.578)" fill="#f5f5f5"/>
      <path id="Path_5243" data-name="Path 5243" d="M301.41,109.693l12.406,3.92.027-7.053-12.182-3.15Z" transform="translate(-210.823 -48.111)" fill="#f5f5f5"/>
      <path id="Path_5244" data-name="Path 5244" d="M335.816,257.778a64.79,64.79,0,0,1,6.577,1.524l.118-27.272-9.091.877Z" transform="translate(-239.651 -134.753)" fill="#f5f5f5"/>
      <path id="Path_5245" data-name="Path 5245" d="M305.875,168.507l9.208-.888.059-13.406-10.722-.743Z" transform="translate(-212.223 -71.401)" fill="#f5f5f5"/>
      <path id="Path_5246" data-name="Path 5246" d="M341.68,136.459a49.9,49.9,0,0,0,4.872,1.241l.027-6.765-3.92-.3Z" transform="translate(-243.494 -87.577)" fill="#f5f5f5"/>
      <path id="Path_5247" data-name="Path 5247" d="M339.67,148.37l5.92,1.529v-6.118a50.565,50.565,0,0,1-4.963-1.262Z" transform="translate(-242.559 -93.109)" fill="#f5f5f5"/>
      <path id="Path_5248" data-name="Path 5248" d="M178.574,237.774l.091,3.209h.535l-.091-3.246,42.486-2.674c-.08,2.085-.16,4.112-.23,5.936h1.07c.07-1.722.15-3.8.235-6.005l9.171-.577,1.31,6.583h.535l-1.321-6.615,20.855-1.321.241,7.936h2.674l-.246-8.107,9.123-.578-.07-1.069-9.091.572-.487-16.3,9.626-.535-.032-.535-9.626.535-.406-13.62,1.182-4.909,9.059-.914V195l-8.925.9,2.861-11.888-.294-3.037c1.283.246,3.674.834,6.417,1.556V180.86c-3.684-.968-5.578-1.369-6.577-1.524l-2.406-24.855,9.091-.877v-1.07l-9.208.888-1.455-15.037,10.7.743v-1.6l-10.888-.754-.6-6.267,2.433-8.759,9.091,2.877v-2.8L253,117.9l.251-6.283,12.182,3.15v-1.652l-5.92-1.529.984-5.845q2.663.8,4.962,1.262v-.535q-2.254-.449-4.872-1.241l.984-5.829,3.92.3V98.636l-4.813-.374-1.118,6.631c-2.85-1.07-9.166-4.61-8.866-14.663l14.861-5.882v-.679l-.16-.406-14.7,5.813V63.8h-.535V89.289l-6.192,2.449-9.3-18.684a3.407,3.407,0,0,1-1.492.6l9.3,18.668-14.2,5.647.321,1.31-11.23.46-.428-26.128H216.4l.428,26.155-19.695.8c-.032-4.032-.075-7.8-.1-9.9v-.23h0L195.825,63.53h-.535l1.2,26.839-20.23-2.9,4.813-24h-1.642l-4.77,23.77-6.417-.925-.048.348v.182l6.374.914-5.112,25.47-1.374-.1V115.8l10.016.743v13.208l-10.085,2.283v1.647l11.7-2.647V116.689l37.433,2.775v15.3h-11.97l-1.572,7.123h-9.749l-25.9,4.711v1.631l26.053-4.765h29.67l1.069,12.984-30.855,2.968.1,1.07,30.839-2.968,2.043,24.882-31.16-4.069-.209,1.6,31.5,4.118,1.209,14.7-32.973,3.326-17.112,1.209V180.86l16.208-9.454-.807-1.385-15.845,9.235-9.882-1.315v1.6l9.781,1.315v14.273l-9.839,1.043v1.6l9.85-1.07v7.144h0l.583,20.176h0l-10.561,4.139V229.9l10.62-4.16.316,10.989-10.968.7v.358l.043.711Zm44.139-3.861.112-2.888h8.353l.46,2.3Zm9.46-.6-.535-2.572-1.246-11.765-.7-8.556,22.786-1.717.7,23.267Zm5.155-34.962,11.984-1.209-.337,4.706-10.743,1.16Zm-.535.053,2.005,10.267-9.2.7-.834-10.16Zm15.642,9.241-13.1.989-.893-4.577,11.54-1.246.412-5.781,2.888-.294-1.07,4.348ZM236.926,170.7l2.342,10.487-11.877,1.235-.856-10.444Zm2.877,10.433-2.342-10.5L254.91,168.5l1.07,10.968Zm12.021-44.545-26.331-1.824L228,120.24l1.84.139h22.182l1.781.562-2.572,9.331Zm-1.6-46.165c0,2.759.578,11.866,9.315,14.973l-.968,5.946-5.433-1.406-8.583-17.257Zm-7.2,2.85,8.743,17.5-.278,6.952h-17.3L229.542,98.64Zm-14.331,6.54,4.358,17.893H230l-12.331-.914-.273-16.519Zm-11.861.487.273,16.454-19.994-1.481c.086-2.674.064-8.6,0-14.171ZM176.141,88l20.353,2.92c.1,8.449.192,20.422.091,24.326l-25.529-1.893Zm51.3,32.219L223.7,141.882h-6.005V119.475Zm-21.005,16.144h10.7v5.519H205.242Zm17.647,6.337,1.07-6.321,26.738,1.85,1.5,15.481-28.224,2.717Zm29.454,12.075,1.176,12.139-28.342,3.492L225.3,157.491Zm-26.059,29.272,28.6-2.973.267,2.781-2.973,12.358-24.7,2.492Zm2.337,35.026,1.219,11.465h-8.192c.144-3.781.283-7.561.385-10.406.176-5.091.176-5.091-.16-5.262l-.251.5-.535.027c0,.444-.23,7.433-.535,14.9l-23.829-11.476-.845-16.433,31.166-3.123ZM194.921,202.64l-.166,21.1-16.085.765-.594-20.668ZM178.7,225.533h0v-.481l16.577-.786.171-21.652,1.021-.1.861,16.722L221.686,230.9l-.118,3.118-42.561,2.674Z" transform="translate(-162.499 -56.326)" fill="#fff"/>
      <path id="Path_5249" data-name="Path 5249" d="M187.57,314.98l-23.24,1.626v7.465l38.358-2.08Z" transform="translate(-147.047 -146.543)" fill="#ebebeb"/>
      <path id="Path_5250" data-name="Path 5250" d="M275.839,155.471,252.593,154l-1.433,3.989.786,11.888,25.24-2.995Z" transform="translate(-187.444 -71.648)" fill="#ebebeb"/>
      <path id="Path_5251" data-name="Path 5251" d="M178.767,423.67l74.614.342a11.406,11.406,0,0,0,11.46-11.358l.075-17.214H167.483l-.053,13.016v4.1a11.4,11.4,0,0,0,11.337,11.118Z" transform="translate(-162.425 -210.779)" fill="#ebebeb"/>
      <path id="Path_5252" data-name="Path 5252" d="M178.422,40.4l-.385-21.861H166.684L163.39,38.2Z" transform="translate(-146.609 -8.625)" fill="#ebebeb"/>
      <path id="Path_5253" data-name="Path 5253" d="M279.575,93.006l1.155-4.738-7.989-15.2-10.251,5.05,3.417,14.374Z" transform="translate(-192.715 -33.995)" fill="#ebebeb"/>
      <path id="Path_5254" data-name="Path 5254" d="M190.39,278.877c.123.69,0,19.187,0,19.187l14.941-.947-1.717-25.278Z" transform="translate(-173.107 -153.274)" fill="#ebebeb"/>
      <path id="Path_5255" data-name="Path 5255" d="M256.836,250.164l-.786-11.46,25.625-3.294v1.979l-3.1,10.54Z" transform="translate(-189.719 -109.523)" fill="#ebebeb"/>
      <circle id="Ellipse_421" data-name="Ellipse 421" cx="3.123" cy="3.123" r="3.123" transform="translate(41.919 42.476)" fill="url(#linear-gradient)"/>
      <g id="Group_4231" data-name="Group 4231" transform="translate(41.707 42.788)" opacity="0.6">
        <circle id="Ellipse_422" data-name="Ellipse 422" cx="3.123" cy="3.123" r="3.123" transform="matrix(1, -0.04, 0.04, 1, 0, 0.25)" fill="#fff"/>
      </g>
      <circle id="Ellipse_423" data-name="Ellipse 423" cx="2.075" cy="2.075" r="2.075" transform="translate(42.968 43.417)" fill="url(#linear-gradient)"/>
      <circle id="Ellipse_424" data-name="Ellipse 424" cx="1.332" cy="1.332" r="1.332" transform="translate(90.625 168.945)" fill="url(#linear-gradient)"/>
      <path id="Path_5256" data-name="Path 5256" d="M274.5,259.286l-.321-7.487-22.529,1.069a3.406,3.406,0,0,1-1.7-.364L218,236.365a2.321,2.321,0,0,1-1.267-1.947l-4.348-84.352A1.412,1.412,0,0,1,212.8,149a1.428,1.428,0,0,1,1.07-.4l13.7,1.016V134.64h1.6v15.176a1.412,1.412,0,0,1-1.513,1.406l-13.684-1.016,4.337,84.133a.711.711,0,0,0,.39.6l31.978,16.171a1.78,1.78,0,0,0,.9.193l22.716-1.107a1.417,1.417,0,0,1,1.487,1.353l.332,7.663Z" transform="translate(-183.336 -89.442)" fill="url(#linear-gradient)"/>
      <circle id="Ellipse_425" data-name="Ellipse 425" cx="4.043" cy="4.043" r="4.043" transform="translate(27.604 93.245)" fill="url(#linear-gradient)"/>
      <circle id="Ellipse_426" data-name="Ellipse 426" cx="2.807" cy="2.807" r="2.807" transform="translate(28.839 94.481)" fill="#fafafa"/>
      <path id="Path_5257" data-name="Path 5257" d="M214.641,232.441a3.011,3.011,0,1,1,3.011-3.011,3.011,3.011,0,0,1-3.011,3.011Zm0-5.615a1.084,1.084,0,1,0,0-.005Z" transform="translate(-182.989 -132.143)" fill="url(#linear-gradient)"/>
      <path id="Path_5258" data-name="Path 5258" d="M243.566,200.34H224.315a1.7,1.7,0,0,0-1.7,1.7v6.952a1.7,1.7,0,0,0,1.7,1.7h.225v1.663l1.925-1.663h17.112a1.7,1.7,0,0,0,1.7-1.7V202.04a1.7,1.7,0,0,0-1.706-1.7Z" transform="translate(-188.102 -120.009)" fill="url(#linear-gradient)"/>
      <g id="Group_4232" data-name="Group 4232" transform="translate(34.518 80.331)" opacity="0.4">
        <path id="Path_5259" data-name="Path 5259" d="M243.566,200.34H224.315a1.7,1.7,0,0,0-1.7,1.7v6.952a1.7,1.7,0,0,0,1.7,1.7h.225v1.663l1.925-1.663h17.112a1.7,1.7,0,0,0,1.7-1.7V202.04a1.7,1.7,0,0,0-1.706-1.7Z" transform="translate(-222.62 -200.34)" fill="#fff"/>
      </g>
      <path id="Path_5269" data-name="Path 5269" d="M242.94,112.273a4,4,0,1,0-7.433,2.021h0c.155.257.348.444.535.717l2.326,3.08a.722.722,0,0,0,1.155,0l2.283-3.027a8.635,8.635,0,0,0,.583-.77h0a3.978,3.978,0,0,0,.551-2.021Zm-4,1.722a1.759,1.759,0,1,1,1.759-1.759A1.759,1.759,0,0,1,238.94,114Z" transform="translate(-193.833 -77.161)" fill="url(#linear-gradient)"/>
      <path id="Path_5270" data-name="Path 5270" d="M200.77,410.413H200v-.273h1.8v.273h-.733v1.9h-.31Z" transform="translate(-177.578 -217.618)" fill="#263238"/>
      <path id="Path_5271" data-name="Path 5271" d="M203.36,411.916a.856.856,0,1,1,.856.845.818.818,0,0,1-.856-.845Zm1.412,0a.535.535,0,1,0-.139.41.535.535,0,0,0,.139-.41Z" transform="translate(-179.141 -218.041)" fill="#263238"/>
      <path id="Path_5272" data-name="Path 5272" d="M208.051,412.325a.562.562,0,0,1-.358.118.471.471,0,0,1-.535-.535V411h-.278v-.246h.278V410.4h.321v.358h.471V411h-.471v.893a.241.241,0,0,0,.257.278.374.374,0,0,0,.235-.08Z" transform="translate(-180.779 -217.739)" fill="#263238"/>
      <path id="Path_5273" data-name="Path 5273" d="M210.948,411.763v.995h-.283v-.219a.609.609,0,0,1-.535.235c-.374,0-.61-.2-.61-.487s.171-.481.663-.481h.471v-.059c0-.251-.144-.4-.444-.4a.829.829,0,0,0-.535.177l-.123-.225a1.1,1.1,0,0,1,.679-.214C210.691,411.1,210.948,411.314,210.948,411.763Zm-.3.492v-.23h-.46c-.294,0-.38.112-.38.257s.139.267.364.267a.476.476,0,0,0,.476-.294Z" transform="translate(-182.007 -218.059)" fill="#263238"/>
      <path id="Path_5274" data-name="Path 5274" d="M213.22,409.9h.3v2.3h-.3Z" transform="translate(-183.728 -217.506)" fill="#263238"/>
      <path id="Path_5275" data-name="Path 5275" d="M217.814,409.891v2.3h-.289v-.262a.7.7,0,0,1-.588.278.842.842,0,1,1,0-1.685.7.7,0,0,1,.578.262v-.909Zm-.294,1.481a.535.535,0,1,0-.139.41.535.535,0,0,0,.139-.41Z" transform="translate(-185.066 -217.497)" fill="#263238"/>
      <path id="Path_5276" data-name="Path 5276" d="M220.27,410.008a.2.2,0,0,1,.2-.2.193.193,0,1,1-.2.2Zm.053.535h.3v1.647h-.3Z" transform="translate(-187.008 -217.464)" fill="#263238"/>
      <path id="Path_5277" data-name="Path 5277" d="M221.6,412.6l.123-.235a1.07,1.07,0,0,0,.578.171c.278,0,.39-.086.39-.225,0-.369-1.043-.048-1.043-.706,0-.294.262-.492.684-.492a1.2,1.2,0,0,1,.6.15l-.128.235a.862.862,0,0,0-.476-.128c-.262,0-.39.1-.39.225,0,.39,1.069.07,1.069.711,0,.3-.273.487-.711.487a1.193,1.193,0,0,1-.7-.193Z" transform="translate(-187.627 -218.069)" fill="#263238"/>
      <path id="Path_5278" data-name="Path 5278" d="M225.621,412.325a.562.562,0,0,1-.358.118.471.471,0,0,1-.535-.535V411h-.278v-.246h.294V410.4h.3v.358h.471V411h-.471v.893a.241.241,0,0,0,.257.278.374.374,0,0,0,.235-.08Z" transform="translate(-188.953 -217.739)" fill="#263238"/>
      <path id="Path_5279" data-name="Path 5279" d="M228.518,411.763v.995h-.283v-.219a.61.61,0,0,1-.535.235c-.374,0-.61-.2-.61-.487s.171-.481.663-.481h.471v-.059c0-.251-.144-.4-.444-.4a.829.829,0,0,0-.535.177l-.123-.225a1.1,1.1,0,0,1,.679-.214C228.261,411.1,228.518,411.314,228.518,411.763Zm-.3.492v-.23h-.46c-.294,0-.38.112-.38.257s.139.267.364.267a.476.476,0,0,0,.476-.294Z" transform="translate(-190.181 -218.059)" fill="#263238"/>
      <path id="Path_5280" data-name="Path 5280" d="M232.338,411.8v.947h-.3v-.914c0-.321-.16-.481-.444-.481a.492.492,0,0,0-.535.535v.85h-.3V411.09h.289v.246a.706.706,0,0,1,.594-.262.636.636,0,0,1,.7.727Z" transform="translate(-191.889 -218.052)" fill="#263238"/>
      <path id="Path_5281" data-name="Path 5281" d="M234.48,411.938a.823.823,0,0,1,.872-.84.732.732,0,0,1,.674.353l-.225.144a.535.535,0,0,0-.449-.235.58.58,0,1,0,0,1.16.535.535,0,0,0,.449-.235l.225.144a.738.738,0,0,1-.674.353.823.823,0,0,1-.872-.845Z" transform="translate(-193.619 -218.063)" fill="#263238"/>
      <path id="Path_5282" data-name="Path 5282" d="M239.39,412.041h-1.337a.535.535,0,0,0,.6.481.615.615,0,0,0,.476-.2l.166.193a.9.9,0,0,1-1.535-.578.822.822,0,1,1,1.642.01A.439.439,0,0,1,239.39,412.041Zm-1.337-.214h1.07a.535.535,0,1,0-1.07,0Z" transform="translate(-195.145 -218.064)" fill="#263238"/>
      <path id="Path_5283" data-name="Path 5283" d="M203.151,418.78v5.192h-1.2v-4.23H200.91v-.962Z" transform="translate(-178.001 -221.637)" fill="#263238"/>
      <path id="Path_5284" data-name="Path 5284" d="M208.167,426.616a1.727,1.727,0,0,1-.2.743l-.422,1.07h-.733l.326-1.182a.642.642,0,0,1-.4-.631.717.717,0,1,1,1.433,0Z" transform="translate(-180.713 -224.95)" fill="#263238"/>
      <path id="Path_5285" data-name="Path 5285" d="M212,418.78v5.192h-1.2v-4.23h-1.04v-.962Z" transform="translate(-182.119 -221.637)" fill="#263238"/>
      <path id="Path_5286" data-name="Path 5286" d="M215.64,421.3c0-1.711.952-2.674,2.225-2.674s2.225.973,2.225,2.674-.941,2.674-2.225,2.674S215.64,423.015,215.64,421.3Zm3.241,0c0-1.182-.417-1.668-1.016-1.668s-1.011.492-1.011,1.668.417,1.668,1.011,1.668S218.881,422.486,218.881,421.3Z" transform="translate(-184.854 -221.567)" fill="#263238"/>
      <path id="Path_5287" data-name="Path 5287" d="M225.05,421.3c0-1.711.952-2.674,2.225-2.674s2.225.973,2.225,2.674-.941,2.674-2.225,2.674S225.05,423.015,225.05,421.3Zm3.241,0c0-1.182-.417-1.668-1.016-1.668s-1.011.492-1.011,1.668.417,1.668,1.011,1.668,1.021-.487,1.021-1.668Z" transform="translate(-189.232 -221.567)" fill="#263238"/>
      <path id="Path_5288" data-name="Path 5288" d="M245.6,422.65v2.283h-1.155v-2.107c0-.647-.289-.941-.754-.941s-.882.332-.882,1.069v2.005h-1.155v-2.107c0-.647-.273-.941-.754-.941s-.877.332-.877,1.069v2.005H238.87v-4.053h1.107v.46a1.6,1.6,0,0,1,1.251-.535,1.487,1.487,0,0,1,1.31.652,1.8,1.8,0,0,1,1.439-.652,1.578,1.578,0,0,1,1.623,1.793Z" transform="translate(-195.662 -222.603)" fill="#263238"/>
      <path id="Path_5851" data-name="Path 5851" d="M4.476,0A4.476,4.476,0,1,1,0,4.476,4.476,4.476,0,0,1,4.476,0Z" transform="translate(10.888 192.26)" fill="url(#linear-gradient)"/>
      <path id="Path_5289" data-name="Path 5289" d="M183.285,417.065a6.848,6.848,0,0,1,1.15-.07c.733,0,1.775-.037,3.027-.048l-.091.2-1.144-1.321-.075-.086.07-.086,1.128-1.412.107.225h-4.2l.123-.123c0,1.358-.027,2.5-.048,3.3a7.89,7.89,0,0,1-.075,1.267,7.915,7.915,0,0,1-.075-1.267c0-.8-.037-1.947-.048-3.3v-.123h4.594l-.182.225-1.139,1.4v-.171l1.123,1.337.171.2h-.262c-1.251,0-2.3-.027-3.027-.048a6.855,6.855,0,0,1-1.123-.1Z" transform="translate(-169.729 -219.516)" fill="#fafafa"/>
      <path id="Path_5290" data-name="Path 5290" d="M308.2,403.73H294.668a2.588,2.588,0,0,0-2.588,2.588v10.658a2.588,2.588,0,0,0,2.588,2.588h.342v2.54l2.946-2.54H308.2a2.588,2.588,0,0,0,2.588-2.588V406.323a2.588,2.588,0,0,0-2.594-2.594Z" transform="translate(-220.418 -214.635)" fill="url(#linear-gradient)"/>
      <path id="Path_5291" data-name="Path 5291" d="M299.33,412.7v5.465a.214.214,0,0,0,.214.214H311a.214.214,0,0,0,.214-.214v-2a.213.213,0,0,0-.043-.123l-1.674-2.2a.214.214,0,0,0-.171-.085h-1.893a.214.214,0,0,1-.209-.214v-.823a.214.214,0,0,0-.214-.214h-7.487a.214.214,0,0,0-.193.2Z" transform="translate(-223.791 -218.716)" fill="#fafafa"/>
      <path id="Path_5292" data-name="Path 5292" d="M315.09,415.57v1.759a.123.123,0,0,0,.123.123l2.529-.043a.123.123,0,0,0,.1-.192l-1.193-1.754a.123.123,0,0,0-.107-.053l-1.348.037a.123.123,0,0,0-.1.123Z" transform="translate(-231.123 -220.069)" fill="url(#linear-gradient)"/>
      <rect id="Rectangle_2118" data-name="Rectangle 2118" width="12.337" height="0.38" transform="translate(75.304 199.827)" fill="#fafafa"/>
      <circle id="Ellipse_428" data-name="Ellipse 428" cx="1.219" cy="1.219" r="1.219" transform="translate(76.946 198.752)" fill="url(#linear-gradient)"/>
      <circle id="Ellipse_429" data-name="Ellipse 429" cx="0.717" cy="0.717" r="0.717" transform="translate(77.448 199.255)" fill="#fafafa"/>
      <ellipse id="Ellipse_430" data-name="Ellipse 430" cx="0.053" cy="2.946" rx="0.053" ry="2.946" transform="translate(83.368 193.768)" fill="url(#linear-gradient)"/>
      <circle id="Ellipse_431" data-name="Ellipse 431" cx="1.219" cy="1.219" r="1.219" transform="translate(83.598 198.752)" fill="url(#linear-gradient)"/>
      <circle id="Ellipse_432" data-name="Ellipse 432" cx="0.717" cy="0.717" r="0.717" transform="translate(84.101 199.255)" fill="#fafafa"/>
      <ellipse id="Ellipse_433" data-name="Ellipse 433" cx="0.39" cy="0.053" rx="0.39" ry="0.053" transform="translate(84.037 197.667)" fill="url(#linear-gradient)"/>
    </g>
    <g id="Character" transform="translate(164.023 116.634)">
      <path id="Path_5293" data-name="Path 5293" d="M554.758,252.13s8.626,1.46,9.321,1.642,3.428,1.481,3.567,2.315a25.05,25.05,0,0,1,0,3.289s-.492.4-.8-.4a8.253,8.253,0,0,1-.262-2.39L565.052,256l.834,1.481.139,3.471s-1.069-.1-1.273-.93a8.275,8.275,0,0,1-.2-1.759l-1.118-.947.834,1.128.283,2.5s-.813.262-1.069-.294a8.626,8.626,0,0,1-.278-2.209l-3.144-1.1-2.08,1.16-3.888-2.2Z" transform="translate(-435.541 -198.73)" fill="#ffbe9d"/>
      <path id="Path_5294" data-name="Path 5294" d="M495.124,212.26c.037.171,10.4,14.438,10.4,14.438l20.8,6.471-.947,7.813-25.5-5.134-9.048-10.385Z" transform="translate(-406.11 -180.18)" fill="#047bd5"/>
      <g id="Group_4233" data-name="Group 4233" transform="translate(84.72 32.08)">
        <path id="Path_5295" data-name="Path 5295" d="M495.124,212.26c.037.171,10.4,14.438,10.4,14.438l20.8,6.471-.947,7.813-25.5-5.134-9.048-10.385Z" transform="translate(-490.83 -212.26)" fill="url(#linear-gradient)"/>
      </g>
      <rect id="Rectangle_2119" data-name="Rectangle 2119" width="45.764" height="8.283" rx="3.05" transform="translate(8.646 51.7)" fill="#f5f5f5"/>
      <path id="Path_5296" data-name="Path 5296" d="M392.6,257.033a1.451,1.451,0,0,0,.267-.037,1.6,1.6,0,0,0,1.31-1.406v-5.252a1.561,1.561,0,0,0-.535-1.144,1.513,1.513,0,0,0-.6-.316,2.615,2.615,0,0,0-.722-.053h-4.957l-37.224.043a1.492,1.492,0,0,0-1.1.487,1.54,1.54,0,0,0-.39,1.15v4.69a2.139,2.139,0,0,0,.053.615,1.5,1.5,0,0,0,.717.914,1.476,1.476,0,0,0,.535.176h10.513l16.738.032,11.283.043h0l-11.283.043-16.738.032h-10.54a1.749,1.749,0,0,1-.663-.209,1.776,1.776,0,0,1-.85-1.07,2.388,2.388,0,0,1-.064-.684v-4.652a1.824,1.824,0,0,1,.46-1.337,1.77,1.77,0,0,1,1.31-.577l37.224.043H392.3a2.764,2.764,0,0,1,.759.064,1.674,1.674,0,0,1,.663.353,1.706,1.706,0,0,1,.594,1.257V255.5a1.663,1.663,0,0,1-.647,1.118,1.605,1.605,0,0,1-.738.31,1,1,0,0,1-.331.1Z" transform="translate(-339.818 -197.05)" fill="#263238"/>
      <circle id="Ellipse_434" data-name="Ellipse 434" cx="21.866" cy="21.866" r="21.866" transform="translate(144.979 165.552) rotate(-89.198)" fill="#263238"/>
      <path id="Path_5297" data-name="Path 5297" d="M604.078,420.84v.059a21.866,21.866,0,1,0,43.727.631s0-.037,0-.059Z" transform="translate(-458.797 -277.221)" fill="#263238"/>
      <circle id="Ellipse_435" data-name="Ellipse 435" cx="15.353" cy="15.353" r="15.353" transform="translate(151.591 159.139) rotate(-89.198)" fill="#fafafa"/>
      <path id="Path_5298" data-name="Path 5298" d="M631.822,392.828a15.353,15.353,0,0,0-15.572,15.128l30.7.444a15.353,15.353,0,0,0-15.128-15.572Z" transform="translate(-464.461 -264.188)" fill="#e0e0e0"/>
      <circle id="Ellipse_436" data-name="Ellipse 436" cx="9.353" cy="9.353" r="9.353" transform="translate(157.677 153.221) rotate(-89.198)" fill="#263238"/>
      <path id="Path_5299" data-name="Path 5299" d="M612.328,360.827s22.385-6.77,31.647,17.551L597.13,392.885Z" transform="translate(-455.566 -248.898)" fill="url(#linear-gradient)"/>
      <circle id="Ellipse_437" data-name="Ellipse 437" cx="21.866" cy="21.866" r="21.866" transform="translate(10.063 165.549) rotate(-89.198)" fill="#263238"/>
      <path id="Path_5300" data-name="Path 5300" d="M351.788,420.84v.059a21.866,21.866,0,1,0,43.727.631s0-.037,0-.059Z" transform="translate(-341.42 -277.221)" fill="#263238"/>
      <circle id="Ellipse_438" data-name="Ellipse 438" cx="15.353" cy="15.353" r="15.353" transform="translate(16.67 159.131) rotate(-89.198)" fill="#fafafa"/>
      <path id="Path_5301" data-name="Path 5301" d="M379.551,392.829A15.353,15.353,0,0,0,364,407.957l30.7.444a15.353,15.353,0,0,0-15.15-15.572Z" transform="translate(-347.103 -264.189)" fill="#e0e0e0"/>
      <circle id="Ellipse_439" data-name="Ellipse 439" cx="9.353" cy="9.353" r="9.353" transform="translate(22.756 153.219) rotate(-89.198)" fill="#263238"/>
      <path id="Path_5302" data-name="Path 5302" d="M418.336,403.589c-.123.064-11.508-1.759-11.508-1.759h0a6.952,6.952,0,0,1-5.192,2.717c-4.92.235-9.727.454-13.9.636A7.053,7.053,0,0,0,381,412.531h0a7.059,7.059,0,0,0,6.775,6.754l24.24.962a16.183,16.183,0,0,0,11.765-5.38h0Z" transform="translate(-355.006 -268.377)" fill="#455a64"/>
      <path id="Path_5303" data-name="Path 5303" d="M339.572,336.637s-1.043-21.31,18.984-25.748v-2.733H428.71v6.556s-10.3,12.4-6.952,22.7,4.412,11.347,4.412,11.347h39.925a27.326,27.326,0,0,0,5.043-15.128c.209-9.037-3.545-24.486-6.348-34.363-2.535-9.011-4.139-16.519-4.139-16.519l11.978-3.995s22.171,28.979,23.071,30.61,3.984,5.433,3.257,13.759S478.3,357.16,473.069,360.059s-9.957,3.08-14.668,3.8c-4.086.631-34.315.214-42.246.091a15.508,15.508,0,0,1-7.807-2.166c-2.364-1.433-4.144-3.807-6.107-7.7l-4.155-8.15Z" transform="translate(-335.734 -211.115)" fill="url(#linear-gradient)"/>
      <path id="Path_5304" data-name="Path 5304" d="M341.609,384.26l-8.834,13.84a2.139,2.139,0,0,0,2.626,3.166,10.159,10.159,0,0,0,2.963-2.011c4.043-3.845,11.23-13.973,11.23-13.973Z" transform="translate(-332.402 -260.203)" fill="#455a64"/>
      <path id="Path_5305" data-name="Path 5305" d="M415.444,367.923a1.162,1.162,0,0,1,.053-.2l.177-.583a15.153,15.153,0,0,0,.465-2.283,16.117,16.117,0,0,0-1.369-8.353,17.478,17.478,0,0,0-3.257-4.893,21.388,21.388,0,0,0-5.348-4.1,27.148,27.148,0,0,0-7-2.61,36.71,36.71,0,0,0-8.021-.829,60.716,60.716,0,0,0-8.048.588c-2.588.348-5.07.775-7.412,1.31a43.742,43.742,0,0,0-11.9,4.4,29.59,29.59,0,0,0-6.8,5.187c-.706.727-1.214,1.332-1.551,1.749l-.38.476a1.147,1.147,0,0,1-.139.155,17.929,17.929,0,0,1,1.989-2.454,28.874,28.874,0,0,1,6.781-5.283,43.389,43.389,0,0,1,11.941-4.481c2.348-.535,4.813-.979,7.433-1.331a60.318,60.318,0,0,1,8.086-.6,36.745,36.745,0,0,1,8.064.84,27.27,27.27,0,0,1,7.069,2.674,21.535,21.535,0,0,1,5.417,4.166,17.582,17.582,0,0,1,3.267,4.973,16.042,16.042,0,0,1,1.294,8.444,13.787,13.787,0,0,1-.535,2.289l-.2.572A1.146,1.146,0,0,1,415.444,367.923Z" transform="translate(-342.874 -241.374)" fill="#263238"/>
      <path id="Path_5306" data-name="Path 5306" d="M446.942,366.965c-.032,0,.118-.337.262-.947a6.92,6.92,0,0,0,.08-2.674,10.956,10.956,0,0,0-1.3-3.716,13.124,13.124,0,0,0-1.294-1.947,11.911,11.911,0,0,0-1.738-1.8,15.343,15.343,0,0,0-4.171-2.439,19.456,19.456,0,0,0-3.829-1.069,25.451,25.451,0,0,0-2.674-.3,7.954,7.954,0,0,1-.984-.075.891.891,0,0,1,.257,0h.733a20.312,20.312,0,0,1,2.674.219,18.566,18.566,0,0,1,3.893,1,15.17,15.17,0,0,1,4.278,2.465,11.935,11.935,0,0,1,1.775,1.845,13.045,13.045,0,0,1,1.3,1.995,10.814,10.814,0,0,1,1.273,3.813,6.6,6.6,0,0,1-.171,2.7,3.827,3.827,0,0,1-.257.7A.881.881,0,0,1,446.942,366.965Z" transform="translate(-378.409 -245.186)" fill="#f5f5f5"/>
      <g id="Group_4234" data-name="Group 4234" transform="translate(54.763 103.073)" opacity="0.4">
        <path id="Path_5307" data-name="Path 5307" d="M434.842,345.041a28.07,28.07,0,0,1,10.561,4.278,18.663,18.663,0,0,1,7.075,8.791,15.419,15.419,0,0,1-.283,11.364l4.957.412c1.668-5.567-.15-12.4-4.16-16.754a24.6,24.6,0,0,0-18.182-8.112" transform="translate(-434.81 -345.02)"/>
      </g>
      <rect id="Rectangle_2120" data-name="Rectangle 2120" width="52.54" height="37.492" rx="8.58" transform="translate(5.256 59.566)" fill="#455a64"/>
      <path id="Path_5308" data-name="Path 5308" d="M394.584,279.179c0,.075-11.813.139-26.379.139s-26.385-.064-26.385-.139,11.813-.139,26.385-.139S394.584,279.1,394.584,279.179Z" transform="translate(-336.784 -211.25)" fill="#263238"/>
      <path id="Path_5309" data-name="Path 5309" d="M444.937,338.289c0,.075-15.765.139-35.214.139s-35.214-.064-35.214-.139,15.765-.139,35.214-.139S444.937,338.214,444.937,338.289Z" transform="translate(-351.993 -238.75)" fill="#263238"/>
      <path id="Path_5310" data-name="Path 5310" d="M477.862,327.587a6.069,6.069,0,0,0,1.267-3.144c.112-1.765-.7-3.962-2.588-3.962H452.317a7.107,7.107,0,0,0-7.107,7.107Z" transform="translate(-384.885 -230.529)" fill="#455a64"/>
      <path id="Path_5311" data-name="Path 5311" d="M561.905,265.54l-4.214-8.786a5.38,5.38,0,0,1,2.139-6.872l12.6-7.513a4.277,4.277,0,0,1,2.176-.6h2.722l1.07,17.759-4.193,1.615,2.674,4.321Z" transform="translate(-436.988 -193.91)" fill="url(#linear-gradient)"/>
      <path id="Path_5312" data-name="Path 5312" d="M594.91,243s4.31.989,4.85,7.631-3.8,8.711-3.8,8.711Z" transform="translate(-454.533 -194.482)" fill="#ebebeb"/>
      <path id="Path_5313" data-name="Path 5313" d="M559.361,262.758s-8.711,4.128-9.775,4.813a2.029,2.029,0,0,0-.792,2.743c.989,2.471,5.059.144,5.059.144l8.107-4.053s3.118-1.471,1.968-3.316C562.639,261.025,559.361,262.758,559.361,262.758Z" transform="translate(-432.973 -203.358)" fill="#263238"/>
      <path id="Path_5314" data-name="Path 5314" d="M545.257,260.54s8.182,1.4,8.877,1.6,3.428,1.481,3.567,2.315a25.028,25.028,0,0,1,0,3.289s-.492.4-.8-.4a8.247,8.247,0,0,1-.262-2.39l-1.529-.588.834,1.481.139,3.471s-1.069-.1-1.273-.93a8.271,8.271,0,0,1-.2-1.759l-1.112-.947.834,1.128.283,2.5s-.813.262-1.07-.294a8.634,8.634,0,0,1-.278-2.209l-3.144-1.1-2.08,1.16-3.278-1.813Z" transform="translate(-431.201 -202.643)" fill="#ffbe9d"/>
      <ellipse id="Ellipse_440" data-name="Ellipse 440" cx="3.401" cy="6" rx="3.401" ry="6" transform="translate(119.998 40.497)" fill="#263238"/>
      <path id="Path_5315" data-name="Path 5315" d="M564.21,245.866l1.872,6.455a1.674,1.674,0,0,0,.871-1.914c-.47-2.219-.732-3.8-1.251-5.743-.064-.2-1.492,1.176-1.492,1.176" transform="translate(-440.25 -195.247)" fill="#263238"/>
      <g id="Group_4235" data-name="Group 4235" transform="translate(84.473 68.683)" opacity="0.4">
        <path id="Path_5316" data-name="Path 5316" d="M492.845,341.062c-.187-.535-.374-1.069-.535-1.642s-.364-1.069-.5-1.6a17.119,17.119,0,0,1-.465-2.438c-3.155,12.834,1.663,21.887,9.93,22.524,12.08.93,26.813,1.6,32.77.043,10.861-2.85,14.845-11.9,15.8-13.4s9.588-17.283,4.278-32.486S539.6,280.716,539.6,280.716l-8.781,2.947s1.6,7.487,4.16,16.492c2.8,9.877,6.556,25.326,6.348,34.363a27.326,27.326,0,0,1-5.043,15.128h-39.93s-.856-.856-3.492-8.556" transform="translate(-490.367 -280.71)"/>
      </g>
      <path id="Path_5317" data-name="Path 5317" d="M336.584,378.128l.283-3.048,72.876,8.4a7.2,7.2,0,0,1,6.251,8.406l-.326,1.845-75.4-10.962a4.278,4.278,0,0,1-3.684-4.641Z" transform="translate(-334.339 -255.932)" fill="url(#linear-gradient)"/>
      <g id="Group_4236" data-name="Group 4236" transform="translate(2.226 119.148)" opacity="0.6">
        <path id="Path_5318" data-name="Path 5318" d="M336.584,378.128l.283-3.048,72.876,8.4a7.2,7.2,0,0,1,6.251,8.406l-.326,1.845-75.4-10.962a4.278,4.278,0,0,1-3.684-4.641Z" transform="translate(-336.565 -375.08)"/>
      </g>
      <g id="Group_4237" data-name="Group 4237" transform="translate(143.944 111.062)" opacity="0.3">
        <path id="Path_5319" data-name="Path 5319" d="M601.58,391.478s16.043-17.647,19.353-31.518a31.2,31.2,0,0,1,4.968.369S616.414,386.12,601.58,391.478Z" transform="translate(-601.58 -359.959)"/>
      </g>
      <path id="Path_5320" data-name="Path 5320" d="M619.976,348.34a2.761,2.761,0,0,1,.086.444c.043.294.128.727.182,1.289a19.918,19.918,0,0,1-.123,4.813,24.444,24.444,0,0,1-2.139,6.781,77,77,0,0,1-4.246,7.594,101.252,101.252,0,0,1-9.39,12.7c-1.3,1.54-2.385,2.77-3.134,3.62l-.866.968a.228.228,0,1,1-.043-.037l.829-1,3.064-3.674a109.255,109.255,0,0,0,9.3-12.716,80.526,80.526,0,0,0,4.278-7.556,24.821,24.821,0,0,0,2.139-6.7,21.124,21.124,0,0,0,.209-4.749c-.037-.561-.107-.995-.128-1.294A2.8,2.8,0,0,1,619.976,348.34Z" transform="translate(-456.915 -243.491)" fill="#263238"/>
      <ellipse id="Ellipse_441" data-name="Ellipse 441" cx="0.139" cy="3.46" rx="0.139" ry="3.46" transform="translate(130.283 137.687) rotate(-45.61)" fill="#263238"/>
      <path id="Path_5321" data-name="Path 5321" d="M496.43,413.979a10.7,10.7,0,0,1,2.866-4.219c.059.054-.674.931-1.455,2.1A23.945,23.945,0,0,1,496.43,413.979Z" transform="translate(-408.715 -272.066)" fill="#263238"/>
      <path id="Path_5322" data-name="Path 5322" d="M432.146,422.552a10.8,10.8,0,0,0,2.187-2.781,9.625,9.625,0,0,0,1.07-3.663,8.492,8.492,0,0,0-3.84-8.021,9.624,9.624,0,0,0-3.519-1.471,10.8,10.8,0,0,0-3.535-.048.838.838,0,0,1,.241-.07,5.465,5.465,0,0,1,.7-.134,8.388,8.388,0,0,1,2.631.064,9.545,9.545,0,0,1,3.626,1.449,8.626,8.626,0,0,1,3.952,8.283A9.544,9.544,0,0,1,434.5,419.9a8.39,8.39,0,0,1-1.6,2.086,5.484,5.484,0,0,1-.535.46A.844.844,0,0,1,432.146,422.552Z" transform="translate(-375.255 -270.453)" fill="#263238"/>
      <ellipse id="Ellipse_442" data-name="Ellipse 442" cx="0.139" cy="2.578" rx="0.139" ry="2.578" transform="translate(29.91 141.353) rotate(-2.73)" fill="#263238"/>
      <ellipse id="Ellipse_443" data-name="Ellipse 443" cx="0.139" cy="2.604" rx="0.139" ry="2.604" transform="translate(31.42 141.366) rotate(-7.296)" fill="#263238"/>
      <ellipse id="Ellipse_444" data-name="Ellipse 444" cx="19.791" cy="0.139" rx="19.791" ry="0.139" transform="translate(22.688 96.918)" fill="#263238"/>
      <path id="Path_5323" data-name="Path 5323" d="M395.069,294.281c-.075,0-.139-10.16-.139-22.663s.064-22.668.139-22.668.139,10.16.139,22.668S395.144,294.281,395.069,294.281Z" transform="translate(-361.493 -197.25)" fill="#263238"/>
      <path id="Path_5324" data-name="Path 5324" d="M384.992,294.244c-.075,0,.3-10.16.845-22.652s1.07-22.647,1.123-22.641-.3,10.16-.845,22.652S385.093,294.249,384.992,294.244Z" transform="translate(-356.865 -197.25)" fill="#263238"/>
      <path id="Path_5325" data-name="Path 5325" d="M357.079,423.316a1.493,1.493,0,0,1-.235-.235c-.144-.166-.369-.4-.626-.722a20.684,20.684,0,0,1-1.973-2.9,22.176,22.176,0,0,1,.091-22.176,20.692,20.692,0,0,1,2-2.882c.257-.326.487-.535.631-.717a1.489,1.489,0,0,1,.235-.235,1.51,1.51,0,0,1-.193.273c-.128.176-.348.412-.588.743a23.544,23.544,0,0,0-1.909,2.914,22.524,22.524,0,0,0-.091,21.984,23.537,23.537,0,0,0,1.888,2.931c.241.337.455.577.583.749a1.509,1.509,0,0,1,.193.273Z" transform="translate(-341.203 -264.478)" fill="#455a64"/>
      <path id="Path_5326" data-name="Path 5326" d="M498.469,373.11l-.166.316-3.23,6.043-4.513,4.348,9.021,12.011,7.519-1.246s-.845-1.717-4.615-2.048l-1.433-7.182,5.3-8.214" transform="translate(-405.984 -255.015)" fill="#455a64"/>
      <path id="Path_5327" data-name="Path 5327" d="M464.52,342.225l9.016,12.011,7.519-1.246-1.032-.99-6.171.674L465.477,341.3Z" transform="translate(-379.934 -213.414)" fill="#e0e0e0"/>
      <path id="Path_5328" data-name="Path 5328" d="M509.908,402.971c-.043.086-.535-.086-1.07,0s-.963.428-1.037.358.267-.567.973-.69S509.972,402.9,509.908,402.971Z" transform="translate(-414.001 -268.742)" fill="#263238"/>
      <path id="Path_5329" data-name="Path 5329" d="M509.092,399.416c-.064.064-.476-.321-1.069-.337s-1.07.337-1.112.267.032-.171.225-.321a1.428,1.428,0,0,1,1.775.059.57.57,0,0,1,.181.332Z" transform="translate(-413.586 -266.941)" fill="#263238"/>
      <path id="Path_5330" data-name="Path 5330" d="M508.568,394.971c-.075.053-.406-.337-.957-.433s-.995.155-1.07.075.053-.155.246-.267a1.321,1.321,0,0,1,1.6.284C508.573,394.81,508.605,394.949,508.568,394.971Z" transform="translate(-413.409 -264.823)" fill="#263238"/>
      <path id="Path_5331" data-name="Path 5331" d="M511.9,390.816c-.086.048-.369-.348-.882-.572s-.989-.193-1.011-.283.535-.31,1.15,0S511.993,390.789,511.9,390.816Z" transform="translate(-415.033 -262.78)" fill="#263238"/>
      <path id="Path_5332" data-name="Path 5332" d="M513.11,386.086c-.032.032-.332-.23-.786-.679l-.77-.8a2.428,2.428,0,0,1-.449-.535.615.615,0,0,1-.032-.465.476.476,0,0,1,.412-.31,1.414,1.414,0,0,1,.765.246,2.545,2.545,0,0,1,1.118,1.465,1.417,1.417,0,0,1,0,1.07,8.477,8.477,0,0,0-.224-.979,2.618,2.618,0,0,0-.572-.882,2.431,2.431,0,0,0-.487-.374,1.215,1.215,0,0,0-.567-.2.139.139,0,0,0-.128.091.294.294,0,0,0,0,.214,2.509,2.509,0,0,0,.38.476l.733.845C512.907,385.733,513.159,386.054,513.11,386.086Z" transform="translate(-415.513 -259.756)" fill="#263238"/>
      <path id="Path_5333" data-name="Path 5333" d="M515.4,387.3c-.037,0-.075-.4.257-.914a1.9,1.9,0,0,1,2.139-.77.353.353,0,0,1,.16.251.423.423,0,0,1-.053.251,1.179,1.179,0,0,1-.23.283,3.385,3.385,0,0,1-.481.39,3.3,3.3,0,0,1-.941.439,1.54,1.54,0,0,1-.941.069c0-.053.353-.086.866-.294a3.744,3.744,0,0,0,.84-.471,3.538,3.538,0,0,0,.428-.369.954.954,0,0,0,.166-.2V385.9a.6.6,0,0,0-.23-.043,1.71,1.71,0,0,0-.284,0,1.855,1.855,0,0,0-1.273.674,7.11,7.11,0,0,0-.423.769Z" transform="translate(-417.499 -260.797)" fill="#263238"/>
      <circle id="Ellipse_445" data-name="Ellipse 445" cx="0.904" cy="0.904" r="0.904" transform="translate(88.61 126.988) rotate(-9.48)" fill="#e0e0e0"/>
      <path id="Path_5334" data-name="Path 5334" d="M556.55,382.672l2.412,15.658,19.5-2.9c-.39-1.845-11.037-4.086-11.037-4.086l-1.134-10.1Z" transform="translate(-436.686 -258.802)" fill="#455a64"/>
      <path id="Path_5335" data-name="Path 5335" d="M564.98,400.167a.807.807,0,0,0-.417.989.775.775,0,0,0,.979.422.85.85,0,0,0,.433-1.069.8.8,0,0,0-1.069-.326" transform="translate(-440.394 -267.569)" fill="#e0e0e0"/>
      <path id="Path_5336" data-name="Path 5336" d="M560.9,409.891l-.182-1.6,18.765-2.187s.925.246.92.877Z" transform="translate(-438.626 -270.364)" fill="#e0e0e0"/>
      <path id="Path_5337" data-name="Path 5337" d="M576.038,399.813c0,.1-.46.209-.882.588s-.615.813-.706.786-.032-.594.487-1.043S576.048,399.722,576.038,399.813Z" transform="translate(-444.997 -267.413)" fill="#263238"/>
      <path id="Path_5338" data-name="Path 5338" d="M580.538,400.848c.037.091-.353.31-.615.765s-.294.893-.39.9-.235-.535.1-1.069S580.522,400.757,580.538,400.848Z" transform="translate(-447.327 -267.909)" fill="#263238"/>
      <path id="Path_5339" data-name="Path 5339" d="M584.21,403.6c-.086.032-.289-.422-.118-.979s.583-.834.631-.759-.182.4-.31.856S584.3,403.576,584.21,403.6Z" transform="translate(-449.469 -268.385)" fill="#263238"/>
      <path id="Path_5340" data-name="Path 5340" d="M574.739,395.414c-.027.091-.481,0-1.016.144s-.925.348-.989.273.289-.476.92-.6S574.776,395.328,574.739,395.414Z" transform="translate(-444.212 -265.287)" fill="#263238"/>
      <path id="Path_5341" data-name="Path 5341" d="M572.25,390.37a1.85,1.85,0,0,1-.979.139,4.432,4.432,0,0,1-1.07-.16,4.647,4.647,0,0,1-.626-.2,1.219,1.219,0,0,1-.331-.187.417.417,0,0,1-.118-.5.535.535,0,0,1,.385-.278,1.3,1.3,0,0,1,.374,0,3.548,3.548,0,0,1,.636.118,3.483,3.483,0,0,1,.989.455c.535.353.722.684.69.706s-.3-.23-.813-.5a3.941,3.941,0,0,0-.947-.364,3.672,3.672,0,0,0-.588-.091c-.214,0-.39,0-.428.1s0,.053.037.107a.993.993,0,0,0,.241.134,5.2,5.2,0,0,0,.535.219,5.464,5.464,0,0,0,1,.219,6.805,6.805,0,0,1,1.011.08Z" transform="translate(-442.52 -262.489)" fill="#263238"/>
      <path id="Path_5342" data-name="Path 5342" d="M574.393,388.9a1.646,1.646,0,0,1-.4-.9,3.209,3.209,0,0,1,.134-1.717.818.818,0,0,1,.535-.588.46.46,0,0,1,.449.214,1.335,1.335,0,0,1,.155.342,2.191,2.191,0,0,1,.1.658,2.266,2.266,0,0,1-.267,1.07c-.3.561-.684.733-.7.706a8.12,8.12,0,0,0,.487-.807,2.273,2.273,0,0,0,.171-.963,2.042,2.042,0,0,0-.1-.561c-.059-.2-.166-.358-.241-.326a.7.7,0,0,0-.294.369,3.286,3.286,0,0,0-.166.567,3.551,3.551,0,0,0-.043,1C574.287,388.531,574.442,388.884,574.393,388.9Z" transform="translate(-444.775 -260.87)" fill="#263238"/>
      <path id="Path_5343" data-name="Path 5343" d="M487.247,264.335,470.52,300.773l11.048,6.631,23.117-43.844" transform="translate(-382.725 -177.246)" fill="#263238"/>
      <path id="Path_5344" data-name="Path 5344" d="M522.215,347.188l-11.994,1.925-7.182-42.855-35.481,2.572a8.6,8.6,0,0,1-2.791-.262c-9.968-2.733-8.615-15.433-7.658-17.47l49.1-1.412a10.454,10.454,0,0,1,10.652,9Z" transform="translate(-390.116 -216.201)" fill="#263238"/>
      <path id="Path_5345" data-name="Path 5345" d="M453.662,251.5l.177-18.117s-2.337-11.765-3.032-16.412c-1.07-7.192-2.545-10.6,9.23-15.716l2.572-.995,3.984.053c4.754.358,9.759,4.652,9.872,7.487l4.6,40.845Z" transform="translate(-387.161 -174.598)" fill="url(#linear-gradient)"/>
      <path id="Path_5346" data-name="Path 5346" d="M455.741,210s-3.321,7.155-2.674,13.674l12.39,11.893c2.781,3.091,6.251,4.406,10.7,4.674l25.636,2.8.711-6.706-24.374-6.909c-.968-.176-1.455-1.193-2.2-1.84L455.741,210" transform="translate(-388.502 -179.129)" fill="url(#linear-gradient)"/>
      <path id="Path_5347" data-name="Path 5347" d="M454.39,213.068a1.793,1.793,0,0,1,.492-.332,5.885,5.885,0,0,1,1.658-.465,8.47,8.47,0,0,1,2.77,0,2.872,2.872,0,0,1,.813.278,7.17,7.17,0,0,1,.754.535,18.792,18.792,0,0,1,1.5,1.31c1.027.957,2,2.171,3.139,3.4s2.385,2.551,3.743,3.936,2.813,2.834,4.38,4.332c.786.743,1.6,1.5,2.449,2.246.433.358.861.775,1.273,1.166a3.064,3.064,0,0,0,1.422.834h0l24.422,6.9.112.032v.118l-.16,1.5-.535,5.2v.139h-.139l-10.866-1.209-5.134-.567-4.914-.5c-1.6-.176-3.15-.358-4.652-.578a20.854,20.854,0,0,1-4.3-1,15.906,15.906,0,0,1-3.631-1.946c-1.07-.754-2.069-1.54-2.995-2.316-3.663-3.128-6.353-5.92-8.219-7.823-.925-.957-1.636-1.711-2.112-2.225l-.535-.588c-.118-.134-.176-.209-.176-.209l.192.187.535.572,2.139,2.193c1.888,1.882,4.6,4.652,8.267,7.754.925.765,1.914,1.545,2.995,2.289a15.737,15.737,0,0,0,3.588,1.909,20.7,20.7,0,0,0,4.278.973c1.5.214,3.048.4,4.647.567l4.914.487,5.134.535,10.855,1.182-.155.123.535-5.2.16-1.5.1.15-24.385-6.952h0a3.284,3.284,0,0,1-1.561-.909c-.433-.412-.824-.8-1.267-1.16-.856-.749-1.668-1.513-2.455-2.262-1.561-1.5-3.016-2.963-4.369-4.353s-2.594-2.711-3.743-3.957-2.1-2.454-3.107-3.412a18.883,18.883,0,0,0-1.476-1.31,7.1,7.1,0,0,0-.733-.535,2.77,2.77,0,0,0-.775-.273,8.555,8.555,0,0,0-2.738-.043,6.152,6.152,0,0,0-1.652.422,4.232,4.232,0,0,0-.476.353Z" transform="translate(-389.156 -180.132)" fill="#263238"/>
      <path id="Path_5348" data-name="Path 5348" d="M466.335,163.431l1.246,17.647a5.5,5.5,0,0,0,5.487,5.112h0a5.5,5.5,0,0,0,5.487-5.882c-.112-1.679-.209-3.053-.209-3.053s4.278-.663,4.321-4.93c.032-2.465-.4-8.059-.759-12.347a5.6,5.6,0,0,0-5.6-5.107H473.73a7.9,7.9,0,0,0-7.39,8.561Z" transform="translate(-394.7 -153.48)" fill="#ffbe9d"/>
      <path id="Path_5349" data-name="Path 5349" d="M483.977,195.244a9.925,9.925,0,0,1-5.567-1.6s1.316,3.075,5.577,2.674Z" transform="translate(-400.332 -171.518)" fill="#eb996e"/>
      <path id="Path_5350" data-name="Path 5350" d="M492.619,174.233a.61.61,0,0,1-.588.615.583.583,0,0,1-.631-.535.61.61,0,0,1,.588-.615.583.583,0,0,1,.631.535Z" transform="translate(-406.375 -162.239)" fill="#263238"/>
      <path id="Path_5351" data-name="Path 5351" d="M491.993,171.892c-.075.08-.535-.262-1.193-.262s-1.139.332-1.209.251.043-.176.251-.332a1.673,1.673,0,0,1,.968-.3,1.6,1.6,0,0,1,.952.3C491.94,171.71,492.031,171.854,491.993,171.892Z" transform="translate(-405.524 -161.101)" fill="#263238"/>
      <path id="Path_5352" data-name="Path 5352" d="M481.1,174.233a.61.61,0,0,1-.588.615.583.583,0,0,1-.631-.535.61.61,0,0,1,.588-.615.583.583,0,0,1,.631.535Z" transform="translate(-401.016 -162.239)" fill="#263238"/>
      <path id="Path_5353" data-name="Path 5353" d="M479.893,172.122c-.075.08-.535-.262-1.192-.262s-1.139.332-1.209.251.043-.176.251-.332a1.674,1.674,0,0,1,.968-.3,1.6,1.6,0,0,1,.952.3C479.893,171.94,479.952,172.084,479.893,172.122Z" transform="translate(-399.895 -161.208)" fill="#263238"/>
      <path id="Path_5354" data-name="Path 5354" d="M486.225,177.025a4.342,4.342,0,0,1,1.07-.192c.166,0,.326-.048.353-.166a.85.85,0,0,0-.112-.5l-.5-1.273a21.917,21.917,0,0,1-1.112-3.337,21.974,21.974,0,0,1,1.38,3.241l.476,1.283a.968.968,0,0,1,.086.658.422.422,0,0,1-.273.246,1.139,1.139,0,0,1-.283.037,4.278,4.278,0,0,1-1.08,0Z" transform="translate(-403.826 -161.245)" fill="#263238"/>
      <path id="Path_5355" data-name="Path 5355" d="M482.8,182.63c.107,0,.107.706.717,1.214s1.369.428,1.374.535-.171.139-.492.144a1.776,1.776,0,0,1-1.144-.4,1.546,1.546,0,0,1-.535-1.016C482.669,182.8,482.749,182.625,482.8,182.63Z" transform="translate(-402.329 -166.395)" fill="#263238"/>
      <path id="Path_5356" data-name="Path 5356" d="M479.744,167.444c-.064.176-.722.1-1.492.187s-1.39.3-1.492.144c-.048-.075.064-.246.315-.417a2.61,2.61,0,0,1,2.273-.251C479.632,167.22,479.777,167.359,479.744,167.444Z" transform="translate(-399.559 -159.103)" fill="#263238"/>
      <path id="Path_5357" data-name="Path 5357" d="M491.7,168.322c-.118.15-.567,0-1.112,0s-1.005.1-1.107-.053c-.048-.075,0-.225.225-.364a1.6,1.6,0,0,1,1.791.053C491.684,168.1,491.748,168.247,491.7,168.322Z" transform="translate(-405.472 -159.429)" fill="#263238"/>
      <path id="Path_5358" data-name="Path 5358" d="M466.528,176.763c-.075-.032-2.93-.866-2.84,2.053a2.193,2.193,0,0,0,3.005,2.139C466.694,180.87,466.528,176.763,466.528,176.763Z" transform="translate(-393.481 -163.603)" fill="#ffbe9d"/>
      <path id="Path_5359" data-name="Path 5359" d="M466.435,180.686a.87.87,0,0,1-.134.08.535.535,0,0,1-.38,0,1.257,1.257,0,0,1-.62-1.112,1.678,1.678,0,0,1,.118-.733.588.588,0,0,1,.369-.4.257.257,0,0,1,.3.128c.043.08,0,.139.043.144s.059-.053.032-.171a.326.326,0,0,0-.123-.182.385.385,0,0,0-.283-.064.717.717,0,0,0-.535.471,1.726,1.726,0,0,0-.15.818,1.321,1.321,0,0,0,.781,1.235.535.535,0,0,0,.46-.091C466.435,180.755,466.446,180.691,466.435,180.686Z" transform="translate(-394.127 -164.413)" fill="#eb996e"/>
      <path id="Path_5360" data-name="Path 5360" d="M465.519,166.024a1.535,1.535,0,0,1,1.406.722c.192.417.23.888.422,1.3a1.032,1.032,0,0,0,1.07.69.9.9,0,0,0,.61-.668,2.468,2.468,0,0,0,0-.941c-.171-1.364-.46-2.717-.535-4.086a7.01,7.01,0,0,1,.861-3.968,3.834,3.834,0,0,1,3.412-1.92c.909.075,1.738.535,2.642.674a3.567,3.567,0,0,0,2.963-.989c.1-.1.535-.4.535-.4a1.679,1.679,0,0,0-.3-.9,8.639,8.639,0,0,0-12.962,2.957c-1.016,2.214-.717,5.289-.155,7.529" transform="translate(-394.077 -152.966)" fill="#263238"/>
      <path id="Path_5361" data-name="Path 5361" d="M480.975,158.121s-11.2-3.6-16.043,6.086a18.182,18.182,0,0,1-.722-3.743,8.332,8.332,0,0,1,5.84-7.663C470.044,152.821,478.06,149.762,480.975,158.121Z" transform="translate(-393.725 -152.271)" fill="#047bd5"/>
      <path id="Path_5362" data-name="Path 5362" d="M477.36,161.921a2.439,2.439,0,0,0,3.877.353,1.438,1.438,0,0,0,2.716-.144,3.262,3.262,0,0,0,1.07.8,1.112,1.112,0,0,0,1.246-.262,1.07,1.07,0,0,0-.075-1.283,2.675,2.675,0,0,0-1.134-.765,8.2,8.2,0,0,0-4.225-.642,5.7,5.7,0,0,0-3.706,2.016" transform="translate(-399.736 -155.831)" fill="#263238"/>
      <g id="Group_4238" data-name="Group 4238" transform="translate(70.485 0.003)">
        <path id="Path_5363" data-name="Path 5363" d="M480.975,158.123a5.2,5.2,0,0,0-3.561-1.6,14.063,14.063,0,0,0-12.481,7.706,18.18,18.18,0,0,1-.722-3.743,8.332,8.332,0,0,1,5.84-7.663C470.044,152.824,478.06,149.765,480.975,158.123Z" transform="translate(-464.21 -152.276)" fill="url(#linear-gradient)"/>
      </g>
      <path id="Path_5364" data-name="Path 5364" d="M466.43,163.292a21.091,21.091,0,0,1,6.524-6.251,40.9,40.9,0,0,1,9.765-3.979,6.381,6.381,0,0,1,2.674-.283,2.433,2.433,0,0,1,2,1.636c.278,1.107-1.685,2.813-2.6,3.481a30.265,30.265,0,0,1-2.8,1.658s0-2.053-3.257-2.476C474.286,156.511,466.43,163.292,466.43,163.292Z" transform="translate(-394.758 -152.49)" fill="url(#linear-gradient)"/>
      <g id="Group_4239" data-name="Group 4239" transform="translate(67.731 47.192)" opacity="0.3">
        <path id="Path_5365" data-name="Path 5365" d="M459.06,240.52c1.155,2.786,2.321,6.225,3.995,8.733a15.419,15.419,0,0,0,6.7,5.882,14.43,14.43,0,0,0,11.1.2c.283-.123.84-.278.786-.583,0,0-1.15-.128-1.508-.187-7.021-1.166-7.786-2.021-11.15-4.7-2.1-1.658-6.743-6.668-9.92-9.347" transform="translate(-459.06 -240.52)"/>
      </g>
      <path id="Path_5366" data-name="Path 5366" d="M487.044,278.46a2.809,2.809,0,0,1-.294.652,8.174,8.174,0,0,1-1.134,1.6,12.251,12.251,0,0,1-5.428,3.31,24.757,24.757,0,0,1-6.332.946c-.818.032-1.481.037-1.936.037a3.464,3.464,0,0,1-.711-.032,3.517,3.517,0,0,1,.706-.075l1.93-.123a27.623,27.623,0,0,0,6.262-1.016,12.706,12.706,0,0,0,5.38-3.208,13.719,13.719,0,0,0,1.557-2.091Z" transform="translate(-396.982 -210.98)" fill="#263238"/>
      <path id="Path_5367" data-name="Path 5367" d="M532.4,364.7a.783.783,0,0,1-.043-.166l-.1-.492-.342-1.9-1.214-6.984L526.8,332.1l-1.92-11.524.139.107-15.36,1.117-4.406.3-1.176.07h-.3l.3-.032,1.171-.112,4.4-.374,15.342-1.225h.118v.118l1.941,11.519,3.824,23.069,1.127,7,.294,1.9.07.5a.779.779,0,0,1,.036.17Z" transform="translate(-412.084 -230.506)" fill="#455a64"/>
      <path id="Path_5368" data-name="Path 5368" d="M546.941,313.54c.048.064-.882.866-1.947,1.947s-1.85,2.027-1.914,1.973a12.835,12.835,0,0,1,3.861-3.92Z" transform="translate(-430.419 -227.301)" fill="#455a64"/>
      <path id="Path_5369" data-name="Path 5369" d="M479.132,203.077a.9.9,0,0,1,.064.176,2.99,2.99,0,0,1,.1.535,4.358,4.358,0,0,1-.262,1.947,5.005,5.005,0,0,1-1.759,2.315,5.347,5.347,0,0,1-3.433.914,6.166,6.166,0,0,1-3.331-1.246,7.181,7.181,0,0,1-1.893-2.209,7.706,7.706,0,0,1-.722-1.818,5.079,5.079,0,0,1-.107-.535v-.187A12.083,12.083,0,0,0,468.8,205.4a7.268,7.268,0,0,0,1.877,2.1,6.026,6.026,0,0,0,3.208,1.176,5.155,5.155,0,0,0,3.267-.85,4.925,4.925,0,0,0,1.727-2.176,4.6,4.6,0,0,0,.337-1.866C479.175,203.334,479.105,203.088,479.132,203.077Z" transform="translate(-395.391 -175.858)" fill="#263238"/>
      <path id="Path_5370" data-name="Path 5370" d="M494.14,328.09" transform="translate(-407.65 -234.07)" fill="none"/>
      <path id="Path_5371" data-name="Path 5371" d="M501.666,234.4a2.25,2.25,0,0,1-.112-.535l-.214-1.529-.658-5.053c-.241-1.979-.433-3.77-.535-5.069-.059-.652-.1-1.176-.123-1.54a.284.284,0,1,1,.112-.032l.209,1.529.631,5.059c.241,1.973.455,3.743.578,5.064.064.652.107,1.176.128,1.54a2.251,2.251,0,0,1-.016.566Z" transform="translate(-410.379 -183.833)" fill="#263238"/>
    </g>
  </g>
</svg>
