<svg id="listview" xmlns="http://www.w3.org/2000/svg" width="14" height="14" viewBox="0 0 14 14">
  <rect id="back" width="14" height="14" fill="none"/>
  <path id="Path_16634" data-name="Path 16634" d="M2.611,3.287H1.2a.466.466,0,0,1-.466-.466V1.409A.466.466,0,0,1,1.2.943H2.611a.466.466,0,0,1,.466.466V2.821A.466.466,0,0,1,2.611,3.287Z" transform="translate(-0.368 -0.369)"/>
  <path id="Path_16635" data-name="Path 16635" d="M2.611,3.651H1.2a.832.832,0,0,1-.831-.831V1.409A.832.832,0,0,1,1.2.578H2.611a.832.832,0,0,1,.831.831V2.821A.832.832,0,0,1,2.611,3.651ZM1.2,1.307a.1.1,0,0,0-.1.1V2.821a.1.1,0,0,0,.1.1H2.611a.1.1,0,0,0,.1-.1V1.409a.1.1,0,0,0-.1-.1Z" transform="translate(-0.368 -0.369)"/>
  <path id="Path_16636" data-name="Path 16636" d="M13.858,2.625H5.384a.51.51,0,1,1,0-1.021h8.474a.51.51,0,1,1,0,1.021Z" transform="translate(-0.368 -0.369)"/>
  <path id="Path_16637" data-name="Path 16637" d="M2.611,8.541H1.2a.466.466,0,0,1-.466-.466V6.662A.466.466,0,0,1,1.2,6.2H2.611a.466.466,0,0,1,.466.466V8.074A.466.466,0,0,1,2.611,8.541Z" transform="translate(-0.368 -0.369)"/>
  <path id="Path_16638" data-name="Path 16638" d="M2.611,8.905H1.2a.832.832,0,0,1-.831-.831V6.662A.832.832,0,0,1,1.2,5.832H2.611a.832.832,0,0,1,.831.831V8.074A.832.832,0,0,1,2.611,8.905ZM1.2,6.561a.1.1,0,0,0-.1.1V8.074a.1.1,0,0,0,.1.1H2.611a.1.1,0,0,0,.1-.1V6.662a.1.1,0,0,0-.1-.1Z" transform="translate(-0.368 -0.369)"/>
  <path id="Path_16639" data-name="Path 16639" d="M13.858,7.879H5.384a.51.51,0,1,1,0-1.021h8.474a.51.51,0,1,1,0,1.021Z" transform="translate(-0.368 -0.369)"/>
  <path id="Path_16640" data-name="Path 16640" d="M2.611,13.794H1.2a.466.466,0,0,1-.466-.466V11.916A.466.466,0,0,1,1.2,11.45H2.611a.466.466,0,0,1,.466.466v1.412A.466.466,0,0,1,2.611,13.794Z" transform="translate(-0.368 -0.369)"/>
  <path id="Path_16641" data-name="Path 16641" d="M2.611,14.159H1.2a.832.832,0,0,1-.831-.831V11.916a.832.832,0,0,1,.831-.831H2.611a.832.832,0,0,1,.831.831v1.412A.832.832,0,0,1,2.611,14.159ZM1.2,11.815a.1.1,0,0,0-.1.1v1.412a.1.1,0,0,0,.1.1H2.611a.1.1,0,0,0,.1-.1V11.916a.1.1,0,0,0-.1-.1Z" transform="translate(-0.368 -0.369)"/>
  <path id="Path_16642" data-name="Path 16642" d="M13.858,13.133H5.384a.51.51,0,0,1,0-1.021h8.474a.51.51,0,0,1,0,1.021Z" transform="translate(-0.368 -0.369)"/>
</svg>
