<svg xmlns="http://www.w3.org/2000/svg" width="51.246" height="50" viewBox="0 0 51.246 50">
  <g id="notcancelable" transform="translate(659.856 -760.32)">
    <path id="Path_6400" data-name="Path 6400" d="M-616.7,762.567a2.093,2.093,0,0,0-2.273-2.245h-38.571a2.117,2.117,0,0,0-2.294,2.29c0,.447,0,.9,0,1.346.007.755.013,1.535-.016,2.3a2.336,2.336,0,0,0,1.772,2.7l.209.063V777q0,9.51,0,19.019a3.068,3.068,0,0,0,2.481,3.255,6.357,6.357,0,0,0,1.611.2c2.959.009,5.9.01,8.14.01h6.812a1.6,1.6,0,0,0,1.129-.318.778.778,0,0,0,.2-.587c-.006-.4-.162-.863-1.317-.863h-14.772c-.233,0-.5,0-.758-.022-1.293-.112-1.752-.609-1.752-1.9V769.02h12.09v4.256q0,5.241,0,10.484a.907.907,0,0,0,.54.973.921.921,0,0,0,.352.078,1.043,1.043,0,0,0,.722-.367q1.409-1.387,2.828-2.763l.649-.63c.1-.1.2-.189.305-.286l.149-.136.2-.187.355.33c.1.094.192.178.282.265l1.552,1.514,2,1.954a.924.924,0,0,0,.647.308.912.912,0,0,0,.344-.074.845.845,0,0,0,.557-.895c0-.114,0-.227,0-.339l0-.165V769.008h12.081v2.986q0,4.1,0,8.2a2.906,2.906,0,0,0,.06.693.8.8,0,0,0,.829.625h.021a.817.817,0,0,0,.818-.666,3.27,3.27,0,0,0,.049-.652q0-5.241,0-10.484v-.049a.747.747,0,0,1,.509-.83A2.048,2.048,0,0,0-616.7,766.7q0-.542,0-1.087C-616.694,764.616-616.691,763.583-616.7,762.567Zm-27.348,4.591h-13.971v-5.05h13.971Zm9.738,14.481-.475-.364-.111-.083a2.139,2.139,0,0,1-.248-.2q-.458-.444-.913-.892c-.475-.467-.967-.949-1.455-1.417a1.163,1.163,0,0,0-.762-.4,1.088,1.088,0,0,0-.746.408c-.587.606-1.166,1.243-1.727,1.858q-.369.407-.74.809l-.183.2-.529-.4V762.094h7.888Zm15.808-14.487h-13.98V762.1h13.98Z" transform="translate(0 0)"/>
    <path id="Path_6401" data-name="Path 6401" d="M-474.885,923.85h-.053a12.948,12.948,0,0,0-12.9,12.917,12.949,12.949,0,0,0,12.883,12.973h.044a12.97,12.97,0,0,0,12.957-12.927A12.985,12.985,0,0,0-474.885,923.85Zm-.027,24.14h-.038a11.2,11.2,0,0,1-11.14-11.214,11.187,11.187,0,0,1,11.176-11.142h.019A11.184,11.184,0,0,1-463.74,936.8,11.2,11.2,0,0,1-474.912,947.99Z" transform="translate(-146.655 -139.42)"/>
    <path id="Path_6402" data-name="Path 6402" d="M-424.415,986.472a.8.8,0,0,1-.428.917.906.906,0,0,1-.432.121.907.907,0,0,1-.633-.3c-.845-.826-1.691-1.678-2.509-2.5l-.336-.339a3.726,3.726,0,0,1-.254-.3c-.053-.068-.112-.14-.178-.221l-.208-.249-1.2,1.209c-.8.812-1.572,1.589-2.344,2.363a.937.937,0,0,1-.666.326.916.916,0,0,1-.285-.049.84.84,0,0,1-.6-.683.948.948,0,0,1,.37-.907c.761-.755,1.52-1.513,2.3-2.287l1.115-1.112-.195-.209c-.049-.052-.1-.1-.14-.152-.1-.1-.187-.2-.282-.3q-.48-.48-.961-.96c-.631-.631-1.284-1.281-1.918-1.928a.84.84,0,0,1-.2-1.056.822.822,0,0,1,.7-.473.913.913,0,0,1,.175.019,1.531,1.531,0,0,1,.689.407c.781.758,1.535,1.516,2.332,2.319l.848.854.209.209.208-.209c.285-.285.566-.569.846-.851.8-.8,1.557-1.564,2.341-2.327a1.628,1.628,0,0,1,.652-.405.747.747,0,0,1,.2-.027.8.8,0,0,1,.7.463.858.858,0,0,1-.181,1.078c-.783.8-1.61,1.626-2.53,2.534-.159.158-.336.307-.523.466-.094.08-.192.162-.292.251l-.237.208.224.223c.3.3.59.588.879.876.809.8,1.573,1.564,2.331,2.343A1.662,1.662,0,0,1-424.415,986.472Z" transform="translate(-192.119 -185.057)"/>
  </g>
</svg>
