<svg id="notification" xmlns="http://www.w3.org/2000/svg" width="14.061" height="20" viewBox="0 0 14.061 20">
  <path id="Path_6453" data-name="Path 6453" d="M7.188,0a.85.85,0,0,1,.625.968c-.014.207,0,.414,0,.613.348.095.692.168,1.021.281A5.422,5.422,0,0,1,12.5,6.91c.013,1.578.007,3.158,0,4.735a.862.862,0,0,0,.455.828,2.292,2.292,0,0,1,1.021,2.605,2.342,2.342,0,0,1-2.228,1.694q-4.715.008-9.43,0A2.341,2.341,0,0,1,.083,15.064a2.3,2.3,0,0,1,1.059-2.607.788.788,0,0,0,.42-.749q0-2.348,0-4.7A5.436,5.436,0,0,1,4.99,1.948a5.677,5.677,0,0,1,.61-.2c.205-.057.417-.1.649-.151,0-.207.011-.417,0-.627A.851.851,0,0,1,6.875,0ZM7.011,15.219h4.668a.775.775,0,0,0,.789-.569.75.75,0,0,0-.367-.88,2.234,2.234,0,0,1-1.163-2.093c0-1.533,0-3.067,0-4.6a4.872,4.872,0,0,0-.077-.848,3.906,3.906,0,0,0-7.732.811c0,1.579.009,3.158,0,4.736a2.171,2.171,0,0,1-1.126,1.977.925.925,0,0,0-.266.223.717.717,0,0,0-.088.8.751.751,0,0,0,.721.441H7.01Z" transform="translate(0)"/>
  <path id="Path_6454" data-name="Path 6454" d="M6.5,24.66l-.165-.072a.807.807,0,0,1-.47-.873.788.788,0,0,1,.756-.665q1.654-.012,3.308,0a.793.793,0,0,1,.756.665.807.807,0,0,1-.473.874c-.054.025-.108.048-.164.072Z" transform="translate(-1.249 -4.66)"/>
</svg>
