<svg xmlns="http://www.w3.org/2000/svg" width="51.245" height="50" viewBox="0 0 51.245 50">
  <g id="returnable" transform="translate(312.395 -1227.202)">
    <g id="Group_5481" data-name="Group 5481" transform="translate(-312.394 1227.202)">
      <path id="Path_6410" data-name="Path 6410" d="M-269.24,1229.449a2.093,2.093,0,0,0-2.273-2.245h-38.571a2.117,2.117,0,0,0-2.294,2.29c0,.447,0,.9,0,1.346.007.755.013,1.535-.016,2.3a2.336,2.336,0,0,0,1.772,2.7l.209.063v7.973q0,9.51,0,19.019a3.068,3.068,0,0,0,2.482,3.255,6.348,6.348,0,0,0,1.611.2c2.959.009,5.9.01,8.14.01h6.812a1.6,1.6,0,0,0,1.129-.318.778.778,0,0,0,.2-.587c-.006-.4-.162-.863-1.317-.863h-14.771c-.233,0-.5,0-.758-.022-1.293-.112-1.752-.609-1.752-1.9V1235.9h12.09v4.256q0,5.241,0,10.484a.907.907,0,0,0,.54.973.92.92,0,0,0,.352.078,1.043,1.043,0,0,0,.723-.367q1.409-1.387,2.828-2.763l.649-.63c.1-.1.2-.189.305-.286l.149-.136.2-.187.355.33c.1.094.192.178.282.265l1.552,1.514,2,1.953a.924.924,0,0,0,.647.308.912.912,0,0,0,.344-.074.846.846,0,0,0,.557-.895c0-.114,0-.227,0-.339v-14.5h12.081v2.986q0,4.1,0,8.2a2.907,2.907,0,0,0,.06.693.8.8,0,0,0,.829.625h.021a.817.817,0,0,0,.818-.666,3.269,3.269,0,0,0,.049-.652q0-5.241,0-10.484v-.049a.747.747,0,0,1,.509-.83,2.047,2.047,0,0,0,1.452-2.133c0-.361,0-.724,0-1.087C-269.232,1231.5-269.229,1230.465-269.24,1229.449Zm-27.348,4.591h-13.971v-5.05h13.971Zm9.738,14.481-.475-.364-.111-.083a2.138,2.138,0,0,1-.248-.2q-.458-.445-.913-.892c-.475-.467-.967-.949-1.455-1.417a1.163,1.163,0,0,0-.762-.4,1.088,1.088,0,0,0-.746.408c-.587.606-1.166,1.243-1.726,1.858q-.369.407-.74.809l-.183.2-.529-.4v-19.066h7.888Zm15.808-14.487h-13.98v-5.05h13.98Z" transform="translate(312.394 -1227.202)"/>
      <path id="Path_6411" data-name="Path 6411" d="M-127.423,1390.732h-.053a12.948,12.948,0,0,0-12.9,12.917,12.949,12.949,0,0,0,12.883,12.973h.044a12.97,12.97,0,0,0,12.957-12.927A12.985,12.985,0,0,0-127.423,1390.732Zm-.027,24.14h-.038a11.2,11.2,0,0,1-11.14-11.214,11.187,11.187,0,0,1,11.176-11.142h.019a11.184,11.184,0,0,1,11.155,11.17A11.2,11.2,0,0,1-127.45,1414.872Z" transform="translate(165.74 -1366.622)"/>
      <path id="Path_6412" data-name="Path 6412" d="M-91.807,1443.318a.753.753,0,0,1,.012-1.128c.935-.955,1.887-1.909,2.831-2.834a.8.8,0,0,1,.556-.257.791.791,0,0,1,.554.257.734.734,0,0,1,.01,1.118c-.122.133-.267.259-.435.408-.09.078-.186.162-.287.257a.443.443,0,0,0-.122.463.442.442,0,0,0,.372.3c.072.007.131.016.181.022a2.021,2.021,0,0,0,.271.024h2.256l-.786,1.605c-.23,0-.46,0-.69,0-.351,0-.7,0-1.056,0a.444.444,0,0,0-.385.223l-.058.1a.442.442,0,0,0,.086.544c.075.069.152.137.229.2a5.766,5.766,0,0,1,.444.416.726.726,0,0,1-.013,1.093.805.805,0,0,1-.569.273.776.776,0,0,1-.537-.248C-89.937,1445.21-90.9,1444.25-91.807,1443.318Z" transform="translate(124.541 -1407.858)"/>
      <path id="Path_6413" data-name="Path 6413" d="M-86.1,1507.33l.792,0-.783,1.6H-86.6a1.055,1.055,0,0,1-.75-.264.741.741,0,0,1-.206-.541c0-.585.5-.795.97-.795Z" transform="translate(120.709 -1466.029)"/>
      <path id="Path_6414" data-name="Path 6414" d="M-57.272,1468.778a4.544,4.544,0,0,1-1.008.109c-.87.007-1.74.009-2.61.009l.784-1.6q.922,0,1.844-.006a2.645,2.645,0,0,0,2.539-1.619,2.761,2.761,0,0,0-.385-2.98,2.453,2.453,0,0,0-1.3-.9l.7-1.42a4.391,4.391,0,0,1,2.838,3.695A4.384,4.384,0,0,1-57.272,1468.778Z" transform="translate(97.971 -1425.993)"/>
    </g>
    <g id="Group_5482" data-name="Group 5482" transform="translate(-278.368 1258.146)">
      <path id="Path_6415" data-name="Path 6415" d="M-81.234,1452.01h0a.663.663,0,0,1-.3-.889l6.739-13.667a.663.663,0,0,1,.887-.3h0a.664.664,0,0,1,.3.889l-6.739,13.668A.663.663,0,0,1-81.234,1452.01Z" transform="translate(81.606 -1437.083)"/>
    </g>
  </g>
</svg>
