<?xml version="1.0" encoding="utf-8"?>
<!-- Generator: Adobe Illustrator 27.6.1, SVG Export Plug-In . SVG Version: 6.00 Build 0)  -->
<svg version="1.1" id="Layer_1" xmlns="http://www.w3.org/2000/svg" xmlns:xlink="http://www.w3.org/1999/xlink" x="0px" y="0px"
	 viewBox="0 0 163.4 174.4" style="enable-background:new 0 0 163.4 174.4;" xml:space="preserve">
<style type="text/css">
	.st0{fill:#FC6A57;}
</style>
<path id="Path_5878-2" class="st0" d="M138.2,104.8l-9-17.6c-0.4-0.8-1.3-1.4-2.2-1.4H36.5c-0.9,0-1.8,0.5-2.2,1.4l-9,17.6
	c-0.6,1.2-0.1,2.7,1.1,3.4c0.4,0.2,0.7,0.3,1.1,0.3h3.1v44.2c0,1.4,1.1,2.5,2.5,2.5c0,0,0,0,0,0h97.2c1.4,0,2.5-1.1,2.5-2.5l0,0
	v-44.2h3.1c1.4,0,2.5-1.1,2.5-2.5C138.5,105.5,138.4,105.1,138.2,104.8L138.2,104.8z M125.4,90.8l6.4,12.6H92.2l-6.4-12.6H125.4z
	 M38,90.8h39.6l-6.4,12.6H31.6L38,90.8z M127.8,150.1H84.2v-13.9c0-1.4-1.1-2.5-2.5-2.5c-1.4,0-2.5,1.1-2.5,2.5v13.9H35.6v-41.7
	h37.1c0.9,0,1.8-0.5,2.2-1.4l4.2-8.3v15c0,1.4,1.1,2.5,2.5,2.5c1.4,0,2.5-1.1,2.5-2.5v-15l4.2,8.3c0.4,0.8,1.3,1.4,2.2,1.4h37.1
	V150.1z"/>
<path id="Path_5879-2" class="st0" d="M60.3,136.4H46c-1.4,0-2.5,1.1-2.5,2.5s1.1,2.5,2.5,2.5l0,0h14.3c1.4,0,2.5-1.1,2.5-2.5
	S61.7,136.4,60.3,136.4z"/>
<path id="Path_5880-2" class="st0" d="M81.7,78.4c14.2,0,25.7-11.5,25.7-25.7S95.9,27,81.7,27C67.5,27,56,38.5,56,52.7c0,0,0,0,0,0
	C56,66.9,67.5,78.4,81.7,78.4z M81.7,32c11.4,0,20.7,9.3,20.7,20.7s-9.3,20.7-20.7,20.7S61,64.2,61,52.7c0,0,0,0,0,0
	C61,41.2,70.3,32,81.7,32z"/>
<path id="Path_5881-2" class="st0" d="M70.5,56.4l6.7,5.7c0.5,0.4,1,0.6,1.6,0.6c0.1,0,0.1,0,0.2,0c0.7-0.1,1.3-0.4,1.7-0.9l12.5-15
	c0.9-1.1,0.7-2.6-0.3-3.5c-1.1-0.9-2.6-0.7-3.5,0.3L78.5,56.6l-4.7-4c-1.1-0.9-2.6-0.8-3.5,0.3C69.3,54,69.4,55.5,70.5,56.4
	L70.5,56.4L70.5,56.4z"/>
<path id="Path_5882-2" class="st0" d="M32.5,55.2h10.8c1.4,0,2.5-1.1,2.5-2.5c0-1.4-1.1-2.5-2.5-2.5H32.5c-1.4,0-2.5,1.1-2.5,2.5
	C30,54.1,31.1,55.2,32.5,55.2z"/>
<path id="Path_5883-2" class="st0" d="M31.3,37.8l10.8,5.7c1.2,0.7,2.7,0.3,3.4-0.9c0.7-1.2,0.3-2.7-0.9-3.4c-0.1,0-0.1-0.1-0.2-0.1
	l-10.8-5.7c-1.2-0.7-2.7-0.2-3.4,1C29.6,35.5,30.1,37.1,31.3,37.8C31.3,37.7,31.3,37.7,31.3,37.8z"/>
<path id="Path_5884-2" class="st0" d="M30.3,71c0.6,1.2,2.2,1.7,3.4,1.1c0,0,0,0,0,0l10.8-5.7c1.2-0.6,1.7-2.1,1.1-3.4
	c-0.6-1.2-2.1-1.7-3.4-1.1c0,0-0.1,0-0.1,0l-10.8,5.7C30.1,68.3,29.6,69.8,30.3,71C30.3,71,30.3,71,30.3,71z"/>
<path id="Path_5885-2" class="st0" d="M120.1,55.2h10.8c1.4,0,2.5-1.1,2.5-2.5c0-1.4-1.1-2.5-2.5-2.5h-10.8c-1.4,0-2.5,1.1-2.5,2.5
	C117.6,54.1,118.7,55.2,120.1,55.2z"/>
<path id="Path_5886-2" class="st0" d="M120.1,43.8c0.4,0,0.8-0.1,1.2-0.3l10.8-5.7c1.2-0.6,1.7-2.2,1-3.4c-0.6-1.2-2.2-1.7-3.4-1
	l0,0L118.9,39c-1.2,0.6-1.7,2.2-1,3.4C118.3,43.2,119.2,43.8,120.1,43.8L120.1,43.8z"/>
<path id="Path_5887-2" class="st0" d="M118.9,66.3l10.8,5.7c1.2,0.6,2.7,0.1,3.4-1.1c0.6-1.2,0.2-2.7-1-3.3l-10.8-5.7
	c-1.2-0.6-2.7-0.1-3.4,1.1C117.3,64.2,117.7,65.7,118.9,66.3L118.9,66.3z"/>
<path id="Path_5888-2" class="st0" d="M81.7,122.5c-1.4,0-2.5,1.1-2.5,2.5l0,0v0c0,1.4,1.1,2.5,2.5,2.5c1.4,0,2.5-1.1,2.5-2.5
	C84.2,123.6,83.1,122.5,81.7,122.5z"/>
</svg>
