<svg xmlns="http://www.w3.org/2000/svg" xmlns:xlink="http://www.w3.org/1999/xlink" width="58" height="28" viewBox="0 0 58 28">
  <defs>
    <linearGradient id="linear-gradient" x1="0.392" y1="1.442" x2="0.219" y2="3.01" gradientUnits="objectBoundingBox">
      <stop offset="0.02" stop-color="#ed1c24"/>
      <stop offset="1" stop-color="#be1e2d"/>
    </linearGradient>
  </defs>
  <g id="payfast" transform="translate(2 -0.114)">
    <rect id="Rectangle_72" data-name="Rectangle 72" width="58" height="28" rx="3" transform="translate(-2 0.114)" fill="#fff"/>
    <path id="Path_6382" data-name="Path 6382" d="M17.849,15.662a13.235,13.235,0,0,1-2.473,1.166,11.686,11.686,0,0,1-2.928.725c-.427,0-.867.128-1.308.171h0c-4.1.358-7.606-.527-9.61-2.418h0v.227a3.483,3.483,0,0,0,.882,2.275c1.622,1.863,4.748,2.843,8.388,2.943a14.629,14.629,0,0,0,6.213-1.294,6.7,6.7,0,0,0,2.118-1.535,3.483,3.483,0,0,0,.924-2.26,3.284,3.284,0,0,0-.369-1.521,8.3,8.3,0,0,1-1.834,1.521ZM10.74,13.086c-3.839.3-7.109-.427-9.2-2.061a3.583,3.583,0,0,0,.867,2.061c1.622,1.863,4.748,2.843,8.388,2.943a14.572,14.572,0,0,0,6.326-1.251,6.584,6.584,0,0,0,2.118-1.535,3.5,3.5,0,0,0,.839-2.318,3.326,3.326,0,0,0-.554-1.834c-.526.725-2.786,3.53-8.874,3.981Zm0-1.735A14.529,14.529,0,0,0,17.066,10.1a6.584,6.584,0,0,0,2.2-1.55,3.468,3.468,0,0,0,.924-2.26A3.483,3.483,0,0,0,19.27,4c-1.635-1.877-4.748-2.843-8.388-2.943A14.572,14.572,0,0,0,4.553,2.312,6.679,6.679,0,0,0,2.406,3.819a3.53,3.53,0,0,0-.906,2.3,3.511,3.511,0,0,0,.882,2.29c1.62,1.862,4.748,2.871,8.36,2.942Zm-7.108-7.1c.882-1.08,3.626-2.133,6.839-2.075a12.425,12.425,0,0,1,5.374,1.137,4.422,4.422,0,0,1,1.422,1.05,1.422,1.422,0,0,1,.4.91,1.422,1.422,0,0,1-.412.91c-.882,1.08-3.626,2.133-6.839,2.075a12.468,12.468,0,0,1-5.36-1.079,4.58,4.58,0,0,1-1.422-1.05,1.4,1.4,0,0,1,0-1.834Z" transform="translate(16.5 3.212)" fill="url(#linear-gradient)"/>
  </g>
</svg>
