<svg xmlns="http://www.w3.org/2000/svg" width="58" height="28" viewBox="0 0 58 28">
  <g id="paypal" transform="translate(3.449 -0.39)">
    <rect id="Rectangle_72" data-name="Rectangle 72" width="58" height="28" rx="3" transform="translate(-3.45 0.39)" fill="#fff"/>
    <g id="PayPal_2_" data-name="PayPal (2)" transform="translate(17.551 4.54)">
      <path id="Path_47" data-name="Path 47" d="M5.171,19.517,5.5,17.351H1.1L3.594,1.194Q3.691,1,3.788,1h6.17c2.035,0,3.479.46,4.2,1.313a2.564,2.564,0,0,1,.656,1.248,3.721,3.721,0,0,1,0,1.707v.525l.329.194a1.482,1.482,0,0,1,.722.524,2.761,2.761,0,0,1,.592,1.248A5.939,5.939,0,0,1,16.391,9.6a5.382,5.382,0,0,1-.788,2.1,4.575,4.575,0,0,1-1.182,1.313,4.167,4.167,0,0,1-1.641.722A9.019,9.019,0,0,1,10.745,14h-.46a1.568,1.568,0,0,0-.919.329,1.122,1.122,0,0,0-.459.853l-.066.194-.59,3.878v.131c0,.066,0,.066-.066.066H8.123C8.123,19.517,5.171,19.517,5.171,19.517Z" transform="translate(-0.366 -0.339)" fill="#253b80"/>
      <path id="Path_48" data-name="Path 48" d="M17.289,7.7v.33c-.793,4.227-3.632,5.613-7.2,5.613H8.242a.859.859,0,0,0-.859.726l-.926,5.878L6.194,21.9c-.066.264.132.462.4.528h3.3a.782.782,0,0,0,.793-.661v-.131l.594-3.83.066-.2a.782.782,0,0,1,.793-.661H12.6c3.1,0,5.548-1.256,6.274-4.954a4.052,4.052,0,0,0-.661-3.7A3.242,3.242,0,0,0,17.29,7.7Z" transform="translate(-2.187 -2.726)" fill="#179bd7"/>
      <path id="Path_49" data-name="Path 49" d="M17.114,7.029a1.759,1.759,0,0,0-.793-.2A12.826,12.826,0,0,0,14.736,6.7H9.849a.782.782,0,0,0-.793.661L8,13.9v.2a.85.85,0,0,1,.859-.726h1.848c3.567,0,6.34-1.452,7.2-5.613V7.36a2.76,2.76,0,0,0-.66-.264A.2.2,0,0,0,17.114,7.029Z" transform="translate(-2.805 -2.314)" fill="#222d65"/>
      <path id="Path_50" data-name="Path 50" d="M6.3,5.054A.775.775,0,0,1,7.087,4.4h4.858a10.891,10.891,0,0,1,1.575.132,5.469,5.469,0,0,1,.985.263,6.81,6.81,0,0,1,.656.263,3.884,3.884,0,0,0-.854-3.543C13.385.459,11.744,0,9.579,0H3.408a.908.908,0,0,0-.854.722L0,17a.485.485,0,0,0,.459.59H4.336l.919-6.038Z" transform="translate(0.012 0)" fill="#253b80"/>
    </g>
  </g>
</svg>
