<svg xmlns="http://www.w3.org/2000/svg" width="58" height="30" viewBox="0 0 58 30">
  <g id="phonepe" transform="translate(-0.066)">
    <rect id="back" width="58" height="30" rx="3" transform="translate(0.066)" fill="#fff"/>
    <path id="Path_23919" data-name="Path 23919" d="M12.363,0A12.363,12.363,0,1,1,0,12.363,12.363,12.363,0,0,1,12.363,0" transform="translate(16.703 2.637)" fill="#5f259f"/>
    <path id="Path_23920" data-name="Path 23920" d="M182.885,99.667a.914.914,0,0,0-.9-.9h-1.657l-3.8-4.351A1.4,1.4,0,0,0,175.08,94l-1.312.414a.305.305,0,0,0-.138.483l4.144,3.937h-6.286a.326.326,0,0,0-.345.345v.691a.914.914,0,0,0,.9.9h.967v3.315c0,2.486,1.312,3.937,3.523,3.937a4.783,4.783,0,0,0,1.934-.345v2.21a1.091,1.091,0,0,0,1.1,1.105h.967a.446.446,0,0,0,.414-.414V100.7h1.589a.326.326,0,0,0,.345-.345Zm-4.42,5.94a3.293,3.293,0,0,1-1.381.276c-1.1,0-1.658-.552-1.658-1.8v-3.315h3.039Z" transform="translate(-148.208 -87.894)" fill="#fff"/>
  </g>
</svg>
