<?xml version="1.0" encoding="utf-8"?>
<!-- Generator: Adobe Illustrator 27.6.1, SVG Export Plug-In . SVG Version: 6.00 Build 0)  -->
<svg version="1.1" id="Layer_1" xmlns="http://www.w3.org/2000/svg" xmlns:xlink="http://www.w3.org/1999/xlink" x="0px" y="0px"
	 viewBox="0 0 162 162" style="enable-background:new 0 0 162 162;" xml:space="preserve">
<style type="text/css">
	.st0{fill:none;}
	.st1{opacity:0.5;fill:url(#Path_6382_00000018235127678799148920000012787251856432634779_);}
</style>
<g id="placeholder" transform="translate(18639 11972)">
	<rect id="placeholder-2" x="-18639" y="-11972" class="st0" width="162" height="162"/>
	
		<linearGradient id="Path_6382_00000178915969298272834630000012201402667151159969_" gradientUnits="userSpaceOnUse" x1="-19097.0527" y1="-11351.583" x2="-19096.8086" y2="-11351.8262" gradientTransform="matrix(292.443 0 0 -317.297 5566207 -3613751.25)">
		<stop  offset="0" style="stop-color:#FFBD69"/>
		<stop  offset="1" style="stop-color:#FF6363"/>
	</linearGradient>
	<path id="Path_6382" style="opacity:0.5;fill:url(#Path_6382_00000178915969298272834630000012201402667151159969_);" d="
		M-18522.7-11924.1v67.1c0,1.1-0.9,2-2,2l0,0h-10.4l-3.4,6v-36.8l0,0v-27.9l0,0l-19.1,12.4l0,0l-7.7-5l-0.5-0.3l-7.2-4.7l-3.7-2.4
		v40.2l11.4,6.8v-25.9l0,0l7.7,5l0,0l7.7-5v37.6h-41.9c-1.1,0-2-0.9-2-2v-67.1c0-1.1,0.9-2,2-2l0,0h67.1
		C-18523.6-11926.1-18522.7-11925.2-18522.7-11924.1C-18522.7-11924.1-18522.7-11924.1-18522.7-11924.1z"/>
</g>
</svg>
