<svg width="15" height="20" viewBox="0 0 15 20" fill="none" xmlns="http://www.w3.org/2000/svg">
<path d="M3.13307 1.87996C3.9576 2.1246 4.32909 1.67156 4.69153 1.00106C5.41639 -0.358056 5.35297 -0.140597 6.41308 0.520842C7.09264 0.9467 7.60005 0.919517 8.26148 0.50272C9.43939 -0.240266 9.34878 -0.140597 9.91961 0.955761C10.2911 1.68063 10.726 1.94339 11.5506 1.90715C12.8825 1.84372 12.7828 1.72593 12.7285 3.05787C12.6922 3.90052 12.9731 4.35356 13.7161 4.73412C14.9302 5.35931 14.8034 5.32307 14.151 6.31976C13.6617 7.06274 13.698 7.62451 14.1782 8.33126C14.8124 9.26452 14.7943 9.36419 13.7976 9.83535C12.9731 10.225 12.6832 10.7324 12.7194 11.6384C12.7647 12.8798 12.8372 12.8254 11.5777 12.762C10.7623 12.7167 10.282 12.9432 9.89243 13.7134C9.33066 14.8279 9.3669 14.8641 8.27054 14.1392C7.59098 13.6953 7.08358 13.6681 6.39496 14.1211C5.26236 14.8641 5.32578 14.8279 4.71871 13.659C4.35628 12.9613 3.92136 12.7257 3.15119 12.762C1.78301 12.8254 1.88268 12.907 1.92798 11.5931C1.96422 10.7414 1.68334 10.2703 0.913171 9.88971C-0.146943 9.37325 -0.165064 9.27358 0.487314 8.29501C0.958475 7.58827 0.949415 7.05368 0.487314 6.32882C-0.165064 5.32307 -0.291916 5.37743 0.922232 4.75224C1.68334 4.36262 1.97329 3.89146 1.92798 3.03069C1.8555 1.77123 1.78301 1.88902 3.04246 1.88902C3.0787 1.87996 3.10589 1.87996 3.13307 1.87996ZM13.6164 5.6402C13.1996 5.38649 12.81 5.13279 12.4023 4.91533C12.067 4.73412 11.9311 4.48947 11.9492 4.11798C11.9674 3.65588 11.9583 3.19378 11.9583 2.7045C11.4328 2.7045 10.9797 2.69544 10.5267 2.7045C10.1552 2.71356 9.90149 2.56858 9.72933 2.23333C9.51188 1.8256 9.25817 1.43598 9.00447 1.02825C8.53331 1.29101 8.10745 1.51753 7.69065 1.75311C7.40977 1.91621 7.16513 1.91621 6.8933 1.73499C6.50369 1.49035 6.09595 1.27289 5.65197 1.01919C5.38921 1.4541 5.13551 1.84372 4.91805 2.25146C4.74589 2.56858 4.50125 2.7045 4.14788 2.69544C3.68578 2.68637 3.22368 2.69544 2.69815 2.69544C2.69815 3.24814 2.73439 3.75555 2.68003 4.24483C2.65285 4.46229 2.49881 4.71599 2.3176 4.85191C1.91892 5.14185 1.47494 5.36837 1.03096 5.6402C1.28466 6.09324 1.50212 6.51909 1.75583 6.92683C1.92798 7.20772 1.91892 7.45236 1.75583 7.72418C1.51118 8.13192 1.28466 8.55778 1.04002 9.00176C1.484 9.26452 1.87362 9.52728 2.28135 9.74474C2.58036 9.90784 2.71627 10.1072 2.69815 10.4605C2.67097 10.9317 2.68909 11.4119 2.68909 11.9465C3.20555 11.9465 3.63141 11.9828 4.04821 11.9375C4.51031 11.8922 4.77307 12.0915 4.97241 12.4811C5.16269 12.8526 5.39827 13.206 5.64291 13.6046C6.08689 13.36 6.51275 13.1335 6.92049 12.8979C7.19231 12.7348 7.44601 12.7167 7.71784 12.8888C8.12557 13.1335 8.55143 13.36 9.00447 13.6137C9.24911 13.1969 9.50281 12.8073 9.72027 12.3996C9.89243 12.0734 10.128 11.9193 10.5176 11.9465C10.9797 11.9737 11.4418 11.9556 11.9492 11.9556C11.9492 11.4029 11.9674 10.9408 11.9402 10.4787C11.922 10.1434 12.0489 9.94408 12.3207 9.78098C12.7375 9.5454 13.1453 9.28264 13.5983 9.01082C13.3627 8.58496 13.1543 8.16816 12.9097 7.76949C12.7285 7.47048 12.7194 7.19865 12.9097 6.89059C13.1543 6.48285 13.3718 6.07512 13.6164 5.6402Z" fill="#7D7D7D"/>
<path d="M10.128 18.7149C10.4995 18.28 10.7894 17.8904 11.1337 17.5642C11.2968 17.4102 11.5777 17.3014 11.7952 17.3196C12.2663 17.3467 12.7375 17.4736 13.2902 17.5642C13.2358 17.3649 13.1996 17.2108 13.1452 17.0658C12.7918 16.0601 12.4294 15.0543 12.067 14.0486C11.9673 13.7677 11.8767 13.4596 12.2663 13.3419C12.6106 13.2422 12.7284 13.514 12.8281 13.7858C13.3083 15.145 13.8067 16.5041 14.2778 17.8723C14.459 18.3978 14.2959 18.579 13.7342 18.4975C13.1815 18.4159 12.6287 18.3344 12.0942 18.1984C11.8042 18.126 11.6411 18.2256 11.478 18.425C11.1247 18.8599 10.7713 19.2857 10.3998 19.7116C10.0192 20.1465 9.72929 20.0922 9.52995 19.5304C9.06785 18.2619 8.61481 16.9843 8.15271 15.7067C8.0621 15.444 7.94431 15.1631 8.31581 15.0272C8.67824 14.9003 8.79603 15.1812 8.8957 15.444C9.30343 16.5041 9.70211 17.5733 10.128 18.7149Z" fill="#7D7D7D"/>
<path d="M1.39348 17.5644C1.91901 17.4647 2.34486 17.3922 2.77072 17.3016C3.13315 17.2291 3.40498 17.3016 3.6315 17.6188C3.90332 17.9812 4.21139 18.3164 4.54664 18.7151C4.80034 18.0265 5.03592 17.4013 5.2715 16.7761C5.45272 16.2868 5.643 15.7885 5.83327 15.2992C5.92388 15.0546 6.08698 14.9186 6.3588 15.0274C6.62156 15.127 6.65781 15.3173 6.5672 15.571C6.07791 16.912 5.60675 18.2621 5.10841 19.6031C4.93625 20.0561 4.65537 20.1105 4.32918 19.7571C3.92144 19.3131 3.55901 18.8238 3.14221 18.3889C3.02442 18.2711 2.78884 18.1896 2.61669 18.2077C2.0368 18.2802 1.4569 18.407 0.877013 18.4977C0.405851 18.5701 0.215574 18.3527 0.378669 17.8996C0.867952 16.5224 1.3663 15.1542 1.86464 13.777C1.88276 13.7317 1.90994 13.6954 1.91901 13.6592C2.01867 13.4055 2.19989 13.2061 2.46265 13.3692C2.58951 13.4508 2.68917 13.7679 2.64387 13.9219C2.35392 14.8371 2.01867 15.7432 1.70155 16.6493C1.60188 16.9301 1.51127 17.211 1.39348 17.5644Z" fill="#7D7D7D"/>
<path d="M7.31909 3.04883C9.70208 3.04883 11.6139 4.9969 11.6139 7.41614C11.6139 9.62697 9.60241 11.6022 7.34627 11.6022C4.9814 11.6022 3.01521 9.63603 3.03333 7.28928C3.05145 4.96972 4.99046 3.04883 7.31909 3.04883ZM7.32815 10.7686C9.32153 10.7505 10.8166 9.24642 10.7894 7.29835C10.7622 5.24154 9.28528 3.83712 7.16505 3.8643C5.36195 3.88242 3.86692 5.42276 3.85786 7.2621C3.85786 9.28266 5.35289 10.7868 7.32815 10.7686Z" fill="#7D7D7D"/>
</svg>
