<svg xmlns="http://www.w3.org/2000/svg" width="85" height="85" viewBox="0 0 85 85">
  <g id="pro_theme" transform="translate(-110 -1516)">
    <rect id="Rectangle_2666" data-name="Rectangle 2666" width="85" height="85" transform="translate(110 1516)" fill="none"/>
    <g id="theme" transform="translate(110 1516.108)">
      <path id="Path_6324" data-name="Path 6324" d="M242,184.493v14.961a2.493,2.493,0,0,0,2.493,2.493h29.921a2.493,2.493,0,0,0,2.493-2.493V184.493A2.494,2.494,0,0,0,274.415,182H244.493A2.494,2.494,0,0,0,242,184.493Z" transform="translate(-201.882 -151.897)" fill="#fc6a57"/>
      <path id="Path_6325" data-name="Path 6325" d="M314.467,422h-9.974A2.494,2.494,0,0,0,302,424.493v9.974a2.494,2.494,0,0,0,2.493,2.493h9.974a2.494,2.494,0,0,0,2.493-2.493v-9.974A2.494,2.494,0,0,0,314.467,422Z" transform="translate(-251.877 -352.176)" fill="#fc6a57"/>
      <path id="Path_6326" data-name="Path 6326" d="M257.641,2.493A2.494,2.494,0,0,0,255.147,0h-7.48V9.974h9.974Z" transform="translate(-206.557)" fill="#fc6a57"/>
      <path id="Path_6327" data-name="Path 6327" d="M36.183,0H2.493A2.494,2.494,0,0,0,0,2.493v7.48H36.183Z" fill="#fc6a57"/>
      <path id="Path_6328" data-name="Path 6328" d="M51.144,132.721v-2.493H42.721a7.489,7.489,0,0,1-7.48-7.48V107.787a7.489,7.489,0,0,1,7.48-7.48h8.422V90H0v42.721a2.494,2.494,0,0,0,2.493,2.493H48.65A2.494,2.494,0,0,0,51.144,132.721Zm-25.882-7.647H9.974a2.493,2.493,0,1,1,0-4.987H25.262a2.493,2.493,0,1,1,0,4.987Zm0-9.974H9.974a2.493,2.493,0,1,1,0-4.987H25.262a2.493,2.493,0,1,1,0,4.987Zm0-9.974H9.974a2.493,2.493,0,1,1,0-4.987H25.262a2.493,2.493,0,1,1,0,4.987Z" transform="translate(0 -75.161)" fill="#fc6a57"/>
      <path id="Path_6329" data-name="Path 6329" d="M356.935,229.58v14.532a2.5,2.5,0,0,1-2.493,2.493H339.48a7.489,7.489,0,0,0-7.48,7.48v2.493h4.987v-2.493a2.5,2.5,0,0,1,2.493-2.493h14.961a7.489,7.489,0,0,0,7.48-7.48v-7.48A7.492,7.492,0,0,0,356.935,229.58Z" transform="translate(-276.922 -191.631)" fill="#fc6a57"/>
    </g>
  </g>
</svg>
