<svg xmlns="http://www.w3.org/2000/svg" width="85" height="85.001" viewBox="0 0 85 85.001">
  <g id="pro_pass" transform="translate(-110 -1515.999)">
    <rect id="Rectangle_2666" data-name="Rectangle 2666" width="85" height="85" transform="translate(110 1516)" fill="none"/>
    <g id="password" transform="translate(111.617 1508.805)">
      <g id="Group_5431" data-name="Group 5431" transform="translate(8.909 7.194)">
        <path id="Path_6311" data-name="Path 6311" d="M23.8,354.5a1.256,1.256,0,0,0-1.709-.45l-3.131,1.817v-3.617a1.242,1.242,0,0,0-2.483,0v3.617l-3.131-1.817a1.25,1.25,0,1,0-1.26,2.159l3.149,1.835-3.149,1.835a1.25,1.25,0,0,0,1.26,2.159l3.131-1.817v3.617a1.242,1.242,0,1,0,2.483,0v-3.617l3.131,1.817a1.25,1.25,0,0,0,1.26-2.159L20.2,358.041l3.149-1.835A1.245,1.245,0,0,0,23.8,354.5Z" transform="translate(-9.406 -289.144)" fill="#fc6a57"/>
        <path id="Path_6312" data-name="Path 6312" d="M143.138,361.486a1.256,1.256,0,0,0,1.709.45l3.131-1.817v3.617a1.242,1.242,0,1,0,2.483,0v-3.617l3.131,1.817a1.25,1.25,0,1,0,1.26-2.159l-3.149-1.835,3.149-1.835a1.25,1.25,0,0,0-1.26-2.159l-3.131,1.817v-3.617a1.242,1.242,0,1,0-2.483,0v3.617l-3.131-1.8a1.25,1.25,0,0,0-1.259,2.159l3.149,1.835-3.149,1.817A1.256,1.256,0,0,0,143.138,361.486Z" transform="translate(-117.246 -289.062)" fill="#fc6a57"/>
        <path id="Path_6313" data-name="Path 6313" d="M131.5,457.76v2.2a.96.96,0,0,0,.954.954H147.19a.96.96,0,0,0,.954-.954v-2.2a.96.96,0,0,0-.954-.954H132.454A.948.948,0,0,0,131.5,457.76Z" transform="translate(-107.839 -375.907)" fill="#fc6a57"/>
        <path id="Path_6314" data-name="Path 6314" d="M172.006,27.69H171.9V22.8c0-8.511-6.963-15.744-15.456-15.6A15.239,15.239,0,0,0,141.49,22.4v.468a1.282,1.282,0,0,0,1.277,1.278h4.084a1.282,1.282,0,0,0,1.277-1.278v-.144a8.775,8.775,0,0,1,8.007-8.871,8.563,8.563,0,0,1,9.1,8.529v5.29h-12.6v.018H141a4.014,4.014,0,0,0-3.9,3.994V53.816a4.016,4.016,0,0,0,4.012,4.012h30.876A4.016,4.016,0,0,0,176,53.816V31.7A3.989,3.989,0,0,0,172.006,27.69ZM158.943,43.758a.864.864,0,0,0-.4.81c.018,1.619.018,3.239,0,4.876h0a1.707,1.707,0,0,1-.918,1.637,1.9,1.9,0,0,1-2.843-1.637V44.55a.849.849,0,0,0-.36-.774,3.7,3.7,0,0,1-1.223-4.57,3.783,3.783,0,0,1,7.233,1.493A3.426,3.426,0,0,1,158.943,43.758Z" transform="translate(-124.577 -7.194)" fill="#fc6a57"/>
        <path id="Path_6315" data-name="Path 6315" d="M262.9,457.76v2.2a.96.96,0,0,0,.954.954H278.59a.96.96,0,0,0,.954-.954v-2.2a.96.96,0,0,0-.954-.954H263.854A.96.96,0,0,0,262.9,457.76Z" transform="translate(-215.596 -375.907)" fill="#fc6a57"/>
        <path id="Path_6316" data-name="Path 6316" d="M274.538,361.486a1.256,1.256,0,0,0,1.709.45l3.131-1.817v3.617a1.242,1.242,0,0,0,2.483,0v-3.617l3.131,1.817a1.25,1.25,0,0,0,1.259-2.159l-3.149-1.835,3.149-1.835a1.25,1.25,0,0,0-1.259-2.159l-3.131,1.817v-3.617a1.242,1.242,0,1,0-2.483,0v3.617l-3.131-1.817a1.25,1.25,0,0,0-1.259,2.159l3.149,1.835-3.149,1.835A1.256,1.256,0,0,0,274.538,361.486Z" transform="translate(-225.003 -289.062)" fill="#fc6a57"/>
        <path id="Path_6318" data-name="Path 6318" d="M.954,460.908H15.69a.96.96,0,0,0,.954-.954v-2.2a.96.96,0,0,0-.954-.954H.954A.96.96,0,0,0,0,457.76v2.2A.96.96,0,0,0,.954,460.908Z" transform="translate(0 -375.907)" fill="#fc6a57"/>
      </g>
    </g>
  </g>
</svg>
