<svg xmlns="http://www.w3.org/2000/svg" width="85.988" height="86" viewBox="0 0 85.988 86">
  <g id="pro_wh" transform="translate(-109.506 -1515.5)">
    <rect id="Rectangle_2666" data-name="Rectangle 2666" width="85" height="85" transform="translate(110 1516)" fill="none"/>
    <g id="Group_5445" data-name="Group 5445" transform="translate(109.967 1516)">
      <path id="Path_6361" data-name="Path 6361" d="M253.725,246.46,244.05,265.6a29.24,29.24,0,0,1,3.007-12.6A13.039,13.039,0,0,1,253.725,246.46Z" transform="translate(-203.501 -205.544)" fill="#fc6a57" stroke="rgba(0,0,0,0)" stroke-width="1"/>
      <path id="Path_6362" data-name="Path 6362" d="M269.912,254.58a12.947,12.947,0,0,1-1.313,9.25,29.258,29.258,0,0,1-8.359,9.878Z" transform="translate(-217.003 -212.316)" fill="#fc6a57" stroke="rgba(0,0,0,0)" stroke-width="1"/>
      <path id="Path_6363" data-name="Path 6363" d="M116.229,220.325h6.865v-2.882a7.158,7.158,0,0,0-7.15-7.149H64.167a19.4,19.4,0,0,1-7.137-1.345v30.379A10.482,10.482,0,0,0,67.5,249.8h48.443a7.158,7.158,0,0,0,7.15-7.15v-4.174h-6.865a5.647,5.647,0,0,1-5.641-5.641v-6.868A5.647,5.647,0,0,1,116.229,220.325ZM64.984,226.1a1.5,1.5,0,0,1,1.061-.44h9.211a1.5,1.5,0,0,1,0,3H66.045a1.5,1.5,0,0,1-1.061-2.563Zm0,6.006a1.5,1.5,0,0,1,1.061-.44H81.262a1.5,1.5,0,0,1,0,3H66.045a1.5,1.5,0,0,1-1.061-2.563Zm-.44,7.067a1.5,1.5,0,0,1,1.5-1.5H81.262a1.5,1.5,0,0,1,0,3H66.045A1.5,1.5,0,0,1,64.544,239.176Zm4.831,8.767a2.85,2.85,0,1,1,2.85-2.85A2.851,2.851,0,0,1,69.375,247.944Zm32.431-20.813a31.241,31.241,0,0,1-6.307,8.442l0,0-.083.08c-.136.128-.271.254-.407.379q-.1.1-.229.209a38.336,38.336,0,0,1-4.046,3.141.319.319,0,0,1-.043.028l0,0a27.833,27.833,0,0,1-2.593,1.531L85.6,245.86a1.5,1.5,0,0,1-1.34.825h-9.01a1.5,1.5,0,0,1,0-3h7.164a1.5,1.5,0,0,0,1.34-.825l1.65-3.264a32.884,32.884,0,0,1,3-19.238,19.177,19.177,0,0,1,2.329-3.594l0,0,.02-.025c.106-.128.212-.252.32-.374.174-.2.41-.453.694-.74a13.748,13.748,0,0,1,3-2.339v.012l.247-.141a12.192,12.192,0,0,1,5.5-1.63l.759,0,.448.6C101.917,212.377,106.239,218.363,101.806,227.13Zm14.423-6.8h6.865v-2.882a7.158,7.158,0,0,0-7.15-7.149H64.167a19.4,19.4,0,0,1-7.137-1.345v30.379A10.482,10.482,0,0,0,67.5,249.8h48.443a7.158,7.158,0,0,0,7.15-7.15v-4.174h-6.865a5.647,5.647,0,0,1-5.641-5.641v-6.868A5.647,5.647,0,0,1,116.229,220.325ZM64.984,226.1a1.5,1.5,0,0,1,1.061-.44h9.211a1.5,1.5,0,0,1,0,3H66.045a1.5,1.5,0,0,1-1.061-2.563Zm0,6.006a1.5,1.5,0,0,1,1.061-.44H81.262a1.5,1.5,0,0,1,0,3H66.045a1.5,1.5,0,0,1-1.061-2.563Zm-.44,7.067a1.5,1.5,0,0,1,1.5-1.5H81.262a1.5,1.5,0,0,1,0,3H66.045A1.5,1.5,0,0,1,64.544,239.176Zm4.831,8.767a2.85,2.85,0,1,1,2.85-2.85A2.851,2.851,0,0,1,69.375,247.944Zm32.431-20.813a31.241,31.241,0,0,1-6.307,8.442l0,0-.083.08c-.136.128-.271.254-.407.379q-.1.1-.229.209a38.336,38.336,0,0,1-4.046,3.141.319.319,0,0,1-.043.028l0,0a27.833,27.833,0,0,1-2.593,1.531L85.6,245.86a1.5,1.5,0,0,1-1.34.825h-9.01a1.5,1.5,0,0,1,0-3h7.164a1.5,1.5,0,0,0,1.34-.825l1.65-3.264a32.884,32.884,0,0,1,3-19.238,19.177,19.177,0,0,1,2.329-3.594l0,0,.02-.025c.106-.128.212-.252.32-.374.174-.2.41-.453.694-.74a13.748,13.748,0,0,1,3-2.339v.012l.247-.141a12.192,12.192,0,0,1,5.5-1.63l.759,0,.448.6C101.917,212.377,106.239,218.363,101.806,227.13Zm14.423-6.8h6.865v-2.882a7.158,7.158,0,0,0-7.15-7.149H64.167a19.4,19.4,0,0,1-7.137-1.345v30.379A10.482,10.482,0,0,0,67.5,249.8h48.443a7.158,7.158,0,0,0,7.15-7.15v-4.174h-6.865a5.647,5.647,0,0,1-5.641-5.641v-6.868A5.647,5.647,0,0,1,116.229,220.325ZM64.984,226.1a1.5,1.5,0,0,1,1.061-.44h9.211a1.5,1.5,0,0,1,0,3H66.045a1.5,1.5,0,0,1-1.061-2.563Zm0,6.006a1.5,1.5,0,0,1,1.061-.44H81.262a1.5,1.5,0,0,1,0,3H66.045a1.5,1.5,0,0,1-1.061-2.563Zm-.44,7.067a1.5,1.5,0,0,1,1.5-1.5H81.262a1.5,1.5,0,0,1,0,3H66.045A1.5,1.5,0,0,1,64.544,239.176Zm4.831,8.767a2.85,2.85,0,1,1,2.85-2.85A2.851,2.851,0,0,1,69.375,247.944Zm32.431-20.813a31.241,31.241,0,0,1-6.307,8.442l0,0-.083.08c-.136.128-.271.254-.407.379q-.1.1-.229.209a38.336,38.336,0,0,1-4.046,3.141.319.319,0,0,1-.043.028l0,0a27.833,27.833,0,0,1-2.593,1.531L85.6,245.86a1.5,1.5,0,0,1-1.34.825h-9.01a1.5,1.5,0,0,1,0-3h7.164a1.5,1.5,0,0,0,1.34-.825l1.65-3.264a32.884,32.884,0,0,1,3-19.238,19.177,19.177,0,0,1,2.329-3.594l0,0,.02-.025c.106-.128.212-.252.32-.374.174-.2.41-.453.694-.74a13.748,13.748,0,0,1,3-2.339v.012l.247-.141a12.192,12.192,0,0,1,5.5-1.63l.759,0,.448.6C101.917,212.377,106.239,218.363,101.806,227.13Z" transform="translate(-47.529 -174.261)" fill="#fc6a57" stroke="rgba(0,0,0,0)" stroke-width="1"/>
      <path id="Path_6364" data-name="Path 6364" d="M135.222,80.06H83.432a3.32,3.32,0,0,0,0,6.641h51.79a3.32,3.32,0,0,0,0-6.641Z" transform="translate(-66.794 -66.769)" fill="#fc6a57" stroke="rgba(0,0,0,0)" stroke-width="1"/>
      <path id="Path_6365" data-name="Path 6365" d="M81.708,23.418a3.32,3.32,0,0,0,3.319-3.32V16.612A16.631,16.631,0,0,0,68.415,0S16.376.008,16.248.023A16.941,16.941,0,0,0,4.627,5.234,16.359,16.359,0,0,0,.05,17.186C.043,17.271.04,65.068.04,65.068A19.955,19.955,0,0,0,19.972,85H68.415A16.63,16.63,0,0,0,85.027,68.388V43.182A16.63,16.63,0,0,0,68.415,26.571H16.638a9.939,9.939,0,0,1-9.948-9.484A9.783,9.783,0,0,1,9.43,9.818a10.271,10.271,0,0,1,7.4-3.166l51.588-.013a9.984,9.984,0,0,1,9.973,9.973V20.1A3.32,3.32,0,0,0,81.708,23.418Zm-65.07,9.793H68.415a9.983,9.983,0,0,1,9.973,9.971v5.7H68.7a2.818,2.818,0,0,0-2.819,2.819v6.868A2.818,2.818,0,0,0,68.7,61.393h9.687v7a9.984,9.984,0,0,1-9.973,9.973H19.972A13.308,13.308,0,0,1,6.679,65.068V29.9A16.557,16.557,0,0,0,16.638,33.211ZM72.3,55.139a1.576,1.576,0,1,1-1.575-1.575A1.576,1.576,0,0,1,72.3,55.139Z" fill="#fc6a57" stroke="rgba(0,0,0,0)" stroke-width="1"/>
    </g>
  </g>
</svg>
