<svg xmlns="http://www.w3.org/2000/svg" width="85.77" height="85" viewBox="0 0 85.77 85">
  <g id="pro_rateus" transform="translate(-110 -1130)">
    <rect id="Rectangle_2666" data-name="Rectangle 2666" width="85" height="85" rx="16" transform="translate(110 1130)" fill="none"/>
    <path id="rating" d="M13.786,52.169a3.326,3.326,0,0,0,4.615-.915A28.935,28.935,0,0,1,66.437,51.2a3.327,3.327,0,0,0,5.521-3.714,35.506,35.506,0,0,0-17.5-13.624,18.8,18.8,0,1,0-23.836-.074A35.5,35.5,0,0,0,12.871,47.554,3.327,3.327,0,0,0,13.786,52.169Zm28.8-45.015A12.143,12.143,0,1,1,30.44,19.3,12.157,12.157,0,0,1,42.583,7.154ZM55.85,59.406l-4.96,3.578a2.082,2.082,0,0,0-.765,2.337l2,5.789a2.1,2.1,0,0,1,.106.75,2.193,2.193,0,0,1-3.449,1.587l-4.959-3.579a2.118,2.118,0,0,0-2.475,0l-4.959,3.579a2.192,2.192,0,0,1-3.449-1.587,2.133,2.133,0,0,1,.108-.75l2-5.789a2.082,2.082,0,0,0-.765-2.337l-4.96-3.578a2.244,2.244,0,0,1,1.238-4.014h6.13a1.916,1.916,0,0,0,2-1.212l1.894-5.826a2.11,2.11,0,0,1,4,0L46.48,54.18a1.916,1.916,0,0,0,2,1.212h6.13A2.244,2.244,0,0,1,55.85,59.406ZM84.294,71.05l-4.96,3.578a2.082,2.082,0,0,0-.765,2.337l2,5.789a2.1,2.1,0,0,1,.106.75,2.193,2.193,0,0,1-3.449,1.587l-4.959-3.579a2.118,2.118,0,0,0-2.475,0l-4.959,3.579A2.192,2.192,0,0,1,61.381,83.5a2.133,2.133,0,0,1,.108-.75l2-5.789a2.082,2.082,0,0,0-.765-2.337l-4.96-3.578A2.244,2.244,0,0,1,59,67.036h6.13a1.916,1.916,0,0,0,2-1.212L69.025,60a2.11,2.11,0,0,1,4,0l1.894,5.826a1.916,1.916,0,0,0,2,1.212h6.13A2.244,2.244,0,0,1,84.294,71.05Zm-56.888,0-4.96,3.578a2.082,2.082,0,0,0-.765,2.337l2,5.789a2.1,2.1,0,0,1,.106.75,2.193,2.193,0,0,1-3.449,1.587l-4.96-3.579a2.118,2.118,0,0,0-2.475,0L7.942,85.091A2.192,2.192,0,0,1,4.493,83.5a2.132,2.132,0,0,1,.108-.75l2-5.789a2.082,2.082,0,0,0-.765-2.337L.872,71.05A2.244,2.244,0,0,1,2.11,67.036H8.24a1.916,1.916,0,0,0,2-1.212L12.137,60a2.11,2.11,0,0,1,4,0l1.894,5.826a1.916,1.916,0,0,0,2,1.212h6.13A2.244,2.244,0,0,1,27.406,71.05Z" transform="translate(110.604 1129.5)" fill="#fc6a57"/>
  </g>
</svg>
