<svg xmlns="http://www.w3.org/2000/svg" width="85" height="86.03" viewBox="0 0 85 86.03">
  <g id="pro_trackorder" transform="translate(-110 -1901.484)">
    <rect id="Rectangle_2666" data-name="Rectangle 2666" width="85" height="85" rx="16" transform="translate(110 1902)" fill="none"/>
    <g id="Group_5212" data-name="Group 5212" transform="translate(114.588 1902)">
      <g id="Group_5211" data-name="Group 5211" transform="translate(0 0)">
        <path id="Path_5918" data-name="Path 5918" d="M451.715,251.4l-32.9,19.737a1.121,1.121,0,0,0-.543.959v36.766a1.118,1.118,0,0,0,1.677.968l32.9-18.992a1.125,1.125,0,0,0,.559-.969V252.353A1.119,1.119,0,0,0,451.715,251.4Zm-72.479,0a1.119,1.119,0,0,0-1.7.957v37.513a1.125,1.125,0,0,0,.559.969L411,309.827a1.118,1.118,0,0,0,1.678-.968V272.093a1.115,1.115,0,0,0-.543-.957Zm20.082,34.06-1.664-.892v5.618c0,.754-.613,1.035-1.365.633l-4.254-2.281a2.693,2.693,0,0,1-1.367-2.1v-5.62L389,279.925c-1.17-.626-1.8-2.337-1.031-2.811l5.158-3.178c.544-.336,1.517.186,2.06,1.1l5.158,8.709C401.115,285.044,400.487,286.082,399.317,285.456Z" transform="translate(-377.54 -224.979)" fill="#fc6a57" stroke="rgba(0,0,0,0)" stroke-width="1"/>
        <path id="Path_5919" data-name="Path 5919" d="M426.4,246.759l-12.313-7.11a1.122,1.122,0,0,0-1.118,0l-33.3,19.232a1.12,1.12,0,0,0-.018,1.929l12.711,7.627a1.116,1.116,0,0,0,1.15,0l32.906-19.748A1.119,1.119,0,0,0,426.4,246.759Zm22.217,12.162L443.013,246.7a1.119,1.119,0,0,0-1.593-.492l-33.3,19.988a1.117,1.117,0,0,0-.45,1.4l5.357,12.374a1.116,1.116,0,0,0,1.6.514l33.555-20.138A1.117,1.117,0,0,0,448.621,258.921Z" transform="translate(-375.596 -239.499)" fill="#fc6a57" stroke="rgba(0,0,0,0)" stroke-width="1"/>
      </g>
    </g>
  </g>
</svg>
