<svg xmlns="http://www.w3.org/2000/svg" width="85" height="85" viewBox="0 0 85 85">
  <g id="pro_address" transform="translate(-110 -1709)">
    <rect id="Rectangle_2666" data-name="Rectangle 2666" width="85" height="85" rx="16" transform="translate(110 1709)" fill="none"/>
    <g id="Group_5210" data-name="Group 5210" transform="translate(112.039 1709)">
      <g id="Group_5209" data-name="Group 5209" transform="translate(0 0)">
        <path id="Path_5916" data-name="Path 5916" d="M111.414,343.746a66.4,66.4,0,0,1-6.132,5.836A31.609,31.609,0,0,1,77,380.508V317.7c.085.009.168.028.253.039a23.142,23.142,0,0,1,1.87-6.315,38.441,38.441,0,1,0,32.295,32.32ZM58.7,321.345c-3.891,6.441-6.371,15.416-6.685,25.583H42.267A31.591,31.591,0,0,1,58.7,321.345ZM42.493,353.46H52.1c.577,9.274,2.99,17.426,6.6,23.405A31.625,31.625,0,0,1,42.493,353.46Zm27.97,26.456c-6.4-3.042-10.875-14.726-11.787-26.456H70.463Zm0-32.988H58.544c.492-12.426,5.122-25.4,11.92-28.631Z" transform="translate(-35.623 -302.28)" fill="#fc6a57"/>
        <path id="Path_5917" data-name="Path 5917" d="M74.876,307a18.836,18.836,0,0,0-2,.107c-9.712,1.033-17.031,10.373-16.185,20.1,1.107,12.747,12.828,22.25,16.845,25.154a2.189,2.189,0,0,0,2.638-.048c4.168-3.257,16.974-14.3,16.974-27.044A18.272,18.272,0,0,0,74.876,307Zm0,26.8a8.526,8.526,0,1,1,8.526-8.526A8.526,8.526,0,0,1,74.876,333.8Z" transform="translate(-10.93 -307)" fill="#fc6a57"/>
      </g>
    </g>
  </g>
</svg>
