<svg xmlns="http://www.w3.org/2000/svg" width="85.189" height="85" viewBox="0 0 85.189 85">
  <g id="pro_aboutus" transform="translate(-109.811 -1516)">
    <rect id="Rectangle_2666" data-name="Rectangle 2666" width="85" height="85" rx="16" transform="translate(110 1516)" fill="none"/>
    <g id="Group_5229" data-name="Group 5229" transform="translate(109.811 1516)">
      <g id="Group_5228" data-name="Group 5228" transform="translate(0 0)">
        <path id="Path_5930" data-name="Path 5930" d="M418.5,308A42.5,42.5,0,1,0,461,350.5,42.548,42.548,0,0,0,418.5,308Zm0,75.811A33.311,33.311,0,1,1,451.811,350.5,33.349,33.349,0,0,1,418.5,383.811Z" transform="translate(-376 -308)" fill="#fc6a57"/>
        <path id="Path_5931" data-name="Path 5931" d="M401.8,330.1a7.8,7.8,0,1,0-7.834-7.8A7.815,7.815,0,0,0,401.8,330.1Zm7.611,15.916a8.913,8.913,0,0,0-8.707-10.944h-6.756a2.3,2.3,0,0,0-2.3,2.293,1.938,1.938,0,0,0,.574,1.319,4.839,4.839,0,0,1,1.339,4.444l-3.521,14.315a8.915,8.915,0,0,0,8.71,10.944h6.753a2.3,2.3,0,0,0,2.3-2.293,1.946,1.946,0,0,0-.571-1.319,4.825,4.825,0,0,1-1.339-4.444Z" transform="translate(-358.14 -299.516)" fill="#fc6a57"/>
      </g>
    </g>
  </g>
</svg>
