<svg xmlns="http://www.w3.org/2000/svg" width="85" height="85" viewBox="0 0 85 85">
  <g id="pro_setting" transform="translate(-110 -1516)">
    <rect id="Rectangle_2666" data-name="Rectangle 2666" width="85" height="85" rx="16" transform="translate(110 1516)" fill="none"/>
    <g id="settings" transform="translate(115.086 1516)">
      <g id="Group_5204" data-name="Group 5204" transform="translate(0)">
        <g id="Group_5203" data-name="Group 5203" transform="translate(0)">
          <path id="Path_5913" data-name="Path 5913" d="M67.52,0a7.483,7.483,0,0,0-7.253,5.684A37.527,37.527,0,0,0,30,42.5a2.49,2.49,0,1,0,4.98,0A32.553,32.553,0,0,1,60.767,10.663,7.47,7.47,0,1,0,67.52,0Z" transform="translate(-30)" fill="#fc6a57"/>
        </g>
      </g>
      <g id="Group_5206" data-name="Group 5206" transform="translate(15.107 20.088)">
        <g id="Group_5205" data-name="Group 5205" transform="translate(0)">
          <path id="Path_5914" data-name="Path 5914" d="M164.756,138.889a17.723,17.723,0,0,0-2.565-1.434l-1.289-3.113a17.839,17.839,0,0,0,.8-2.827,2.49,2.49,0,0,0-.69-2.2l-3.5-3.5a2.489,2.489,0,0,0-2.2-.69,17.71,17.71,0,0,0-2.827.8l-3.113-1.289a17.8,17.8,0,0,0-1.434-2.565A2.491,2.491,0,0,0,145.889,121h-4.953a2.49,2.49,0,0,0-2.045,1.068,17.728,17.728,0,0,0-1.434,2.565l-3.113,1.289a17.837,17.837,0,0,0-2.827-.8,2.492,2.492,0,0,0-2.2.69l-3.5,3.5a2.49,2.49,0,0,0-.69,2.2,17.716,17.716,0,0,0,.8,2.827l-1.289,3.113a17.811,17.811,0,0,0-2.565,1.434A2.49,2.49,0,0,0,121,140.934v4.953a2.49,2.49,0,0,0,1.068,2.045,17.711,17.711,0,0,0,2.565,1.434l1.289,3.113a17.835,17.835,0,0,0-.8,2.827,2.49,2.49,0,0,0,.69,2.2l3.5,3.5a2.491,2.491,0,0,0,2.2.69,17.72,17.72,0,0,0,2.827-.8l3.113,1.289a17.808,17.808,0,0,0,1.434,2.565,2.49,2.49,0,0,0,2.045,1.068h4.953a2.491,2.491,0,0,0,2.045-1.068,17.73,17.73,0,0,0,1.434-2.565l3.113-1.289a17.841,17.841,0,0,0,2.827.8,2.49,2.49,0,0,0,2.2-.69l3.5-3.5a2.49,2.49,0,0,0,.69-2.2,17.7,17.7,0,0,0-.8-2.827l1.289-3.113a17.791,17.791,0,0,0,2.565-1.434,2.49,2.49,0,0,0,1.068-2.045v-4.953A2.49,2.49,0,0,0,164.756,138.889Zm-21.344,14.482a9.961,9.961,0,1,1,9.961-9.961A9.972,9.972,0,0,1,143.412,153.371Z" transform="translate(-121 -120.998)" fill="#fc6a57"/>
        </g>
      </g>
      <g id="Group_5208" data-name="Group 5208" transform="translate(30.049 40.01)">
        <g id="Group_5207" data-name="Group 5207" transform="translate(0)">
          <path id="Path_5915" data-name="Path 5915" d="M253.5,241a2.49,2.49,0,0,0-2.49,2.49,32.553,32.553,0,0,1-25.786,31.838,7.469,7.469,0,1,0,.5,4.979A37.527,37.527,0,0,0,255.99,243.49,2.49,2.49,0,0,0,253.5,241Z" transform="translate(-211 -241)" fill="#fc6a57"/>
        </g>
      </g>
    </g>
  </g>
</svg>
