<svg xmlns="http://www.w3.org/2000/svg" width="85" height="86.222" viewBox="0 0 85 86.222">
  <g id="pro_myorder" transform="translate(-97.095 -932.874)">
    <g id="Group_5427" data-name="Group 5427" transform="translate(97.361 934.361)">
      <rect id="Rectangle_2666" data-name="Rectangle 2666" width="85" height="85" rx="16" transform="translate(-0.266 -0.266)" fill="none"/>
      <path id="Path_5904" data-name="Path 5904" d="M344.022,123.7a20.4,20.4,0,1,0,20.4,20.4A20.4,20.4,0,0,0,344.022,123.7Zm-1,16.784,4.607,2.371a6.953,6.953,0,0,1,3.717,7.4,6.768,6.768,0,0,1-3.986,5.2v.614a2.833,2.833,0,0,1-5.666,0v-.428a8.376,8.376,0,0,1-5.049-4.612,2.833,2.833,0,0,1,5.2-2.257,2.734,2.734,0,0,0,2.738,1.627,1.2,1.2,0,0,0,1.172-1.042,1.355,1.355,0,0,0-.714-1.466l-4.607-2.371a6.985,6.985,0,0,1-3.681-7.551,6.792,6.792,0,0,1,4.945-5.426v-.422a2.833,2.833,0,1,1,5.666,0v1.047a8.3,8.3,0,0,1,4.039,4.163,2.834,2.834,0,1,1-5.2,2.262,2.728,2.728,0,0,0-2.738-1.63,1.213,1.213,0,0,0-1.147,1.045A1.306,1.306,0,0,0,343.023,140.487Z" transform="translate(-286.992 -79.764)" fill="#fc6a57"/>
      <path id="Path_5905" data-name="Path 5905" d="M364.681,104.793l-5.02,2.71a2.294,2.294,0,0,1-2.169,0l-7.286-3.932a2.286,2.286,0,0,0-2.171,0l-7.27,3.93a2.286,2.286,0,0,1-2.171,0l-7.268-3.927a2.274,2.274,0,0,0-2.171,0l-7.266,3.927a2.284,2.284,0,0,1-2.173,0l-4.986-2.7a2.266,2.266,0,0,0-3.354,1.967v71.879a2.266,2.266,0,0,0,3.352,1.969l5.02-2.707a2.282,2.282,0,0,1,2.169,0l7.286,3.93a2.286,2.286,0,0,0,2.171,0l4.27-2.308a25.4,25.4,0,0,1-2.171-10.275A26.031,26.031,0,0,1,368.033,144.9V106.763A2.267,2.267,0,0,0,364.681,104.793Zm-38.575,54.474h-3.4a2.8,2.8,0,1,1,0-5.608h3.4a2.8,2.8,0,1,1,0,5.608Zm6.636-11.215H322.707a2.8,2.8,0,1,1,0-5.607h10.035a2.8,2.8,0,1,1,0,5.607Zm23.4-11.215h-33.44a2.8,2.8,0,1,1,0-5.608h33.44a2.8,2.8,0,1,1,0,5.608Zm0-11.215h-33.44a2.8,2.8,0,1,1,0-5.607h33.44a2.8,2.8,0,1,1,0,5.607Z" transform="translate(-301.859 -104.784)" fill="#fc6a57"/>
    </g>
  </g>
</svg>
