<svg xmlns="http://www.w3.org/2000/svg" width="85" height="85" viewBox="0 0 85 85">
  <g id="pro_referral" transform="translate(0 -0.011)">
    <rect id="Rectangle_2666" data-name="Rectangle 2666" width="85" height="85" transform="translate(0 0.011)" fill="none"/>
    <g id="referral" transform="translate(0 0.032)">
      <circle id="Ellipse_494" data-name="Ellipse 494" cx="5.724" cy="5.724" r="5.724" transform="translate(41.507 5.724)" fill="#fc6a57"/>
      <ellipse id="Ellipse_495" data-name="Ellipse 495" cx="6.44" cy="5.724" rx="6.44" ry="5.724" transform="translate(20.04 5.724)" fill="#fc6a57"/>
      <path id="Path_6446" data-name="Path 6446" d="M35.146,17l-1.1,11.162,1.4,1.4,1.4-1.4L35.718,17h-.572Z" transform="translate(11.452 3.514)" fill="#fc6a57"/>
      <path id="Path_6447" data-name="Path 6447" d="M13,28.243v5.862H30.58V28.243a14.569,14.569,0,0,1,2.51-8.19A11.663,11.663,0,0,0,30.371,18a5.834,5.834,0,0,1-11.316,0A11.729,11.729,0,0,0,13,28.243Z" transform="translate(1.652 3.989)" fill="#fc6a57"/>
      <path id="Path_6448" data-name="Path 6448" d="M19.026,17.374a2.912,2.912,0,0,0,5.785,0,11.36,11.36,0,0,0-5.785,0Z" transform="translate(4.455 3.514)" fill="#fc6a57"/>
      <path id="Path_6449" data-name="Path 6449" d="M23,35h2.928V52.58H23Z" transform="translate(6.304 11.884)" fill="#fc6a57"/>
      <path id="Path_6450" data-name="Path 6450" d="M10.464,39A1.464,1.464,0,0,0,9,40.466v5.862a1.464,1.464,0,0,0,1.464,1.464h4.4a23.59,23.59,0,0,1,11.724,3.159V35.843A23.591,23.591,0,0,1,14.867,39Z" transform="translate(-0.21 12.274)" fill="#fc6a57"/>
      <path id="Path_6451" data-name="Path 6451" d="M27,38.184V46.44a4.37,4.37,0,0,0,0-8.256Z" transform="translate(8.166 13.368)" fill="#fc6a57"/>
      <path id="Path_6452" data-name="Path 6452" d="M45.486,31H7.4A4.4,4.4,0,0,0,3,35.4V61.768a4.4,4.4,0,0,0,4.4,4.4H26.987l9.764,8.366a1.745,1.745,0,0,0,2.879-1.321V66.166h5.862a4.4,4.4,0,0,0,4.4-4.4V35.4A4.4,4.4,0,0,0,45.486,31Zm-7.32,21.829V57.37H30.35l-.38-.292a20.569,20.569,0,0,0-6.445-3.225v4.981a4.4,4.4,0,1,1-8.807,0V52.978H13.254a4.4,4.4,0,0,1-4.4-4.4V42.724a4.4,4.4,0,0,1,4.4-4.4h4.4a20.641,20.641,0,0,0,12.313-4.1l.391-.292h7.816v4.541a7.326,7.326,0,0,1,0,14.355ZM46.972,60.3a2.934,2.934,0,0,1-2.928,2.928h-2.95V60.3h2.928V51.5H46.95Z" transform="translate(-3 10.022)" fill="#fc6a57"/>
      <path id="Path_6453" data-name="Path 6453" d="M27,28.573v5.862H50.442V28.573A11.735,11.735,0,0,0,42,17.328l1.178,11.79-4.458,4.453L34.26,29.113l1.178-11.79A11.74,11.74,0,0,0,27,28.573Z" transform="translate(8.166 3.659)" fill="#fc6a57"/>
      <circle id="Ellipse_496" data-name="Ellipse 496" cx="5.724" cy="5.724" r="5.724" transform="translate(61.547 5.724)" fill="#fc6a57"/>
      <path id="Path_6454" data-name="Path 6454" d="M43.287,20.053a14.569,14.569,0,0,1,2.51,8.19v5.862h17.58V28.243A11.729,11.729,0,0,0,57.311,18a5.834,5.834,0,0,1-11.305,0,11.674,11.674,0,0,0-2.719,2.064Z" transform="translate(15.739 3.989)" fill="#fc6a57"/>
      <path id="Path_6455" data-name="Path 6455" d="M80.79,3H13.4A4.4,4.4,0,0,0,9,7.4V41.094h2.928V35.232a14.668,14.668,0,0,1,9.236-13.6,8.807,8.807,0,1,1,10.827,0,14.558,14.558,0,0,1,4.855,3.148,14.657,14.657,0,0,1,4.833-3.148,8.807,8.807,0,1,1,10.832,0,14.707,14.707,0,0,1,4.833,3.148A14.564,14.564,0,0,1,62.2,21.631a8.807,8.807,0,1,1,10.827,0,14.668,14.668,0,0,1,9.236,13.6v8.807H48.52a7.254,7.254,0,0,1,1.354,2.928h9.484l9.764,8.372A1.745,1.745,0,0,0,72,54.018V46.956h8.807a4.4,4.4,0,0,0,4.4-4.4V7.4A4.4,4.4,0,0,0,80.79,3ZM14.862,23.514H11.928V20.58h2.928ZM17.807,8.862H14.878v8.807h-2.95V8.862a2.934,2.934,0,0,1,2.928-2.928h2.95ZM82.271,20.586H79.343V17.652h2.928Zm0-5.862H79.343V11.807h2.928Zm0-5.862H79.343V5.928h2.928Z" transform="translate(-0.21 -3)" fill="#fc6a57"/>
      <path id="Path_6456" data-name="Path 6456" d="M47.026,17.374a2.912,2.912,0,0,0,5.785,0,11.36,11.36,0,0,0-5.785,0Z" transform="translate(17.477 3.514)" fill="#fc6a57"/>
      <path id="Path_6457" data-name="Path 6457" d="M13,51.862a1.464,1.464,0,1,0,2.928,0V46.226A20.214,20.214,0,0,0,13,46Z" transform="translate(1.652 17)" fill="#fc6a57"/>
    </g>
  </g>
</svg>
