<svg xmlns="http://www.w3.org/2000/svg" width="85" height="85" viewBox="0 0 85 85">
  <g id="pro_th" transform="translate(-110 -1516)">
    <rect id="Rectangle_2666" data-name="Rectangle 2666" width="85" height="85" transform="translate(110 1516)" fill="none"/>
    <g id="Group_5446" data-name="Group 5446" transform="translate(76.705 1512)">
      <path id="Path_6366" data-name="Path 6366" d="M71.687,38A1.69,1.69,0,0,0,70,39.688v66.849a3.717,3.717,0,0,1,4.311.685l3.245,3.245,5.564-3.709a3.71,3.71,0,0,1,4.118,0l6.036,4.024,6.036-4.026a3.719,3.719,0,0,1,4.117,0l5.565,3.712,3.245-3.247a3.719,3.719,0,0,1,4.311-.683V39.687A9.135,9.135,0,0,1,116.7,38Zm4.722,58.353a2.024,2.024,0,0,1-4.048,0V85.559a2.024,2.024,0,1,1,4.048,0Zm5.4,0a2.024,2.024,0,0,1-4.048,0V85.559a2.024,2.024,0,1,1,4.048,0Zm8.1,0a2.024,2.024,0,0,1-4.048,0V85.559a2.024,2.024,0,1,1,4.048,0Zm5.4,0a2.024,2.024,0,0,1-4.048,0V85.559a2.024,2.024,0,1,1,4.048,0Zm5.4,0a2.024,2.024,0,0,1-4.048,0V85.559a2.024,2.024,0,1,1,4.048,0Zm-10.119-39.8h5.4a7.421,7.421,0,0,1,0,14.841H95.3v3.373a2.024,2.024,0,1,1-4.048,0V71.393H89.226a6.078,6.078,0,0,1-6.071-6.071,2.024,2.024,0,1,1,4.048,0,2.028,2.028,0,0,0,2.024,2.024h6.746a3.373,3.373,0,1,0,0-6.746h-5.4a7.421,7.421,0,0,1,0-14.841h.675V42.385a2.024,2.024,0,1,1,4.048,0v3.373h2.024a6.078,6.078,0,0,1,6.071,6.071,2.024,2.024,0,1,1-4.048,0,2.028,2.028,0,0,0-2.024-2.024H90.575a3.373,3.373,0,1,0,0,6.746Zm18.214,39.8a2.024,2.024,0,0,1-4.048,0V85.559a2.024,2.024,0,0,1,4.048,0Zm5.4,0a2.024,2.024,0,0,1-4.048,0V85.559a2.024,2.024,0,1,1,4.048,0Z" transform="translate(-28.271 -28.266)" fill="#fc6a57"/>
      <g id="_29-Receipt" data-name=" 29-Receipt" transform="translate(35.993 4)">
        <g id="filled">
          <path id="Path_6367" data-name="Path 6367" d="M113.574,14.794H104.8V11.421A7.429,7.429,0,0,0,97.383,4H43.415a7.428,7.428,0,0,0-7.421,7.421V86.976a2.037,2.037,0,0,0,3.456,1.43l3.862-3.862.1-.1.1.1,3.862,3.864a2.028,2.028,0,0,0,2.555.253l6.173-4.117.8-.533.8.533,6.173,4.115a2.024,2.024,0,0,0,2.246,0L72.3,84.544l.8-.533.8.533,6.173,4.115a2.021,2.021,0,0,0,2.553-.253l3.864-3.862.1-.1.1.1,3.864,3.864a2.037,2.037,0,0,0,3.454-1.432V51.222h14.167A7.429,7.429,0,0,0,115.6,43.8V16.817A2.023,2.023,0,0,0,113.574,14.794ZM85.158,80.147l-4.223,4.225-6.714-4.478a2.03,2.03,0,0,0-2.246,0L65,84.544,58.03,79.9a2.024,2.024,0,0,0-2.246,0L49.07,84.372l-4.223-4.223a2.025,2.025,0,0,0-2.864,0L40.042,82.09V11.421a3.376,3.376,0,0,1,3.373-3.373H90.774a7.379,7.379,0,0,0-.811,3.373V82.09L88.02,80.147A2.026,2.026,0,0,0,85.158,80.147ZM94.01,47.174V11.421a3.373,3.373,0,1,1,6.746,0V43.8a7.379,7.379,0,0,0,.811,3.373ZM111.55,43.8a3.373,3.373,0,1,1-6.746,0V18.841h6.746Z" transform="translate(-35.993 -4)" fill="#fc6a57"/>
        </g>
      </g>
    </g>
  </g>
</svg>
