<svg xmlns="http://www.w3.org/2000/svg" width="85.001" height="85.001" viewBox="0 0 85.001 85.001">
  <g id="pro_language" transform="translate(-110 -1516)">
    <rect id="Rectangle_2666" data-name="Rectangle 2666" width="85" height="85" transform="translate(110 1516)" fill="none"/>
    <g id="language" transform="translate(110 1516)">
      <g id="Group_5433" data-name="Group 5433" transform="translate(19.971 22.744)">
        <g id="Group_5432" data-name="Group 5432">
          <path id="Path_6319" data-name="Path 6319" d="M123.351,137h-1.066l-1.992,9.961h5.049Z" transform="translate(-120.293 -137)" fill="#fc6a57"/>
        </g>
      </g>
      <g id="Group_5435" data-name="Group 5435" transform="translate(63.315 42.667)">
        <g id="Group_5434" data-name="Group 5434">
          <path id="Path_6320" data-name="Path 6320" d="M381.374,257a26.023,26.023,0,0,0,4.088,7.216A26.289,26.289,0,0,0,389.717,257Z" transform="translate(-381.374 -257)" fill="#fc6a57"/>
        </g>
      </g>
      <g id="Group_5437" data-name="Group 5437" transform="translate(40.286 15.108)">
        <g id="Group_5436" data-name="Group 5436">
          <path id="Path_6321" data-name="Path 6321" d="M279.907,91H248.981l6.448,51.744a7.73,7.73,0,0,1-1.846,5.669l-10.92,12.48h37.244a7.479,7.479,0,0,0,7.471-7.471V98.637A7.623,7.623,0,0,0,279.907,91Zm0,27.559h-.665a31.6,31.6,0,0,1-6,10.908c1.829,1.672,3.786,3.044,5.73,4.581a2.49,2.49,0,0,1-3.113,3.886c-2.113-1.668-4.1-3.064-6.08-4.884-1.984,1.82-3.8,3.216-5.914,4.884a2.49,2.49,0,1,1-3.113-3.886c1.945-1.537,3.735-2.909,5.564-4.581a31.432,31.432,0,0,1-5.833-10.908h-.665a2.49,2.49,0,1,1,0-4.981h7.471v-2.49a2.49,2.49,0,1,1,4.98,0v2.49h7.637a2.49,2.49,0,0,1,0,4.981Z" transform="translate(-242.663 -91)" fill="#fc6a57"/>
        </g>
      </g>
      <g id="Group_5439" data-name="Group 5439">
        <g id="Group_5438" data-name="Group 5438">
          <path id="Path_6322" data-name="Path 6322" d="M40.535,6.544A7.481,7.481,0,0,0,33.123,0H7.471A7.479,7.479,0,0,0,0,7.471V62.589a7.479,7.479,0,0,0,7.471,7.471H46.742c.726-.83,1.335-1.35,1.361-2.434C48.11,67.353,40.569,6.814,40.535,6.544Zm-10,41.054a2.49,2.49,0,0,1-2.93-1.953l-1.592-7.96H18.975l-1.592,7.96a2.49,2.49,0,0,1-4.883-.978l4.98-24.9a2.492,2.492,0,0,1,2.442-2h5.147a2.492,2.492,0,0,1,2.442,2l4.981,24.9A2.49,2.49,0,0,1,30.538,47.6Z" fill="#fc6a57"/>
        </g>
      </g>
      <g id="Group_5441" data-name="Group 5441" transform="translate(29.096 75.04)">
        <g id="Group_5440" data-name="Group 5440">
          <path id="Path_6323" data-name="Path 6323" d="M175.261,452l.427,3.417a7.531,7.531,0,0,0,4.306,5.787l8.361-9.2Z" transform="translate(-175.261 -452)" fill="#fc6a57"/>
        </g>
      </g>
    </g>
  </g>
</svg>
