<svg xmlns="http://www.w3.org/2000/svg" width="85" height="85.002" viewBox="0 0 85 85.002">
  <g id="pro_pp" transform="translate(-110 -1516)">
    <rect id="Rectangle_2666" data-name="Rectangle 2666" width="85" height="85" transform="translate(110 1516)" fill="none"/>
    <g id="Group_5442" data-name="Group 5442" transform="translate(-1699.892 -100.719)">
      <path id="Path_6330" data-name="Path 6330" d="M1852.414,1616.719a47.548,47.548,0,0,1-32.249,12.29s-.044,35.742-.044,41c0,8.573,5.8,17.489,32.293,31.715,25.208-13.537,32.15-23.142,32.15-31.715,0-6.451.1-41,.1-41A47.548,47.548,0,0,1,1852.414,1616.719Zm-10.2,25.559c0-.055,0-.11.008-.165a10.022,10.022,0,0,1,19.913,0c.005.055.008.11.008.165v6.06H1858.6v-5.971a6.482,6.482,0,0,0-12.84,0v5.971h-3.544Zm25.6,34.189a5.316,5.316,0,0,1-5.316,5.316h-20.635a5.316,5.316,0,0,1-5.316-5.316v-19.091a5.316,5.316,0,0,1,5.316-5.316H1862.5a5.316,5.316,0,0,1,5.316,5.316Z" transform="translate(0 0)" fill="#fc6a57"/>
      <path id="Path_6331" data-name="Path 6331" d="M1990.1,1871.557a3.5,3.5,0,0,0-1.168,6.809v4.523a1.168,1.168,0,1,0,2.335,0v-4.523a3.5,3.5,0,0,0-1.167-6.809Z" transform="translate(-137.713 -210.805)" fill="#fc6a57"/>
    </g>
  </g>
</svg>
