<svg xmlns="http://www.w3.org/2000/svg" width="85" height="85" viewBox="0 0 85 85">
  <g id="pro_tc" transform="translate(-110 -1516)">
    <rect id="Rectangle_2666" data-name="Rectangle 2666" width="85" height="85" transform="translate(110 1516)" fill="none"/>
    <g id="accept" transform="translate(111.782 1516)">
      <path id="Path_6335" data-name="Path 6335" d="M60.755,38.795c.141,0,.282,0,.423,0h.036q1.19.021,2.359.15V10.029A10.041,10.041,0,0,0,53.545,0H10.03A10.041,10.041,0,0,0,0,10.029V67.715a10.041,10.041,0,0,0,10.029,10.03H39.082a25.517,25.517,0,0,1,21.673-38.95ZM35.968,16.375H50.831a2.49,2.49,0,1,1,0,4.98H35.968a2.49,2.49,0,0,1,0-4.98Zm0,9.962H50.831a2.49,2.49,0,1,1,0,4.98H35.968a2.49,2.49,0,0,1,0-4.98ZM27.605,61.369H12.743a2.49,2.49,0,1,1,0-4.98H27.605a2.49,2.49,0,1,1,0,4.98Zm0-10.128H12.743a2.49,2.49,0,0,1,0-4.98H27.605a2.49,2.49,0,0,1,0,4.98Zm0-9.962H12.743a2.49,2.49,0,1,1,0-4.98H27.605a2.49,2.49,0,1,1,0,4.98Zm0-9.962H12.743a2.49,2.49,0,1,1,0-4.98H27.605a2.49,2.49,0,1,1,0,4.98Zm0-9.962H12.743a2.49,2.49,0,0,1,0-4.98H27.605a2.49,2.49,0,0,1,0,4.98Zm5.873,17.433a2.49,2.49,0,0,1,2.49-2.49h7.158a2.49,2.49,0,1,1,0,4.98H35.968a2.49,2.49,0,0,1-2.49-2.49Zm0,0" fill="#fc6a57"/>
      <path id="Path_6336" data-name="Path 6336" d="M276.814,268.865a20.548,20.548,0,0,0-14.374-6.181H262.4c-.112,0-.224,0-.337,0a20.69,20.69,0,1,0,14.746,6.186ZM270.9,280.01l-7.9,9.845a2.489,2.489,0,0,1-3.4.458l-5.89-4.268a2.49,2.49,0,0,1,2.922-4.033l3.971,2.877,6.414-8a2.49,2.49,0,1,1,3.884,3.117Zm0,0" transform="translate(-201.313 -219.07)" fill="#fc6a57"/>
    </g>
  </g>
</svg>
