<svg xmlns="http://www.w3.org/2000/svg" width="24" height="24" viewBox="0 0 24 24">
  <g id="return_policy" transform="translate(-11283 -1895)">
    <rect id="Rectangle_2697" data-name="Rectangle 2697" width="24" height="24" transform="translate(11283 1895)" fill="none"/>
    <g id="Group_8342" data-name="Group 8342" transform="translate(11099.271 1895)">
      <path id="Path_7092" data-name="Path 7092" d="M197.052,0h6.135a.835.835,0,0,1,.491.849c-.009,2.442,0,4.885,0,7.327,0,.338,0,.338-.322.226a8.594,8.594,0,0,0-6.649.282,8.724,8.724,0,0,0-4.941,9.443,8.464,8.464,0,0,0,.425,1.554c.063.164.044.258-.158.239-.039,0-.078,0-.117,0h-7.327c-.592,0-.85-.261-.85-.859q0-9.106,0-18.213A.836.836,0,0,1,184.22,0h6.135c.006.109.017.218.017.326,0,1.6.02,3.2-.006,4.8-.011.706.523,1.11,1.175.735.628-.361,1.292-.66,1.935-1a.444.444,0,0,1,.458,0c.671.35,1.347.691,2.022,1.032a.74.74,0,0,0,.515.106.718.718,0,0,0,.562-.806q0-2.435,0-4.87C197.035.218,197.046.109,197.052,0Z" fill="#fc6a57"/>
      <path id="Path_7093" data-name="Path 7093" d="M231.206,39.253v1.592c-.023.122-.049.244-.07.367a7.392,7.392,0,1,1-6.461-8.514,7.214,7.214,0,0,1,5.711,3.911A7.683,7.683,0,0,1,231.206,39.253Zm-7.865,2.5h0c-.554,0-1.108-.005-1.662,0a.685.685,0,1,0-.008,1.364c.312.008.624.008.936,0,.865-.018,1.732.053,2.6-.038a2.644,2.644,0,0,0,2.263-1.931,2.733,2.733,0,0,0-.915-2.881,3,3,0,0,0-2-.593c-.476.008-.952,0-1.428,0-.051,0-.121.02-.146-.041s.036-.1.072-.135c.1-.1.2-.2.292-.3a.672.672,0,0,0-.038-.931.652.652,0,0,0-.912,0q-.832.806-1.638,1.639a.654.654,0,0,0-.006.915q.814.841,1.657,1.653a.653.653,0,0,0,.912-.019.67.67,0,0,0,.035-.914c-.08-.1-.176-.177-.259-.27-.049-.055-.151-.1-.112-.185.031-.067.127-.037.194-.037.577,0,1.155-.005,1.732,0a1.352,1.352,0,0,1,0,2.7C224.386,41.756,223.863,41.752,223.34,41.752Z" transform="translate(-23.476 -23.431)" fill="#fc6a57"/>
      <path id="Path_7094" data-name="Path 7094" d="M216,0a10.917,10.917,0,0,1,.017,1.122c0,.944,0,1.888,0,2.832,0,.258-.019.27-.245.158-.44-.219-.879-.44-1.315-.667a.809.809,0,0,0-.8,0c-.449.235-.9.459-1.356.689-.126.064-.2.065-.2-.111q.006-1.989.008-3.978a.2.2,0,0,1,.01-.045Z" transform="translate(-20.352)" fill="#fc6a57"/>
    </g>
  </g>
</svg>
