<svg xmlns="http://www.w3.org/2000/svg" width="24" height="24" viewBox="0 0 24 24">
  <g id="shipping_policy" transform="translate(-11254 -1895)">
    <rect id="Rectangle_2696" data-name="Rectangle 2696" width="24" height="24" transform="translate(11254 1895)" fill="none"/>
    <g id="Group_8341" data-name="Group 8341" transform="translate(11253.804 1894.476)">
      <path id="Path_7081" data-name="Path 7081" d="M.2,54.269c.265,0,.53-.01.8-.011h6.39c.323,0,.324,0,.324.325q0,.915,0,1.829c0,.269-.011.274-.259.157A3.709,3.709,0,0,0,2.7,57.888a3.359,3.359,0,0,0-.482,1.087.248.248,0,0,1-.29.23c-.241-.014-.485,0-.724-.023A1.191,1.191,0,0,1,.2,58.352v-.7l1.075-.012A1.083,1.083,0,0,0,2.4,56.672a7.237,7.237,0,0,0,.023-1.145c0-.332-.122-.449-.453-.452C1.38,55.07.788,55.07.2,55.067Z" transform="translate(0 -38.541)" fill="#fc6a57"/>
      <path id="Path_7082" data-name="Path 7082" d="M.2,59.58c.436,0,.872,0,1.308-.011.147,0,.214.057.208.208s0,.328,0,.492c0,.333-.147.482-.487.489s-.685,0-1.028,0Z" transform="translate(0 -42.351)" fill="#fc6a57"/>
      <path id="Path_7083" data-name="Path 7083" d="M45.009,18.477a.51.51,0,0,1,.051.311q0,3.412,0,6.825c0,.327,0,.329-.322.329H29.615c-.323,0-.324,0-.324-.327q0-4.773,0-9.546c0-.325,0-.326.323-.326,1.342,0,2.685.006,4.026-.006.251,0,.333.089.371.325.134.832.262,1.667.443,2.49a6.344,6.344,0,0,0,2.521,3.8c.812.608,1.607,1.241,2.409,1.862.269.208.379.214.643.013.888-.677,1.78-1.349,2.659-2.037A6.343,6.343,0,0,0,45.009,18.477ZM32.294,22.5c.663,0,1.326,0,1.989,0,.075,0,.184.031.217-.046a.921.921,0,0,0,.019-.551c-.029-.141-.183-.085-.283-.086q-1.872-.006-3.745,0c-.464,0-.4-.034-.422.414-.01.224.074.279.282.275C31,22.493,31.646,22.5,32.294,22.5Zm.024,1.567c-.671,0-1.342,0-2.013,0-.168,0-.252.051-.232.228a.622.622,0,0,1,0,.164c-.037.242.068.3.3.3,1.248-.01,2.5,0,3.745-.005.463,0,.4.043.423-.411.009-.221-.07-.282-.281-.278C33.613,24.073,32.965,24.066,32.318,24.066Zm4.129,0c-.226,0-.452,0-.678,0-.5,0-.438-.056-.453.452-.006.195.074.239.248.237.507-.008,1.014,0,1.521,0s.442.077.452-.473c0-.169-.069-.217-.224-.214C37.024,24.071,36.736,24.066,36.447,24.066Z" transform="translate(-20.869 -10.912)" fill="#fc6a57"/>
      <path id="Path_7084" data-name="Path 7084" d="M58.08,3.622c-.1.572-.195,1.173-.3,1.772-.138.752-.228,1.514-.414,2.257a5.474,5.474,0,0,1-1.955,3.037c-.747.591-1.512,1.159-2.267,1.74a.443.443,0,0,1-.6.037c-.856-.667-1.73-1.312-2.558-2.013a5.4,5.4,0,0,1-1.826-3.293c-.2-1.138-.393-2.277-.59-3.416a.448.448,0,0,1,.269-.578Q50.19,1.88,52.544.6A.531.531,0,0,1,53.1.606q2.353,1.283,4.709,2.561A.457.457,0,0,1,58.08,3.622Zm-8.973.85c.005.062.006.125.017.187.133.761.27,1.522.4,2.284A3.948,3.948,0,0,0,51.043,9.47q.729.569,1.462,1.133c.247.19.364.194.607.01.534-.406,1.072-.809,1.595-1.23A3.734,3.734,0,0,0,56.054,7.19c.182-.878.316-1.767.471-2.651a.355.355,0,0,0-.176-.4c-.319-.181-.642-.354-.964-.53-.063-.034-.134-.069-.18.021a1.4,1.4,0,0,0-.232.5c-.006.128.228.153.349.234a1.129,1.129,0,0,0,.245.136c.206.072.231.208.193.4-.1.537-.2,1.075-.28,1.615a3.477,3.477,0,0,1-1.077,2.2c-.466.417-.984.768-1.475,1.154-.109.086-.183.031-.267-.034-.413-.322-.83-.637-1.238-.964a3.271,3.271,0,0,1-1.211-2.05c-.1-.569-.194-1.139-.3-1.708-.089-.5-.089-.491.347-.729.556-.3.46-.183.2-.706,0-.007-.008-.014-.011-.021-.043-.1-.107-.115-.2-.061-.313.176-.631.344-.943.519A.348.348,0,0,0,49.107,4.472Zm3.709,3.167a.494.494,0,0,0,.342-.214q.746-.9,1.5-1.8c.288-.344.285-.336-.044-.625-.146-.128-.237-.145-.372.024-.423.53-.869,1.042-1.295,1.571-.121.15-.2.156-.326.012a4.671,4.671,0,0,0-.329-.332c-.376-.363-.26-.4-.686.019-.1.1-.1.173,0,.273.318.311.629.628.944.942A.386.386,0,0,0,52.816,7.639Zm-.021-5.366a.465.465,0,0,0-.254.084c-.308.168-.616.334-.922.5-.547.3-.469.145-.2.7.066.135.138.133.257.066.318-.181.645-.345.963-.526a.312.312,0,0,1,.347-.005c.236.137.477.263.718.391.507.271.359.306.663-.2.079-.133.048-.206-.085-.275-.414-.217-.822-.443-1.233-.666A.448.448,0,0,0,52.795,2.273ZM53.163,4.3c0-.35,0-.35-.344-.35s-.342,0-.342.357c0,.332,0,.332.338.332S53.163,4.64,53.163,4.3Zm0,4.5c0-.349,0-.349-.346-.349s-.341,0-.341.358c0,.331,0,.331.338.331S53.163,9.145,53.163,8.8Z" transform="translate(-33.966)" fill="#fc6a57"/>
      <path id="Path_7085" data-name="Path 7085" d="M37.182,54.259H44.7c.356,0,.357,0,.357.364,0,.805-.007,1.61,0,2.415,0,.23-.078.313-.3.289a1.12,1.12,0,0,0-1.206,1.214c0,.141,0,.281,0,.422,0,.112.007.232-.154.235s-.321.051-.373-.173a3.536,3.536,0,0,0-.4-.995,3.713,3.713,0,0,0-6.781.877.351.351,0,0,1-.4.3q-2.4-.013-4.8,0a.326.326,0,0,1-.384-.293,3.4,3.4,0,0,0-.815-1.485.569.569,0,0,1-.161-.42c.007-.813,0-1.626,0-2.439,0-.31,0-.312.314-.312Zm-.523,1.5c.265,0,.53,0,.8,0,.495-.006.44.078.448-.476,0-.149-.051-.211-.2-.21q-1.182.006-2.363,0a.409.409,0,0,0-.371.2c-.153.236-.32.463-.464.7a.428.428,0,0,1-.421.224c-1.068-.008-2.137,0-3.205,0-.487,0-.425-.048-.439.442,0,.181.052.247.239.246q1.9-.009,3.79,0a.448.448,0,0,0,.411-.218c.153-.236.318-.464.464-.7a.386.386,0,0,1,.381-.209C36.034,55.769,36.347,55.76,36.658,55.76Zm4.636-.686c-.364,0-.364,0-.364.327,0,.359,0,.359.329.359.387,0,.387,0,.387-.325C41.648,55.074,41.648,55.074,41.295,55.074Zm1.476.686c.375,0,.375,0,.375-.313,0-.373,0-.373-.341-.373-.375,0-.375,0-.376.338S42.429,55.76,42.77,55.76Z" transform="translate(-20.861 -38.542)" fill="#fc6a57"/>
      <path id="Path_7086" data-name="Path 7086" d="M9.415,66.595a3.014,3.014,0,1,1,3.023,3.028A3.019,3.019,0,0,1,9.415,66.595Zm3.02-1.1a1.092,1.092,0,1,0,1.1,1.085A1.107,1.107,0,0,0,12.435,65.5Z" transform="translate(-6.612 -45.208)" fill="#fc6a57"/>
      <path id="Path_7087" data-name="Path 7087" d="M60.5,66.594a3.014,3.014,0,1,1-3-3.041A3.024,3.024,0,0,1,60.5,66.594Zm-3.03,1.086a1.093,1.093,0,1,0-1.087-1.1A1.111,1.111,0,0,0,57.468,67.68Z" transform="translate(-38.929 -45.208)" fill="#fc6a57"/>
      <path id="Path_7088" data-name="Path 7088" d="M4.636,37.3c.991,0,1.982.005,2.972,0,.215,0,.307.046.3.283-.013.447,0,.448-.443.448-.211,0-.422,0-.632,0A1.107,1.107,0,0,0,5.658,39.2q-.01.973,0,1.946c0,.191-.061.264-.255.262-.827-.007-1.654-.005-2.481,0-.17,0-.243-.044-.208-.231.073-.383.134-.769.191-1.155a.186.186,0,0,1,.222-.181c.093,0,.187,0,.281,0,.34,0,.34,0,.34-.35s0-.336-.331-.336c-.234,0-.468,0-.7,0-.29,0-.386.092-.434.381-.092.547-.19,1.092-.272,1.64-.024.162-.083.235-.251.232-.367-.007-.733-.007-1.1,0-.183,0-.208-.08-.172-.234q.424-1.825.84-3.653a.248.248,0,0,1,.29-.224C2.623,37.305,3.63,37.3,4.636,37.3Z" transform="translate(-0.198 -26.376)" fill="#fc6a57"/>
      <path id="Path_7089" data-name="Path 7089" d="M7.618,28.741c-.967,0-1.933,0-2.9,0-.209,0-.26-.051-.187-.254.154-.426.284-.86.432-1.287a1.165,1.165,0,0,1,1.17-.835c1.458,0,2.916,0,4.374-.005.228,0,.294.076.29.3-.012.609-.01,1.219,0,1.828,0,.193-.061.257-.254.256C9.567,28.737,8.593,28.741,7.618,28.741Z" transform="translate(-3.087 -18.533)" fill="#fc6a57"/>
      <path id="Path_7090" data-name="Path 7090" d="M22.867,43.655c0,.367,0,.734,0,1.1,0,.163-.044.248-.223.245-.366-.007-.733-.005-1.1,0-.163,0-.215-.072-.214-.228.005-.671,0-1.343,0-2.014a.4.4,0,0,1,.427-.447c.3-.009.592,0,.888,0,.162,0,.219.066.217.224C22.862,42.906,22.867,43.281,22.867,43.655Z" transform="translate(-15.161 -29.969)" fill="#fc6a57"/>
      <path id="Path_7091" data-name="Path 7091" d="M83.069,67.969a2.521,2.521,0,0,1,0,.327.528.528,0,0,1-.708.327c-.065-.04-.065-.1-.065-.164,0-.2-.009-.406,0-.608a.5.5,0,0,1,.71-.372.145.145,0,0,1,.066.139c0,.117,0,.234,0,.351Z" transform="translate(-58.883 -47.986)" fill="#fc6a57"/>
    </g>
  </g>
</svg>
