<svg xmlns="http://www.w3.org/2000/svg" width="85" height="85.001" viewBox="0 0 85 85.001">
  <g id="pro_share" transform="translate(-110 -2555.999)">
    <g id="Group_5219" data-name="Group 5219" transform="translate(110 2556)">
      <rect id="Rectangle_2666" data-name="Rectangle 2666" width="85" height="85" rx="16" transform="translate(0 0)" fill="none"/>
    </g>
    <g id="share" transform="translate(110 2555.999)">
      <path id="Path_5928" data-name="Path 5928" d="M191.828,25.04,168.508.823a2.691,2.691,0,0,0-4.628,1.869v11.66h-.9A35.02,35.02,0,0,0,128,49.332v5.381a2.655,2.655,0,0,0,2.095,2.573,2.4,2.4,0,0,0,.592.072,2.784,2.784,0,0,0,2.457-1.532,29.428,29.428,0,0,1,26.47-16.36h4.262v11.66a2.691,2.691,0,0,0,4.628,1.866l23.32-24.217a2.691,2.691,0,0,0,0-3.735Zm0,0" transform="translate(-107.581 -0.001)" fill="#fc6a57"/>
      <path id="Path_5929" data-name="Path 5929" d="M74.379,155.989H10.629A10.624,10.624,0,0,1,0,145.392V95.937a10.624,10.624,0,0,1,10.625-10.6H21.254a3.532,3.532,0,1,1,0,7.065H10.629a3.539,3.539,0,0,0-3.542,3.533v49.454a3.539,3.539,0,0,0,3.542,3.533h63.75a3.539,3.539,0,0,0,3.541-3.533V117.132a3.542,3.542,0,0,1,7.084,0v28.259a10.624,10.624,0,0,1-10.625,10.6Zm0,0" transform="translate(-0.004 -70.988)" fill="#fc6a57"/>
    </g>
  </g>
</svg>
