<svg xmlns="http://www.w3.org/2000/svg" width="85" height="85" viewBox="0 0 85 85">
  <g id="pro_logout" transform="translate(-110 -1709)">
    <rect id="Rectangle_2666" data-name="Rectangle 2666" width="85" height="85" rx="16" transform="translate(110 1709)" fill="none"/>
    <g id="logout" transform="translate(110 1709)">
      <path id="Path_5932" data-name="Path 5932" d="M54.037,46.045a3.571,3.571,0,0,0-3.6,3.541V63.753a3.576,3.576,0,0,1-3.6,3.541H36.025V14.17a7.148,7.148,0,0,0-4.906-6.733l-1.067-.351h16.78a3.576,3.576,0,0,1,3.6,3.542V21.254a3.6,3.6,0,0,0,7.2,0V10.629A10.73,10.73,0,0,0,46.832,0H8.106A2.872,2.872,0,0,0,7.72.082C7.547.067,7.381,0,7.205,0A7.152,7.152,0,0,0,0,7.087V70.836a7.148,7.148,0,0,0,4.906,6.733l21.68,7.1A7.577,7.577,0,0,0,28.82,85a7.152,7.152,0,0,0,7.2-7.084V74.378H46.832A10.73,10.73,0,0,0,57.64,63.753V49.586a3.571,3.571,0,0,0-3.6-3.541Zm0,0" transform="translate(0 -0.004)" fill="#fc6a57"/>
      <path id="Path_5933" data-name="Path 5933" d="M315.9,122.132l-14.41-14.41a3.6,3.6,0,0,0-6.149,2.547v10.807h-14.41a3.6,3.6,0,1,0,0,7.2h14.41v10.807a3.6,3.6,0,0,0,6.149,2.548l14.41-14.41A3.6,3.6,0,0,0,315.9,122.132Zm0,0" transform="translate(-231.96 -89.176)" fill="#fc6a57"/>
    </g>
  </g>
</svg>
