<svg xmlns="http://www.w3.org/2000/svg" width="85" height="85.004" viewBox="0 0 85 85.004">
  <g id="pro_favourite" transform="translate(-110 -1322.996)">
    <rect id="Rectangle_2666" data-name="Rectangle 2666" width="85" height="85" rx="16" transform="translate(110 1323)" fill="none"/>
    <g id="favorite" transform="translate(110 1322.996)">
      <path id="Path_5909" data-name="Path 5909" d="M34.122,54.686a2.657,2.657,0,0,1-1.59-.526C30.326,52.52,11,37.79,11,25.3a13.355,13.355,0,0,1,23.122-9.05A13.355,13.355,0,0,1,57.244,25.3c0,12.493-19.326,27.223-21.532,28.863A2.657,2.657,0,0,1,34.122,54.686Z" transform="translate(27.756 30.314)" fill="#fc6a57"/>
      <path id="Path_5910" data-name="Path 5910" d="M32.03,0,14.742.071a6.2,6.2,0,0,0-5.407,3.2L.3,19.636l29.987-.071Z" transform="translate(0.803 0.071)" fill="#fc6a57"/>
      <path id="Path_5911" data-name="Path 5911" d="M42.593,19.545,33.451,3.181a6.253,6.253,0,0,0-5.443-3.2L10.72.051l1.814,19.565Z" transform="translate(27.158 0.02)" fill="#fc6a57"/>
      <path id="Path_5912" data-name="Path 5912" d="M71.17,17.784a20.425,20.425,0,0,0-8.893,2.454,20.707,20.707,0,0,0-9.782-2.49A20.449,20.449,0,0,0,32.04,38.167c0,5.194,2.17,10.387,5.3,15.154l-31.588.107H5.717a5.625,5.625,0,0,1-5.585-5.62L-.01,7.148l32.9-.071H38.23l32.9-.107Z" transform="translate(0.01 17.612)" fill="#fc6a57"/>
    </g>
  </g>
</svg>
