<svg xmlns="http://www.w3.org/2000/svg" width="85" height="85" viewBox="0 0 85 85">
  <g id="pro_notification" transform="translate(-110 -1130)">
    <rect id="Rectangle_2666" data-name="Rectangle 2666" width="85" height="85" rx="16" transform="translate(110 1130)" fill="none"/>
    <g id="notification" transform="translate(113.161 1130)">
      <path id="Path_5906" data-name="Path 5906" d="M147.926,458.583A13.25,13.25,0,0,0,160.888,448H134.965A13.251,13.251,0,0,0,147.926,458.583Zm0,0" transform="translate(-112.696 -374.041)" fill="#fc6a57"/>
      <path id="Path_5907" data-name="Path 5907" d="M59.918,77.942c-.014,0-.028,0-.043,0a24.642,24.642,0,0,1-22.3-35.159c-.775-.074-1.561-.12-2.356-.12A24.674,24.674,0,0,0,10.567,67.362V77.2A23.67,23.67,0,0,1,2.156,95.306a6.179,6.179,0,0,0-1.937,6.336,6.462,6.462,0,0,0,6.333,4.526H63.873a6.458,6.458,0,0,0,6.438-4.893,6.189,6.189,0,0,0-2.1-6.04,23.49,23.49,0,0,1-8.291-17.293Zm0,0" transform="translate(0.001 -35.612)" fill="#fc6a57"/>
      <path id="Path_5908" data-name="Path 5908" d="M291.29,17.639A17.639,17.639,0,1,1,273.651,0,17.639,17.639,0,0,1,291.29,17.639Zm0,0" transform="translate(-213.791)" fill="#fc6a57"/>
    </g>
  </g>
</svg>
