<svg xmlns="http://www.w3.org/2000/svg" width="85" height="85" viewBox="0 0 85 85">
  <g id="pro_contact_us" transform="translate(-110 -1709)">
    <rect id="Rectangle_2666" data-name="Rectangle 2666" width="85" height="85" rx="16" transform="translate(110 1709)" fill="none"/>
    <g id="contact_us" transform="translate(874.675 1309.946)">
      <path id="Path_6438" data-name="Path 6438" d="M-742.23,441.741A108.615,108.615,0,0,0-716.3,467.722c.779-1.107,1.517-2.143,2.243-3.188,3.408-4.906,8.441-5.8,13.347-2.366q5.181,3.626,10.359,7.256c4.16,2.933,5.3,7.209,3.065,11.776-2.718,5.559-7.4,8.246-13.377,8.848-6.732.678-13.073-1.007-19.046-3.868a84.625,84.625,0,0,1-41.025-41.128,36.231,36.231,0,0,1-3.875-18.107c.457-6.742,3.366-11.941,9.822-14.672a8.531,8.531,0,0,1,10.328,2.789c2.894,3.972,5.717,8,8.422,12.1A8.631,8.631,0,0,1-738.1,438.79C-739.406,439.794-740.78,440.709-742.23,441.741Z" transform="translate(0 -7.721)" fill="#fc6a57"/>
      <path id="Path_6439" data-name="Path 6439" d="M-608.2,400.631q10.113,0,20.226,0c2.121,0,2.611.484,2.612,2.568q0,11.618,0,23.236c0,1.905-.5,2.4-2.409,2.4-7.548,0-15.1.016-22.645-.02a1.453,1.453,0,0,0-1.565.993c-1.139,2.541-2.357,5.045-3.519,7.576-.362.788-.835,1.411-1.763,1.428-.984.018-1.473-.63-1.852-1.458-1.16-2.532-2.376-5.037-3.525-7.573a1.353,1.353,0,0,0-1.471-.966c-1.646.07-3.3.035-4.945.016-1.393-.017-2.05-.63-2.053-2.007q-.024-12.058,0-24.117c0-1.473.712-2.074,2.354-2.076Q-618.474,400.624-608.2,400.631Zm-.024,12.338c4.031,0,8.062.013,12.093-.008a1.73,1.73,0,0,0,1.88-1.728,1.829,1.829,0,0,0-1.763-1.771,4.812,4.812,0,0,0-.549-.015q-11.654,0-23.307.006a3.485,3.485,0,0,0-1.186.165,1.6,1.6,0,0,0-1.09,1.823,1.588,1.588,0,0,0,1.391,1.484,6.1,6.1,0,0,0,1.1.045Q-613.937,412.975-608.22,412.969Zm.012,7.056q5.772,0,11.544,0c1.6,0,2.424-.606,2.418-1.75s-.873-1.763-2.433-1.775h-.22q-11.324,0-22.648.007a4.718,4.718,0,0,0-1.514.175,1.573,1.573,0,0,0-1.079,1.826,1.587,1.587,0,0,0,1.4,1.474,6.337,6.337,0,0,0,1.1.043Q-613.925,420.027-608.208,420.025Z" transform="translate(-94.319 0)" fill="#fc6a57"/>
    </g>
  </g>
</svg>
