<svg id="pro_chat" xmlns="http://www.w3.org/2000/svg" width="85" height="85" viewBox="0 0 85 85">
  <rect id="Rectangle_2666" data-name="Rectangle 2666" width="85" height="85" fill="none"/>
  <g id="Group_17272" data-name="Group 17272">
    <g id="Group_17271" data-name="Group 17271">
      <path id="Path_11818" data-name="Path 11818" d="M35.029,25.732C15.805,25.732,0,38.951,0,55.2A27.444,27.444,0,0,0,7.14,73.414L.615,80.87A2.491,2.491,0,0,0,2.49,85H37.519c14.193,0,32.538-12.222,32.538-29.8C70.057,38.951,54.252,25.732,35.029,25.732ZM19.922,59.765a4.98,4.98,0,1,1,4.98-4.98A4.987,4.987,0,0,1,19.922,59.765Zm15.107,0a4.98,4.98,0,1,1,4.98-4.98A4.987,4.987,0,0,1,35.029,59.765Zm15.107,0a4.98,4.98,0,1,1,4.98-4.98A4.987,4.987,0,0,1,50.136,59.765Z" fill="#fc6a57"/>
    </g>
  </g>
  <g id="Group_17274" data-name="Group 17274">
    <g id="Group_17273" data-name="Group 17273">
      <path id="Path_11819" data-name="Path 11819" d="M84.4,50.673l-5.863-6.841A24.736,24.736,0,0,0,85,27.393C85,12.289,70.475,0,52.626,0,36.485,0,22.772,10.06,20.351,23.152a46.076,46.076,0,0,1,14.678-2.4c21.807,0,39.723,15.231,39.984,34.033h7.495A2.493,2.493,0,0,0,84.4,50.673Z" fill="#fc6a57"/>
    </g>
  </g>
</svg>
