<svg id="profile" xmlns="http://www.w3.org/2000/svg" width="15.747" height="18" viewBox="0 0 15.747 18">
  <path id="Path_6390" data-name="Path 6390" d="M10.073,14.7h-4.4a.641.641,0,0,1,0-1.282h4.4a.641.641,0,1,1,0,1.282Z" fill="#ccc"/>
  <path id="Path_6391" data-name="Path 6391" d="M8.086,7.745H7.7A3.685,3.685,0,0,1,4.024,4.062V3.68A3.685,3.685,0,0,1,7.7,0h.381a3.685,3.685,0,0,1,3.681,3.68v.382A3.685,3.685,0,0,1,8.086,7.745ZM7.7,1.282a2.4,2.4,0,0,0-2.4,2.4v.382a2.4,2.4,0,0,0,2.4,2.4h.381a2.4,2.4,0,0,0,2.4-2.4V3.68a2.4,2.4,0,0,0-2.4-2.4Z" fill="#ccc"/>
  <path id="Path_6392" data-name="Path 6392" d="M13.045,18H2.831A2.831,2.831,0,0,1,0,15.169V13.647a.641.641,0,0,1,1.282,0v1.522a1.549,1.549,0,0,0,1.549,1.549H13.045a1.407,1.407,0,0,0,1.406-1.406V14.065a2.837,2.837,0,0,0-.046-.716,1.725,1.725,0,0,0-.341-.651,5.37,5.37,0,0,0-1.57-1.182,9.394,9.394,0,0,0-4.828-.952c-.194,0-.386.012-.57.023A8.989,8.989,0,0,0,2.16,12.162a.641.641,0,1,1-.767-1.027A10.235,10.235,0,0,1,7.021,9.307c.2-.012.406-.02.615-.025a10.614,10.614,0,0,1,5.478,1.112,6.51,6.51,0,0,1,1.94,1.491,2.963,2.963,0,0,1,.6,1.142,3.857,3.857,0,0,1,.087,1.055v1.231A2.69,2.69,0,0,1,13.045,18Z" fill="#ccc"/>
</svg>
