<svg width="20" height="20" viewBox="0 0 20 20" fill="none" xmlns="http://www.w3.org/2000/svg">
<path d="M19.9933 10.0057C19.9948 8.34282 19.5814 6.7058 18.7907 5.24294C17.9999 3.78007 16.8567 2.53758 15.4646 1.628C14.0725 0.718421 12.4755 0.170484 10.8182 0.0338192C9.1609 -0.102845 7.4957 0.17608 5.97341 0.845333C4.45111 1.51459 3.11982 2.55302 2.1001 3.86659C1.08038 5.18016 0.404462 6.72736 0.133552 8.36805C-0.137358 10.0087 0.00530423 11.6911 0.548617 13.2628C1.09193 14.8344 2.01873 16.2457 3.24507 17.3688L3.23561 17.3771L3.56089 17.6503C3.58188 17.6681 3.60495 17.6826 3.62594 17.7C3.79834 17.8428 3.97665 17.9786 4.15821 18.1096C4.21735 18.1521 4.27649 18.1947 4.33564 18.2361C4.52982 18.37 4.72873 18.4969 4.93237 18.617C4.97673 18.6433 5.02108 18.6687 5.06603 18.6942C5.28899 18.821 5.51639 18.9405 5.7494 19.049C5.76656 19.057 5.784 19.0644 5.80115 19.0724C6.57094 19.43 7.38349 19.6872 8.21884 19.8377L8.28567 19.8498C8.54885 19.8953 8.81499 19.9317 9.08408 19.9559C9.1169 19.9589 9.14943 19.9607 9.18255 19.9636C9.45075 19.9858 9.72192 20 9.99692 20C10.2719 20 10.5378 19.9858 10.8045 19.9645C10.8382 19.9616 10.8722 19.9598 10.9059 19.9568C11.173 19.9324 11.4369 19.8976 11.6975 19.8524L11.7655 19.84C12.5883 19.6926 13.3892 19.4416 14.1489 19.0931C14.1764 19.0804 14.2045 19.0682 14.2323 19.0552C14.4567 18.9498 14.6761 18.8363 14.8906 18.7149C14.944 18.6847 14.9972 18.654 15.0502 18.6229C15.2457 18.5076 15.4382 18.3863 15.6251 18.2595C15.6922 18.2136 15.7582 18.1654 15.8247 18.1172C15.9844 18.0025 16.1408 17.8839 16.2934 17.76C16.3271 17.7328 16.3635 17.7092 16.3966 17.6811L16.7293 17.4034L16.7195 17.3951C17.7508 16.4602 18.5748 15.3197 19.1387 14.047C19.7025 12.7743 19.9936 11.3977 19.9933 10.0057ZM0.727138 10.0057C0.72577 8.45736 1.1123 6.9333 1.85142 5.57272C2.59055 4.21214 3.65873 3.05838 4.95843 2.2168C6.25813 1.37522 7.74795 0.872617 9.29185 0.754891C10.8358 0.637165 12.3845 0.908063 13.7968 1.54285C15.2091 2.17764 16.4399 3.1561 17.3767 4.38888C18.3136 5.62166 18.9268 7.06949 19.1602 8.60018C19.3936 10.1309 19.2399 11.6956 18.713 13.1516C18.1861 14.6076 17.3029 15.9084 16.1441 16.9353C16.0403 16.8628 15.9316 16.7976 15.8188 16.7401L12.7411 15.2025C12.6062 15.1356 12.4928 15.0323 12.4137 14.9042C12.3346 14.7762 12.2929 14.6285 12.2934 14.478V13.4019C12.3646 13.3132 12.4412 13.2144 12.5175 13.1062C12.921 12.5333 13.2412 11.9061 13.4685 11.2433C13.6954 11.1366 13.8872 10.9675 14.0214 10.7558C14.1556 10.544 14.2267 10.2984 14.2264 10.0477V8.75845C14.2254 8.44211 14.111 8.13661 13.9041 7.89736V6.20089C13.9669 5.42773 13.7208 4.66118 13.2195 4.06915C12.5495 3.30445 11.4651 2.9159 9.99633 2.9159C8.52756 2.9159 7.44291 3.30298 6.77314 4.06738C6.27197 4.65944 6.02581 5.42596 6.08858 6.19912V7.89558C5.88176 8.13492 5.76743 8.44037 5.76626 8.75668V10.0454C5.7662 10.2417 5.80988 10.4357 5.89413 10.613C5.97837 10.7904 6.10106 10.9468 6.25329 11.0709C6.47692 11.9094 6.85828 12.6976 7.37697 13.3933V14.4455C7.37699 14.5911 7.33779 14.734 7.26348 14.8593C7.18918 14.9845 7.08252 15.0874 6.9547 15.1572L4.08044 16.7245C3.9859 16.7765 3.89465 16.8342 3.80721 16.8975C2.83804 16.0299 2.06279 14.9677 1.5321 13.7802C1.00141 12.5926 0.727214 11.3065 0.727434 10.0057H0.727138Z" fill="#FC6A57"/>
</svg>
