<svg xmlns="http://www.w3.org/2000/svg" width="200" height="36.9" viewBox="0 0 134.52 36.9">
  <path id="promo_light" d="M-179.45,384.99V383.4h-13.29l-108.72.1v.2a2.048,2.048,0,0,1,0,.35,3.488,3.488,0,0,1-3.66,3.31,3.476,3.476,0,0,1-3.31-3.66v-.2h-5.54v36.8h5.53v-.46a3.5,3.5,0,0,1,3.67-3.31,3.5,3.5,0,0,1,3.31,3.67v.1l108.72-.1h13.29v-1.59a2.279,2.279,0,0,1-2.14-2.15,2.279,2.279,0,0,1,2.14-2.4v-1.27a2.27,2.27,0,0,1-2.14-2.14,2.273,2.273,0,0,1,2.14-2.4v-1.27a2.279,2.279,0,0,1-2.14-2.15,2.279,2.279,0,0,1,2.14-2.4v-1.27a2.27,2.27,0,0,1-2.14-2.14,2.273,2.273,0,0,1,2.14-2.4v-1.27a2.279,2.279,0,0,1-2.14-2.15,2.279,2.279,0,0,1,2.14-2.4v-1.27a2.27,2.27,0,0,1-2.14-2.14A2.273,2.273,0,0,1-179.45,384.99Zm-132.02,6.31a.5.5,0,0,1,.5-.5.5.5,0,0,1,.5.5v6a.508.508,0,0,1-.5.5.5.5,0,0,1-.5-.5Zm0,10a.5.5,0,0,1,.5-.5.5.5,0,0,1,.5.5v6a.508.508,0,0,1-.5.5.5.5,0,0,1-.5-.5Zm2.23,14.54a5.792,5.792,0,0,0-1.15,1.67l-.46.29h-.12l-.5-.5v-6a.5.5,0,0,1,.5-.5.5.5,0,0,1,.5.5v4.43a7.18,7.18,0,0,1,.51-.59.5.5,0,0,1,.71-.01A.5.5,0,0,1-309.24,415.84Zm2.43-25.72a.506.506,0,0,1-.47.32.392.392,0,0,1-.18-.04,6.979,6.979,0,0,1-3.3-2.65.518.518,0,0,1-.71-.45v-.8l.5-.5.54.3a6.051,6.051,0,0,0,3.33,3.17A.5.5,0,0,1-306.81,390.12Zm6.61,25.45a.485.485,0,0,1-.37.16.46.46,0,0,1-.33-.13,5.917,5.917,0,0,0-3.75-1.56,5.366,5.366,0,0,0-1.39.09.506.506,0,0,1-.58-.41.5.5,0,0,1,.4-.58,7.368,7.368,0,0,1,1.63-.1,6.876,6.876,0,0,1,4.36,1.82A.5.5,0,0,1-300.2,415.57Zm1.54-28.63a7.065,7.065,0,0,1-4.56,3.72.57.57,0,0,1-.13.01.5.5,0,0,1-.48-.38.488.488,0,0,1,.36-.6,6.056,6.056,0,0,0,4.01-3.39l.46-.3h.11a.5.5,0,0,1,.5.5A.494.494,0,0,1-298.66,386.94Zm7.03,30.85h-6a.5.5,0,0,1-.5-.5.5.5,0,0,1,.5-.5h6a.5.5,0,0,1,.5.5A.5.5,0,0,1-291.63,417.79Zm2.74-30.8h-6a.5.5,0,0,1-.5-.5.5.5,0,0,1,.5-.5h6a.5.5,0,0,1,.5.5A.508.508,0,0,1-288.89,386.99Zm7.26,30.79h-6a.5.5,0,0,1-.5-.5.5.5,0,0,1,.5-.5h6a.5.5,0,0,1,.5.5A.5.5,0,0,1-281.63,417.78Zm2.74-30.8h-6a.5.5,0,0,1-.5-.5.5.5,0,0,1,.5-.5h6a.5.5,0,0,1,.5.5A.508.508,0,0,1-278.89,386.98Zm7.26,30.79-6,.01a.508.508,0,0,1-.5-.5.5.5,0,0,1,.5-.5l6-.01a.5.5,0,0,1,.5.5A.5.5,0,0,1-271.63,417.77Zm2.74-30.8-6,.01a.5.5,0,0,1-.5-.5.5.5,0,0,1,.5-.5l6-.01a.5.5,0,0,1,.5.5A.5.5,0,0,1-268.89,386.97Zm7.26,30.79-6,.01a.508.508,0,0,1-.5-.5.5.5,0,0,1,.5-.5l6-.01a.5.5,0,0,1,.5.5A.5.5,0,0,1-261.63,417.76Zm2.74-30.8-6,.01a.5.5,0,0,1-.5-.5.5.5,0,0,1,.5-.5l6-.01a.5.5,0,0,1,.5.5A.5.5,0,0,1-258.89,386.96Zm7.26,30.79-6,.01a.508.508,0,0,1-.5-.5.5.5,0,0,1,.5-.5l6-.01a.5.5,0,0,1,.5.5A.5.5,0,0,1-251.63,417.75Zm2.74-30.8-6,.01a.5.5,0,0,1-.5-.5.5.5,0,0,1,.5-.5l6-.01a.508.508,0,0,1,.5.5A.5.5,0,0,1-248.89,386.95Zm7.26,30.79-6,.01a.508.508,0,0,1-.5-.5.5.5,0,0,1,.5-.5l6-.01a.5.5,0,0,1,.5.5A.5.5,0,0,1-241.63,417.74Zm2.74-30.8-6,.01a.5.5,0,0,1-.5-.5.5.5,0,0,1,.5-.5l6-.01a.508.508,0,0,1,.5.5A.5.5,0,0,1-238.89,386.94Zm7.26,30.79-6,.01a.5.5,0,0,1-.5-.5.5.5,0,0,1,.5-.5l6-.01a.5.5,0,0,1,.5.5A.5.5,0,0,1-231.63,417.73Zm2.74-30.8-6,.01a.5.5,0,0,1-.5-.5.5.5,0,0,1,.5-.5l6-.01a.508.508,0,0,1,.5.5A.5.5,0,0,1-228.89,386.93Zm7.26,30.79-6,.01a.5.5,0,0,1-.5-.5.5.5,0,0,1,.5-.5l6-.01a.5.5,0,0,1,.5.5A.5.5,0,0,1-221.63,417.72Zm2.74-30.8-6,.01a.5.5,0,0,1-.5-.5.5.5,0,0,1,.5-.5l6-.01a.508.508,0,0,1,.5.5A.5.5,0,0,1-218.89,386.92Zm7.26,30.79-6,.01a.5.5,0,0,1-.5-.5.5.5,0,0,1,.5-.5l6-.01a.5.5,0,0,1,.5.5A.5.5,0,0,1-211.63,417.71Zm2.74-30.8-6,.01a.5.5,0,0,1-.5-.5.5.5,0,0,1,.5-.5l6-.01a.508.508,0,0,1,.5.5A.5.5,0,0,1-208.89,386.91Zm7.26,30.8h-6a.5.5,0,0,1-.5-.5.5.5,0,0,1,.5-.5h6a.493.493,0,0,1,.5.49A.5.5,0,0,1-201.63,417.71Zm2.74-30.8h-6a.5.5,0,0,1-.5-.5.5.5,0,0,1,.5-.5h6a.5.5,0,0,1,.5.5A.508.508,0,0,1-198.89,386.91Zm7.26,30.79h-6a.5.5,0,0,1-.5-.5.5.5,0,0,1,.5-.5h6a.5.5,0,0,1,.5.5A.5.5,0,0,1-191.63,417.7Zm2.74-30.8h-6a.5.5,0,0,1-.5-.5.5.5,0,0,1,.5-.5h6a.5.5,0,0,1,.5.5A.5.5,0,0,1-188.89,386.9Zm5.14,27.64a4.747,4.747,0,0,0-.34,1.79v.27a4.181,4.181,0,0,0,.06.51l-.49.59h-3.11a.5.5,0,0,1-.5-.5.5.5,0,0,1,.5-.5h2.55c0-.02,0-.03-.01-.04v-.33a5.691,5.691,0,0,1,.42-2.16.5.5,0,0,1,.65-.28A.492.492,0,0,1-183.75,414.54Zm.44-6.65a4.785,4.785,0,0,0-.78,2.62v.13l-1,.02v-.15a5.683,5.683,0,0,1,.78-2.9,5.711,5.711,0,0,1-.78-2.58l1-.03a4.83,4.83,0,0,0,.78,2.34Zm0-11.63a4.785,4.785,0,0,0-.78,2.62v.28a4.86,4.86,0,0,0,.5,1.87.505.505,0,0,1-.22.67.48.48,0,0,1-.23.05.514.514,0,0,1-.45-.27,5.929,5.929,0,0,1-.6-2.27v-.33a5.683,5.683,0,0,1,.78-2.9c-.03-.05-.06-.11-.09-.16a.489.489,0,0,1,.2-.68.5.5,0,0,1,.67.2c.07.13.15.25.22.37Zm.01-5.81a4.425,4.425,0,0,0-.63,1.38.5.5,0,0,1-.48.37.506.506,0,0,1-.13-.02.5.5,0,0,1-.36-.61,5.941,5.941,0,0,1,.59-1.4,5.714,5.714,0,0,1-.78-2.59c0-.11-.01-.22-.01-.33,0-.13.01-.26.02-.39a.493.493,0,0,1-.31-.46.5.5,0,0,1,.5-.5h.36l.5.58a5.123,5.123,0,0,0-.07.77c0,.09.01.18.01.27a4.818,4.818,0,0,0,.79,2.38Z" transform="translate(313.97 -383.4)" fill="#ecf2f7"/>
</svg>
