<svg id="promo" xmlns="http://www.w3.org/2000/svg" width="512.026" height="512" viewBox="0 0 512.026 512">
  <path id="Path_11653" data-name="Path 11653" d="M175.31,0h3.75a66.9,66.9,0,0,1,24.89,5.53q20.91,9.45,41.82,18.93c8.56,3.87,14.77,2.52,23.72-1.49q18.08-8.1,36.09-16.36A73.039,73.039,0,0,1,332.56,0h4.25q36.26,2.72,54.74,32.58c2.95,4.76,5.09,10.35,7.09,15.75q6.8,18.37,13.86,36.63c3.31,8.57,8.48,12.29,17.29,15.61q15.9,5.98,31.78,11.96,12.57,4.74,18.21,8.16c27.8,16.9,40.37,53.04,26.68,83.25q-7.48,16.5-14.94,33c-5.2,11.51-8.96,18.51-4.18,28.98q7.81,17.1,15.54,34.26,5.61,12.48,7.15,18.65c7.05,28.34-6.01,58.32-30.91,72.87q-5.51,3.22-18.27,8.04-17.39,6.55-34.79,13.09c-7.68,2.88-11.46,8.66-14.55,16.76q-6.22,16.32-12.33,32.65-4.49,11.99-8.11,17.83Q372.8,509.6,335.69,512h-2.5c-20.44-.82-39.08-11.9-57.31-20.09-12.34-5.54-19.11-9.48-30.3-4.34q-33.81,15.52-41.6,18.89A69.893,69.893,0,0,1,179.69,512h-5c-30.71-2.61-50.27-19.23-60.85-47.01q-7.14-18.71-14.09-37.49-3.92-10.6-13.32-14.43-7.66-3.12-34.74-13.12-12.62-4.66-18.29-7.97Q3.37,374.47,0,337.44v-5.5q.88-13.76,5.04-22.88,9.73-21.33,19.32-42.73c3.7-8.24,2.82-14.44-.99-22.88q-9.3-20.62-18.62-41.24Q.85,193.57,0,179.94v-5.25q3.05-35.66,31.58-53.6a94.841,94.841,0,0,1,16.43-7.61q16.77-6.32,33.54-12.67c8.19-3.1,14.57-6.84,17.47-14.55q7.12-18.85,14.21-37.71a99.365,99.365,0,0,1,7.79-16.89Q139.12,2.8,175.31,0ZM283.99,63.23c-17.57,7.92-37.89,8.23-54.97.47q-21.15-9.61-42.42-18.95a23.416,23.416,0,0,0-27.09,6.15q-2.79,3.26-6.24,12.43-5.76,15.26-11.53,30.53-4.79,12.65-8.22,18.17c-9.02,14.5-20.51,22.3-36.85,28.62q-16.51,6.38-33.13,12.52-8.42,3.1-11.91,5.87c-9.31,7.38-11.06,18.95-6.12,29.83q7.44,16.4,14.85,32.81,5.64,12.48,7.13,18.65c4.24,17.52,1.17,31.4-6.37,48.26q-7.24,16.21-14.6,32.36c-3.51,7.69-5.11,13.32-2.6,20.87a22.876,22.876,0,0,0,14.17,14.69q17.25,6.66,34.55,13.22,13.09,4.96,18.27,8.04c15.71,9.33,23.67,21.51,30.27,38.93q6.67,17.57,13.31,35.14c4.36,11.55,13.17,18.61,25.99,17.1a39.3,39.3,0,0,0,11.06-3.6q14.44-6.6,28.92-13.16c17.85-8.08,31.78-12.26,50.69-7.84q6.34,1.48,18.66,7.05,16.24,7.34,32.48,14.65,6.48,2.91,10.37,3.19a23.545,23.545,0,0,0,23.91-15.3q8.21-21.27,16.22-42.63c7.88-21.02,23.13-32.5,43.45-40.31q28.68-11.04,34.68-13.09c14.25-4.85,22.87-18.83,16.33-33.15q-8.13-17.8-16.15-35.67c-7.52-16.78-10.81-30.22-6.88-47.68q1.44-6.43,6.94-18.7,11.7-26.08,15.06-33.21c6.31-13.35,1.92-28.92-12.22-34.24q-17.29-6.5-34.59-13.02-13.1-4.94-18.3-8c-15.85-9.35-23.66-21.53-30.37-39.12Q364.37,78.42,358.1,61.7q-2.75-7.32-5.24-10.34a23.719,23.719,0,0,0-28.23-6.4Q304.3,54.08,283.99,63.23Z"/>
  <circle id="Ellipse_39" data-name="Ellipse 39" cx="42.58" cy="42.58" r="42.58" transform="translate(149.42 149.41)"/>
  <rect id="Rectangle_17812" data-name="Rectangle 17812" width="42.66" height="255.74" rx="21.08" transform="translate(315.729 140.918) rotate(36.9)"/>
  <circle id="Ellipse_40" data-name="Ellipse 40" cx="42.58" cy="42.58" r="42.58" transform="translate(277.42 277.41)"/>
</svg>
