<svg id="sale02_1_" data-name="sale02 (1)" xmlns="http://www.w3.org/2000/svg" width="19.531" height="20" viewBox="0 0 19.531 20">
  <path id="Subtraction_3" data-name="Subtraction 3" d="M7468,12649a8,8,0,1,1,8-8A8.008,8.008,0,0,1,7468,12649Zm.956-7.9a1.258,1.258,0,0,0-.892.381,1.21,1.21,0,0,0-.352.877,1.263,1.263,0,0,0,1.231,1.219h.022a1.229,1.229,0,0,0,.871-.377,1.209,1.209,0,0,0,.352-.864,1.252,1.252,0,0,0-1.232-1.235Zm.75-2.742a.765.765,0,0,0-.455.251c-1.12,1.106-2.251,2.24-3.345,3.337l-.081.081-.593.594-.02.02-.02.021a.959.959,0,0,0-.166.192.445.445,0,0,0-.011.451.568.568,0,0,0,.506.272l.046-.029.027-.017a1.6,1.6,0,0,0,.276-.2c.644-.638,1.28-1.273,1.929-1.924l.021-.021,1.04-1.04c.106-.106.214-.213.322-.318.268-.262.57-.558.843-.865a.608.608,0,0,0,.1-.524.536.536,0,0,0-.409-.285Zm-3.52-.022a1.274,1.274,0,0,0-1.24,1.257,1.263,1.263,0,0,0,1.232,1.226h.016a1.241,1.241,0,0,0,0-2.482Zm2.765,4.565h-.021a.549.549,0,0,1-.527-.562.524.524,0,0,1,.549-.546h.019a.545.545,0,0,1,.537.549A.57.57,0,0,1,7468.951,12642.9Zm-2.754-2.769h-.012a.557.557,0,0,1-.554-.559.544.544,0,0,1,.543-.546h.013a.534.534,0,0,1,.549.517.565.565,0,0,1-.146.412A.557.557,0,0,1,7466.2,12640.128Z" transform="translate(-7458 -12631)" fill="#fc6a57"/>
  <path id="Path_6434" data-name="Path 6434" d="M9.61,0h.312c.156.113.324.215.469.34.328.285.652.578.969.879a.733.733,0,0,0,.789.18c.473-.148.945-.285,1.418-.426a.656.656,0,0,1,.891.43c.187.465.379.926.558,1.394a.718.718,0,0,0,.605.484q.732.111,1.465.234a.677.677,0,0,1,.637.812c-.039.492-.066.988-.105,1.48a.708.708,0,0,0,.336.68c.41.277.812.562,1.219.844a.665.665,0,0,1,.23.992c-.234.418-.465.844-.715,1.254a.766.766,0,0,0,0,.859c.246.414.476.836.711,1.257a.665.665,0,0,1-.226.98c-.4.281-.8.566-1.2.832a.736.736,0,0,0-.359.722c.039.5.066,1,.105,1.5a.666.666,0,0,1-.574.754c-.5.082-1,.164-1.5.238a.737.737,0,0,0-.636.5c-.172.449-.355.894-.535,1.34a.681.681,0,0,1-.961.457c-.449-.133-.9-.258-1.343-.406a.768.768,0,0,0-.84.2c-.32.3-.648.6-.98.894-.129.113-.285.2-.426.3H9.606c-.148-.105-.3-.2-.441-.312-.332-.289-.66-.59-.98-.894a.754.754,0,0,0-.824-.184c-.465.149-.933.281-1.4.418a.656.656,0,0,1-.89-.43c-.191-.469-.383-.937-.566-1.41a.689.689,0,0,0-.578-.461c-.5-.078-.988-.16-1.484-.238a.674.674,0,0,1-.633-.816c.039-.484.062-.972.1-1.461a.72.72,0,0,0-.351-.707c-.41-.273-.812-.562-1.219-.844A.661.661,0,0,1,.12,11.7c.242-.43.48-.863.73-1.289a.74.74,0,0,0,0-.808C.6,9.174.366,8.74.124,8.311a.658.658,0,0,1,.219-.965c.391-.273.773-.555,1.172-.808a.8.8,0,0,0,.4-.82c-.047-.48-.066-.961-.105-1.441a.668.668,0,0,1,.578-.75c.5-.082,1-.164,1.5-.238a.732.732,0,0,0,.633-.5c.18-.465.367-.929.558-1.394A.65.65,0,0,1,5.943.972c.48.141.961.281,1.437.43a.741.741,0,0,0,.789-.18c.316-.3.641-.594.969-.879C9.286.215,9.454.113,9.61,0Zm7.8,10.01a7.649,7.649,0,1,0-7.651,7.635A7.661,7.661,0,0,0,17.413,10.01Z" fill="#fc6a57"/>
</svg>
