<svg width="21" height="22" viewBox="0 0 21 22" fill="none" xmlns="http://www.w3.org/2000/svg">
<path d="M10.6101 1C10.7155 1 10.8171 1 10.9225 1C11.0787 1.11326 11.2467 1.2148 11.3912 1.33978C11.7192 1.62488 12.0434 1.91779 12.3597 2.21851C12.5902 2.43722 12.844 2.4958 13.1486 2.39816C13.6212 2.24976 14.0938 2.11306 14.5663 1.97247C14.9959 1.84749 15.2888 1.98809 15.4568 2.40207C15.6442 2.86682 15.8356 3.32767 16.0153 3.79633C16.1246 4.08143 16.3238 4.23374 16.6206 4.28061C17.1088 4.35481 17.597 4.43292 18.0852 4.51494C18.5538 4.59305 18.7569 4.85862 18.7218 5.32728C18.6827 5.81937 18.6554 6.31537 18.6163 6.80746C18.5929 7.10037 18.7101 7.31908 18.9522 7.48701C19.3623 7.7643 19.7645 8.0494 20.1707 8.3306C20.5573 8.60008 20.6316 8.91642 20.4011 9.32259C20.1668 9.74048 19.9364 10.1662 19.6864 10.5763C19.5107 10.8692 19.5146 11.1426 19.6903 11.4355C19.9364 11.8494 20.1668 12.2712 20.4011 12.693C20.6237 13.0953 20.5495 13.4116 20.1746 13.6733C19.7763 13.9545 19.3779 14.2396 18.9717 14.5052C18.7061 14.6809 18.589 14.9113 18.6124 15.2277C18.6515 15.7276 18.6788 16.2275 18.7179 16.7274C18.7452 17.1219 18.5265 17.4187 18.1438 17.4812C17.6439 17.5632 17.144 17.6452 16.6401 17.7194C16.3277 17.7624 16.1168 17.9225 16.0036 18.2193C15.8317 18.6684 15.6482 19.1137 15.4685 19.5589C15.281 20.0275 14.9959 20.1603 14.5077 20.0158C14.0586 19.883 13.6095 19.7581 13.1643 19.6096C12.8362 19.5003 12.5706 19.5706 12.3246 19.8049C12.0043 20.1096 11.6763 20.4064 11.3443 20.6993C11.2154 20.8125 11.0592 20.8985 10.9186 21C10.8132 21 10.7116 21 10.6062 21C10.4578 20.8946 10.3015 20.8047 10.1648 20.6876C9.83288 20.3986 9.50482 20.0978 9.18457 19.7932C8.94243 19.5628 8.68076 19.5042 8.36051 19.6096C7.89576 19.7581 7.4271 19.8908 6.96235 20.0275C6.53274 20.1525 6.23983 20.0119 6.0719 19.5979C5.88053 19.1293 5.68916 18.6606 5.5056 18.1881C5.40015 17.9186 5.20878 17.7702 4.92759 17.7272C4.43159 17.6491 3.9395 17.5671 3.4435 17.489C2.98266 17.4187 2.77176 17.1453 2.81081 16.6727C2.84987 16.1884 2.8733 15.7003 2.91236 15.2121C2.93579 14.8996 2.81862 14.677 2.56086 14.5052C2.15079 14.2318 1.74852 13.9428 1.34235 13.6616C0.97914 13.4077 0.904936 13.0875 1.11974 12.6969C1.36188 12.2673 1.60011 11.8338 1.85006 11.4081C2.01019 11.1347 2.01409 10.8731 1.85397 10.5997C1.60402 10.174 1.36578 9.74048 1.12364 9.31088C0.904936 8.92423 0.97914 8.60008 1.34235 8.34622C1.7329 8.07284 2.11564 7.79164 2.514 7.53779C2.82253 7.33861 2.94751 7.08084 2.91236 6.71763C2.86549 6.23726 2.84596 5.75688 2.80691 5.27651C2.77957 4.88596 3.00609 4.58524 3.38492 4.52666C3.88482 4.44464 4.38473 4.36262 4.88853 4.28842C5.20488 4.24546 5.40796 4.08143 5.52122 3.78461C5.70087 3.31986 5.88834 2.85511 6.07971 2.39035C6.23983 1.9998 6.54055 1.8553 6.94282 1.97247C7.42319 2.11306 7.90357 2.25366 8.38004 2.40207C8.68076 2.4958 8.93852 2.44112 9.16895 2.22242C9.48529 1.9217 9.80945 1.62878 10.1375 1.34368C10.2859 1.2148 10.4539 1.11326 10.6101 1ZM18.4132 11.0098C18.4054 6.77622 14.9764 3.3472 10.7663 3.3511C6.55227 3.35501 3.10373 6.79965 3.11544 10.9863C3.13106 15.2238 6.56008 18.6606 10.7624 18.645C14.992 18.6294 18.421 15.2043 18.4132 11.0098Z" stroke="#FDC994" stroke-width="0.8" stroke-miterlimit="10"/>
<path d="M8.52063 13.5718C8.06369 13.564 7.83326 13.1617 8.02463 12.8493C8.0754 12.7634 8.15742 12.6892 8.23162 12.615C9.5673 11.2754 10.903 9.93581 12.2504 8.60404C12.3714 8.48297 12.5589 8.35018 12.7112 8.35409C12.8557 8.35799 13.0744 8.5064 13.1213 8.63919C13.176 8.7876 13.1291 9.04145 13.0237 9.16252C12.6604 9.57651 12.2504 9.95534 11.8598 10.3459C10.8639 11.3418 9.87193 12.3377 8.86822 13.3297C8.75105 13.4429 8.59483 13.521 8.52063 13.5718Z" fill="#FDC994"/>
<path d="M10.4304 9.57649C10.4304 10.2326 9.85624 10.8067 9.19231 10.8145C8.53228 10.8223 7.95818 10.256 7.94646 9.58821C7.93474 8.92037 8.52447 8.32283 9.19622 8.33064C9.86015 8.34236 10.4304 8.91647 10.4304 9.57649ZM9.17278 9.02191C8.86425 9.02972 8.63383 9.26405 8.62992 9.56868C8.62992 9.88503 8.88378 10.135 9.19622 10.1272C9.51256 10.1194 9.7508 9.86159 9.73517 9.54134C9.72736 9.24062 9.48522 9.01801 9.17278 9.02191Z" fill="#FDC994"/>
<path d="M13.1876 12.3298C13.1954 12.9977 12.6369 13.564 11.9652 13.5718C11.3012 13.5835 10.7271 13.025 10.7115 12.3533C10.6959 11.6737 11.27 11.0957 11.9534 11.0957C12.6213 11.1035 13.1798 11.6581 13.1876 12.3298ZM12.508 12.3376C12.508 12.0369 12.2737 11.7948 11.9691 11.787C11.6371 11.7792 11.4028 12.0057 11.4028 12.3337C11.4028 12.6423 11.6293 12.8844 11.93 12.8961C12.2346 12.9078 12.5041 12.6462 12.508 12.3376Z" fill="#FDC994"/>
</svg>
