<svg xmlns="http://www.w3.org/2000/svg" width="19" height="19" viewBox="0 0 19 19">
  <g id="sel_home" transform="translate(-0.034)">
    <rect id="Rectangle_2636" data-name="Rectangle 2636" width="19" height="19" transform="translate(0.034)" fill="none"/>
    <path id="sel_home-2" data-name="sel_home" d="M230.422,127.266l-8.782-7.317a.63.63,0,0,0-.795,0l-8.782,7.317a.63.63,0,0,0-.084.878.648.648,0,0,0,.878.084l1.694-1.4v7.694a2.649,2.649,0,0,0,2.76,2.53h7.841a2.649,2.649,0,0,0,2.76-2.53v-7.694l1.694,1.4a.587.587,0,0,0,.4.146.625.625,0,0,0,.481-.23.593.593,0,0,0-.062-.878Zm-10.642,8.488v-4.391a.616.616,0,0,1,.627-.627h1.673a.616.616,0,0,1,.627.627v4.391Z" transform="translate(-211.641 -118.764)" fill="#fc6a57"/>
  </g>
</svg>
