<svg xmlns="http://www.w3.org/2000/svg" width="19" height="19" viewBox="0 0 19 19">
  <g id="sel_user" transform="translate(-0.103)">
    <rect id="Rectangle_2635" data-name="Rectangle 2635" width="19" height="19" transform="translate(0.102)" fill="none"/>
    <path id="user" d="M17.424,8.687A8.713,8.713,0,1,0,2.826,15.1l-.008.007.284.238c.018.015.038.028.057.043.15.124.306.243.464.357l.155.11q.254.175.52.332l.116.067c.194.111.393.215.6.309l.045.02a8.635,8.635,0,0,0,2.107.667l.058.011c.229.04.461.071.7.093L8,17.366c.234.019.47.032.71.032s.471-.012.7-.031L9.5,17.36q.349-.032.69-.091l.059-.011a8.634,8.634,0,0,0,2.077-.651l.073-.033q.293-.138.574-.3l.139-.08c.17-.1.338-.206.5-.317.059-.04.116-.082.174-.124.139-.1.276-.2.409-.311.029-.024.061-.044.09-.069l.29-.242-.009-.007a8.69,8.69,0,0,0,2.853-6.44Zm-16.792,0a8.079,8.079,0,1,1,13.437,6.039,2.374,2.374,0,0,0-.284-.17L11.1,13.216a.7.7,0,0,1-.39-.631v-.938c.062-.077.129-.163.2-.258a6.456,6.456,0,0,0,.829-1.624A1.15,1.15,0,0,0,12.4,8.724V7.6a1.153,1.153,0,0,0-.281-.75V5.371a2.555,2.555,0,0,0-.6-1.858A3.567,3.567,0,0,0,8.711,2.508a3.567,3.567,0,0,0-2.809,1A2.555,2.555,0,0,0,5.3,5.37V6.848a1.154,1.154,0,0,0-.281.75V8.722a1.152,1.152,0,0,0,.424.894,5.953,5.953,0,0,0,.979,2.024v.917a.707.707,0,0,1-.368.62L3.555,14.543a2.29,2.29,0,0,0-.238.151A8.059,8.059,0,0,1,.632,8.687Z" transform="translate(0.733 1.056)" fill="#fc6a57"/>
  </g>
</svg>
