<svg xmlns="http://www.w3.org/2000/svg" width="96" height="96" viewBox="0 0 96 96">
  <g id="sheet" transform="translate(-10145.442 -15671)">
    <path id="Path_11656" data-name="Path 11656" d="M178.442,96h0a48,48,0,1,1,48-48,48,48,0,0,1-48,48" transform="translate(10015 15671)" fill="#0eb0f8"/>
    <path id="Path_11657" data-name="Path 11657" d="M201.8,25.808a7.479,7.479,0,0,0-5.727-5.645A12.465,12.465,0,0,0,193.744,20H171.959a7.709,7.709,0,0,0-5.844,2.153q-1.506,1.494-9.083,9.111a7.142,7.142,0,0,0-2,3.836,13.232,13.232,0,0,0-.108,2.035q-.014,15.47,0,30.931a10.544,10.544,0,0,0,.163,2.144,7.451,7.451,0,0,0,5.744,5.628,12.51,12.51,0,0,0,2.353.162q15.361-.014,30.723,0a10.69,10.69,0,0,0,2.126-.162,7.423,7.423,0,0,0,5.934-6.948V28.025a11.287,11.287,0,0,0-.162-2.217M173.388,69.523h-9.255a1.809,1.809,0,0,1-1.809-1.81V62.521h11.064Zm0-10.694H162.324V51.818h11.064Zm0-10.7H162.324v-5.2a1.814,1.814,0,0,1,1.809-1.809h9.255ZM194.54,67.713a1.809,1.809,0,0,1-1.809,1.81H176.89v-7h17.65Zm0-8.884H176.89V51.818h17.65Zm0-10.7H176.89V41.116h15.841a1.814,1.814,0,0,1,1.809,1.809Z" transform="translate(10015 15671)" fill="#fff"/>
  </g>
</svg>
