<svg xmlns="http://www.w3.org/2000/svg" xmlns:xlink="http://www.w3.org/1999/xlink" width="901.347" height="695.573" viewBox="0 0 901.347 695.573">
  <defs>
    <linearGradient id="linear-gradient" x1="1.217" y1="-0.037" x2="-0.36" y2="0.658" gradientUnits="objectBoundingBox">
      <stop offset="0" stop-color="#ffec8d"/>
      <stop offset="1" stop-color="#feac09"/>
    </linearGradient>
  </defs>
  <g id="splashlogo" transform="translate(0.327 58.733)">
    <path id="Path_5852" data-name="Path 5852" d="M60.889,57.591q3.623,13.5,12.679,19.1t23.874,5.6a113.186,113.186,0,0,0,21.406-2.306,129.3,129.3,0,0,0,23.382-6.916,105.5,105.5,0,0,1,8.07,20.416,96.688,96.688,0,0,1,3.787,24.7A171.127,171.127,0,0,1,94.15,129.052q-23.711,0-40.671-6.585T25.816,104.189A73.361,73.361,0,0,1,10.009,76.365a116.314,116.314,0,0,1-5.1-35.238A114.964,114.964,0,0,1,10.173,5.886,80.934,80.934,0,0,1,25.982-22.765,74.54,74.54,0,0,1,52.322-42.03q15.807-7.08,36.884-7.08,17.454,0,31.121,5.927a67.757,67.757,0,0,1,23.217,16.3A70.807,70.807,0,0,1,158.2-1.854a95.991,95.991,0,0,1,5.1,31.779,139.391,139.391,0,0,1-.824,15.972q-.824,7.08-1.484,11.691ZM87.234-7.287A26.681,26.681,0,0,0,69.122-.7Q61.547,5.883,60.23,19.716h52.691Q112.262,8.192,105.836.452T87.234-7.287Zm196.6-12.185q13.831,5.6,24.864,11.361A74.589,74.589,0,0,1,327.637,5.722a55.163,55.163,0,0,1,12.185,19.43q4.281,11.361,4.281,27.5A78.026,78.026,0,0,1,338.01,84.1a65.326,65.326,0,0,1-17.948,24.037q-11.856,10.044-29.145,15.478t-39.683,5.434a176.331,176.331,0,0,1-36.06-3.293,225.735,225.735,0,0,1-33.751-10.206,186.747,186.747,0,0,1,4.61-24.534q3.293-13.008,7.9-26.51,30.3,13.17,52.691,13.17,16.8,0,26.181-5.1T282.2,54.953a19.348,19.348,0,0,0-1.98-9.053,19.94,19.94,0,0,0-5.269-6.422,33.186,33.186,0,0,0-7.409-4.446q-4.117-1.811-8.4-3.458L240.7,24.658a118.673,118.673,0,0,1-21.571-10.209,69.079,69.079,0,0,1-16.63-14,58.9,58.9,0,0,1-10.7-18.607q-3.785-10.538-3.785-24.7,0-17.454,5.927-30.956A64.48,64.48,0,0,1,210.566-96.7a71.017,71.017,0,0,1,25.852-14.16,112.554,112.554,0,0,1,33.92-4.775,157.065,157.065,0,0,1,32.438,3.293,267,267,0,0,1,33.426,9.553,168.4,168.4,0,0,1-4.775,23.217A146.442,146.442,0,0,1,322.7-55.693q-8.562-3.623-20.089-7.575T273.96-67.219a49.483,49.483,0,0,0-10.044.988,29.379,29.379,0,0,0-8.562,3.128,16.6,16.6,0,0,0-6.092,5.927,17.754,17.754,0,0,0-2.306,9.386q0,9.553,6.257,14.16a62.936,62.936,0,0,0,14.82,7.9ZM480.441,62.2H431.7v62.571q-8.562,1.317-15.478,1.975t-12.514.658q-5.6,0-12.514-.658t-15.149-1.975V-45.158a111,111,0,0,1,14.326-2.306q7.08-.658,13.667-.658,6.258,0,13.5.658a100.241,100.241,0,0,1,14.16,2.306V12.8H480.44V-45.16a111,111,0,0,1,14.325-2.306q7.08-.658,13.667-.658,6.257,0,13.5.658a100.246,100.246,0,0,1,14.16,2.306V124.771q-8.562,1.317-15.478,1.975T508.1,127.4q-5.6,0-12.514-.658t-15.149-1.975Zm84.305-21.406A117.723,117.723,0,0,1,570.18,4.077a78.069,78.069,0,0,1,16.138-28.486,71.234,71.234,0,0,1,26.509-18.279q15.807-6.422,36.555-6.422,21.076,0,36.884,6.422a71.235,71.235,0,0,1,26.51,18.277A78.067,78.067,0,0,1,728.912,4.077,117.726,117.726,0,0,1,734.346,40.8a113.522,113.522,0,0,1-5.434,36.06,76.833,76.833,0,0,1-16.138,27.992,70.514,70.514,0,0,1-26.509,17.942q-15.807,6.258-36.884,6.258-20.747,0-36.555-6.258a70.512,70.512,0,0,1-26.51-17.948,76.832,76.832,0,0,1-16.137-28,113.518,113.518,0,0,1-5.432-36.056Zm113.286,0q0-21.076-7.08-32.275t-21.57-11.2q-14.49,0-21.406,11.2T621.06,40.8q0,20.747,6.916,31.944t21.406,11.2q14.491,0,21.571-11.2t7.079-31.95Zm139.3,1.975a32.589,32.589,0,0,0,4.117.494q2.47.165,4.116.165,11.526,0,18.936-5.763t7.409-19.594q0-11.856-7.409-18.277T826.227-6.627H822.44a41.165,41.165,0,0,0-5.1.329ZM763-44.5q15.148-2.3,31.12-3.45T824.912-49.1a155.9,155.9,0,0,1,29.639,2.8,73.309,73.309,0,0,1,26.012,10.2A54.927,54.927,0,0,1,899.17-15.681q7.08,13.008,7.08,33.759,0,18.772-6.422,31.615a57.629,57.629,0,0,1-16.96,20.747A67.645,67.645,0,0,1,858.994,81.8a107.823,107.823,0,0,1-27.169,3.458q-5.6,0-9.553-.329a29.007,29.007,0,0,1-4.94-.659v40.506a133.776,133.776,0,0,1-15.313,2.141q-6.751.494-12.02.494-5.6,0-12.02-.494A135.974,135.974,0,0,1,763,124.773Z" transform="translate(-5.23 386.65)" fill="#fff"/>
    <path id="Delivery_Time" data-name="Delivery Time" d="M55.44,1.52c0-19.52-2.8-44.88-2.8-44.88.8-1.52,2.88-7.44,2.88-9.44,0-.32-2.96-.4-3.92-.4-6.8,0-10.64.48-10.88.72-2.08,2.08-9.84,22.8-10.48,24.88-.08.32-.24.48-.4.48-.24,0-.4-.4-.4-.4-1.76-5.44-8.32-24.4-8.96-24.96-.32-.32-5.84-.4-6.8-.4-3.2,0-10,.4-10.4.8a.35.35,0,0,0-.08.24,19.851,19.851,0,0,0,3.12,8.08S3.28-12.24,3.28,2.8a6.967,6.967,0,0,0,2.88.48c1.92,0,6.4-.32,8.08-1.92a116.715,116.715,0,0,1-.4-12.16c0-8.96.4-20.32,1.44-25.6.08-.4.16-.56.24-.56s.24.16.4.48C17.04-35.04,26.24-8.72,26.32-8.4c.16.32,2.32.72,3.52.72,1.12,0,3.12-.32,3.36-.88,0,0,6.32-21.52,10-28.16,0,0,.24-.48.48-.48.08,0,.16.08.24.4.48,2.56,1.12,19.12,1.12,30.88,0,3.84-.08,7.12-.24,9.28-.08.32,1.2.32,2.24.32C51.12,3.68,55.44,2.08,55.44,1.52ZM86-3.04C86.4,1.92,88.08,4,88.4,4,91.76,4,97.28.64,97.28-.32a13.958,13.958,0,0,1-2.16-6.4,49.336,49.336,0,0,1-.32-7.04c0-8.8.64-21.76.64-22.32a5,5,0,0,0-2-.32c-3.6,0-6.64,1.52-7.12,2.32-.24.56-.48,10.08-.48,15.76v2.72c.08.72-2.32,6.08-6.48,6.08C74.8-9.52,74.88-16,74.88-16c-.08-1.44-.16-3.12-.16-4.88,0-5.84.48-12.24.48-12.8-.4-.4-2.24-.4-2.24-.4-4.64,0-6.72,1.68-6.72,1.68-.4.88-.72,9.44-.72,15.6,0,2.32.08,4.32.16,5.36.56,5.92,2.4,13.04,9.6,13.04,3.76,0,8-2.56,10.56-6.48,0,0,.08,0,.08.16Zm30-30c0-6,.24-19.6.4-20.8,0-.16-1.28-.32-2-.32-2.88,0-7.52,1.76-7.52,2.88,0,.88.32,2.88.32,10.96,0,12.72-.32,20.8-.32,28.96,0,3.92,0,7.12.08,8.4.48,4.96,2.16,7.04,2.48,7.04,3.36,0,8.88-3.36,8.88-4.32A12.9,12.9,0,0,1,116-6.64c-.16-1.28-.16-3.76-.16-6.8C115.84-21.04,116-27.04,116-33.04ZM138.88-52.4c0-.16-1.28-.32-2-.32-2.88,0-7.68,1.76-7.68,2.88a59.465,59.465,0,0,1,.48,7.6c-2.48.08-4.24.16-4.24.16-.48.4-.72,2.56-.72,4.4a6.275,6.275,0,0,0,.4,2.8s2-.08,4.48-.08c-.08,3.2-.24,15.28-.24,23.92,0,4,0,7.28.16,8.56.48,4.96,3.04,7.52,3.36,7.52,4,0,8.88-3.28,8.88-4.24A10.777,10.777,0,0,1,138.48-6c-.16-1.68-.24-5.92-.24-11.28s.08-11.92.16-17.84h3.76c.88,0,2.32-3.12,2.32-6.96a34.49,34.49,0,0,0-6-.24C138.64-47.44,138.8-51.36,138.88-52.4Zm23.04,10c0-3.36-2.08-5.36-4.96-5.36s-5.68,2.64-5.68,5.36c0,3.52,1.92,5.44,4.88,5.44,2.88,0,5.76-2.56,5.76-5.44Zm-3.04,10c-4.64,0-6.48,1.44-6.48,1.44-.32.64-.56,12.8-.56,21.04,0,3.28.08,5.92.16,6.96.48,4.96,2.08,7.04,2.4,7.04,3.36,0,8.88-3.36,8.88-4.32a13.076,13.076,0,0,1-2.16-6.4c-.16-1.36-.24-4.56-.24-8.24,0-7.36.24-16.64.24-17.04-.4-.48-2.24-.48-2.24-.48Zm48.8,36.24c2.88,0,8.64-.16,11.84-1.92C221.6-.16,236-40,236-55.12c0-.16-1.2-.32-1.2-.32a64.415,64.415,0,0,0-14.72,2c-.4.32-1.12,3.04-1.12,4.4a1.186,1.186,0,0,0,.08.56c1.84.16,5.04,2.08,5.04,3.36,0,12.64-8.88,34.64-10.24,37.2-.08.4-.56.88-.88.88-.4-.08-.88-1.04-.88-1.04-4.88-9.84-12.08-40.24-12.4-44,0-.24-1.68-.24-1.68-.24-4.48,0-8.32,1.92-8.32,2.16,0,11.52,13.84,50.96,17.04,53.84a2.026,2.026,0,0,0,.96.16Zm55.6-29.28c0,5.36-7.04,10.16-10.4,10.24-.32,0-.32-.24-.32-1.12,0-6.32,3.92-11.44,8.24-11.44a2.258,2.258,0,0,1,1.766.6,2.258,2.258,0,0,1,.714,1.722ZM259.76,1.84c7.76,0,10.48-1.84,10.48-1.84,1.52-1.92,2-5.28,2-7.2,0-.48-.08-1.52-.24-1.52a.279.279,0,0,0-.16.08c-2.48,1.52-6.16,2.16-9.6,2.16-4.16,0-5.84-1.68-5.84-2.16,10.24-3.52,16.24-10.8,16.24-17.6,0-7.12-6.32-8.72-10.08-8.72-12.96,0-19.36,9.52-19.36,19.92C243.2-5.68,248.56,1.84,259.76,1.84ZM283.2-10a90.142,90.142,0,0,1-.56,11.84c0,.24.56.24,1.2.24,2.16,0,6.64-.56,8.24-2.16.24-.24.32-4.48.32-8.88,0-5.04-.08-10.24-.08-10.16,0,0,1.44-5.68,6.64-5.68,4.4,0,4.72,6.08,4.72,13.84a124.9,124.9,0,0,1-.8,13.68,8.638,8.638,0,0,0,2.64.4c3.44,0,6.88-1.2,6.88-1.6,0,0,.24-4.08.24-9.36,0-13.68-.24-26.8-10.24-26.8-6,0-9.84,5.04-9.84,5.04s-.16.16-.24.16c-.16,0-.24-.32-.24-1.6,0-1.52.16-3.52.24-4.16,0-.24-.96-.4-1.68-.4-2.88,0-6.16,1.12-7.28,2.24-.32.32-.4,2.32-.4,5.36C282.96-23.28,283.2-16.32,283.2-10Zm70.08-43.84c0-.16-1.28-.32-2-.32a12.506,12.506,0,0,0-7.36,2.8,27.545,27.545,0,0,0-.24,5.2c0,4.64.16,10.96.16,11.84-14.64.48-21.6,10.8-21.6,22.08,0,6.4,4,13.76,11.6,13.76a11.911,11.911,0,0,0,10-4.8s.16-.16.24-.16.16,0,.16.24c.32,3.76,2.24,6.08,2.56,6.08,3.36,0,8.96-3.28,8.96-4.24a11.675,11.675,0,0,1-2.64-6.4c-.4-2.4-.48-10.08-.48-16.16,0-8,.32-23.28.64-29.92Zm-9.52,39.68c0,.96-1.76,6.4-6.4,6.4-3.84,0-5.52-3.04-5.52-6.72,0-6.4,3.84-11.6,10.96-11.6,0,0,1.28,0,1.2.16-.16,1.92-.24,10.56-.24,11.76Zm38,16.24c11.12,0,17.12-9.2,17.12-18.72,0-11.28-8.32-14-9.12-14.08A21.639,21.639,0,0,0,390-33.6a2.66,2.66,0,0,0-.16-1.12c-.48-.48-4.32-.64-4.32-.64-13.28,0-20.56,10.24-20.56,20,0,10,6.08,17.44,16.8,17.44Zm7.92-18c0,7.12-4.16,9.92-7.92,9.92-7.68,0-7.68-8.8-7.68-9.6,0-7.68,5.12-11.2,8.96-11.2a12.831,12.831,0,0,0-.24,2.32,2.78,2.78,0,0,0,.16,1.04h.64c1.68,0,6.08.64,6.08,7.52Zm41.68-15.76a6.186,6.186,0,0,0-.64-3.04c-7.44,0-11.92,6.4-11.92,6.4-.16.16-.24.16-.32.16-.16,0-.16-1.68-.16-1.84,0-2.08.16-5.12.24-5.84,0-.24-.96-.4-1.68-.4-2.88,0-6.16,1.12-7.28,2.24-.24.24-.32,2.16-.32,5.04,0,4.64.16,11.76.16,18.16a88.1,88.1,0,0,1-.56,12.64c0,.24.32.24.64.24,2.08,0,6.88-.32,8.8-2.16.24-.24.24-5.28.24-9.84v-7.04a10.314,10.314,0,0,1,10.32-7.6,8.4,8.4,0,0,1,1.04.16s1.44-1.92,1.44-7.28Z" transform="translate(234.85 631.8)" fill="#fff"/>
    <path id="Path_6381" data-name="Path 6381" d="M946.477,1151.9h.008l-.008.016Z" transform="translate(-280.596 -893.284)" fill="url(#linear-gradient)"/>
    <path id="Path_6382" data-name="Path 6382" d="M885,392V667.909a8.263,8.263,0,0,1-8.263,8.263H833.8l-13.819,24.862V549.745h0V434.9l-.037.025-78.52,51.187h0l-31.629-20.623-2.19-1.417-29.5-19.231-15.315-9.985v165.19l47,28.155V521.586h0L741.412,542.2h0l31.563-20.578v154.55H600.82a8.266,8.266,0,0,1-8.263-8.263V392a8.263,8.263,0,0,1,8.263-8.263H876.733A8.26,8.26,0,0,1,885,392Z" transform="translate(-72.89 -442.47)" fill="#fff"/>
    <path id="Path_6383" data-name="Path 6383" d="M946.48,1151.77v.074l-.033-.016Z" transform="translate(-280.578 -893.208)" fill="#fff"/>
  </g>
</svg>
