<svg xmlns="http://www.w3.org/2000/svg" width="58" height="28" viewBox="0 0 58 28">
  <g id="ssl" transform="translate(3.45 -0.39)">
    <rect id="Rectangle_72" data-name="Rectangle 72" width="58" height="28" rx="3" transform="translate(-3.45 0.39)" fill="none"/>
    <g id="ssl-2" data-name="ssl" transform="translate(681.162 -363.639)">
      <rect id="Rectangle_6" data-name="Rectangle 6" width="20" height="20" rx="3" transform="translate(-665.612 368.029)" fill="#2b5da8"/>
      <path id="Path_139" data-name="Path 139" d="M-553.541,461.46l1.5,1.436c-.312.024-.566.047-.82.062q-2.071.123-4.143.243c-.26.015-.521.02-.779.049-.2.022-.245-.057-.241-.241q.027-1.46.037-2.92c.006-.83,0-1.66.008-2.49,0-.086.012-.173.024-.326l1.542,1.458,1.649-1.736h-5.974a1.043,1.043,0,0,1-1.214-.976,3.048,3.048,0,0,1,.008-1.346.946.946,0,0,1,.987-.788c.288-.006.576,0,.864,0h10.063a1.684,1.684,0,0,1,1.635,1.255,1.378,1.378,0,0,1-.361,1.378c-1.552,1.58-3.087,3.176-4.629,4.767C-553.435,461.336-553.482,461.393-553.541,461.46Z" transform="translate(-99.978 -82.827)" fill="#fff"/>
      <path id="Path_140" data-name="Path 140" d="M-584.832,626.9v2.829l2.714-.134-1.022.992.064.086a1.4,1.4,0,0,0,.145.015q3.426,0,6.852,0a2.231,2.231,0,0,1,.49.033.886.886,0,0,1,.779.877,7.413,7.413,0,0,1-.015,1.291.975.975,0,0,1-1.02.9c-.1.006-.192.006-.288.006h-11.688a1.571,1.571,0,0,1-1.638-1.436,1.345,1.345,0,0,1,.44-1.127q.773-.8,1.541-1.6l2.5-2.593C-584.946,627-584.906,626.967-584.832,626.9Z" transform="translate(-73.659 -248.72)" fill="#fff"/>
    </g>
  </g>
</svg>
