<svg xmlns="http://www.w3.org/2000/svg" width="96" height="96" viewBox="0 0 96 96">
  <g id="video" transform="translate(-10015 -15671)">
    <path id="Path_11654" data-name="Path 11654" d="M48,96h0A48,48,0,1,1,96,48,48,48,0,0,1,48,96" transform="translate(10015 15671)" fill="#fdbe17"/>
    <path id="Path_11655" data-name="Path 11655" d="M47.766,21.172h.524A26.856,26.856,0,0,1,74.805,46.494v3.04A26.838,26.838,0,1,1,47.766,21.172m-4.519,14a2.775,2.775,0,0,0-4.162,2.4V58.44a2.776,2.776,0,0,0,4.162,2.4L61.318,50.41a2.776,2.776,0,0,0,0-4.805Z" transform="translate(10015 15671)" fill="#fff"/>
  </g>
</svg>
