<svg xmlns="http://www.w3.org/2000/svg" width="24" height="24" viewBox="0 0 24 24">
  <g id="mic_icon" transform="translate(-2240 -254)">
    <g id="Group_156" data-name="Group 156" transform="translate(1411.264 -82.105)">
      <path id="Path_1192" data-name="Path 1192" d="M837.682,536.864a.96.96,0,0,1-.617-.764.916.916,0,0,1,.96-1.019c.366-.01.733-.008,1.1,0,.171,0,.234-.058.232-.232q-.011-.854,0-1.709c0-.164-.054-.224-.222-.253a7.44,7.44,0,0,1-5.773-4.439,7.818,7.818,0,0,1-.607-3.8.852.852,0,0,1,.8-.775.886.886,0,0,1,.95.691,3.786,3.786,0,0,1,.038.817,5.515,5.515,0,0,0,1.165,3.529,5.588,5.588,0,0,0,4.125,2.238,5.7,5.7,0,0,0,5.608-3.294,5.63,5.63,0,0,0,.522-2.5,3.522,3.522,0,0,1,.037-.793.886.886,0,0,1,.951-.691.851.851,0,0,1,.8.775,7.838,7.838,0,0,1-.737,4.072,7.437,7.437,0,0,1-5.62,4.161c-.188.033-.249.1-.246.28.009.554.01,1.108,0,1.662,0,.194.063.261.256.256q.55-.016,1.1,0a.906.906,0,0,1,.873.56.875.875,0,0,1-.138.924,1.4,1.4,0,0,1-.415.3Z" transform="translate(0 -176.759)"/>
      <path id="Path_1193" data-name="Path 1193" d="M897.341,344.491c0,1.357,0,2.714,0,4.071a4.222,4.222,0,0,1-8.406.592,5.084,5.084,0,0,1-.043-.582c0-2.745-.008-5.49,0-8.236a4.223,4.223,0,0,1,8.41-.546,9.72,9.72,0,0,1,.038,1.167C897.344,342.136,897.341,343.314,897.341,344.491Zm-1.8-.025c0-1.357,0-2.715,0-4.072a2.5,2.5,0,0,0-.358-1.313,2.416,2.416,0,0,0-4.483,1.151q-.014,4.225,0,8.449a2.419,2.419,0,0,0,4.837-.119C895.539,347.2,895.537,345.832,895.537,344.467Z" transform="translate(-52.857 0)"/>
    </g>
    <rect id="Rectangle_27" data-name="Rectangle 27" width="24" height="24" transform="translate(2240 254)" fill="none"/>
  </g>
</svg>
