<svg xmlns="http://www.w3.org/2000/svg" width="46.797" height="50" viewBox="0 0 46.797 50">
  <g id="warranty" transform="translate(-766.396 -1753.704)">
    <path id="Path_6422" data-name="Path 6422" d="M866.416,1878.943a2.6,2.6,0,0,1,1.945.846q1.237,1.265,2.475,2.528c.705.718,1.115.713,1.832-.018q3.86-3.939,7.719-7.878a2.606,2.606,0,0,1,4.055,0q.348.35.691.707a2.7,2.7,0,0,1,0,4.093q-3.147,3.217-6.3,6.429-2.512,2.564-5.025,5.128a2.615,2.615,0,0,1-4.126,0q-3.025-3.082-6.044-6.169a2.671,2.671,0,0,1-.008-3.975c.314-.323.627-.649.951-.962A2.505,2.505,0,0,1,866.416,1878.943Zm.013,1.547a5.191,5.191,0,0,0-.744.433,10.2,10.2,0,0,0-.768.774c-.674.7-.684,1.138-.018,1.82q3,3.069,6,6.13c.606.617,1.069.616,1.682,0q1.735-1.758,3.46-3.526,3.929-4.012,7.857-8.026c.686-.7.681-1.15-.013-1.858l-.583-.593c-.693-.7-1.092-.7-1.785.005l-7.681,7.834a2.672,2.672,0,0,1-4.18.017c-.813-.829-1.615-1.67-2.443-2.484A5,5,0,0,0,866.429,1880.49Z" transform="translate(-82.961 -103.104)"/>
    <path id="Path_6423" data-name="Path 6423" d="M915.067,1770.994a40.34,40.34,0,0,1-3.215,15.645q-.465,1.048-1.213.728c-.507-.217-.607-.685-.324-1.378.359-.882.731-1.76,1.039-2.659a37.845,37.845,0,0,0,1.879-14.344c-.065-1.262-.219-2.52-.347-3.778-.079-.772-.249-.946-1.01-1.083a44.682,44.682,0,0,1-14.036-4.967c-1.855-1.039-3.61-2.257-5.395-3.419-.741-.483-.828-.488-1.566,0-1.588,1.052-3.193,2.078-4.794,3.11a.825.825,0,0,1-1.1-.054.742.742,0,0,1-.172-.948,1.3,1.3,0,0,1,.436-.425c1.648-1.086,3.307-2.156,4.954-3.246a2.452,2.452,0,0,1,3,.078,47.016,47.016,0,0,0,8.214,4.862,46.33,46.33,0,0,0,10.926,3.416,2.436,2.436,0,0,1,2.175,2.3C914.736,1766.884,914.888,1768.941,915.067,1770.994Z" transform="translate(-101.874)"/>
    <path id="Path_6424" data-name="Path 6424" d="M805.2,1782.407a.847.847,0,0,1-.749-.747c-.15-.729-.322-1.453-.458-2.184a4.806,4.806,0,0,0-4.21-4.132c-.663-.125-1.318-.29-1.982-.409-.487-.087-.805-.319-.835-.833-.027-.456.281-.734.858-.864.961-.217,1.924-.43,2.876-.685a4.05,4.05,0,0,0,3.044-3.032c.26-.968.48-1.948.691-2.928.1-.482.333-.817.847-.818s.741.333.851.814c.25,1.095.493,2.194.816,3.269a3.677,3.677,0,0,0,2.574,2.568c.941.285,1.9.518,2.862.726.881.191,1.226.424,1.218.948s-.344.734-1.242.927c-.962.207-1.922.44-2.862.729a3.657,3.657,0,0,0-2.542,2.535c-.33,1.09-.565,2.209-.833,3.318A.884.884,0,0,1,805.2,1782.407Zm3.948-8.323a5.749,5.749,0,0,1-3.872-3.829,3.837,3.837,0,0,0,.006,7.674A5.756,5.756,0,0,1,809.15,1774.083Z" transform="translate(-26.322 -10.393)"/>
    <path id="Path_6425" data-name="Path 6425" d="M990.867,1998.01a.87.87,0,0,1-.764-.788c-.192-.914-.4-1.826-.62-2.732a4.267,4.267,0,0,0-3.33-3.338c-.89-.219-1.783-.428-2.68-.611-.481-.1-.809-.312-.844-.827-.031-.457.278-.743.848-.872.978-.222,1.958-.437,2.925-.7a4.022,4.022,0,0,0,2.985-2.96c.237-.848.441-1.708.621-2.57.19-.913.4-1.234.924-1.242s.75.331.946,1.219c.216.978.445,1.957.742,2.912a3.641,3.641,0,0,0,2.5,2.508c1.072.329,2.173.564,3.265.827.586.141.876.407.875.857s-.291.713-.879.854c-1.092.263-2.193.5-3.265.827a3.6,3.6,0,0,0-2.483,2.461c-.343,1.1-.579,2.241-.85,3.367C991.659,1997.728,991.367,1998.019,990.867,1998.01Zm3.931-8.325a5.743,5.743,0,0,1-3.854-3.835,3.838,3.838,0,1,0,.008,7.676A5.745,5.745,0,0,1,994.8,1989.685Z" transform="translate(-186.178 -196.023)"/>
    <path id="Path_6426" data-name="Path 6426" d="M803.462,1855.873c0-.9-.018-1.8.011-2.7a1.744,1.744,0,0,1,.246-.783.735.735,0,0,1,.937-.35.8.8,0,0,1,.58.879c-.058,1.155-.2,2.312-.164,3.463a29.93,29.93,0,0,0,2.813,12.318,23.1,23.1,0,0,0,13.349,11.956,1.454,1.454,0,0,0,.938-.016c.92-.351,1.819-.761,2.718-1.163.611-.273,1.062-.185,1.3.286s.052.93-.552,1.2c-.992.45-2,.862-3,1.289a2.492,2.492,0,0,1-1.921-.007,24.99,24.99,0,0,1-15.855-16.749A31.788,31.788,0,0,1,803.462,1855.873Z" transform="translate(-31.91 -84.625)"/>
    <path id="Path_6427" data-name="Path 6427" d="M766.4,1838.553c.136-1.8.254-3.6.424-5.389a1.4,1.4,0,0,1,.446-.87.832.832,0,0,1,.8-.009,1.114,1.114,0,0,1,.4.813c-.048,1.159-.219,2.313-.267,3.473-.29,6.954.831,13.6,4.315,19.736.18.316.376.623.556.939a.837.837,0,1,1-1.422.851,31.788,31.788,0,0,1-3.5-7.742A43.666,43.666,0,0,1,766.4,1838.553Z" transform="translate(0 -67.576)"/>
    <path id="Path_6428" data-name="Path 6428" d="M855.033,2063.413c-.48-.128-.986-.24-1.479-.4A30.849,30.849,0,0,1,842.728,2057a2.807,2.807,0,0,1-.306-.282.809.809,0,0,1-.006-1.09.768.768,0,0,1,1.078-.136c.369.256.7.569,1.049.852a28.576,28.576,0,0,0,10.122,5.25,1.789,1.789,0,0,0,.951-.042,29.2,29.2,0,0,0,8.13-3.865c.73-.5,1.221-.492,1.53,0,.3.473.108.9-.6,1.379a31,31,0,0,1-8.7,4.114C855.683,2063.272,855.378,2063.331,855.033,2063.413Z" transform="translate(-65.276 -259.71)"/>
    <path id="Path_6429" data-name="Path 6429" d="M1044.506,1852.346a34.253,34.253,0,0,1-1.844,10.7c-.214.628-.608.88-1.115.721-.486-.153-.669-.619-.458-1.242a34.1,34.1,0,0,0,1.776-12.214,1.793,1.793,0,0,0-.44-1.283.744.744,0,0,1,.039-1.079.806.806,0,0,1,1.127-.055,2.406,2.406,0,0,1,.864,1.552,3.217,3.217,0,0,1,.049.412C1044.508,1850.683,1044.506,1851.515,1044.506,1852.346Z" transform="translate(-236.441 -80.919)"/>
    <path id="Path_6430" data-name="Path 6430" d="M925.775,1795.157a6.923,6.923,0,0,1,1.27.5,52.471,52.471,0,0,0,7.044,3.745c.595.258.811.715.6,1.189a.856.856,0,0,1-1.289.323q-3.489-1.823-6.954-3.693a1.452,1.452,0,0,0-1.21-.251.776.776,0,0,1-.971-.563.794.794,0,0,1,.516-1A9.379,9.379,0,0,1,925.775,1795.157Z" transform="translate(-135.892 -35.692)"/>
    <path id="Path_6431" data-name="Path 6431" d="M1015.168,1835.849a14.617,14.617,0,0,1,1.605.613.705.705,0,0,1,.261.961.736.736,0,0,1-.875.489,8.636,8.636,0,0,1-1.518-.511.731.731,0,0,1-.41-.912C1014.336,1836.09,1014.614,1835.89,1015.168,1835.849Z" transform="translate(-213.363 -70.729)"/>
    <path id="Path_6432" data-name="Path 6432" d="M820.573,2033.911a2.877,2.877,0,0,1-.654-.349,8.414,8.414,0,0,1-.843-.98.812.812,0,0,1,.121-1.119.824.824,0,0,1,1.126.056,4.953,4.953,0,0,1,.823.993,1.134,1.134,0,0,1,.061.858C821.12,2033.592,820.8,2033.726,820.573,2033.911Z" transform="translate(-45.212 -238.987)"/>
  </g>
</svg>
