<svg xmlns="http://www.w3.org/2000/svg" width="96" height="96" viewBox="0 0 96 96">
  <g id="zip" transform="translate(-10257.963 -15671)">
    <path id="Path_11658" data-name="Path 11658" d="M290.963,96h0a48,48,0,1,1,48-48,48,48,0,0,1-48,48" transform="translate(10015 15671)" fill="#783fda"/>
    <path id="Path_11659" data-name="Path 11659" d="M281.293,20h18.894a1.042,1.042,0,0,1,.479.226L316.937,36.5a.745.745,0,0,1,.224.543V67.416a14.267,14.267,0,0,1-.116,2.179,7.8,7.8,0,0,1-7.273,6.4H281.334a7.809,7.809,0,0,1-7.26-6.4,14.179,14.179,0,0,1-.116-2.181q0-2.885,0-5.77a.054.054,0,0,0-.054-.054q-3.187,0-6.4,0a2.454,2.454,0,0,1-2.742-2.67q.011-6.565,0-13.129c0-1.829,1.033-2.688,2.8-2.685q3.154,0,6.31,0a.08.08,0,0,0,.08-.079q0-7.185,0-14.385a15.073,15.073,0,0,1,.109-2.181A7.806,7.806,0,0,1,281.293,20m17.91,1.836a.084.084,0,0,0-.083-.085q-8.354,0-16.7,0a10.753,10.753,0,0,0-1.914.121,6.021,6.021,0,0,0-4.644,4.564,10.3,10.3,0,0,0-.153,2.065q0,7.284,0,14.549a.054.054,0,0,0,.054.054h28.354c1.74,0,2.764.854,2.775,2.651q.041,6.582-.01,13.168A2.434,2.434,0,0,1,304.2,61.59q-14.213,0-28.43,0a.056.056,0,0,0-.056.055q-.012,2.994,0,5.988a10.067,10.067,0,0,0,.133,1.888,6.021,6.021,0,0,0,4.634,4.587,11.818,11.818,0,0,0,2.177.142h25.954a10.454,10.454,0,0,0,2.1-.154,6,6,0,0,0,4.706-5.779q0-15.14,0-30.271a.08.08,0,0,0-.081-.08H302.206a2.666,2.666,0,0,1-2.85-1.788,5.316,5.316,0,0,1-.16-1.53q0-6.391.007-12.812m-18.745,26.69c.041,0,.051.018.03.053q-2.322,3.864-4.628,7.7a1.743,1.743,0,0,0-.283.72c-.043.651.473.9,1.065.9q2.588,0,5.174,0a1.463,1.463,0,0,0,.755-.153.893.893,0,0,0-.025-1.445,1.288,1.288,0,0,0-.632-.135q-1.914-.038-3.84-.006c-.067,0-.083-.027-.048-.083q2.285-3.819,4.577-7.623c.609-1.009.326-1.685-.9-1.684q-2.467,0-4.934,0a1.708,1.708,0,0,0-.786.134.866.866,0,0,0,.07,1.522,1.54,1.54,0,0,0,.635.094q1.9,0,3.768.006m6.4-.889a.858.858,0,0,0-.859-.856h-.033a.857.857,0,0,0-.856.859l.016,9.4a.858.858,0,0,0,.859.856h.033a.857.857,0,0,0,.856-.859Zm3.682,6.659q1.732,0,2.206-.036a3.755,3.755,0,0,0-.408-7.488q-1.274-.006-2.547,0c-.787.005-1.063.332-1.063,1.13q0,4.522,0,9.044a.867.867,0,0,0,1.67.4,2.335,2.335,0,0,0,.077-.728q0-1.132.009-2.269a.055.055,0,0,1,.056-.055" transform="translate(10015 15671)" fill="#fff"/>
    <path id="Path_11660" data-name="Path 11660" d="M292.386,48.517a1.983,1.983,0,0,1,1.882,2.572c-.513,1.754-2.368,1.483-3.749,1.443a.047.047,0,0,1-.046-.048v-3.91a.054.054,0,0,1,.057-.05q.933-.01,1.856-.007" transform="translate(10015 15671)" fill="#fff"/>
  </g>
</svg>
